<svg xmlns="http://www.w3.org/2000/svg" width="40" height="8000" viewBox="0 0 40 8000">
  <g fill="none" fill-rule="evenodd">
    <path fill="#055DAB" fill-rule="nonzero" d="M39.38,20.02 C38.2066667,17.3533333 35.8866667,14.4 32.42,11.16 C29.1266667,7.99999997 24.9866667,6.19999997 20,5.75999996 C15.0133333,6.19999997 10.8733333,7.99999997 7.57999997,11.16 C4.11333329,14.4 1.78666662,17.3533333 0.599999951,20.02 C1.78666662,22.66 4.11333329,25.6 7.57999997,28.84 C10.8733333,32 15.0133333,33.8066667 20,34.26 C24.9866667,33.8066667 29.1266667,32 32.42,28.84 C35.8866667,25.6 38.2066667,22.66 39.38,20.02 Z M28.28,20.02 C28.28,20.5866667 28.2333334,21.1333333 28.14,21.66 C27.83,23.2366667 27.07,24.63 25.86,25.84 C24.2333333,27.48 22.28,28.3 20,28.3 C17.7066667,28.3 15.7466667,27.48 14.12,25.84 C12.92,24.63 12.1666666,23.2366667 11.86,21.66 C11.7666666,21.1333333 11.72,20.5866667 11.72,20.02 C11.72,19.4433333 11.7666666,18.8833333 11.86,18.34 C12.1666666,16.75 12.92,15.35 14.12,14.14 C15.7466667,12.5266666 17.7066667,11.72 20,11.72 C22.28,11.72 24.2333333,12.5266666 25.86,14.14 C27.07,15.35 27.83,16.75 28.14,18.34 C28.2333334,18.8833333 28.28,19.4433333 28.28,20.02 Z M22.46,22.46 C23.1266667,21.7933333 23.46,20.98 23.46,20.02 C23.46,19.0466667 23.1266667,18.22 22.46,17.54 C21.7933333,16.86 20.9733333,16.52 20,16.52 C19.0266667,16.52 18.2133333,16.86 17.56,17.54 C16.88,18.22 16.54,19.0466667 16.54,20.02 C16.54,20.98 16.88,21.7933333 17.56,22.46 C18.2133333,23.14 19.0266667,23.48 20,23.48 C20.9733333,23.48 21.7933333,23.14 22.46,22.46 Z" transform="translate(0 7860)"/>
    <path fill="#0081CB" fill-rule="nonzero" d="M39.3800001,16.02 C38.2066668,13.3533334 35.8866668,10.4 32.4200001,7.16000002 C29.1266667,4.00000001 24.9866667,2.20000001 20,1.76 C15.0133334,2.20000001 10.8733334,4.00000001 7.58000002,7.16000002 C4.11333334,10.4 1.78666667,13.3533334 0.600000001,16.02 C1.78666667,18.66 4.11333334,21.6000001 7.58000002,24.8400001 C10.8733334,28.0000001 15.0133334,29.8066667 20,30.2600001 C24.9866667,29.8066667 29.1266667,28.0000001 32.4200001,24.8400001 C35.8866668,21.6000001 38.2066668,18.66 39.3800001,16.02 Z M28.2800001,16.02 C28.2800001,16.5866667 28.2333334,17.1333334 28.1400001,17.66 C27.8300001,19.2366667 27.0700001,20.6300001 25.8600001,21.8400001 C24.2333334,23.4800001 22.2800001,24.3000001 20,24.3000001 C17.7066667,24.3000001 15.7466667,23.4800001 14.12,21.8400001 C12.92,20.6300001 12.1666667,19.2366667 11.86,17.66 C11.7666667,17.1333334 11.72,16.5866667 11.72,16.02 C11.72,15.4433334 11.7666667,14.8833334 11.86,14.34 C12.1666667,12.75 12.92,11.35 14.12,10.14 C15.7466667,8.52666669 17.7066667,7.72000002 20,7.72000002 C22.2800001,7.72000002 24.2333334,8.52666669 25.8600001,10.14 C27.0700001,11.35 27.8300001,12.75 28.1400001,14.34 C28.2333334,14.8833334 28.2800001,15.4433334 28.2800001,16.02 Z M22.4600001,18.46 C23.1266667,17.7933334 23.4600001,16.98 23.4600001,16.02 C23.4600001,15.0466667 23.1266667,14.22 22.4600001,13.54 C21.7933334,12.86 20.9733334,12.52 20.0000001,12.52 C19.0266667,12.52 18.2133334,12.86 17.56,13.54 C16.88,14.22 16.54,15.0466667 16.54,16.02 C16.54,16.98 16.88,17.7933334 17.56,18.46 C18.2133334,19.14 19.0266667,19.48 20.0000001,19.48 C20.9733334,19.48 21.7933334,19.14 22.4600001,18.46 Z" transform="translate(0 7804)"/>
    <path fill="#FFF" d="M22,26 L22,34 L18,34 L18,26 L13.3431458,26 L20,18.3431458 L26.6568542,26 L22,26 Z M2,6 L38,6 L38,10 L2,10 L2,6 Z M2,12 L38,12 L38,16 L2,16 L2,12 Z" transform="matrix(1 0 0 -1 0 7780)"/>
    <path fill="#686868" d="M22,26 L22,34 L18,34 L18,26 L13.3431458,26 L20,18.3431458 L26.6568542,26 L22,26 Z M2,6 L38,6 L38,10 L2,10 L2,6 Z M2,12 L38,12 L38,16 L2,16 L2,12 Z" transform="matrix(1 0 0 -1 0 7720)"/>
    <path fill="#FFF" d="M22,31.0257053 L22,34.0152821 L18,34.0152821 L18,31.0311505 L15.1715729,31.0350008 L20.0065729,26.2000008 L24.8284271,31.021855 L22,31.0257053 Z M18,8.98413166 L18,6 L22,6 L22,8.98957681 L24.8284271,8.99342712 L20.0065729,13.8152814 L15.1715729,8.98028135 L18,8.98413166 Z M2,15 L38,15 L38,19 L2,19 L2,15 Z M2,25 L2,21 L38,21 L38,25 L2,25 Z" transform="translate(0 7620)"/>
    <path fill="#686868" d="M22,31.0257053 L22,34.0152821 L18,34.0152821 L18,31.0311505 L15.1715729,31.0350008 L20.0065729,26.2000008 L24.8284271,31.021855 L22,31.0257053 Z M18,8.98413166 L18,6 L22,6 L22,8.98957681 L24.8284271,8.99342712 L20.0065729,13.8152814 L15.1715729,8.98028135 L18,8.98413166 Z M2,15 L38,15 L38,19 L2,19 L2,15 Z M2,25 L2,21 L38,21 L38,25 L2,25 Z" transform="translate(0 7560)"/>
    <path fill="#FFF" d="M22,26 L22,34 L18,34 L18,26 L13.3431458,26 L20,18.3431458 L26.6568542,26 L22,26 Z M2,6 L38,6 L38,10 L2,10 L2,6 Z M2,12 L38,12 L38,16 L2,16 L2,12 Z" transform="translate(0 7500)"/>
    <path fill="#686868" d="M22,26 L22,34 L18,34 L18,26 L13.3431458,26 L20,18.3431458 L26.6568542,26 L22,26 Z M2,6 L38,6 L38,10 L2,10 L2,6 Z M2,12 L38,12 L38,16 L2,16 L2,12 Z" transform="translate(0 7440)"/>
    <path fill="#FFF" d="M14,6 L38,6 L38,10 L14,10 L14,6 Z M4,12 L38,12 L38,16 L4,16 L4,12 Z M10,18 L38,18 L38,22 L10,22 L10,18 Z M2,24 L38,24 L38,28 L2,28 L2,24 Z M18,30 L38,30 L38,34 L18,34 L18,30 Z" transform="translate(0 7380)"/>
    <path fill="#686868" d="M14,6 L38,6 L38,10 L14,10 L14,6 Z M4,12 L38,12 L38,16 L4,16 L4,12 Z M10,18 L38,18 L38,22 L10,22 L10,18 Z M2,24 L38,24 L38,28 L2,28 L2,24 Z M18,30 L38,30 L38,34 L18,34 L18,30 Z" transform="translate(0 7320)"/>
    <path fill="#FFF" d="M8,6 L32,6 L32,10 L8,10 L8,6 Z M3,12 L37,12 L37,16 L3,16 L3,12 Z M6,18 L34,18 L34,22 L6,22 L6,18 Z M2,24 L38,24 L38,28 L2,28 L2,24 Z M10,30 L30,30 L30,34 L10,34 L10,30 Z" transform="translate(0 7260)"/>
    <path fill="#686868" d="M8,6 L32,6 L32,10 L8,10 L8,6 Z M3,12 L37,12 L37,16 L3,16 L3,12 Z M6,18 L34,18 L34,22 L6,22 L6,18 Z M2,24 L38,24 L38,28 L2,28 L2,24 Z M10,30 L30,30 L30,34 L10,34 L10,30 Z" transform="translate(0 7200)"/>
    <path fill="#FFF" d="M2,6 L26,6 L26,10 L2,10 L2,6 Z M2,12 L36,12 L36,16 L2,16 L2,12 Z M2,18 L30,18 L30,22 L2,22 L2,18 Z M2,24 L38,24 L38,28 L2,28 L2,24 Z M2,30 L22,30 L22,34 L2,34 L2,30 Z" transform="translate(0 7140)"/>
    <path fill="#686868" d="M2,6 L26,6 L26,10 L2,10 L2,6 Z M2,12 L36,12 L36,16 L2,16 L2,12 Z M2,18 L30,18 L30,22 L2,22 L2,18 Z M2,24 L38,24 L38,28 L2,28 L2,24 Z M2,30 L22,30 L22,34 L2,34 L2,30 Z" transform="translate(0 7080)"/>
    <path fill="#FFF" fill-rule="nonzero" d="M1.00000002,4.99994712e-09 L11.049,4.99994712e-09 L11.049,2.71900001 L8.87900004,2.89100001 L8.38300004,3.38800001 L8.38300004,14.684 C8.38300004,17.029 8.82700004,18.7040001 9.71600004,19.7100001 C10.605,20.7160001 12.063,21.2200001 14.0910001,21.2200001 C15.9600001,21.2200001 17.3120001,20.6850001 18.1500001,19.6160001 C18.9880001,18.5470001 19.4060001,16.794 19.4060001,14.358 L19.4060001,3.52500001 L18.8760001,2.92500001 L16.6370001,2.71900001 L16.6370001,4.99994757e-09 L24.5840001,4.99994712e-09 L24.5840001,2.71900001 L22.4480001,2.92500001 L21.9690001,3.52500001 L21.9690001,14.718 C21.9690001,17.977 21.2400001,20.3390001 19.7810001,21.8030001 C18.3220001,23.2670001 15.9700001,23.9990001 12.723,23.9990001 C11.025,23.9990001 9.53600004,23.7500001 8.25400004,23.2530001 C6.97200003,22.7560001 5.96700003,22.0440001 5.23800003,21.1170001 C4.68000003,20.3850001 4.28400003,19.5470001 4.05000003,18.6040001 C3.81600003,17.661 3.70000003,16.308 3.70000003,14.547 L3.70000003,3.38800001 L3.20400003,2.89100001 L0.99900002,2.71900001 L0.99900002,4.99994712e-09 L1.00000002,4.99994712e-09 Z M1.00000002,26.2500001 L25.5,26.2500001 L25.5000001,28.0000001 L1.00000002,28.0000001 L1.00000002,26.2500001 Z" transform="translate(7 7026)"/>
    <path fill="#686868" fill-rule="nonzero" d="M8.00000002,2 L18.049,2 L18.049,4.71900001 L15.879,4.89100001 L15.383,5.38800001 L15.383,16.684 C15.383,19.029 15.827,20.7040001 16.716,21.7100001 C17.605,22.7160001 19.063,23.2200001 21.0910001,23.2200001 C22.9600001,23.2200001 24.3120001,22.6850001 25.1500001,21.6160001 C25.9880001,20.5470001 26.4060001,18.794 26.4060001,16.358 L26.4060001,5.52500001 L25.8760001,4.92500001 L23.6370001,4.71900001 L23.6370001,2.00000001 L31.5840001,2 L31.5840001,4.71900001 L29.4480001,4.92500001 L28.9690001,5.52500001 L28.9690001,16.718 C28.9690001,19.977 28.2400001,22.3390001 26.7810001,23.8030001 C25.3220001,25.2670001 22.9700001,25.9990001 19.723,25.9990001 C18.025,25.9990001 16.536,25.7500001 15.254,25.2530001 C13.972,24.7560001 12.967,24.0440001 12.238,23.1170001 C11.68,22.3850001 11.284,21.5470001 11.05,20.6040001 C10.816,19.661 10.7,18.308 10.7,16.547 L10.7,5.38800001 L10.204,4.89100001 L7.99900002,4.71900001 L7.99900002,2 L8.00000002,2 Z M8.00000002,28.2500001 L32.5,28.2500001 L32.5000001,30.0000001 L8.00000002,30.0000001 L8.00000002,28.2500001 Z" transform="translate(0 6964)"/>
    <polygon fill="#FFF" fill-rule="nonzero" points="17.339 2.16 16.63 2.751 8.872 25.208 9.229 25.779 11.634 25.962 11.274 28 .646 28 1.006 25.962 3.519 25.738 4.195 25.127 11.939 2.751 11.659 2.16 9.251 1.997 9.604 0 20.196 0 19.843 1.997" transform="translate(9 6906)"/>
    <polygon fill="#686868" fill-rule="nonzero" points="26.339 4.16 25.63 4.751 17.872 27.208 18.229 27.779 20.634 27.962 20.274 30 9.646 30 10.006 27.962 12.519 27.738 13.195 27.127 20.939 4.751 20.659 4.16 18.251 3.997 18.604 2 29.196 2 28.843 3.997" transform="translate(0 6844)"/>
    <path fill="#FFF" fill-rule="nonzero" d="M8.55900004,25.6160001 L8.70200004,25.6360001 C9.54400004,25.6770001 10.169,25.6970001 10.577,25.6970001 C13.0220001,25.6970001 14.8020001,25.2520001 15.9160001,24.3620001 C17.0300001,23.4720001 17.5870001,22.0420001 17.5870001,20.0720001 C17.5870001,18.2920001 17.0640001,16.964 16.0180001,16.088 C14.9720001,15.212 13.4030001,14.774 11.311,14.774 C10.7,14.774 10.19,14.781 9.78300004,14.794 C9.37600004,14.807 8.96800004,14.828 8.56000004,14.855 L8.56000004,25.6150001 L8.55900004,25.6160001 Z M8.57900004,12.431 C8.68800004,12.445 8.82400004,12.455 8.98700004,12.462 C9.15000004,12.469 9.38800004,12.472 9.70000004,12.472 C11.874,12.472 13.4730001,12.034 14.4990001,11.158 C15.5250001,10.282 16.0380001,8.91300003 16.0380001,7.05200002 C16.0380001,5.42200002 15.5620001,4.21300002 14.6110001,3.42500001 C13.6600001,2.63700001 12.2000001,2.24300001 10.23,2.24300001 C9.90400004,2.24300001 9.38800004,2.27000001 8.68100004,2.32500001 L8.55900004,2.32500001 L8.57900004,12.433 L8.57900004,12.431 Z M2.00000017e-08,4.99994712e-09 L12.5330001,4.99994846e-09 C15.6030001,4.99994846e-09 17.9130001,0.547000006 19.4620001,1.64000001 C21.0110001,2.73300001 21.7850001,4.36700002 21.7850001,6.54100002 C21.7850001,8.18500003 21.2820001,9.56000003 20.2770001,10.668 C19.2720001,11.776 17.7910001,12.587 15.8350001,13.103 C18.2260001,13.144 20.0870001,13.755 21.4190001,14.937 C22.7510001,16.119 23.4160001,17.749 23.4160001,19.8280001 C23.4160001,22.4640001 22.5130001,24.4840001 20.7060001,25.8910001 C18.8990001,27.2980001 16.2970001,28.0000001 12.9010001,28.0000001 L0.00100002,28.0000001 L0.00100002,25.9620001 L2.46700003,25.7380001 L3.13900003,25.0860001 L3.13900003,2.83300001 L2.46700003,2.24200001 L0.00100002,2.03800001 L0.00100002,4.99994712e-09 L2.00000017e-08,4.99994712e-09 Z" transform="translate(8 6786)"/>
    <path fill="#686868" fill-rule="nonzero" d="M16.559,27.6160001 L16.702,27.6360001 C17.544,27.6770001 18.169,27.6970001 18.577,27.6970001 C21.0220001,27.6970001 22.8020001,27.2520001 23.9160001,26.3620001 C25.0300001,25.4720001 25.5870001,24.0420001 25.5870001,22.0720001 C25.5870001,20.2920001 25.0640001,18.964 24.0180001,18.088 C22.9720001,17.212 21.4030001,16.774 19.311,16.774 C18.7,16.774 18.19,16.781 17.783,16.794 C17.376,16.807 16.968,16.828 16.56,16.855 L16.56,27.6150001 L16.559,27.6160001 Z M16.579,14.431 C16.688,14.445 16.824,14.455 16.987,14.462 C17.15,14.469 17.388,14.472 17.7,14.472 C19.874,14.472 21.4730001,14.034 22.4990001,13.158 C23.5250001,12.282 24.0380001,10.913 24.0380001,9.05200002 C24.0380001,7.42200002 23.5620001,6.21300002 22.6110001,5.42500001 C21.6600001,4.63700001 20.2000001,4.24300001 18.23,4.24300001 C17.904,4.24300001 17.388,4.27000001 16.681,4.32500001 L16.559,4.32500001 L16.579,14.433 L16.579,14.431 Z M8.00000002,2 L20.5330001,2.00000001 C23.6030001,2.00000001 25.9130001,2.54700001 27.4620001,3.64000001 C29.0110001,4.73300001 29.7850001,6.36700002 29.7850001,8.54100002 C29.7850001,10.185 29.2820001,11.56 28.2770001,12.668 C27.2720001,13.776 25.7910001,14.587 23.8350001,15.103 C26.2260001,15.144 28.0870001,15.755 29.4190001,16.937 C30.7510001,18.119 31.4160001,19.749 31.4160001,21.8280001 C31.4160001,24.4640001 30.5130001,26.4840001 28.7060001,27.8910001 C26.8990001,29.2980001 24.2970001,30.0000001 20.9010001,30.0000001 L8.00100002,30.0000001 L8.00100002,27.9620001 L10.467,27.7380001 L11.139,27.0860001 L11.139,4.83300001 L10.467,4.24200001 L8.00100002,4.03800001 L8.00100002,2 L8.00000002,2 Z" transform="translate(0 6724)"/>
    <path fill="#FFF" d="M13,27 L35,27 L35,31 L13,31 L13,27 Z M13,18 L35,18 L35,22 L13,22 L13,18 Z M13,9 L35,9 L35,13 L13,13 L13,9 Z M5,27 L10,27 L10,31 L5,31 L5,27 Z M5,18 L10,18 L10,22 L5,22 L5,18 Z M5,9 L10,9 L10,13 L5,13 L5,9 Z" transform="translate(0 6660)"/>
    <path fill="#686868" d="M13,27 L35,27 L35,31 L13,31 L13,27 Z M13,18 L35,18 L35,22 L13,22 L13,18 Z M13,9 L35,9 L35,13 L13,13 L13,9 Z M5,27 L10,27 L10,31 L5,31 L5,27 Z M5,18 L10,18 L10,22 L5,22 L5,18 Z M5,9 L10,9 L10,13 L5,13 L5,9 Z" transform="translate(0 6600)"/>
    <path fill="#FFF" fill-rule="nonzero" d="M34,33 L27,33 L27,22 L34,22 L34,33 Z M17,33 L17,15 L24,15 L24,33 L17,33 Z M14,6 L14,33 L7,33 L7,6 L14,6 Z" transform="translate(0 6540)"/>
    <path fill="#686868" fill-rule="nonzero" d="M27,27 L20,27 L20,16.2 L27,16.2 L27,27 Z M10,27 L10,8.64000004 L17,8.64000004 L17,27 L10,27 Z M7.00000005,4.00000317e-08 L7.00000005,27 L4.9999926e-08,27 L4.9999926e-08,4.00000317e-08 L7.00000005,4.00000317e-08 Z" transform="translate(7 6486)"/>
    <path fill="#FFF" fill-rule="nonzero" d="M24.0141398,7.01471823 L13.430994,17.5978639 L10.4012289,14.5680988 L20.9844996,3.98482815 L17,0 L27.9990928,0 L27.9990928,11 L24.0141398,7.01471823 Z M25,17 L28,17 L28,26 C28,27 27.5772928,28.0000001 26,28 L2,28 C1,28 0,27 0,26 L0,2 C0,0 2,0 2,0 L10,0 L10,3 L3,3 C3.0002719,3.00000001 3,25 3,25 C2.99975054,25.0001464 25,25 25,25 C24.9994214,24.9999318 25,17 25,17 Z" transform="translate(6 6426)"/>
    <path fill="#686868" fill-rule="nonzero" d="M24.0141398,7.01471823 L13.430994,17.5978639 L10.4012289,14.5680988 L20.9844996,3.98482815 L17,0 L27.9990928,0 L27.9990928,11 L24.0141398,7.01471823 Z M25,17 L28,17 L28,26 C28,27 27.5772928,28.0000001 26,28 L2,28 C1,28 0,27 0,26 L0,2 C0,0 2,0 2,0 L10,0 L10,3 L3,3 C3.0002719,3.00000001 3,25 3,25 C2.99975054,25.0001464 25,25 25,25 C24.9994214,24.9999318 25,17 25,17 Z" transform="translate(6 6366)"/>
    <path fill="#FFF" fill-rule="nonzero" d="M25.8000001,7.60000002 C26.0666667,6.63333335 26.0666667,5.66666668 25.8000001,4.70000001 L22.5500001,7.90000002 L19.4,7.05000002 L18.55,3.90000001 L21.7500001,0.650000002 C20.7833334,0.383333334 19.8166667,0.383333334 18.85,0.650000002 C17.85,0.916666669 16.9833334,1.41666667 16.25,2.15000001 C15.5166667,2.88333334 15.0166667,3.76666668 14.75,4.80000001 C14.4833334,5.76666668 14.4833334,6.73333335 14.75,7.70000002 L1.35,21.1000001 C0.816666669,21.6333334 0.550000001,22.2833334 0.550000001,23.0500001 C0.550000001,23.7833334 0.816666669,24.4166667 1.35,24.9500001 C1.91666667,25.4500001 2.55000001,25.7000001 3.25000001,25.7000001 C4.01666668,25.7000001 4.65000001,25.4500001 5.15000001,24.9500001 L18.5,11.6 C19.5,11.9333334 20.5166667,11.9833334 21.5500001,11.75 C22.6166667,11.5166667 23.5333334,11 24.3000001,10.2 C25.0333334,9.46666669 25.5333334,8.60000002 25.8000001,7.60000002 L25.8000001,7.60000002 Z M4.05000001,23.4500001 C4.05000001,23.7166667 3.95000001,23.9500001 3.75000001,24.1500001 C3.55000001,24.3500001 3.31666667,24.4500001 3.05000001,24.4500001 C2.75000001,24.4500001 2.50000001,24.3500001 2.30000001,24.1500001 C2.10000001,23.9500001 2,23.7166667 2,23.4500001 C2,23.1500001 2.10000001,22.9000001 2.30000001,22.7000001 C2.50000001,22.5000001 2.75000001,22.4000001 3.05000001,22.4000001 C3.31666667,22.4000001 3.55000001,22.5000001 3.75000001,22.7000001 C3.95000001,22.9000001 4.05000001,23.1500001 4.05000001,23.4500001 Z" transform="translate(7 6307)"/>
    <path fill="#686868" fill-rule="nonzero" d="M25.8000001,7.60000002 C26.0666667,6.63333335 26.0666667,5.66666668 25.8000001,4.70000001 L22.5500001,7.90000002 L19.4,7.05000002 L18.55,3.90000001 L21.7500001,0.650000002 C20.7833334,0.383333334 19.8166667,0.383333334 18.85,0.650000002 C17.85,0.916666669 16.9833334,1.41666667 16.25,2.15000001 C15.5166667,2.88333334 15.0166667,3.76666668 14.75,4.80000001 C14.4833334,5.76666668 14.4833334,6.73333335 14.75,7.70000002 L1.35,21.1000001 C0.816666669,21.6333334 0.550000001,22.2833334 0.550000001,23.0500001 C0.550000001,23.7833334 0.816666669,24.4166667 1.35,24.9500001 C1.91666667,25.4500001 2.55000001,25.7000001 3.25000001,25.7000001 C4.01666668,25.7000001 4.65000001,25.4500001 5.15000001,24.9500001 L18.5,11.6 C19.5,11.9333334 20.5166667,11.9833334 21.5500001,11.75 C22.6166667,11.5166667 23.5333334,11 24.3000001,10.2 C25.0333334,9.46666669 25.5333334,8.60000002 25.8000001,7.60000002 L25.8000001,7.60000002 Z M4.05000001,23.4500001 C4.05000001,23.7166667 3.95000001,23.9500001 3.75000001,24.1500001 C3.55000001,24.3500001 3.31666667,24.4500001 3.05000001,24.4500001 C2.75000001,24.4500001 2.50000001,24.3500001 2.30000001,24.1500001 C2.10000001,23.9500001 2,23.7166667 2,23.4500001 C2,23.1500001 2.10000001,22.9000001 2.30000001,22.7000001 C2.50000001,22.5000001 2.75000001,22.4000001 3.05000001,22.4000001 C3.31666667,22.4000001 3.55000001,22.5000001 3.75000001,22.7000001 C3.95000001,22.9000001 4.05000001,23.1500001 4.05000001,23.4500001 Z" transform="translate(7 6247)"/>
    <path fill="#FFF" fill-rule="nonzero" d="M31.0200001,30.4000001 L31.0200001,0.800000002 L0.980000012,0.800000002 L0.980000012,30.4000001 L31.0200001,30.4000001 Z M29.0400001,2.78000001 L29.0400001,28.4200001 L2.98000002,28.4200001 L14.56,17.02 L9.22000003,11.7 L5.72000002,15.14 L5.72000002,5.18000001 L15.84,5.18000001 L12.28,8.70000002 L17.6000001,14.02 L29.0400001,2.78000001 L29.0400001,2.78000001 Z M22.9400001,19.34 L17.6000001,14.02 L14.56,17.02 L19.9200001,22.3600001 L16.3400001,25.8400001 L26.4400001,25.8400001 L26.4400001,15.88 L22.9400001,19.34 L22.9400001,19.34 Z" transform="translate(4 6184)"/>
    <path fill="#686868" fill-rule="nonzero" d="M31.0200001,30.4000001 L31.0200001,0.800000002 L0.980000012,0.800000002 L0.980000012,30.4000001 L31.0200001,30.4000001 Z M29.0400001,2.78000001 L29.0400001,28.4200001 L2.98000002,28.4200001 L14.56,17.02 L9.22000003,11.7 L5.72000002,15.14 L5.72000002,5.18000001 L15.84,5.18000001 L12.28,8.70000002 L17.6000001,14.02 L29.0400001,2.78000001 L29.0400001,2.78000001 Z M22.9400001,19.34 L17.6000001,14.02 L14.56,17.02 L19.9200001,22.3600001 L16.3400001,25.8400001 L26.4400001,25.8400001 L26.4400001,15.88 L22.9400001,19.34 L22.9400001,19.34 Z" transform="translate(4 6124)"/>
    <path fill="#FFF" fill-rule="nonzero" d="M4,5 L36,5 L36,27 L20,27 L11,35 L11,27 L4,27 L4,5 Z M19.2396014,25 L34,25 L34,7 L6,7 L6,25 L13,25 L13,30.5463123 L19.2396014,25 Z M11,11 L29,11 L29,13 L11,13 L11,11 Z M11,15 L29,15 L29,17 L11,17 L11,15 Z M11,19 L29,19 L29,21 L11,21 L11,19 Z" transform="translate(0 6060)"/>
    <path fill="#686868" fill-rule="nonzero" d="M4,5 L36,5 L36,27 L20,27 L11,35 L11,27 L4,27 L4,5 Z M19.2396014,25 L34,25 L34,7 L6,7 L6,25 L13,25 L13,30.5463123 L19.2396014,25 Z M11,11 L29,11 L29,13 L11,13 L11,11 Z M11,15 L29,15 L29,17 L11,17 L11,15 Z M11,19 L29,19 L29,21 L11,21 L11,19 Z" transform="translate(0 6000)"/>
    <path fill="#FFF" d="M20,15 C18.3431458,15 17,13.6568542 17,12 C17,10.3431458 18.3431458,9 20,9 C21.6568542,9 23,10.3431458 23,12 C23,13.6568542 21.6568542,15 20,15 Z M20,23 C18.3431458,23 17,21.6568542 17,20 C17,18.3431458 18.3431458,17 20,17 C21.6568542,17 23,18.3431458 23,20 C23,21.6568542 21.6568542,23 20,23 Z M20,31 C18.3431458,31 17,29.6568542 17,28 C17,26.3431458 18.3431458,25 20,25 C21.6568542,25 23,26.3431458 23,28 C23,29.6568542 21.6568542,31 20,31 Z" transform="rotate(90 -2950 2990)"/>
    <path fill="#686868" d="M20,15 C18.3431458,15 17,13.6568542 17,12 C17,10.3431458 18.3431458,9 20,9 C21.6568542,9 23,10.3431458 23,12 C23,13.6568542 21.6568542,15 20,15 Z M20,23 C18.3431458,23 17,21.6568542 17,20 C17,18.3431458 18.3431458,17 20,17 C21.6568542,17 23,18.3431458 23,20 C23,21.6568542 21.6568542,23 20,23 Z M20,31 C18.3431458,31 17,29.6568542 17,28 C17,26.3431458 18.3431458,25 20,25 C21.6568542,25 23,26.3431458 23,28 C23,29.6568542 21.6568542,31 20,31 Z" transform="rotate(90 -2920 2960)"/>
    <path fill="#FFF" d="M19.5,11 C17.5670034,11 16,9.43299662 16,7.5 C16,5.56700338 17.5670034,4 19.5,4 C21.4329966,4 23,5.56700338 23,7.5 C23,9.43299662 21.4329966,11 19.5,11 Z M19.5,23 C17.5670034,23 16,21.4329966 16,19.5 C16,17.5670034 17.5670034,16 19.5,16 C21.4329966,16 23,17.5670034 23,19.5 C23,21.4329966 21.4329966,23 19.5,23 Z M19.5,35 C17.5670034,35 16,33.4329966 16,31.5 C16,29.5670034 17.5670034,28 19.5,28 C21.4329966,28 23,29.5670034 23,31.5 C23,33.4329966 21.4329966,35 19.5,35 Z" transform="translate(0 5820)"/>
    <path fill="#686868" d="M19.5,11 C17.5670034,11 16,9.43299662 16,7.5 C16,5.56700338 17.5670034,4 19.5,4 C21.4329966,4 23,5.56700338 23,7.5 C23,9.43299662 21.4329966,11 19.5,11 Z M19.5,23 C17.5670034,23 16,21.4329966 16,19.5 C16,17.5670034 17.5670034,16 19.5,16 C21.4329966,16 23,17.5670034 23,19.5 C23,21.4329966 21.4329966,23 19.5,23 Z M19.5,35 C17.5670034,35 16,33.4329966 16,31.5 C16,29.5670034 17.5670034,28 19.5,28 C21.4329966,28 23,29.5670034 23,31.5 C23,33.4329966 21.4329966,35 19.5,35 Z" transform="translate(0 5760)"/>
    <polygon fill="#FFF" fill-rule="nonzero" points="3.855 10.923 .775 14.143 11.656 24.624 32.699 3.562 29.539 .422 11.576 18.384" transform="translate(3.207 5706.5)"/>
    <polygon fill="#686868" fill-rule="nonzero" points="3.855 10.923 .775 14.143 11.656 24.624 32.699 3.562 29.539 .422 11.576 18.384" transform="translate(3.207 5646.5)"/>
    <polygon fill="#FFF" fill-rule="nonzero" points="13 9.6 3.866 .466 .466 3.866 9.6 13 .466 22.134 3.866 25.534 13 16.4 22.134 25.534 25.534 22.134 16.4 13 25.534 3.866 22.134 .466" transform="translate(7 5587)"/>
    <polygon fill="#686868" fill-rule="nonzero" points="13 9.6 3.866 .466 .466 3.866 9.6 13 .466 22.134 3.866 25.534 13 16.4 22.134 25.534 25.534 22.134 16.4 13 25.534 3.866 22.134 .466" transform="translate(7 5527)"/>
    <polygon fill="#FFF" fill-rule="nonzero" points="3.08 8.38 0 11.6 8.76 19.96 25.56 3.14 22.4 0 8.68 13.72" transform="translate(7 5470)"/>
    <polygon fill="#686868" fill-rule="nonzero" points="3.08 8.38 0 11.6 8.76 19.96 25.56 3.14 22.4 0 8.68 13.72" transform="translate(7 5410)"/>
    <polygon fill="#FFF" fill-rule="nonzero" points="19.72 .88 12 8.6 4.28 .88 .88 4.28 8.6 12 .88 19.72 4.28 23.12 12 15.4 19.72 23.12 23.12 19.72 15.4 12 23.12 4.28 19.72 .88" transform="translate(8 5348)"/>
    <polygon fill="#686868" fill-rule="nonzero" points="19.72 .88 12 8.6 4.28 .88 .88 4.28 8.6 12 .88 19.72 4.28 23.12 12 15.4 19.72 23.12 23.12 19.72 15.4 12 23.12 4.28 19.72 .88" transform="translate(8 5288)"/>
    <g fill="#FFF" transform="translate(5 5226)">
      <path d="M22,2 L22,0 L25,0 L25,2 L28,2 L30,2 L30,28 L28,28 L2,28 L0,28 L0,2 L2,2 L5,2 L5,0 L8,0 L8,2 L22,2 Z M22,6 L8,6 L8,9 L5,9 L5,6 L2,6 L2,26 L28,26 L28,6 L25,6 L25,9 L22,9 L22,6 Z"/>
      <path d="M7,18.9579158 L8.99866399,18.7154309 C9.06234723,19.2248968 9.23379954,19.6143384 9.51302605,19.8837675 C9.79225257,20.1531966 10.1302585,20.2879092 10.5270541,20.2879092 C10.9532419,20.2879092 11.3120671,20.1262541 11.6035404,19.8029392 C11.8950137,19.4796243 12.0407482,19.0436456 12.0407482,18.49499 C12.0407482,17.9757266 11.901137,17.5642411 11.6219105,17.260521 C11.342684,16.956801 11.0022287,16.8049432 10.6005344,16.8049432 C10.336004,16.8049432 10.0200419,16.8563789 9.65263861,16.9592518 L9.88042752,15.2765531 C10.4388805,15.2912492 10.865062,15.170008 11.1589846,14.9128257 C11.4529073,14.6556433 11.5998664,14.3139634 11.5998664,13.8877756 C11.5998664,13.525271 11.4920964,13.2362514 11.2765531,13.0207081 C11.0610098,12.8051648 10.7744396,12.6973948 10.4168337,12.6973948 C10.0641265,12.6973948 9.7628603,12.8198607 9.51302605,13.0647963 C9.2631918,13.3097318 9.11133405,13.6673323 9.05744823,14.1376086 L7.15430862,13.8142953 C7.28657381,13.1627667 7.48619328,12.6422865 7.75317301,12.252839 C8.02015275,11.8633915 8.39244918,11.5572267 8.87007348,11.3343353 C9.34769778,11.111444 9.8828739,11 10.4756179,11 C11.489651,11 12.3028248,11.3233101 12.9151637,11.9699399 C13.4197309,12.4990006 13.6720107,13.0966344 13.6720107,13.7628591 C13.6720107,14.7083102 13.1552045,15.4627004 12.1215765,16.0260521 C12.738814,16.1583173 13.2323517,16.4546848 13.6022044,16.9151637 C13.9720571,17.3756425 14.1569806,17.9316378 14.1569806,18.5831663 C14.1569806,19.5286175 13.8116267,20.3344433 13.1209085,21.000668 C12.4301903,21.6668927 11.5704794,22 10.5417502,22 C9.56690673,22 8.75863158,21.719553 8.11690047,21.1586506 C7.47516936,20.5977483 7.10287293,19.8641773 7,18.9579158 L7,18.9579158 Z M18.682387,11 C19.7258124,11 20.5414355,11.3722964 21.1292808,12.1169005 C21.8297964,12.9986684 22.180049,14.4609116 22.180049,16.503674 C22.180049,18.5415377 21.8273471,20.0062302 21.1219327,20.8977956 C20.5389862,21.6326022 19.7258124,22 18.682387,22 C17.6340629,22 16.789048,21.5970871 16.1473168,20.7912492 C15.5055857,19.9854112 15.184725,18.5488859 15.184725,16.4816299 C15.184725,14.4535637 15.5374269,12.9937698 16.2428412,12.1022044 C16.8257878,11.3673978 17.6389616,11 18.682387,11 L18.682387,11 Z M18.682387,12.7120908 C18.4325527,12.7120908 18.2096647,12.7916937 18.0137163,12.9509018 C17.8177679,13.1101099 17.6659101,13.3954555 17.5581385,13.8069472 C17.4160759,14.3409067 17.3450456,15.2398066 17.3450456,16.503674 C17.3450456,17.7675414 17.4087279,18.6358248 17.5360944,19.1085504 C17.6634609,19.581276 17.8238912,19.8960135 18.0173903,20.0527722 C18.2108894,20.209531 18.4325527,20.2879092 18.682387,20.2879092 C18.9322212,20.2879092 19.1551092,20.2083063 19.3510577,20.0490982 C19.5470061,19.8898901 19.6988638,19.6045445 19.8066355,19.1930528 C19.9486981,18.663992 20.0197283,17.7675414 20.0197283,16.503674 C20.0197283,15.2398066 19.956046,14.3715232 19.8286796,13.8987976 C19.7013131,13.426072 19.5408827,13.1101099 19.3473836,12.9509018 C19.1538846,12.7916937 18.9322212,12.7120908 18.682387,12.7120908 L18.682387,12.7120908 Z"/>
    </g>
    <g fill="#686868" transform="translate(5 5166)">
      <path d="M22,2 L22,0 L25,0 L25,2 L28,2 L30,2 L30,28 L28,28 L2,28 L0,28 L0,2 L2,2 L5,2 L5,0 L8,0 L8,2 L22,2 Z M22,6 L8,6 L8,9 L5,9 L5,6 L2,6 L2,26 L28,26 L28,6 L25,6 L25,9 L22,9 L22,6 Z"/>
      <path d="M7,18.9579158 L8.99866399,18.7154309 C9.06234723,19.2248968 9.23379954,19.6143384 9.51302605,19.8837675 C9.79225257,20.1531966 10.1302585,20.2879092 10.5270541,20.2879092 C10.9532419,20.2879092 11.3120671,20.1262541 11.6035404,19.8029392 C11.8950137,19.4796243 12.0407482,19.0436456 12.0407482,18.49499 C12.0407482,17.9757266 11.901137,17.5642411 11.6219105,17.260521 C11.342684,16.956801 11.0022287,16.8049432 10.6005344,16.8049432 C10.336004,16.8049432 10.0200419,16.8563789 9.65263861,16.9592518 L9.88042752,15.2765531 C10.4388805,15.2912492 10.865062,15.170008 11.1589846,14.9128257 C11.4529073,14.6556433 11.5998664,14.3139634 11.5998664,13.8877756 C11.5998664,13.525271 11.4920964,13.2362514 11.2765531,13.0207081 C11.0610098,12.8051648 10.7744396,12.6973948 10.4168337,12.6973948 C10.0641265,12.6973948 9.7628603,12.8198607 9.51302605,13.0647963 C9.2631918,13.3097318 9.11133405,13.6673323 9.05744823,14.1376086 L7.15430862,13.8142953 C7.28657381,13.1627667 7.48619328,12.6422865 7.75317301,12.252839 C8.02015275,11.8633915 8.39244918,11.5572267 8.87007348,11.3343353 C9.34769778,11.111444 9.8828739,11 10.4756179,11 C11.489651,11 12.3028248,11.3233101 12.9151637,11.9699399 C13.4197309,12.4990006 13.6720107,13.0966344 13.6720107,13.7628591 C13.6720107,14.7083102 13.1552045,15.4627004 12.1215765,16.0260521 C12.738814,16.1583173 13.2323517,16.4546848 13.6022044,16.9151637 C13.9720571,17.3756425 14.1569806,17.9316378 14.1569806,18.5831663 C14.1569806,19.5286175 13.8116267,20.3344433 13.1209085,21.000668 C12.4301903,21.6668927 11.5704794,22 10.5417502,22 C9.56690673,22 8.75863158,21.719553 8.11690047,21.1586506 C7.47516936,20.5977483 7.10287293,19.8641773 7,18.9579158 L7,18.9579158 Z M18.682387,11 C19.7258124,11 20.5414355,11.3722964 21.1292808,12.1169005 C21.8297964,12.9986684 22.180049,14.4609116 22.180049,16.503674 C22.180049,18.5415377 21.8273471,20.0062302 21.1219327,20.8977956 C20.5389862,21.6326022 19.7258124,22 18.682387,22 C17.6340629,22 16.789048,21.5970871 16.1473168,20.7912492 C15.5055857,19.9854112 15.184725,18.5488859 15.184725,16.4816299 C15.184725,14.4535637 15.5374269,12.9937698 16.2428412,12.1022044 C16.8257878,11.3673978 17.6389616,11 18.682387,11 L18.682387,11 Z M18.682387,12.7120908 C18.4325527,12.7120908 18.2096647,12.7916937 18.0137163,12.9509018 C17.8177679,13.1101099 17.6659101,13.3954555 17.5581385,13.8069472 C17.4160759,14.3409067 17.3450456,15.2398066 17.3450456,16.503674 C17.3450456,17.7675414 17.4087279,18.6358248 17.5360944,19.1085504 C17.6634609,19.581276 17.8238912,19.8960135 18.0173903,20.0527722 C18.2108894,20.209531 18.4325527,20.2879092 18.682387,20.2879092 C18.9322212,20.2879092 19.1551092,20.2083063 19.3510577,20.0490982 C19.5470061,19.8898901 19.6988638,19.6045445 19.8066355,19.1930528 C19.9486981,18.663992 20.0197283,17.7675414 20.0197283,16.503674 C20.0197283,15.2398066 19.956046,14.3715232 19.8286796,13.8987976 C19.7013131,13.426072 19.5408827,13.1101099 19.3473836,12.9509018 C19.1538846,12.7916937 18.9322212,12.7120908 18.682387,12.7120908 L18.682387,12.7120908 Z"/>
    </g>
    <g fill="#FFF" transform="translate(6 5106)">
      <path fill-rule="nonzero" d="M24.5,14 C24.5,8.20101013 19.7989899,3.5 14,3.5 C8.20101013,3.5 3.5,8.20101013 3.5,14 C3.5,19.7989899 8.20101013,24.5 14,24.5 C19.7989899,24.5 24.5,19.7989899 24.5,14 Z M0,14 C0,6.2680135 6.2680135,0 14,0 C21.7319865,0 28,6.2680135 28,14 C28,21.7319865 21.7319865,28 14,28 C6.2680135,28 0,21.7319865 0,14 Z"/>
      <polygon fill-rule="nonzero" points="13.656 17.518 21.655 14.16 20.738 11.967 14.622 14.528 10.223 7.773 8.062 9.249" transform="rotate(3 14.858 12.646)"/>
    </g>
    <g fill="#686868" transform="translate(6 5046)">
      <path fill-rule="nonzero" d="M24.5,14 C24.5,8.20101013 19.7989899,3.5 14,3.5 C8.20101013,3.5 3.5,8.20101013 3.5,14 C3.5,19.7989899 8.20101013,24.5 14,24.5 C19.7989899,24.5 24.5,19.7989899 24.5,14 Z M0,14 C0,6.2680135 6.2680135,0 14,0 C21.7319865,0 28,6.2680135 28,14 C28,21.7319865 21.7319865,28 14,28 C6.2680135,28 0,21.7319865 0,14 Z"/>
      <polygon fill-rule="nonzero" points="13.656 17.518 21.655 14.16 20.738 11.967 14.622 14.528 10.223 7.773 8.062 9.249" transform="rotate(3 14.858 12.646)"/>
    </g>
    <path fill="#FFF" fill-rule="nonzero" d="M29,18 L23,18 L23,6 L17,6 L17,18 L11,18 L20.0290541,28 L29,18 Z M35.0581081,34 L35.0581081,24 L31,24 L31,30 L9,30 L9,24 L5,24 L5,34 L35.0581081,34 Z" transform="translate(0 4980)"/>
    <path fill="#686868" fill-rule="nonzero" d="M29,18 L23,18 L23,6 L17,6 L17,18 L11,18 L20.0290541,28 L29,18 Z M35.0581081,34 L35.0581081,24 L31,24 L31,30 L9,30 L9,24 L5,24 L5,34 L35.0581081,34 Z" transform="translate(0 4920)"/>
    <path fill="#FFF" fill-rule="nonzero" d="M29,16 L23,16 L23,28 L17,28 L17,16 L11,16 L20.0290541,6 L29,16 Z M35.0581081,34 L35.0581081,24 L31,24 L31,30 L9,30 L9,24 L5,24 L5,34 L35.0581081,34 Z" transform="translate(0 4860)"/>
    <path fill="#686868" fill-rule="nonzero" d="M29,16 L23,16 L23,28 L17,28 L17,16 L11,16 L20.0290541,6 L29,16 Z M35.0581081,34 L35.0581081,24 L31,24 L31,30 L9,30 L9,24 L5,24 L5,34 L35.0581081,34 Z" transform="translate(0 4800)"/>
    <path fill="#FFF" fill-rule="nonzero" d="M21.92,10.8 C21.92,7.85333333 20.88,5.34666667 18.8,3.28 C16.72,1.22666667 14.2266667,0.2 11.32,0.2 C8.38666667,0.2 5.89333333,1.23333333 3.84,3.3 C1.76,5.36666667 0.72,7.86666667 0.72,10.8 C0.72,13.72 1.75333333,16.2133333 3.82,18.28 L3.84,18.28 C5.89333333,20.3466667 8.38666667,21.38 11.32,21.38 C13.8,21.38 15.9733333,20.6266667 17.84,19.12 L27.62,28.9 L31.3,25.22 L21.08,15 C21.64,13.72 21.92,12.32 21.92,10.8 Z M16.26,5.84 C17.6333333,7.21333333 18.32,8.86666667 18.32,10.8 C18.32,12.72 17.6333333,14.36 16.26,15.72 L16.26,15.74 C14.8866667,17.1 13.24,17.78 11.32,17.78 C9.38666667,17.78 7.74,17.1 6.38,15.74 L6.38,15.72 C5.00666667,14.36 4.32,12.72 4.32,10.8 C4.32,8.85333333 5.00666667,7.2 6.38,5.84 C7.72666667,4.48 9.37333333,3.8 11.32,3.8 C13.24,3.8 14.8866667,4.48 16.26,5.84 Z" transform="translate(4 4746)"/>
    <path fill="#686868" fill-rule="nonzero" d="M21.92,10.8 C21.92,7.85333333 20.88,5.34666667 18.8,3.28 C16.72,1.22666667 14.2266667,0.2 11.32,0.2 C8.38666667,0.2 5.89333333,1.23333333 3.84,3.3 C1.76,5.36666667 0.72,7.86666667 0.72,10.8 C0.72,13.72 1.75333333,16.2133333 3.82,18.28 L3.84,18.28 C5.89333333,20.3466667 8.38666667,21.38 11.32,21.38 C13.8,21.38 15.9733333,20.6266667 17.84,19.12 L27.62,28.9 L31.3,25.22 L21.08,15 C21.64,13.72 21.92,12.32 21.92,10.8 Z M16.26,5.84 C17.6333333,7.21333333 18.32,8.86666667 18.32,10.8 C18.32,12.72 17.6333333,14.36 16.26,15.72 L16.26,15.74 C14.8866667,17.1 13.24,17.78 11.32,17.78 C9.38666667,17.78 7.74,17.1 6.38,15.74 L6.38,15.72 C5.00666667,14.36 4.32,12.72 4.32,10.8 C4.32,8.85333333 5.00666667,7.2 6.38,5.84 C7.72666667,4.48 9.37333333,3.8 11.32,3.8 C13.24,3.8 14.8866667,4.48 16.26,5.84 Z" transform="translate(4 4686)"/>
    <path fill="#FFF" fill-rule="nonzero" d="M30.7400001,5.24000001 C27.7800001,2.28000001 24.2000001,0.800000002 20,0.800000002 C15.8,0.800000002 12.2133334,2.28000001 9.24000002,5.24000001 C6.28000002,8.21333335 4.80000001,11.8 4.80000001,16 C4.80000001,20.2000001 6.28000002,23.7800001 9.24000002,26.7400001 C12.2133334,29.7133334 15.8,31.2000001 20,31.2000001 C24.2000001,31.2000001 27.7800001,29.7133334 30.7400001,26.7400001 C33.7133334,23.7800001 35.2000001,20.2000001 35.2000001,16 C35.2000001,11.8 33.7133334,8.21333335 30.7400001,5.24000001 Z M14.9,21.1000001 L14.9,10.88 L25.1200001,10.88 L25.1200001,21.1000001 L14.9,21.1000001 Z" transform="translate(0 4624)"/>
    <path fill="#686868" fill-rule="nonzero" d="M30.7400001,5.24000001 C27.7800001,2.28000001 24.2000001,0.800000002 20,0.800000002 C15.8,0.800000002 12.2133334,2.28000001 9.24000002,5.24000001 C6.28000002,8.21333335 4.80000001,11.8 4.80000001,16 C4.80000001,20.2000001 6.28000002,23.7800001 9.24000002,26.7400001 C12.2133334,29.7133334 15.8,31.2000001 20,31.2000001 C24.2000001,31.2000001 27.7800001,29.7133334 30.7400001,26.7400001 C33.7133334,23.7800001 35.2000001,20.2000001 35.2000001,16 C35.2000001,11.8 33.7133334,8.21333335 30.7400001,5.24000001 Z M14.9,21.1000001 L14.9,10.88 L25.1200001,10.88 L25.1200001,21.1000001 L14.9,21.1000001 Z" transform="translate(0 4564)"/>
    <path fill="#FFF" d="M5,30 C5,27.790861 6.78679466,26 8.9992748,26 L31.0007252,26 C33.2094637,26 35,27.7953562 35,30 L35,30 C35,32.209139 33.2132053,34 31.0007252,34 L8.9992748,34 C6.79053632,34 5,32.2046438 5,30 L5,30 Z M28,28 L30,28 L30,32 L28,32 L28,28 Z M5,20 C5,17.790861 6.78679466,16 8.9992748,16 L31.0007252,16 C33.2094637,16 35,17.7953562 35,20 L35,20 C35,22.209139 33.2132053,24 31.0007252,24 L8.9992748,24 C6.79053632,24 5,22.2046438 5,20 L5,20 Z M28,18 L30,18 L30,22 L28,22 L28,18 Z M5,10 C5,7.790861 6.78679466,6 8.9992748,6 L31.0007252,6 C33.2094637,6 35,7.79535615 35,10 L35,10 C35,12.209139 33.2132053,14 31.0007252,14 L8.9992748,14 C6.79053632,14 5,12.2046438 5,10 L5,10 Z M28,8 L30,8 L30,12 L28,12 L28,8 Z" transform="translate(0 4500)"/>
    <path fill="#686868" d="M5,30 C5,27.790861 6.78679466,26 8.9992748,26 L31.0007252,26 C33.2094637,26 35,27.7953562 35,30 L35,30 C35,32.209139 33.2132053,34 31.0007252,34 L8.9992748,34 C6.79053632,34 5,32.2046438 5,30 L5,30 Z M28,28 L30,28 L30,32 L28,32 L28,28 Z M5,20 C5,17.790861 6.78679466,16 8.9992748,16 L31.0007252,16 C33.2094637,16 35,17.7953562 35,20 L35,20 C35,22.209139 33.2132053,24 31.0007252,24 L8.9992748,24 C6.79053632,24 5,22.2046438 5,20 L5,20 Z M28,18 L30,18 L30,22 L28,22 L28,18 Z M5,10 C5,7.790861 6.78679466,6 8.9992748,6 L31.0007252,6 C33.2094637,6 35,7.79535615 35,10 L35,10 C35,12.209139 33.2132053,14 31.0007252,14 L8.9992748,14 C6.79053632,14 5,12.2046438 5,10 L5,10 Z M28,8 L30,8 L30,12 L28,12 L28,8 Z" transform="translate(0 4440)"/>
    <polygon fill="#FFF" fill-rule="nonzero" points="11.98 29.8 18.28 26.14 18.28 14.92 30 .2 .02 .2 11.98 14.92" transform="translate(5 4385)"/>
    <polygon fill="#686868" fill-rule="nonzero" points="11.98 29.8 18.28 26.14 18.28 14.92 30 .2 .02 .2 11.98 14.92" transform="translate(5 4325)"/>
    <path fill="#686868" d="M12.675,31 L37.05,31 L37.05,35 L12.675,35 L12.675,31 Z M12.675,22 L37.05,22 L37.05,26 L12.675,26 L12.675,22 Z M12.675,13 L37.05,13 L37.05,17 L12.675,17 L12.675,13 Z M12.675,4 L37.05,4 L37.05,8 L12.675,8 L12.675,4 Z M2.925,30 L8.775,30 L8.775,35 L2.925,35 L2.925,30 Z M2.925,21 L8.775,21 L8.775,26 L2.925,26 L2.925,21 Z M2.925,12 L8.775,12 L8.775,17 L2.925,17 L2.925,12 Z M2.925,3 L8.775,3 L8.775,8 L2.925,8 L2.925,3 Z" transform="translate(0 4200)"/>
    <path fill="#FFF" d="M12.675,31 L37.05,31 L37.05,35 L12.675,35 L12.675,31 Z M12.675,22 L37.05,22 L37.05,26 L12.675,26 L12.675,22 Z M12.675,13 L37.05,13 L37.05,17 L12.675,17 L12.675,13 Z M12.675,4 L37.05,4 L37.05,8 L12.675,8 L12.675,4 Z M2.925,30 L8.775,30 L8.775,35 L2.925,35 L2.925,30 Z M2.925,21 L8.775,21 L8.775,26 L2.925,26 L2.925,21 Z M2.925,12 L8.775,12 L8.775,17 L2.925,17 L2.925,12 Z M2.925,3 L8.775,3 L8.775,8 L2.925,8 L2.925,3 Z" transform="translate(0 4260)"/>
    <path fill="#FFF" fill-rule="nonzero" d="M7.72000002,16.36 L7.78000002,16.38 L7.02000002,16.38 L11.42,20.7800001 L4.96000001,27.2400001 L8.52000002,30.8400001 L14.98,24.3000001 L19.46,28.7800001 L19.46,16.34 L7.72000002,16.36 L7.72000002,16.36 Z M20.5600001,2.84000001 L20.5800001,15.26 L32.9400001,15.26 L28.5400001,10.78 L35.0600001,4.34000001 L31.5200001,0.800000002 L24.9800001,7.26000002 L20.5600001,2.84000001 L20.5600001,2.84000001 Z" transform="translate(0 4144)"/>
    <path fill="#686868" fill-rule="nonzero" d="M7.72000002,16.36 L7.78000002,16.38 L7.02000002,16.38 L11.42,20.7800001 L4.96000001,27.2400001 L8.52000002,30.8400001 L14.98,24.3000001 L19.46,28.7800001 L19.46,16.34 L7.72000002,16.36 L7.72000002,16.36 Z M20.5600001,2.84000001 L20.5800001,15.26 L32.9400001,15.26 L28.5400001,10.78 L35.0600001,4.34000001 L31.5200001,0.800000002 L24.9800001,7.26000002 L20.5600001,2.84000001 L20.5600001,2.84000001 Z" transform="translate(0 4084)"/>
    <path fill="#FFF" fill-rule="nonzero" d="M15.7400001,17.7 L12.18,14.1 L5.46000003,20.9400001 L0.980000015,16.46 L1.02000002,28.8600001 L12.72,28.8800001 L12.7,28.8600001 L13.38,28.8600001 L9.00000004,24.4800001 L15.7400001,17.7 L15.7400001,17.7 Z M29.0200001,13.22 L29.0000001,0.800000002 L16.6400001,0.800000002 L21.0200001,5.26000001 L14.24,12 L17.8000001,15.56 L24.5800001,8.78000002 L29.0200001,13.22 L29.0200001,13.22 Z" transform="translate(5 4024)"/>
    <path fill="#686868" fill-rule="nonzero" d="M20.7400001,17.7 L17.18,14.1 L10.46,20.9400001 L5.98000001,16.46 L6.02000002,28.8600001 L17.72,28.8800001 L17.7,28.8600001 L18.38,28.8600001 L14,24.4800001 L20.7400001,17.7 L20.7400001,17.7 Z M34.0200001,13.22 L34.0000001,0.800000002 L21.6400001,0.800000002 L26.0200001,5.26000001 L19.24,12 L22.8000001,15.56 L29.5800001,8.78000002 L34.0200001,13.22 L34.0200001,13.22 Z" transform="translate(0 3964)"/>
    <path fill="#FFF" fill-rule="nonzero" d="M35.4000001,30.3800001 L35.4000001,0.800000002 L0.600000006,0.800000002 L0.600000006,30.3800001 L35.4000001,30.3800001 Z M33.0000001,3.20000001 L33.0000001,9.86000002 L24.6000001,9.86000002 L24.6000001,3.20000001 L33.0000001,3.20000001 Z M33.0000001,12.26 L33.0000001,18.92 L24.6000001,18.92 L24.6000001,12.26 L33.0000001,12.26 L33.0000001,12.26 Z M33.0000001,21.3200001 L33.0000001,27.9800001 L24.6000001,27.9800001 L24.6000001,21.3200001 L33.0000001,21.3200001 Z M22.2000001,3.20000001 L22.2000001,9.86000002 L13.8,9.86000002 L13.8,3.20000001 L22.2000001,3.20000001 Z M22.2000001,12.26 L22.2000001,18.92 L13.8,18.92 L13.8,12.26 L22.2000001,12.26 L22.2000001,12.26 Z M11.4,3.20000001 L11.4,9.86000002 L3.00000001,9.86000002 L3.00000001,3.20000001 L11.4,3.20000001 Z M3.00000001,18.92 L3.00000001,12.26 L11.4,12.26 L11.4,18.92 L3.00000001,18.92 Z M13.8,27.9800001 L13.8,21.3200001 L22.2000001,21.3200001 L22.2000001,27.9800001 L13.8,27.9800001 Z M11.4,27.9800001 L3.00000001,27.9800001 L3.00000001,21.3200001 L11.4,21.3200001 L11.4,27.9800001 Z" transform="translate(2 3904)"/>
    <path fill="#686868" fill-rule="nonzero" d="M35.4000001,30.3800001 L35.4000001,0.800000002 L0.600000006,0.800000002 L0.600000006,30.3800001 L35.4000001,30.3800001 Z M33.0000001,3.20000001 L33.0000001,9.86000002 L24.6000001,9.86000002 L24.6000001,3.20000001 L33.0000001,3.20000001 Z M33.0000001,12.26 L33.0000001,18.92 L24.6000001,18.92 L24.6000001,12.26 L33.0000001,12.26 L33.0000001,12.26 Z M33.0000001,21.3200001 L33.0000001,27.9800001 L24.6000001,27.9800001 L24.6000001,21.3200001 L33.0000001,21.3200001 Z M22.2000001,3.20000001 L22.2000001,9.86000002 L13.8,9.86000002 L13.8,3.20000001 L22.2000001,3.20000001 Z M22.2000001,12.26 L22.2000001,18.92 L13.8,18.92 L13.8,12.26 L22.2000001,12.26 L22.2000001,12.26 Z M11.4,3.20000001 L11.4,9.86000002 L3.00000001,9.86000002 L3.00000001,3.20000001 L11.4,3.20000001 Z M3.00000001,18.92 L3.00000001,12.26 L11.4,12.26 L11.4,18.92 L3.00000001,18.92 Z M13.8,27.9800001 L13.8,21.3200001 L22.2000001,21.3200001 L22.2000001,27.9800001 L13.8,27.9800001 Z M11.4,27.9800001 L3.00000001,27.9800001 L3.00000001,21.3200001 L11.4,21.3200001 L11.4,27.9800001 Z" transform="translate(2 3844)"/>
    <polygon fill="#FFF" fill-rule="nonzero" points="33.32 18.4 33.32 13.6 6.68 13.6 6.68 18.4" transform="translate(0 3784)"/>
    <polygon fill="#686868" fill-rule="nonzero" points="33.32 18.4 33.32 13.6 6.68 13.6 6.68 18.4" transform="translate(0 3724)"/>
    <polygon fill="#FFF" fill-rule="nonzero" points="27.32 16.4 27.32 11.6 16.4 11.6 16.4 .68 11.6 .68 11.6 11.6 .68 11.6 .68 16.4 11.6 16.4 11.6 27.34 16.4 27.34 16.4 16.4" transform="translate(6 3666)"/>
    <polygon fill="#686868" fill-rule="nonzero" points="33.32 18.4 33.32 13.6 22.4 13.6 22.4 2.68 17.6 2.68 17.6 13.6 6.68 13.6 6.68 18.4 17.6 18.4 17.6 29.34 22.4 29.34 22.4 18.4" transform="translate(0 3604)"/>
    <path fill="#FFF" fill-rule="nonzero" d="M10.92,20.9000001 L21.6000001,30.4000001 L21.6000001,6.40000002 L0.400000024,6.40000002 L0.400000024,30.4 L10.92,20.9000001 Z M21.6000001,4.40000001 L21.6000001,0.800000002 L0.400000024,0.800000002 L0.400000024,4.40000001 L21.6000001,4.40000001 Z" transform="translate(9 3544)"/>
    <path fill="#686868" fill-rule="nonzero" d="M10.92,20.9000001 L21.6000001,30.4000001 L21.6000001,6.40000002 L0.400000024,6.40000002 L0.400000024,30.4 L10.92,20.9000001 Z M21.6000001,4.40000001 L21.6000001,0.800000002 L0.400000024,0.800000002 L0.400000024,4.40000001 L21.6000001,4.40000001 Z" transform="translate(9 3484)"/>
    <path fill="#FFF" fill-rule="nonzero" d="M18.56,0.540000001 L18.56,3.72000001 C15.32,3.80000001 12.5466667,5.00666668 10.24,7.34000002 L10.24,7.32000002 C7.84000002,9.70666669 6.64000002,12.6133334 6.64000002,16.04 C6.64000002,18.88 7.49333335,21.3666667 9.20000002,23.5000001 L12.78,20.7000001 C11.74,19.3533334 11.22,17.8 11.22,16.04 C11.22,13.8933334 11.9666667,12.06 13.46,10.54 C14.8866667,9.12666669 16.5866667,8.38666669 18.56,8.32000002 L18.56,13.46 L28.1600001,7.14000002 L18.56,0.540000001 L18.56,0.540000001 Z M27.8000001,11.84 C28.4933334,13 28.8333334,14.32 28.8200001,15.8 C28.8200001,17.92 28.0666667,19.7266667 26.5600001,21.2200001 L26.5600001,21.2400001 C25.4133334,22.4133334 24.0800001,23.1400001 22.5600001,23.4200001 L22.5600001,18.66 L12.96,24.9400001 L22.5600001,31.4800001 L22.5600001,28.0400001 C25.3333334,27.7066667 27.7466667,26.5133334 29.8000001,24.4600001 C29.8133334,24.4600001 29.8200001,24.4533334 29.8200001,24.4400001 C32.1933334,22.0533334 33.3800001,19.1733334 33.3800001,15.8 C33.3666668,13.44 32.8000001,11.3333334 31.6800001,9.48000002 L27.8000001,11.84 L27.8000001,11.84 Z" transform="translate(0 3424)"/>
    <path fill="#686868" fill-rule="nonzero" d="M18.56,0.540000001 L18.56,3.72000001 C15.32,3.80000001 12.5466667,5.00666668 10.24,7.34000002 L10.24,7.32000002 C7.84000002,9.70666669 6.64000002,12.6133334 6.64000002,16.04 C6.64000002,18.88 7.49333335,21.3666667 9.20000002,23.5000001 L12.78,20.7000001 C11.74,19.3533334 11.22,17.8 11.22,16.04 C11.22,13.8933334 11.9666667,12.06 13.46,10.54 C14.8866667,9.12666669 16.5866667,8.38666669 18.56,8.32000002 L18.56,13.46 L28.1600001,7.14000002 L18.56,0.540000001 L18.56,0.540000001 Z M27.8000001,11.84 C28.4933334,13 28.8333334,14.32 28.8200001,15.8 C28.8200001,17.92 28.0666667,19.7266667 26.5600001,21.2200001 L26.5600001,21.2400001 C25.4133334,22.4133334 24.0800001,23.1400001 22.5600001,23.4200001 L22.5600001,18.66 L12.96,24.9400001 L22.5600001,31.4800001 L22.5600001,28.0400001 C25.3333334,27.7066667 27.7466667,26.5133334 29.8000001,24.4600001 C29.8133334,24.4600001 29.8200001,24.4533334 29.8200001,24.4400001 C32.1933334,22.0533334 33.3800001,19.1733334 33.3800001,15.8 C33.3666668,13.44 32.8000001,11.3333334 31.6800001,9.48000002 L27.8000001,11.84 L27.8000001,11.84 Z" transform="translate(0 3364)"/>
    <polygon fill="#FFF" fill-rule="nonzero" points="38.5 1.2 27.7 1.2 27.7 4.04 16.02 9.68 .8 9.68 .8 22.32 16.1 22.32 16.1 22.28 27.7 27.84 27.7 30.8 38.5 30.8 38.5 22.62 27.7 22.62 27.7 25.62 16.1 20.06 16.1 16.92 27.7 16.92 27.7 19.98 38.5 19.98 38.5 12.02 27.7 12.02 27.7 14.92 16.1 14.92 16.1 11.86 27.7 6.26 27.7 9.38 38.5 9.38" transform="translate(0 3304)"/>
    <polygon fill="#686868" fill-rule="nonzero" points="38.5 1.2 27.7 1.2 27.7 4.04 16.02 9.68 .8 9.68 .8 22.32 16.1 22.32 16.1 22.28 27.7 27.84 27.7 30.8 38.5 30.8 38.5 22.62 27.7 22.62 27.7 25.62 16.1 20.06 16.1 16.92 27.7 16.92 27.7 19.98 38.5 19.98 38.5 12.02 27.7 12.02 27.7 14.92 16.1 14.92 16.1 11.86 27.7 6.26 27.7 9.38 38.5 9.38" transform="translate(0 3244)"/>
    <path fill="#FFF" d="M12,11 L12,19 L20,19 L20,16 L37,16 L37,24 L20,24 L20,21 L12,21 L12,31 L20,31 L20,28 L37,28 L37,36 L20,36 L20,33 L12,33 L10,33 L10,11 L2,11 L2,2 L30,2 L30,11 L12,11 Z" transform="translate(0 3180)"/>
    <path fill="#686868" d="M12,11 L12,19 L20,19 L20,16 L37,16 L37,24 L20,24 L20,21 L12,21 L12,31 L20,31 L20,28 L37,28 L37,36 L20,36 L20,33 L12,33 L10,33 L10,11 L2,11 L2,2 L30,2 L30,11 L12,11 Z" transform="translate(0 3120)"/>
    <polygon fill="#FFF" fill-rule="nonzero" points="30.8 16.8 35.72 16.8 18.02 .82 .28 16.82 5.2 16.82 5.2 30.4 14 30.4 14 20 22 20 22 30.4 30.8 30.4" transform="translate(2 3064)"/>
    <polygon fill="#686868" fill-rule="nonzero" points="30.8 16.8 35.72 16.8 18.02 .82 .28 16.82 5.2 16.82 5.2 30.4 14 30.4 14 20 22 20 22 30.4 30.8 30.4" transform="translate(2 3004)"/>
    <path fill="#FFF" fill-rule="nonzero" d="M20.2800001,3.10000001 L17.88,5.46000001 C16.9466667,4.82000001 15.9266667,4.38666668 14.82,4.16000001 L14.82,0.800000002 L11.14,0.800000002 L11.14,4.16000001 C9.99333336,4.37333334 8.96666669,4.79333335 8.06000002,5.42000001 L5.62000002,3.04000001 L3.04000001,5.72000001 L5.38000002,8.10000002 C4.76666668,9.00666669 4.34666668,10.0266667 4.12000001,11.16 L0.780000004,11.16 L0.780000004,14.88 L4.14000001,14.88 C4.16666668,14.9466667 4.20000001,15.0133334 4.24000001,15.08 C4.42666668,16.12 4.82000001,17.0733334 5.42000002,17.94 L3.02000001,20.4000001 L5.62000002,23.0200001 L8.08000002,20.6200001 C8.98666669,21.2066667 10.0066667,21.6133334 11.14,21.8400001 L11.14,25.2800001 L14.82,25.2800001 L14.82,21.8000001 C15.9133334,21.5866667 16.9266667,21.1600001 17.86,20.5200001 L20.2800001,23.0200001 L22.9000001,20.4000001 L20.4600001,17.92 C20.7000001,17.6 20.9000001,17.26 21.0600001,16.9 L21.0600001,16.88 C21.3800001,16.2533334 21.6200001,15.5866667 21.7800001,14.88 L25.1800001,14.88 L25.1800001,11.16 L21.7800001,11.16 C21.5400001,10.0533334 21.1133334,9.04666669 20.5000001,8.14000002 L22.9000001,5.70000001 L20.2800001,3.10000001 L20.2800001,3.10000001 Z M15.74,10.32 C16.4466667,11.04 16.8,11.9333334 16.8,13 C16.8,13.5733334 16.6933334,14.1066667 16.48,14.6 C16.4666667,14.6 16.46,14.6066667 16.46,14.62 C16.38,14.7933334 16.2866667,14.96 16.18,15.12 L16.16,15.12 C16.04,15.32 15.9,15.4933334 15.74,15.64 L15.74,15.62 C15.7133334,15.6466667 15.6866667,15.68 15.66,15.72 C15.1,16.2933334 14.4533334,16.6466667 13.72,16.78 C13.48,16.8466667 13.2266667,16.88 12.96,16.88 C11.9066667,16.88 11.0066667,16.5066667 10.26,15.76 C10.0466667,15.5466667 9.86666669,15.3333334 9.72000003,15.12 C9.46666669,14.7733334 9.30666669,14.3933334 9.24000003,13.98 L9.16000003,13.86 C9.10666669,13.58 9.08000003,13.2933334 9.08000003,13 C9.08000003,11.9333334 9.46000003,11.0133334 10.22,10.24 C10.9933334,9.49333336 11.9066667,9.12000002 12.96,9.12000002 C13.2266667,9.12000002 13.48,9.14000002 13.72,9.18000002 L13.74,9.18000002 C14.3,9.28666669 14.8,9.51333336 15.24,9.86000002 C15.3866667,9.99333336 15.5266667,10.12 15.66,10.24 C15.6866667,10.28 15.7133334,10.3133334 15.74,10.34 L15.74,10.32 L15.74,10.32 Z M34.0600001,16.64 L32.6800001,18.02 C32.1866667,17.7133334 31.6600001,17.4933334 31.1000001,17.36 L31.1000001,15.42 L28.3600001,15.42 L28.3600001,17.36 C27.7866667,17.4933334 27.2466667,17.7133334 26.7400001,18.02 L25.3800001,16.64 L23.5000001,18.54 L24.8600001,19.94 C24.8333334,19.9666667 24.8066667,20.0066667 24.7800001,20.0600001 L24.7800001,20.0400001 C24.5133334,20.5200001 24.3133334,21.0266667 24.1800001,21.5600001 L22.2400001,21.5600001 L22.2400001,24.2600001 L24.2000001,24.2600001 C24.3333334,24.8333334 24.5533334,25.3733334 24.8600001,25.8800001 L23.4600001,27.2400001 L25.4000001,29.1600001 L26.7800001,27.7600001 C27.2600001,28.0400001 27.7866667,28.2533334 28.3600001,28.4000001 L28.3600001,30.4200001 L31.1000001,30.4200001 L31.1000001,28.4000001 C31.6600001,28.2533334 32.1733334,28.0333334 32.6400001,27.7400001 L34.0600001,29.1600001 L35.9600001,27.2400001 L34.5600001,25.8600001 C34.6533334,25.6866667 34.7533334,25.5333334 34.8600001,25.4000001 C35.0200001,25.0133334 35.1600001,24.6333334 35.2800001,24.2600001 L37.2400001,24.2600001 L37.2400001,21.5600001 L35.2800001,21.5600001 C35.1333334,21.0266667 34.9133334,20.5133334 34.6200001,20.0200001 C34.6066668,19.9933334 34.5866668,19.9733334 34.5600001,19.96 L35.9600001,18.54 L34.0600001,16.64 Z M31.6200001,21.8400001 C31.8066667,22.1333334 31.8866667,22.4866667 31.8600001,22.9000001 C31.8600001,23.2200001 31.8133334,23.5133334 31.7200001,23.7800001 C31.6533334,23.8866667 31.5933334,23.9866667 31.5400001,24.0800001 L31.5400001,24.0600001 C31.4466667,24.1666667 31.3600001,24.2800001 31.2800001,24.4000001 L31.2400001,24.4200001 C30.8000001,24.8466667 30.2866667,25.0600001 29.7000001,25.0600001 C29.1133334,25.0600001 28.6133334,24.8600001 28.2000001,24.4600001 L28.2000001,24.4200001 C28.0800001,24.3000001 27.9800001,24.1933334 27.9000001,24.1000001 L27.8800001,24.0600001 C27.7600001,23.8733334 27.6733334,23.6666667 27.6200001,23.4400001 L27.6200001,23.4000001 C27.5800001,23.2266667 27.5600001,23.0600001 27.5600001,22.9000001 C27.5600001,22.4866667 27.6466667,22.1266667 27.8200001,21.8200001 L27.8200001,21.8000001 C27.9133334,21.6400001 28.0400001,21.4866667 28.2000001,21.3400001 C28.6000001,20.9266667 29.1000001,20.7200001 29.7000001,20.7200001 C30.1933334,20.7200001 30.6266667,20.8600001 31.0000001,21.1400001 C31.0666667,21.1800001 31.1533334,21.2466667 31.2600001,21.3400001 L31.2600001,21.3600001 C31.3800001,21.4933334 31.5000001,21.6400001 31.6200001,21.8000001 L31.6200001,21.8400001 Z" transform="translate(1 2944)"/>
    <path fill="#686868" fill-rule="nonzero" d="M20.2800001,3.10000001 L17.88,5.46000001 C16.9466667,4.82000001 15.9266667,4.38666668 14.82,4.16000001 L14.82,0.800000002 L11.14,0.800000002 L11.14,4.16000001 C9.99333336,4.37333334 8.96666669,4.79333335 8.06000002,5.42000001 L5.62000002,3.04000001 L3.04000001,5.72000001 L5.38000002,8.10000002 C4.76666668,9.00666669 4.34666668,10.0266667 4.12000001,11.16 L0.780000004,11.16 L0.780000004,14.88 L4.14000001,14.88 C4.16666668,14.9466667 4.20000001,15.0133334 4.24000001,15.08 C4.42666668,16.12 4.82000001,17.0733334 5.42000002,17.94 L3.02000001,20.4000001 L5.62000002,23.0200001 L8.08000002,20.6200001 C8.98666669,21.2066667 10.0066667,21.6133334 11.14,21.8400001 L11.14,25.2800001 L14.82,25.2800001 L14.82,21.8000001 C15.9133334,21.5866667 16.9266667,21.1600001 17.86,20.5200001 L20.2800001,23.0200001 L22.9000001,20.4000001 L20.4600001,17.92 C20.7000001,17.6 20.9000001,17.26 21.0600001,16.9 L21.0600001,16.88 C21.3800001,16.2533334 21.6200001,15.5866667 21.7800001,14.88 L25.1800001,14.88 L25.1800001,11.16 L21.7800001,11.16 C21.5400001,10.0533334 21.1133334,9.04666669 20.5000001,8.14000002 L22.9000001,5.70000001 L20.2800001,3.10000001 L20.2800001,3.10000001 Z M15.74,10.32 C16.4466667,11.04 16.8,11.9333334 16.8,13 C16.8,13.5733334 16.6933334,14.1066667 16.48,14.6 C16.4666667,14.6 16.46,14.6066667 16.46,14.62 C16.38,14.7933334 16.2866667,14.96 16.18,15.12 L16.16,15.12 C16.04,15.32 15.9,15.4933334 15.74,15.64 L15.74,15.62 C15.7133334,15.6466667 15.6866667,15.68 15.66,15.72 C15.1,16.2933334 14.4533334,16.6466667 13.72,16.78 C13.48,16.8466667 13.2266667,16.88 12.96,16.88 C11.9066667,16.88 11.0066667,16.5066667 10.26,15.76 C10.0466667,15.5466667 9.86666669,15.3333334 9.72000003,15.12 C9.46666669,14.7733334 9.30666669,14.3933334 9.24000003,13.98 L9.16000003,13.86 C9.10666669,13.58 9.08000003,13.2933334 9.08000003,13 C9.08000003,11.9333334 9.46000003,11.0133334 10.22,10.24 C10.9933334,9.49333336 11.9066667,9.12000002 12.96,9.12000002 C13.2266667,9.12000002 13.48,9.14000002 13.72,9.18000002 L13.74,9.18000002 C14.3,9.28666669 14.8,9.51333336 15.24,9.86000002 C15.3866667,9.99333336 15.5266667,10.12 15.66,10.24 C15.6866667,10.28 15.7133334,10.3133334 15.74,10.34 L15.74,10.32 L15.74,10.32 Z M34.0600001,16.64 L32.6800001,18.02 C32.1866667,17.7133334 31.6600001,17.4933334 31.1000001,17.36 L31.1000001,15.42 L28.3600001,15.42 L28.3600001,17.36 C27.7866667,17.4933334 27.2466667,17.7133334 26.7400001,18.02 L25.3800001,16.64 L23.5000001,18.54 L24.8600001,19.94 C24.8333334,19.9666667 24.8066667,20.0066667 24.7800001,20.0600001 L24.7800001,20.0400001 C24.5133334,20.5200001 24.3133334,21.0266667 24.1800001,21.5600001 L22.2400001,21.5600001 L22.2400001,24.2600001 L24.2000001,24.2600001 C24.3333334,24.8333334 24.5533334,25.3733334 24.8600001,25.8800001 L23.4600001,27.2400001 L25.4000001,29.1600001 L26.7800001,27.7600001 C27.2600001,28.0400001 27.7866667,28.2533334 28.3600001,28.4000001 L28.3600001,30.4200001 L31.1000001,30.4200001 L31.1000001,28.4000001 C31.6600001,28.2533334 32.1733334,28.0333334 32.6400001,27.7400001 L34.0600001,29.1600001 L35.9600001,27.2400001 L34.5600001,25.8600001 C34.6533334,25.6866667 34.7533334,25.5333334 34.8600001,25.4000001 C35.0200001,25.0133334 35.1600001,24.6333334 35.2800001,24.2600001 L37.2400001,24.2600001 L37.2400001,21.5600001 L35.2800001,21.5600001 C35.1333334,21.0266667 34.9133334,20.5133334 34.6200001,20.0200001 C34.6066668,19.9933334 34.5866668,19.9733334 34.5600001,19.96 L35.9600001,18.54 L34.0600001,16.64 Z M31.6200001,21.8400001 C31.8066667,22.1333334 31.8866667,22.4866667 31.8600001,22.9000001 C31.8600001,23.2200001 31.8133334,23.5133334 31.7200001,23.7800001 C31.6533334,23.8866667 31.5933334,23.9866667 31.5400001,24.0800001 L31.5400001,24.0600001 C31.4466667,24.1666667 31.3600001,24.2800001 31.2800001,24.4000001 L31.2400001,24.4200001 C30.8000001,24.8466667 30.2866667,25.0600001 29.7000001,25.0600001 C29.1133334,25.0600001 28.6133334,24.8600001 28.2000001,24.4600001 L28.2000001,24.4200001 C28.0800001,24.3000001 27.9800001,24.1933334 27.9000001,24.1000001 L27.8800001,24.0600001 C27.7600001,23.8733334 27.6733334,23.6666667 27.6200001,23.4400001 L27.6200001,23.4000001 C27.5800001,23.2266667 27.5600001,23.0600001 27.5600001,22.9000001 C27.5600001,22.4866667 27.6466667,22.1266667 27.8200001,21.8200001 L27.8200001,21.8000001 C27.9133334,21.6400001 28.0400001,21.4866667 28.2000001,21.3400001 C28.6000001,20.9266667 29.1000001,20.7200001 29.7000001,20.7200001 C30.1933334,20.7200001 30.6266667,20.8600001 31.0000001,21.1400001 C31.0666667,21.1800001 31.1533334,21.2466667 31.2600001,21.3400001 L31.2600001,21.3600001 C31.3800001,21.4933334 31.5000001,21.6400001 31.6200001,21.8000001 L31.6200001,21.8400001 Z" transform="translate(1 2884)"/>
    <path fill="#FFF" fill-rule="nonzero" d="M29.8600001,17.84 L29.8600001,13.36 L25.7400001,13.36 C25.4466667,12.0133334 24.9333334,10.7866667 24.2000001,9.68000002 L27.1000001,6.74000002 L23.9400001,3.60000001 L21.0400001,6.46000002 C19.9066667,5.68666668 18.6666667,5.16000001 17.3200001,4.88000001 L17.3200001,0.820000002 L12.88,0.820000002 L12.88,4.88000001 C11.4933334,5.14666668 10.2533334,5.65333335 9.16000004,6.40000002 L6.20000003,3.52000001 L3.08000002,6.76000002 L5.92000003,9.64000002 C5.18666669,10.7466667 4.68000002,11.9866667 4.40000002,13.36 L0.360000013,13.36 L0.360000013,17.84 L4.42000002,17.84 C4.46000002,17.92 4.50000002,18 4.54000002,18.08 C4.76666669,19.3333334 5.24000003,20.4866667 5.96000003,21.5400001 L3.06000002,24.5200001 L6.20000003,27.6800001 L9.18000004,24.7800001 C10.2733334,25.4866667 11.5066667,25.9733334 12.88,26.2400001 L12.88,30.4200001 L17.3200001,30.4200001 L17.3200001,26.2000001 C18.6533334,25.9466667 19.8866667,25.4333334 21.0200001,24.6600001 L23.9400001,27.6800001 L27.1000001,24.5200001 L24.1600001,21.5200001 C24.4400001,21.1200001 24.6800001,20.7066667 24.8800001,20.2800001 L24.8800001,20.2600001 C25.2533334,19.5 25.5400001,18.6933334 25.7400001,17.84 L29.8600001,17.84 L29.8600001,17.84 Z M18.4400001,12.34 L18.4400001,12.32 C19.2933334,13.2 19.7200001,14.28 19.7200001,15.56 C19.7200001,16.2666667 19.5933334,16.9133334 19.3400001,17.5 C19.3266667,17.5 19.3200001,17.5066667 19.3200001,17.52 C19.2133334,17.7333334 19.1000001,17.9333334 18.9800001,18.12 L18.9600001,18.12 C18.8133334,18.36 18.6400001,18.5733334 18.4400001,18.76 L18.4400001,18.74 C18.4133334,18.78 18.3866667,18.82 18.3600001,18.86 C17.6666667,19.5533334 16.8800001,19.98 16.0000001,20.1400001 C15.7200001,20.2200001 15.4133334,20.2600001 15.0800001,20.2600001 C13.8133334,20.2600001 12.7266667,19.8133334 11.82,18.92 C11.5533334,18.64 11.3333334,18.3733334 11.16,18.12 C10.8533334,17.7066667 10.66,17.2533334 10.58,16.76 L10.5,16.62 C10.4333334,16.2733334 10.4,15.92 10.4,15.56 C10.4,14.28 10.8533334,13.1666667 11.76,12.22 C12.7066667,11.3266667 13.8133334,10.88 15.0800001,10.88 C15.4133334,10.88 15.7200001,10.9066667 16.0000001,10.96 L16.0200001,10.96 C16.7000001,11.08 17.3066667,11.3533334 17.8400001,11.78 C18.0266667,11.94 18.2000001,12.0866667 18.3600001,12.22 C18.3866667,12.2733334 18.4133334,12.3133334 18.4400001,12.34 L18.4400001,12.34 Z" transform="translate(5 2824)"/>
    <path fill="#686868" fill-rule="nonzero" d="M29.8600001,17.84 L29.8600001,13.36 L25.7400001,13.36 C25.4466667,12.0133334 24.9333334,10.7866667 24.2000001,9.68000002 L27.1000001,6.74000002 L23.9400001,3.60000001 L21.0400001,6.46000002 C19.9066667,5.68666668 18.6666667,5.16000001 17.3200001,4.88000001 L17.3200001,0.820000002 L12.88,0.820000002 L12.88,4.88000001 C11.4933334,5.14666668 10.2533334,5.65333335 9.16000004,6.40000002 L6.20000003,3.52000001 L3.08000002,6.76000002 L5.92000003,9.64000002 C5.18666669,10.7466667 4.68000002,11.9866667 4.40000002,13.36 L0.360000013,13.36 L0.360000013,17.84 L4.42000002,17.84 C4.46000002,17.92 4.50000002,18 4.54000002,18.08 C4.76666669,19.3333334 5.24000003,20.4866667 5.96000003,21.5400001 L3.06000002,24.5200001 L6.20000003,27.6800001 L9.18000004,24.7800001 C10.2733334,25.4866667 11.5066667,25.9733334 12.88,26.2400001 L12.88,30.4200001 L17.3200001,30.4200001 L17.3200001,26.2000001 C18.6533334,25.9466667 19.8866667,25.4333334 21.0200001,24.6600001 L23.9400001,27.6800001 L27.1000001,24.5200001 L24.1600001,21.5200001 C24.4400001,21.1200001 24.6800001,20.7066667 24.8800001,20.2800001 L24.8800001,20.2600001 C25.2533334,19.5 25.5400001,18.6933334 25.7400001,17.84 L29.8600001,17.84 L29.8600001,17.84 Z M18.4400001,12.34 L18.4400001,12.32 C19.2933334,13.2 19.7200001,14.28 19.7200001,15.56 C19.7200001,16.2666667 19.5933334,16.9133334 19.3400001,17.5 C19.3266667,17.5 19.3200001,17.5066667 19.3200001,17.52 C19.2133334,17.7333334 19.1000001,17.9333334 18.9800001,18.12 L18.9600001,18.12 C18.8133334,18.36 18.6400001,18.5733334 18.4400001,18.76 L18.4400001,18.74 C18.4133334,18.78 18.3866667,18.82 18.3600001,18.86 C17.6666667,19.5533334 16.8800001,19.98 16.0000001,20.1400001 C15.7200001,20.2200001 15.4133334,20.2600001 15.0800001,20.2600001 C13.8133334,20.2600001 12.7266667,19.8133334 11.82,18.92 C11.5533334,18.64 11.3333334,18.3733334 11.16,18.12 C10.8533334,17.7066667 10.66,17.2533334 10.58,16.76 L10.5,16.62 C10.4333334,16.2733334 10.4,15.92 10.4,15.56 C10.4,14.28 10.8533334,13.1666667 11.76,12.22 C12.7066667,11.3266667 13.8133334,10.88 15.0800001,10.88 C15.4133334,10.88 15.7200001,10.9066667 16.0000001,10.96 L16.0200001,10.96 C16.7000001,11.08 17.3066667,11.3533334 17.8400001,11.78 C18.0266667,11.94 18.2000001,12.0866667 18.3600001,12.22 C18.3866667,12.2733334 18.4133334,12.3133334 18.4400001,12.34 L18.4400001,12.34 Z" transform="translate(5 2764)"/>
    <path fill="#FFF" d="M17.375605 28L3.9992748 28C1.78679466 28 7.99360578e-15 26.209139 7.99360578e-15 24 7.99360578e-15 21.7953562 1.79053632 20 3.9992748 20L13.089075 20C13.470751 23.1914814 15.0549507 26.0135045 17.375605 28zM7 22L5 22 5 26 7 26 7 22zM13.0098172 18L3.9992748 18C1.78679466 18 0 16.209139 0 14 0 11.7953562 1.79053632 10 3.9992748 10L16.3347736 10C14.3708681 12.1166166 13.131188 14.9146446 13.0098172 18zM7 12L5 12 5 16 7 16 7 12zM30.5634195 7.06802915C29.0155909 6.38145221 27.3023419 6 25.5 6 22.9987121 6 20.6690159 6.73467142 18.7149256 8L4.0042577 8C1.78902751 8 0 6.209139 0 4 0 1.79535615 1.79276724 0 4.0042577 0L27.9957423 0C30.2109725 0 32 1.790861 32 4 32 5.23051779 31.4415005 6.33353047 30.5634195 7.06802915zM7 2L5 2 5 6 7 6 7 2zM25.5 29C19.7010101 29 15 24.2989899 15 18.5 15 12.7010101 19.7010101 8 25.5 8 31.2989899 8 36 12.7010101 36 18.5 36 24.2989899 31.2989899 29 25.5 29zM29.66 14.64C29.4866667 14.12 29.28 13.7533333 29.04 13.54L28.7 13.14 28.68 13.12 28.62 13.1C27.8466667 12.3666667 26.8466667 12 25.62 12 24.5 12 23.4533333 12.3866667 22.48 13.16 21.7733333 13.9066667 21.32 14.7333333 21.12 15.64L21.02 16.34 21 16.42 23.04 16.74C23.16 16.1666667 23.2666667 15.8 23.36 15.64 23.68 14.56 24.3733333 14.02 25.44 14.02 25.8933333 14.02 26.34 14.1933333 26.78 14.54 27.0733333 14.8866667 27.24 15.2533333 27.28 15.64 27.3066667 15.7066667 27.32 15.8066667 27.32 15.94 27.32 16.3 27.2466667 16.6 27.1 16.84 27.0466667 16.96 26.96 17.1133333 26.84 17.3L26.78 17.34C26.5666667 17.6866667 26.3066667 17.9466667 26 18.12L25.96 18.14C25.8 18.2466667 25.6866667 18.34 25.62 18.42 25.5933333 18.4466667 25.5733333 18.4666667 25.56 18.48 25.1866667 18.7733334 24.9533333 19.0133334 24.86 19.2L24.68 19.56C24.5866667 19.8133334 24.54 20.0333334 24.54 20.22L24.54 22.5 26.4 22.5 26.46 21.28 26.48 20.88 26.5 20.36C26.58 20.1866667 26.7466667 20.0066667 27 19.82L28.76 18.48 28.78 18.46C28.9 18.3133333 29 18.2 29.08 18.12 29.1333334 18.04 29.1666667 17.9933333 29.18 17.98 29.34 17.7666667 29.4533334 17.5466667 29.52 17.32L29.56 17.3C29.6266667 17.1933333 29.66 17.1 29.66 17.02 29.7933334 16.62 29.86 16.2133333 29.86 15.8 29.86 15.3333333 29.7933334 14.9466667 29.66 14.64zM24.3 23.6L24.3 25.68 26.74 25.68 26.74 23.6 24.3 23.6z" transform="translate(2 2704)"/>
    <path fill="#686868" d="M17.375605 28L3.9992748 28C1.78679466 28 7.99360578e-15 26.209139 7.99360578e-15 24 7.99360578e-15 21.7953562 1.79053632 20 3.9992748 20L13.089075 20C13.470751 23.1914814 15.0549507 26.0135045 17.375605 28zM7 22L5 22 5 26 7 26 7 22zM13.0098172 18L3.9992748 18C1.78679466 18 0 16.209139 0 14 0 11.7953562 1.79053632 10 3.9992748 10L16.3347736 10C14.3708681 12.1166166 13.131188 14.9146446 13.0098172 18zM7 12L5 12 5 16 7 16 7 12zM30.5634195 7.06802915C29.0155909 6.38145221 27.3023419 6 25.5 6 22.9987121 6 20.6690159 6.73467142 18.7149256 8L4.0042577 8C1.78902751 8 0 6.209139 0 4 0 1.79535615 1.79276724 0 4.0042577 0L27.9957423 0C30.2109725 0 32 1.790861 32 4 32 5.23051779 31.4415005 6.33353047 30.5634195 7.06802915zM7 2L5 2 5 6 7 6 7 2zM25.5 29C19.7010101 29 15 24.2989899 15 18.5 15 12.7010101 19.7010101 8 25.5 8 31.2989899 8 36 12.7010101 36 18.5 36 24.2989899 31.2989899 29 25.5 29zM29.66 14.64C29.4866667 14.12 29.28 13.7533333 29.04 13.54L28.7 13.14 28.68 13.12 28.62 13.1C27.8466667 12.3666667 26.8466667 12 25.62 12 24.5 12 23.4533333 12.3866667 22.48 13.16 21.7733333 13.9066667 21.32 14.7333333 21.12 15.64L21.02 16.34 21 16.42 23.04 16.74C23.16 16.1666667 23.2666667 15.8 23.36 15.64 23.68 14.56 24.3733333 14.02 25.44 14.02 25.8933333 14.02 26.34 14.1933333 26.78 14.54 27.0733333 14.8866667 27.24 15.2533333 27.28 15.64 27.3066667 15.7066667 27.32 15.8066667 27.32 15.94 27.32 16.3 27.2466667 16.6 27.1 16.84 27.0466667 16.96 26.96 17.1133333 26.84 17.3L26.78 17.34C26.5666667 17.6866667 26.3066667 17.9466667 26 18.12L25.96 18.14C25.8 18.2466667 25.6866667 18.34 25.62 18.42 25.5933333 18.4466667 25.5733333 18.4666667 25.56 18.48 25.1866667 18.7733334 24.9533333 19.0133334 24.86 19.2L24.68 19.56C24.5866667 19.8133334 24.54 20.0333334 24.54 20.22L24.54 22.5 26.4 22.5 26.46 21.28 26.48 20.88 26.5 20.36C26.58 20.1866667 26.7466667 20.0066667 27 19.82L28.76 18.48 28.78 18.46C28.9 18.3133333 29 18.2 29.08 18.12 29.1333334 18.04 29.1666667 17.9933333 29.18 17.98 29.34 17.7666667 29.4533334 17.5466667 29.52 17.32L29.56 17.3C29.6266667 17.1933333 29.66 17.1 29.66 17.02 29.7933334 16.62 29.86 16.2133333 29.86 15.8 29.86 15.3333333 29.7933334 14.9466667 29.66 14.64zM24.3 23.6L24.3 25.68 26.74 25.68 26.74 23.6 24.3 23.6z" transform="translate(2 2644)"/>
    <path fill="#FFF" fill-rule="nonzero" d="M35.0526316,34 L35.0526316,6 L3,6 L3,34 L35.0526316,34 Z M33,14 L33,32 L5,32 L5,14 L33,14 Z M14,25 L14,27 L18,27 L18,25 L14,25 Z M12,27 L12,25 L8,25 L8,27 L12,27 Z M30,19 L30,17 L8,17 L8,19 L30,19 Z M30,23 L30,21 L8,21 L8,23 L30,23 Z" transform="translate(0 2580)"/>
    <path fill="#686868" fill-rule="nonzero" d="M35.0526316,34 L35.0526316,6 L3,6 L3,34 L35.0526316,34 Z M33,14 L33,32 L5,32 L5,14 L33,14 Z M14,25 L14,27 L18,27 L18,25 L14,25 Z M12,27 L12,25 L8,25 L8,27 L12,27 Z M30,19 L30,17 L8,17 L8,19 L30,19 Z M30,23 L30,21 L8,21 L8,23 L30,23 Z" transform="translate(0 2520)"/>
    <path fill="#FFF" fill-rule="nonzero" d="M12.78,1.6 L9.26000002,1.6 L3.88000001,15.4 L7.18000002,15.4 L8.52000002,11.66 L13.42,11.66 L14.72,15.4 L18.06,15.4 L12.78,1.6 L12.78,1.6 Z M10.98,5.04000001 L12.56,9.04000002 L9.38000002,9.04000001 L10.98,5.04000001 L10.98,5.04000001 Z M16.66,19.52 L16.66,16.8 L5.04000001,16.8 L5.04000001,19.84 L12.22,19.84 L4.86000001,27.1800001 L4.86000001,30.0200001 L17.38,30.0200001 L17.38,27.1000001 L9.08000002,27.1000001 L16.66,19.52 L16.66,19.52 Z M28.6600001,0.720000002 L21.3400001,10.28 L26.2400001,10.28 L26.2400001,21.3600001 L21.3400001,21.3600001 L28.6600001,30.9400001 L36.1200001,21.3600001 L31.2000001,21.3600001 L31.2000001,10.28 L36.1200001,10.28 L28.6600001,0.720000002 L28.6600001,0.720000002 Z" transform="translate(0 2464)"/>
    <path fill="#686868" fill-rule="nonzero" d="M12.78,1.6 L9.26000002,1.6 L3.88000001,15.4 L7.18000002,15.4 L8.52000002,11.66 L13.42,11.66 L14.72,15.4 L18.06,15.4 L12.78,1.6 L12.78,1.6 Z M10.98,5.04000001 L12.56,9.04000002 L9.38000002,9.04000001 L10.98,5.04000001 L10.98,5.04000001 Z M16.66,19.52 L16.66,16.8 L5.04000001,16.8 L5.04000001,19.84 L12.22,19.84 L4.86000001,27.1800001 L4.86000001,30.0200001 L17.38,30.0200001 L17.38,27.1000001 L9.08000002,27.1000001 L16.66,19.52 L16.66,19.52 Z M28.6600001,0.720000002 L21.3400001,10.28 L26.2400001,10.28 L26.2400001,21.3600001 L21.3400001,21.3600001 L28.6600001,30.9400001 L36.1200001,21.3600001 L31.2000001,21.3600001 L31.2000001,10.28 L36.1200001,10.28 L28.6600001,0.720000002 L28.6600001,0.720000002 Z" transform="translate(0 2404)"/>
    <path fill="#FFF" fill-rule="nonzero" d="M31.1800001,6.04000002 L31.1800001,0.800000002 L5.20000002,0.800000002 L5.20000002,6.02000002 L1.00000008e-08,6.02000002 L1.00000008e-08,30.8 L5.20000002,30.8000001 L5.20000002,6.04000002 L31.1800001,6.04000002 Z M28.6000001,15.32 L32.0000001,15.32 L26.6200001,7.26000002 L20.9800001,15.32 L24.5800001,15.32 C24.2866667,17.4666667 23.3333334,19.36 21.7200001,21.0000001 C19.8933334,22.8000001 17.7266667,23.7800001 15.22,23.9400001 L15.22,20.1200001 L7.20000003,25.4800001 L15.22,31.1200001 L15.22,27.9200001 C18.8333334,27.7600001 21.9400001,26.3866667 24.5400001,23.8000001 C26.9266667,21.4000001 28.2800001,18.5733334 28.6000001,15.32 Z" transform="translate(4 2344)"/>
    <path fill="#686868" fill-rule="nonzero" d="M35.1800001,6.04000002 L35.1800001,0.800000002 L9.20000002,0.800000002 L9.20000002,6.02000002 L4.00000001,6.02000002 L4.00000001,30.8 L9.20000002,30.8000001 L9.20000002,6.04000002 L35.1800001,6.04000002 Z M32.6000001,15.32 L36.0000001,15.32 L30.6200001,7.26000002 L24.9800001,15.32 L28.5800001,15.32 C28.2866667,17.4666667 27.3333334,19.36 25.7200001,21.0000001 C23.8933334,22.8000001 21.7266667,23.7800001 19.22,23.9400001 L19.22,20.1200001 L11.2,25.4800001 L19.22,31.1200001 L19.22,27.9200001 C22.8333334,27.7600001 25.9400001,26.3866667 28.5400001,23.8000001 C30.9266667,21.4000001 32.2800001,18.5733334 32.6000001,15.32 Z" transform="translate(0 2284)"/>
    <g fill="#FFF" fill-rule="nonzero" transform="translate(9 2225)">
      <path d="M21.0000001,7.00000002 L18.6200001,26.1610001 C18.5040001,27.7290001 17.3770001,29.0000001 16.1010001,29.0000001 L5.89800004,29.0000001 C4.62300003,29.0000001 3.49500003,27.7300001 3.37900003,26.1610001 L0.999000025,7.00000002 L20.999,7.00000002 L21.0000001,7.00000002 Z M2.24999894e-08,4.00000001 C2.24999912e-08,3.44800001 0.439000024,3.00000001 1.00200003,3.00000001 L20.9970001,3.00000001 C21.5510001,3.00000001 21.9990001,3.44400001 21.9990001,4.00000001 C21.9990001,4.55200001 21.5600001,5.00000002 20.9970001,5.00000002 L1.00200003,5.00000002 C0.448000024,5.00000002 2.24999894e-08,4.55600001 2.24999894e-08,4.00000001 Z"/>
      <path d="M9.00000005,2.49900001 C9.00000005,2.29300001 9.39100005,2.00000001 10.006,2.00000001 L12.9940001,2.00000001 C13.6010001,2.00000001 14.0000001,2.29900001 14.0000001,2.49900001 L14.0000001,3.00200001 L16.0000001,3.00200001 L16.0000001,2.49900001 C16.0000001,1.04700001 14.6000001,2.49997356e-09 12.9940001,2.49997356e-09 L10.006,2.49997356e-09 C8.39100004,2.49997356e-09 7.00000004,1.04300001 7.00000004,2.49900001 L7.00000004,3.00200001 L9.00000005,3.00200001 L9.00000005,2.49900001 L9.00000005,2.49900001 Z"/>
    </g>
    <g fill="#686868" fill-rule="nonzero" transform="translate(9 2165)">
      <path d="M21.0000001,7.00000002 L18.6200001,26.1610001 C18.5040001,27.7290001 17.3770001,29.0000001 16.1010001,29.0000001 L5.89800004,29.0000001 C4.62300003,29.0000001 3.49500003,27.7300001 3.37900003,26.1610001 L0.999000025,7.00000002 L20.999,7.00000002 L21.0000001,7.00000002 Z M2.24999894e-08,4.00000001 C2.24999912e-08,3.44800001 0.439000024,3.00000001 1.00200003,3.00000001 L20.9970001,3.00000001 C21.5510001,3.00000001 21.9990001,3.44400001 21.9990001,4.00000001 C21.9990001,4.55200001 21.5600001,5.00000002 20.9970001,5.00000002 L1.00200003,5.00000002 C0.448000024,5.00000002 2.24999894e-08,4.55600001 2.24999894e-08,4.00000001 Z"/>
      <path d="M9.00000005,2.49900001 C9.00000005,2.29300001 9.39100005,2.00000001 10.006,2.00000001 L12.9940001,2.00000001 C13.6010001,2.00000001 14.0000001,2.29900001 14.0000001,2.49900001 L14.0000001,3.00200001 L16.0000001,3.00200001 L16.0000001,2.49900001 C16.0000001,1.04700001 14.6000001,2.49997356e-09 12.9940001,2.49997356e-09 L10.006,2.49997356e-09 C8.39100004,2.49997356e-09 7.00000004,1.04300001 7.00000004,2.49900001 L7.00000004,3.00200001 L9.00000005,3.00200001 L9.00000005,2.49900001 L9.00000005,2.49900001 Z"/>
    </g>
    <path fill="#FFF" fill-rule="nonzero" d="M33.1400001,8.12000002 L32.6400001,7.56000002 C32.0533334,6.92000002 31.4266667,6.36666668 30.7600001,5.90000001 C30.0000001,5.35333335 29.2400001,4.93333335 28.4800001,4.64000001 C27.7333334,4.32000001 26.9000001,4.07333334 25.9800001,3.90000001 L25.3400001,3.80000001 L25.2600001,3.78000001 L25.1800001,3.78000001 L24.8600001,3.74000001 L24.7200001,3.74000001 L24.6600001,3.72000001 L24.5600001,3.72000001 L24.4000001,3.70000001 C24.2666667,3.70000001 24.1600001,3.69333334 24.0800001,3.68000001 L23.4400001,3.68000001 C22.5600001,3.68000001 21.7066667,3.76666668 20.8800001,3.94000001 C20.0933334,4.11333334 19.28,4.38000001 18.44,4.74000001 C17.6666667,5.07333335 16.9533334,5.46666668 16.3,5.92000001 L15.52,6.48000002 L15.5,6.52000002 L15.46,6.54000002 L15.22,6.74000002 L15.14,6.82000002 L15.04,6.88000002 L15,6.92000002 L14.94,6.96000002 L14.94,6.98000002 L14.5,7.38000002 L13.04,9.00000002 C12.64,9.50666669 12.26,10.0866667 11.9,10.74 L11.36,11.84 L11.3,11.94 L11.1,12.48 C10.9133334,12.9733334 10.7466667,13.5 10.6,14.06 C10.5066667,14.4333334 10.42,14.8533334 10.34,15.32 L4.16000001,15.32 L15.2,30.7600001 L25.6600001,15.34 L18.92,15.34 C18.92,15.1266667 18.9333334,14.96 18.96,14.84 L18.98,14.74 L18.98,14.64 L19,14.6 L19,14.56 L19.04,14.36 L19.04,14.3 L19.06,14.26 L19.1,14.06 C19.18,13.7666667 19.2866667,13.48 19.42,13.2 L19.92,12.28 L20.1000001,12.04 L20.1000001,12.02 L20.1800001,11.92 L20.2000001,11.88 L20.2200001,11.86 L20.2400001,11.86 L20.2600001,11.8 L20.3200001,11.74 L20.3400001,11.7 L20.4000001,11.64 L20.4400001,11.58 L20.6400001,11.36 C21.2133334,10.7333334 21.8733334,10.2466667 22.6200001,9.90000002 C23.0733334,9.70000002 23.5133334,9.55333336 23.9400001,9.46000002 L24.5800001,9.34000002 L24.6600001,9.34000002 L24.7800001,9.32000002 L24.8800001,9.32000002 L24.9600001,9.30000002 L25.0600001,9.30000002 L25.4400001,9.26000002 C26.0400001,9.26000002 26.5400001,9.30000002 26.9400001,9.38000002 C27.4733334,9.46000002 27.9666667,9.60666669 28.4200001,9.82000002 C28.8733334,10.0066667 29.3533334,10.2733334 29.8600001,10.62 L30.2000001,10.88 L30.2400001,10.9 L30.2600001,10.92 L30.5200001,11.14 L30.5600001,11.16 L31.1200001,11.72 C31.5066667,12.1066667 31.8533334,12.5466667 32.1600001,13.04 C32.4933334,13.6 32.7333334,14.1 32.8800001,14.54 C33.0800001,15.06 33.2200001,15.6 33.3000001,16.16 L33.3800001,16.58 L33.3800001,16.68 L33.4000001,16.72 L33.4000001,16.76 L33.4400001,17.2 L33.4400001,18.6 L33.3400001,19.36 C33.2600001,19.88 33.1400001,20.3600001 32.9800001,20.8000001 C32.7000001,21.6533334 32.2933334,22.4466667 31.7600001,23.1800001 L31.4200001,23.6600001 L31.4000001,23.6600001 L31.4000001,23.6800001 L31.3200001,23.7600001 L31.2400001,23.8800001 L30.3800001,24.8000001 C30.1400001,25.0266667 29.7866667,25.3200001 29.3200001,25.6800001 L28.9200001,25.9600001 L28.9400001,26.0200001 L29.2200001,25.9200001 L29.8000001,25.6400001 L29.9600001,25.5800001 L30.6800001,25.1600001 C30.9466667,25.0000001 31.2266667,24.8000001 31.5200001,24.5600001 C31.5733334,24.5333334 31.6466667,24.4733334 31.7400001,24.3800001 L31.8600001,24.3000001 L31.9400001,24.2200001 L31.9800001,24.2000001 L32.9400001,23.3000001 L34.3200001,21.4400001 C34.6266668,20.9466667 34.8800001,20.4133334 35.0800001,19.84 C35.2000001,19.5733334 35.3000001,19.28 35.3800001,18.96 L35.6200001,17.9 L35.6600001,17.78 L35.7000001,17.54 L35.7000001,17.4 L35.8200001,16.28 L35.8200001,16.14 L35.8400001,16.02 C35.8666668,15.3266667 35.8266668,14.6066667 35.7200001,13.86 C35.6133334,13.0866667 35.4266668,12.3466667 35.1600001,11.64 C34.9066668,10.9333334 34.5600001,10.22 34.1200001,9.50000002 L33.4400001,8.50000002 L33.1600001,8.16000002 L33.1400001,8.12000002 L33.1400001,8.12000002 Z" transform="translate(0 2104)"/>
    <path fill="#686868" fill-rule="nonzero" d="M33.1400001,8.12000002 L32.6400001,7.56000002 C32.0533334,6.92000002 31.4266667,6.36666668 30.7600001,5.90000001 C30.0000001,5.35333335 29.2400001,4.93333335 28.4800001,4.64000001 C27.7333334,4.32000001 26.9000001,4.07333334 25.9800001,3.90000001 L25.3400001,3.80000001 L25.2600001,3.78000001 L25.1800001,3.78000001 L24.8600001,3.74000001 L24.7200001,3.74000001 L24.6600001,3.72000001 L24.5600001,3.72000001 L24.4000001,3.70000001 C24.2666667,3.70000001 24.1600001,3.69333334 24.0800001,3.68000001 L23.4400001,3.68000001 C22.5600001,3.68000001 21.7066667,3.76666668 20.8800001,3.94000001 C20.0933334,4.11333334 19.28,4.38000001 18.44,4.74000001 C17.6666667,5.07333335 16.9533334,5.46666668 16.3,5.92000001 L15.52,6.48000002 L15.5,6.52000002 L15.46,6.54000002 L15.22,6.74000002 L15.14,6.82000002 L15.04,6.88000002 L15,6.92000002 L14.94,6.96000002 L14.94,6.98000002 L14.5,7.38000002 L13.04,9.00000002 C12.64,9.50666669 12.26,10.0866667 11.9,10.74 L11.36,11.84 L11.3,11.94 L11.1,12.48 C10.9133334,12.9733334 10.7466667,13.5 10.6,14.06 C10.5066667,14.4333334 10.42,14.8533334 10.34,15.32 L4.16000001,15.32 L15.2,30.7600001 L25.6600001,15.34 L18.92,15.34 C18.92,15.1266667 18.9333334,14.96 18.96,14.84 L18.98,14.74 L18.98,14.64 L19,14.6 L19,14.56 L19.04,14.36 L19.04,14.3 L19.06,14.26 L19.1,14.06 C19.18,13.7666667 19.2866667,13.48 19.42,13.2 L19.92,12.28 L20.1000001,12.04 L20.1000001,12.02 L20.1800001,11.92 L20.2000001,11.88 L20.2200001,11.86 L20.2400001,11.86 L20.2600001,11.8 L20.3200001,11.74 L20.3400001,11.7 L20.4000001,11.64 L20.4400001,11.58 L20.6400001,11.36 C21.2133334,10.7333334 21.8733334,10.2466667 22.6200001,9.90000002 C23.0733334,9.70000002 23.5133334,9.55333336 23.9400001,9.46000002 L24.5800001,9.34000002 L24.6600001,9.34000002 L24.7800001,9.32000002 L24.8800001,9.32000002 L24.9600001,9.30000002 L25.0600001,9.30000002 L25.4400001,9.26000002 C26.0400001,9.26000002 26.5400001,9.30000002 26.9400001,9.38000002 C27.4733334,9.46000002 27.9666667,9.60666669 28.4200001,9.82000002 C28.8733334,10.0066667 29.3533334,10.2733334 29.8600001,10.62 L30.2000001,10.88 L30.2400001,10.9 L30.2600001,10.92 L30.5200001,11.14 L30.5600001,11.16 L31.1200001,11.72 C31.5066667,12.1066667 31.8533334,12.5466667 32.1600001,13.04 C32.4933334,13.6 32.7333334,14.1 32.8800001,14.54 C33.0800001,15.06 33.2200001,15.6 33.3000001,16.16 L33.3800001,16.58 L33.3800001,16.68 L33.4000001,16.72 L33.4000001,16.76 L33.4400001,17.2 L33.4400001,18.6 L33.3400001,19.36 C33.2600001,19.88 33.1400001,20.3600001 32.9800001,20.8000001 C32.7000001,21.6533334 32.2933334,22.4466667 31.7600001,23.1800001 L31.4200001,23.6600001 L31.4000001,23.6600001 L31.4000001,23.6800001 L31.3200001,23.7600001 L31.2400001,23.8800001 L30.3800001,24.8000001 C30.1400001,25.0266667 29.7866667,25.3200001 29.3200001,25.6800001 L28.9200001,25.9600001 L28.9400001,26.0200001 L29.2200001,25.9200001 L29.8000001,25.6400001 L29.9600001,25.5800001 L30.6800001,25.1600001 C30.9466667,25.0000001 31.2266667,24.8000001 31.5200001,24.5600001 C31.5733334,24.5333334 31.6466667,24.4733334 31.7400001,24.3800001 L31.8600001,24.3000001 L31.9400001,24.2200001 L31.9800001,24.2000001 L32.9400001,23.3000001 L34.3200001,21.4400001 C34.6266668,20.9466667 34.8800001,20.4133334 35.0800001,19.84 C35.2000001,19.5733334 35.3000001,19.28 35.3800001,18.96 L35.6200001,17.9 L35.6600001,17.78 L35.7000001,17.54 L35.7000001,17.4 L35.8200001,16.28 L35.8200001,16.14 L35.8400001,16.02 C35.8666668,15.3266667 35.8266668,14.6066667 35.7200001,13.86 C35.6133334,13.0866667 35.4266668,12.3466667 35.1600001,11.64 C34.9066668,10.9333334 34.5600001,10.22 34.1200001,9.50000002 L33.4400001,8.50000002 L33.1600001,8.16000002 L33.1400001,8.12000002 L33.1400001,8.12000002 Z" transform="translate(0 2044)"/>
    <path fill="#FFF" fill-rule="nonzero" d="M21.1200001,11.24 L19.34,11.3 C16.5533334,11.6066667 13.8933334,12.4466667 11.36,13.82 C8.64000002,15.3 6.56000002,17.5066667 5.12000001,20.4400001 C4.05333334,22.5600001 3.70000001,24.7866667 4.06000001,27.1200001 C4.87333335,25.4533334 5.98666668,24.0466667 7.40000002,22.9000001 C10.4,20.4733334 13.7733334,19.2133334 17.52,19.12 C18.72,19.0933334 19.92,19.2 21.1200001,19.44 L21.1400001,19.44 L21.1400001,26.4400001 L36.1000001,16.42 L21.1400001,4.68000001 L21.1400001,11.24 L21.1200001,11.24 L21.1200001,11.24 Z" transform="translate(0 1984)"/>
    <path fill="#686868" fill-rule="nonzero" d="M21.1200001,11.24 L19.34,11.3 C16.5533334,11.6066667 13.8933334,12.4466667 11.36,13.82 C8.64000002,15.3 6.56000002,17.5066667 5.12000001,20.4400001 C4.05333334,22.5600001 3.70000001,24.7866667 4.06000001,27.1200001 C4.87333335,25.4533334 5.98666668,24.0466667 7.40000002,22.9000001 C10.4,20.4733334 13.7733334,19.2133334 17.52,19.12 C18.72,19.0933334 19.92,19.2 21.1200001,19.44 L21.1400001,19.44 L21.1400001,26.4400001 L36.1000001,16.42 L21.1400001,4.68000001 L21.1400001,11.24 L21.1200001,11.24 L21.1200001,11.24 Z" transform="translate(0 1924)"/>
    <path fill="#FFF" fill-rule="nonzero" d="M32.6200001,22.9000001 C34.0333334,24.0466667 35.1466668,25.4533334 35.9600001,27.1200001 C36.3200001,24.7866667 35.9666668,22.5600001 34.9000001,20.4400001 C33.4600001,17.5066667 31.3800001,15.3 28.6600001,13.82 C26.1266667,12.4466667 23.4666667,11.6066667 20.6800001,11.3 L18.88,11.24 L18.88,4.68000001 L3.92000001,16.42 L18.88,26.4400001 L18.88,19.44 L18.9,19.44 C20.1000001,19.2 21.3000001,19.0933334 22.5000001,19.12 C26.2466667,19.2133334 29.6200001,20.4733334 32.6200001,22.9000001 L32.6200001,22.9000001 Z" transform="translate(0 1864)"/>
    <path fill="#686868" fill-rule="nonzero" d="M32.6200001,22.9000001 C34.0333334,24.0466667 35.1466668,25.4533334 35.9600001,27.1200001 C36.3200001,24.7866667 35.9666668,22.5600001 34.9000001,20.4400001 C33.4600001,17.5066667 31.3800001,15.3 28.6600001,13.82 C26.1266667,12.4466667 23.4666667,11.6066667 20.6800001,11.3 L18.88,11.24 L18.88,4.68000001 L3.92000001,16.42 L18.88,26.4400001 L18.88,19.44 L18.9,19.44 C20.1000001,19.2 21.3000001,19.0933334 22.5000001,19.12 C26.2466667,19.2133334 29.6200001,20.4733334 32.6200001,22.9000001 L32.6200001,22.9000001 Z" transform="translate(0 1804)"/>
    <path fill="#FFF" d="M10,12 L24,12 L24,15 L10,15 L10,12 Z M10,17 L24,17 L24,20 L10,20 L10,17 Z M10,22 L20,22 L20,25 L10,25 L10,22 Z M10,27 L20,27 L20,30 L10,30 L10,27 Z M31,19 L31,24.0683232 L38,24.0683232 L38,30.031056 L31,30.031056 L31,35 L22,26.924645 L31,19 Z M28,16 C28,16 27.9994213,8.00007558 28,8 C28,8 5.99975053,7.99983808 6,8 C6,8 6.00027189,33 6,33 L23,33 L27,36 L5,36 C5,36 3,36 3,33.7857143 L3,7.21428571 C3,6.10714286 4,5 5,5 L29,5 C30.5772927,5 31,6.10714286 31,7.21428571 L31,16 L28,16 Z" transform="translate(0 1740)"/>
    <path fill="#666" d="M10,12 L24,12 L24,15 L10,15 L10,12 Z M10,17 L24,17 L24,20 L10,20 L10,17 Z M10,22 L20,22 L20,25 L10,25 L10,22 Z M10,27 L20,27 L20,30 L10,30 L10,27 Z M31,19 L31,24.0683232 L38,24.0683232 L38,30.031056 L31,30.031056 L31,35 L22,26.924645 L31,19 Z M28,16 C28,16 27.9994213,8.00007558 28,8 C28,8 5.99975053,7.99983808 6,8 C6,8 6.00027189,33 6,33 L23,33 L27,36 L5,36 C5,36 3,36 3,33.7857143 L3,7.21428571 C3,6.10714286 4,5 5,5 L29,5 C30.5772927,5 31,6.10714286 31,7.21428571 L31,16 L28,16 Z" transform="translate(0 1680)"/>
    <path fill="#FFF" d="M10,12 L24,12 L24,15 L10,15 L10,12 Z M10,17 L24,17 L24,20 L10,20 L10,17 Z M10,22 L20,22 L20,25 L10,25 L10,22 Z M10,27 L20,27 L20,30 L10,30 L10,27 Z M29,19 L38,26.924645 L29,35 L29,30.031056 L22,30.031056 L22,24.0683232 L29,24.0683232 L29,19 Z M28,16 C28,16 27.9994213,8.00007558 28,8 C28,8 5.99975053,7.99983808 6,8 C6,8 6.00027189,33 6,33 L25,33 L25,36 L5,36 C5,36 3,36 3,33.7857143 L3,7.21428571 C3,6.10714286 4,5 5,5 L29,5 C30.5772927,5 31,6.10714286 31,7.21428571 L31,16 L28,16 Z" transform="translate(0 1620)"/>
    <path fill="#666" d="M10,12 L24,12 L24,15 L10,15 L10,12 Z M10,17 L24,17 L24,20 L10,20 L10,17 Z M10,22 L20,22 L20,25 L10,25 L10,22 Z M10,27 L20,27 L20,30 L10,30 L10,27 Z M29,19 L38,26.924645 L29,35 L29,30.031056 L22,30.031056 L22,24.0683232 L29,24.0683232 L29,19 Z M28,16 C28,16 27.9994213,8.00007558 28,8 C28,8 5.99975053,7.99983808 6,8 C6,8 6.00027189,33 6,33 L25,33 L25,36 L5,36 C5,36 3,36 3,33.7857143 L3,7.21428571 C3,6.10714286 4,5 5,5 L29,5 C30.5772927,5 31,6.10714286 31,7.21428571 L31,16 L28,16 Z" transform="translate(0 1560)"/>
    <path fill="#FFF" fill-rule="nonzero" d="M29.8200001,13.54 L29.8200001,0.800000002 L10.2,0.800000002 L10.2,13.54 L29.8200001,13.54 Z M25.0000001,2.86000001 L27.7600001,2.86000001 L27.7600001,10.08 L25.0000001,10.08 L25.0000001,2.86000001 Z M37.4000001,15.32 L37.4000001,4.58000001 L32.8800001,0.800000002 L31.8400001,0.800000002 L31.8400001,15.62 L8.06000002,15.62 L8.06000002,0.800000002 L2.60000001,0.800000002 L2.60000001,30.3800001 L37.4000001,30.3800001 L37.4000001,15.32 L37.4000001,15.32 Z" transform="translate(0 1504)"/>
    <path fill="#686868" fill-rule="nonzero" d="M29.8200001,13.54 L29.8200001,0.800000002 L10.2,0.800000002 L10.2,13.54 L29.8200001,13.54 Z M25.0000001,2.86000001 L27.7600001,2.86000001 L27.7600001,10.08 L25.0000001,10.08 L25.0000001,2.86000001 Z M37.4000001,15.32 L37.4000001,4.58000001 L32.8800001,0.800000002 L31.8400001,0.800000002 L31.8400001,15.62 L8.06000002,15.62 L8.06000002,0.800000002 L2.60000001,0.800000002 L2.60000001,30.3800001 L37.4000001,30.3800001 L37.4000001,15.32 L37.4000001,15.32 Z" transform="translate(0 1444)"/>
    <path fill="#FFF" fill-rule="nonzero" d="M2.10000002,22.9000001 L0.400000013,29.4000001 L6.88000003,27.7200001 L2.10000002,22.9000001 Z M25.8400001,8.76000002 L21.0400001,3.96000001 L16.4000001,8.60000002 L12.78,12.2 L10.82,14.18 L10.38,14.6 C10.2866667,14.7066667 10.2,14.8 10.12,14.88 L3.22000002,21.7800001 L8.04000003,26.5600001 L9.60000004,24.9800001 L15.1200001,19.4600001 L15.3800001,19.1800001 L17.6000001,16.98 L17.8400001,16.72 L17.8400001,16.76 L19.5200001,15.04 L20.3200001,14.3 L20.4200001,14.18 L20.6400001,13.96 L21.1800001,13.4 L21.4000001,13.2 L25.8400001,8.76000002 Z M22.1200001,2.88000001 L26.8800001,7.68000002 L29.6200001,4.98000001 L24.8000001,0.200000003 L22.1200001,2.88000001 L22.1200001,2.88000001 Z" transform="translate(5 1385)"/>
    <path fill="#666" fill-rule="nonzero" d="M2.10000002,22.9000001 L0.400000013,29.4000001 L6.88000003,27.7200001 L2.10000002,22.9000001 Z M25.8400001,8.76000002 L21.0400001,3.96000001 L16.4000001,8.60000002 L12.78,12.2 L10.82,14.18 L10.38,14.6 C10.2866667,14.7066667 10.2,14.8 10.12,14.88 L3.22000002,21.7800001 L8.04000003,26.5600001 L9.60000004,24.9800001 L15.1200001,19.4600001 L15.3800001,19.1800001 L17.6000001,16.98 L17.8400001,16.72 L17.8400001,16.76 L19.5200001,15.04 L20.3200001,14.3 L20.4200001,14.18 L20.6400001,13.96 L21.1800001,13.4 L21.4000001,13.2 L25.8400001,8.76000002 Z M22.1200001,2.88000001 L26.8800001,7.68000002 L29.6200001,4.98000001 L24.8000001,0.200000003 L22.1200001,2.88000001 L22.1200001,2.88000001 Z" transform="translate(5 1325)"/>
    <path fill="#FFF" fill-rule="nonzero" d="M39.3800001,16.02 C38.2066668,13.3533334 35.8866668,10.4 32.4200001,7.16000002 C29.1266667,4.00000001 24.9866667,2.20000001 20,1.76 C15.0133334,2.20000001 10.8733334,4.00000001 7.58000002,7.16000002 C4.11333334,10.4 1.78666667,13.3533334 0.600000001,16.02 C1.78666667,18.66 4.11333334,21.6000001 7.58000002,24.8400001 C10.8733334,28.0000001 15.0133334,29.8066667 20,30.2600001 C24.9866667,29.8066667 29.1266667,28.0000001 32.4200001,24.8400001 C35.8866668,21.6000001 38.2066668,18.66 39.3800001,16.02 Z M28.2800001,16.02 C28.2800001,16.5866667 28.2333334,17.1333334 28.1400001,17.66 C27.8300001,19.2366667 27.0700001,20.6300001 25.8600001,21.8400001 C24.2333334,23.4800001 22.2800001,24.3000001 20,24.3000001 C17.7066667,24.3000001 15.7466667,23.4800001 14.12,21.8400001 C12.92,20.6300001 12.1666667,19.2366667 11.86,17.66 C11.7666667,17.1333334 11.72,16.5866667 11.72,16.02 C11.72,15.4433334 11.7666667,14.8833334 11.86,14.34 C12.1666667,12.75 12.92,11.35 14.12,10.14 C15.7466667,8.52666669 17.7066667,7.72000002 20,7.72000002 C22.2800001,7.72000002 24.2333334,8.52666669 25.8600001,10.14 C27.0700001,11.35 27.8300001,12.75 28.1400001,14.34 C28.2333334,14.8833334 28.2800001,15.4433334 28.2800001,16.02 Z M22.4600001,18.46 C23.1266667,17.7933334 23.4600001,16.98 23.4600001,16.02 C23.4600001,15.0466667 23.1266667,14.22 22.4600001,13.54 C21.7933334,12.86 20.9733334,12.52 20.0000001,12.52 C19.0266667,12.52 18.2133334,12.86 17.56,13.54 C16.88,14.22 16.54,15.0466667 16.54,16.02 C16.54,16.98 16.88,17.7933334 17.56,18.46 C18.2133334,19.14 19.0266667,19.48 20.0000001,19.48 C20.9733334,19.48 21.7933334,19.14 22.4600001,18.46 Z" transform="translate(0 1264)"/>
    <path fill="#686868" fill-rule="nonzero" d="M39.3800001,16.02 C38.2066668,13.3533334 35.8866668,10.4 32.4200001,7.16000002 C29.1266667,4.00000001 24.9866667,2.20000001 20,1.76 C15.0133334,2.20000001 10.8733334,4.00000001 7.58000002,7.16000002 C4.11333334,10.4 1.78666667,13.3533334 0.600000001,16.02 C1.78666667,18.66 4.11333334,21.6000001 7.58000002,24.8400001 C10.8733334,28.0000001 15.0133334,29.8066667 20,30.2600001 C24.9866667,29.8066667 29.1266667,28.0000001 32.4200001,24.8400001 C35.8866668,21.6000001 38.2066668,18.66 39.3800001,16.02 Z M28.2800001,16.02 C28.2800001,16.5866667 28.2333334,17.1333334 28.1400001,17.66 C27.8300001,19.2366667 27.0700001,20.6300001 25.8600001,21.8400001 C24.2333334,23.4800001 22.2800001,24.3000001 20,24.3000001 C17.7066667,24.3000001 15.7466667,23.4800001 14.12,21.8400001 C12.92,20.6300001 12.1666667,19.2366667 11.86,17.66 C11.7666667,17.1333334 11.72,16.5866667 11.72,16.02 C11.72,15.4433334 11.7666667,14.8833334 11.86,14.34 C12.1666667,12.75 12.92,11.35 14.12,10.14 C15.7466667,8.52666669 17.7066667,7.72000002 20,7.72000002 C22.2800001,7.72000002 24.2333334,8.52666669 25.8600001,10.14 C27.0700001,11.35 27.8300001,12.75 28.1400001,14.34 C28.2333334,14.8833334 28.2800001,15.4433334 28.2800001,16.02 Z M22.4600001,18.46 C23.1266667,17.7933334 23.4600001,16.98 23.4600001,16.02 C23.4600001,15.0466667 23.1266667,14.22 22.4600001,13.54 C21.7933334,12.86 20.9733334,12.52 20.0000001,12.52 C19.0266667,12.52 18.2133334,12.86 17.56,13.54 C16.88,14.22 16.54,15.0466667 16.54,16.02 C16.54,16.98 16.88,17.7933334 17.56,18.46 C18.2133334,19.14 19.0266667,19.48 20.0000001,19.48 C20.9733334,19.48 21.7933334,19.14 22.4600001,18.46 Z" transform="translate(0 1204)"/>
    <path fill="#FFF" d="M6,33.0500002 L19.7923536,14.6999998 L33.5250001,33.0500002 L6,33.0500002 Z M6,6 L33.5250001,6 L33.5250001,9 L6,9 L6,6 Z" transform="rotate(-180 19.763 589.525)"/>
    <path fill="#686868" d="M6,33.0500002 L19.7923536,14.6999998 L33.5250001,33.0500002 L6,33.0500002 Z M6,6 L33.5250001,6 L33.5250001,9 L6,9 L6,6 Z" transform="rotate(-180 19.763 559.525)"/>
    <path fill="#FFF" d="M7,33.0500002 L20.7923536,14.6999998 L34.5250001,33.0500002 L7,33.0500002 Z M7,6 L34.5250001,6 L34.5250001,9 L7,9 L7,6 Z" transform="matrix(-1 0 0 1 41.525 1020)"/>
    <path fill="#686868" d="M7,33.0500002 L20.7923536,14.6999998 L34.5250001,33.0500002 L7,33.0500002 Z M7,6 L34.5250001,6 L34.5250001,9 L7,9 L7,6 Z" transform="matrix(-1 0 0 1 41.525 960)"/>
    <path fill="#FFF" d="M6,33.2900009 L19.7923536,14.9383188 L33.5250001,33.2900009 L6,33.2900009 Z M6,6 L33.5250001,6 L33.5250001,9.00027494 L6,9.00027494 L6,6 Z" transform="rotate(90 -430.237 469.645)"/>
    <path fill="#686868" d="M6,33.2900009 L19.7923536,14.9383188 L33.5250001,33.2900009 L6,33.2900009 Z M6,6 L33.5250001,6 L33.5250001,9.00027494 L6,9.00027494 L6,6 Z" transform="rotate(90 -400.237 439.645)"/>
    <path fill="#FFF" d="M6,33.2875001 L19.7923536,14.9374998 L33.5250001,33.2875001 L6,33.2875001 Z M6,6 L33.5250001,6 L33.5250001,9 L6,9 L6,6 Z" transform="matrix(0 1 1 0 .119 779.881)"/>
    <path fill="#686868" d="M6,33.2875001 L19.7923536,14.9374998 L33.5250001,33.2875001 L6,33.2875001 Z M6,6 L33.5250001,6 L33.5250001,9 L6,9 L6,6 Z" transform="matrix(0 1 1 0 .119 719.881)"/>
    <path fill="#FFF" fill-rule="nonzero" d="M19.14,15.98 L8.20000002,2.18000001 L8.20000002,29.8400001 L19.14,15.98 Z M31.8000001,15.98 L20.8800001,2.18000001 L20.8800001,29.8400001 L31.8000001,15.98 Z" transform="translate(0 664)"/>
    <path fill="#686868" fill-rule="nonzero" d="M19.14,15.98 L8.20000002,2.18000001 L8.20000002,29.8400001 L19.14,15.98 Z M31.8000001,15.98 L20.8800001,2.18000001 L20.8800001,29.8400001 L31.8000001,15.98 Z" transform="translate(0 604)"/>
    <path fill="#FFF" fill-rule="nonzero" d="M11.12,0.180000005 L0.200000021,13.98 L11.12,27.8400001 L11.12,0.180000005 Z M23.8000001,0.180000005 L12.8600001,13.98 L23.8000001,27.8400001 L23.8000001,0.180000005 L23.8000001,0.180000005 Z" transform="translate(8 546)"/>
    <path fill="#686868" fill-rule="nonzero" d="M19.12,2.23450001 L8.20000002,16.3795 L19.12,30.5860001 L19.12,2.23450001 Z M31.8000001,2.23450001 L20.8600001,16.3795 L31.8000001,30.5860001 L31.8000001,2.23450001 L31.8000001,2.23450001 Z" transform="translate(0 484.1)"/>
    <polygon fill="#FFF" fill-rule="nonzero" points="6.18 7.54 20.04 24.46 33.84 7.54" transform="translate(0 424)"/>
    <polygon fill="#686868" fill-rule="nonzero" points="6.18 7.54 20.04 24.46 33.84 7.54" transform="translate(0 364)"/>
    <polygon fill="#FFF" fill-rule="nonzero" points="20.04 7.54 6.18 24.46 33.84 24.46 20.04 7.54" transform="translate(0 304)"/>
    <polygon fill="#686868" fill-rule="nonzero" points="20.04 7.54 6.18 24.46 33.84 24.46 20.04 7.54" transform="translate(0 244)"/>
    <polygon fill="#FFF" fill-rule="nonzero" points="28.46 15.98 11.54 2.18 11.54 29.84" transform="translate(0 184)"/>
    <polygon fill="#686868" fill-rule="nonzero" points="28.46 15.98 11.54 2.18 11.54 29.84" transform="translate(0 124)"/>
    <polygon fill="#FFF" fill-rule="nonzero" points="28.46 2.18 11.54 15.98 28.46 29.84" transform="translate(0 64)"/>
    <polygon fill="#686868" fill-rule="nonzero" points="28.46 2.18 11.54 15.98 28.46 29.84" transform="translate(0 4)"/>
  </g>
</svg>
