<svg xmlns="http://www.w3.org/2000/svg" width="15" height="142" viewBox="0 0 15 142">
  <g fill="none" fill-rule="evenodd">
    <g transform="translate(1 64)">
      <circle cx="6.5" cy="6.5" r="6.5" fill="#FF6B00"/>
      <path fill="#FFF" fill-rule="nonzero" d="M7.33133047,7.95257511 C7.31201717,7.72081545 7.31201717,7.63390558 7.31201717,7.5276824 C7.31201717,7.37317597 7.32167382,7.15107296 7.34098712,6.76480687 L7.53412017,3.70364807 C7.57274678,3.18218884 7.60171674,2.77660944 7.65,2.4 L5.4,2.4 C5.43862661,2.69935622 5.48690987,3.22081545 5.51587983,3.70364807 L5.70901288,6.76480687 C5.73872565,7.21049851 5.74558245,7.31335043 5.74716478,7.38543468 L5.74763948,7.45042918 C5.74763948,7.67253219 5.74763948,7.7304721 5.72832618,7.95257511 L7.33133047,7.95257511 Z M7.50515021,10.6432696 L7.50515021,8.81816231 L5.56416309,8.81816231 L5.56416309,10.6432696 L7.50515021,10.6432696 Z"/>
    </g>
    <g transform="translate(1 127)">
      <circle cx="6.5" cy="6.5" r="6.5" fill="#7A9F35"/>
      <path fill="#FFF" d="M9.41527941,3.27 L10.710091,4.52038507 L6.19481164,9.19609377 L6.192,9.194 L5.1773592,10.2453791 L2.3,7.46674562 L3.55038507,6.17193398 L5.135,7.702 L9.41527941,3.27 Z"/>
    </g>
    <g transform="translate(1 1)">
      <circle cx="6.5" cy="6.5" r="6.5" fill="#D0021B"/>
      <path fill="#FFF" fill-rule="nonzero" d="M7.33133047,7.95257511 C7.31201717,7.72081545 7.31201717,7.63390558 7.31201717,7.5276824 C7.31201717,7.37317597 7.32167382,7.15107296 7.34098712,6.76480687 L7.53412017,3.70364807 C7.57274678,3.18218884 7.60171674,2.77660944 7.65,2.4 L5.4,2.4 C5.43862661,2.69935622 5.48690987,3.22081545 5.51587983,3.70364807 L5.70901288,6.76480687 C5.73872565,7.21049851 5.74558245,7.31335043 5.74716478,7.38543468 L5.74763948,7.45042918 C5.74763948,7.67253219 5.74763948,7.7304721 5.72832618,7.95257511 L7.33133047,7.95257511 Z M7.50515021,10.6432696 L7.50515021,8.81816231 L5.56416309,8.81816231 L5.56416309,10.6432696 L7.50515021,10.6432696 Z"/>
    </g>
  </g>
</svg>
