<?xml version="1.0" encoding="UTF-8"?>
<svg width="250px" height="45px" viewBox="0 0 250 45" version="1.1" xmlns="http://www.w3.org/2000/svg" xmlns:xlink="http://www.w3.org/1999/xlink">
    <title>logo_welcome</title>
    <g id="logo_welcome" stroke="none" stroke-width="1" fill="none" fill-rule="evenodd">
        <path d="M67.6670087,12.317219 L67.6670087,25.544144 C67.6670087,27.127265 67.556796,28.309079 67.3354397,29.0830494 C67.1143922,29.9678548 66.7417311,30.7138041 66.2149576,31.3202775 C65.1860089,32.532913 63.8189498,33.1372083 62.1169013,33.1372083 C60.8279886,33.1372083 59.6222009,32.7991026 58.5051439,32.1235136 L60.011679,29.4759502 C60.7616758,29.9809306 61.4621719,30.2324862 62.1169013,30.2324862 C63.0350198,30.2324862 63.6710701,29.8822381 64.0244297,29.1851671 C64.3936705,28.4912101 64.5789132,27.2717219 64.5789132,25.5348044 L64.5789132,12.317219 L67.6670087,12.317219 Z M87.9446557,28.5092669 L80.4425025,28.5092669 L78.4954353,32.7738867 L75.6436366,32.7738867 L84.3142239,14.1640391 L92.6750378,32.7738867 L89.7809022,32.7738867 L87.9446557,28.5092669 Z M86.8665198,26.0248396 L84.2665854,20.0687532 L81.543992,26.0248396 L86.8665198,26.0248396 Z M109.412532,17.8561211 L107.266522,19.1282216 C106.863657,18.4308394 106.484459,17.9750485 106.122068,17.7652123 C105.741312,17.5229963 105.253147,17.4037553 104.657875,17.4037553 C103.923441,17.4037553 103.313234,17.6095465 102.830046,18.0276632 C102.347173,18.4373762 102.104021,18.951385 102.104021,19.5718677 C102.104021,20.428652 102.741629,21.1176304 104.01373,21.6397317 L105.763412,22.3592182 C107.189934,22.9314449 108.232269,23.6344327 108.890429,24.4675568 C109.552008,25.2925861 109.882019,26.3093948 109.882019,27.5161159 C109.882019,29.129125 109.344657,30.4638044 108.273371,31.5176602 C107.189934,32.5777439 105.848409,33.1066956 104.245366,33.1066956 C102.726694,33.1066956 101.468284,32.653394 100.477007,31.7511565 C99.5022242,30.852653 98.8938886,29.5808636 98.652295,27.9463726 L101.328818,27.3588896 C101.449615,28.3856601 101.660387,29.097054 101.964868,29.4905772 C102.509071,30.2480466 103.303286,30.625691 104.346866,30.625691 C105.171893,30.625691 105.855268,30.3482949 106.399472,29.795992 C106.945233,29.2433779 107.218893,28.5441264 107.218893,27.6991734 C107.218893,27.3588872 107.171255,27.046311 107.074438,26.7601976 C106.981043,26.4778205 106.833158,26.2175478 106.632657,25.9768876 C106.428422,25.7408973 106.171883,25.5170517 105.852152,25.3081465 C105.534284,25.1011107 105.154772,24.9015475 104.714549,24.7144379 L103.019346,24.0077162 C100.613063,22.9952661 99.4110139,21.5105241 99.4110139,19.5619011 C99.4110139,18.2452809 99.9159966,17.1453448 100.922532,16.2574279 C101.930626,15.3648388 103.182176,14.9208815 104.680621,14.9208815 C106.700523,14.9208815 108.278663,15.897845 109.412532,17.8561211 Z M120.360198,25.663385 L120.360198,32.7742003 L117.727579,32.7742003 L117.727579,15.2527663 L120.713876,15.2527663 C122.179627,15.2527663 123.286722,15.3548816 124.032985,15.5606727 C124.786412,15.7630387 125.451412,16.1497116 126.025819,16.7188267 C127.029238,17.7035692 127.53235,18.941423 127.53235,20.4420413 C127.53235,22.0466442 126.993438,23.3168778 125.922143,24.2574094 C124.84929,25.1951405 123.401914,25.6636938 121.582807,25.6636938 L120.360198,25.6636938 L120.360198,25.663385 L120.360198,25.663385 Z M120.360198,23.1798912 L121.348368,23.1798912 C123.776446,23.1798912 124.988766,22.2521219 124.988766,20.3968969 C124.988766,18.6020704 123.736903,17.7032557 121.235666,17.7032557 L120.359894,17.7032557 L120.359894,23.1798912 L120.360198,23.1798912 Z M144.582724,17.7318991 L137.558153,17.7318991 L137.558153,21.9392345 L144.375069,21.9392345 L144.375069,24.4221036 L137.558153,24.4221036 L137.558153,30.2903929 L144.582724,30.2903929 L144.582724,32.7741955 L134.924281,32.7741955 L134.924281,15.2527663 L144.582724,15.2527663 L144.582724,17.7318991 Z M158.634984,25.3062867 L164.059306,32.7741955 L160.823331,32.7741955 L155.820553,25.6042313 L155.342667,25.6042313 L155.342667,32.7741955 L152.710667,32.7741955 L152.710667,15.2527663 L155.80499,15.2527663 C158.119436,15.2527663 159.785984,15.6898757 160.814932,16.5578688 C161.945999,17.5261103 162.513556,18.8053723 162.513556,20.3934742 C162.513556,21.6319503 162.159887,22.7026207 161.44569,23.5920958 C160.734914,24.4865519 159.799684,25.0587786 158.634984,25.3062867 Z M155.342648,23.2947735 L156.179523,23.2947735 C158.667383,23.2947735 159.910201,22.3386744 159.910201,20.4224287 C159.910201,18.6325831 158.701301,17.7319015 156.279759,17.7319015 L155.342648,17.7319015 L155.342648,23.2947735 L155.342648,23.2947735 L155.342648,23.2947735 Z M178.249199,29.7959991 C178.793098,29.243385 179.065513,28.5441359 179.065513,27.6991805 C179.065513,27.3588943 179.019756,27.0463181 178.924479,26.7602047 C178.83076,26.4778277 178.682885,26.2175526 178.48207,25.9768948 C178.28002,25.7409044 178.021305,25.5170588 177.699694,25.3081537 C177.383383,25.1011179 177.006038,24.9015546 176.564276,24.714445 L174.867211,24.0077233 C172.462486,22.9952732 171.260427,21.5105336 171.260427,19.5619082 C171.260427,18.2452856 171.765714,17.1453519 172.771936,16.257435 C173.777227,15.3648459 175.030344,14.9208886 176.530015,14.9208886 C178.549927,14.9208886 180.124656,15.8978473 181.260397,17.8561235 L179.114386,19.128224 C178.714638,18.4308418 178.333872,17.9750509 177.968061,17.7652147 C177.590735,17.5229987 177.104432,17.4037577 176.506053,17.4037577 C175.773177,17.4037577 175.162656,17.6095489 174.679773,18.0276656 C174.195028,18.4373786 173.950318,18.9513874 173.950318,19.5718701 C173.950318,20.4286543 174.591356,21.1176304 175.864692,21.6397341 L177.612512,22.3592206 C179.037789,22.9314473 180.080134,23.6344351 180.73797,24.4675592 C181.395806,25.2925885 181.727698,26.3093972 181.727698,27.5161183 C181.727698,29.1291274 181.193756,30.4638068 180.117188,31.5176626 C179.037808,32.5777463 177.697831,33.1067003 176.092604,33.1067003 C174.572069,33.1067003 173.317393,32.6533987 172.327361,31.7511613 C171.351657,30.8526577 170.741136,29.5808684 170.501708,27.9463774 L173.176055,27.3588943 C173.298714,28.3856649 173.511368,29.0970588 173.815839,29.4905819 C174.356318,30.2480513 175.152395,30.6256958 176.19628,30.6256958 C177.02162,30.6256981 177.703437,30.3479909 178.249199,29.7959991 M188.630542,23.9389187 C188.630542,21.4716148 189.533088,19.3511361 191.342551,17.5781026 C193.14485,15.8063138 195.303003,14.9208862 197.827898,14.9208862 C200.324157,14.9208862 202.464866,15.8156534 204.248809,17.6011404 C206.039592,19.3900525 206.93716,21.5369941 206.93716,24.0425922 C206.93716,26.564689 206.034291,28.7022934 204.238528,30.4603816 C202.429388,32.2256313 200.250998,33.1067003 197.691843,33.1067003 C195.433757,33.1067003 193.403869,32.3243238 191.604382,30.7564592 C189.619966,29.0204729 188.630542,26.7499317 188.630542,23.9389187 Z M191.291492,23.9678733 C191.291492,25.9046675 191.942792,27.5008643 193.245106,28.7514829 C194.539002,29.998054 196.033694,30.625387 197.725799,30.625387 C199.567642,30.625387 201.114951,29.9884033 202.378349,28.7172362 C203.643285,27.4273901 204.276229,25.8623259 204.276229,24.0136377 C204.276229,22.1412894 203.649822,20.5749806 202.400448,19.3100391 C201.161031,18.0379386 199.625542,17.4037553 197.795537,17.4037553 C195.971443,17.4037553 194.432229,18.0379386 193.177249,19.3100391 C191.920388,20.5684415 191.291492,22.1194962 191.291492,23.9678733 Z M223.657534,17.7318991 L217.552952,17.7318991 L217.552952,21.9392345 L223.441783,21.9392345 L223.441783,24.4221036 L217.552952,24.4221036 L217.552952,32.7741955 L214.920961,32.7741955 L214.920961,15.2527663 L223.657857,15.2527663 L223.657857,17.7318991 L223.657534,17.7318991 Z M236.192679,17.7318991 L236.192679,32.7738867 L233.559129,32.7738867 L233.559129,17.7318991 L229.528939,17.7318991 L229.528939,15.2527639 L240.20761,15.2527639 L240.20761,17.7318991 L236.192679,17.7318991 Z M43.4215456,-1.0658141e-14 C46.7403418,0.714588617 49.4654102,2.28644309 51.1993301,4.73040525 C56.8775697,12.7350804 50.4417235,27.0099028 36.8748271,36.6315608 C23.2933869,46.2680666 7.7196401,47.6097008 2.04140108,39.603819 C0.292641134,37.1410708 -0.299870995,34.0252321 0.138757359,30.6182873 C0.377155649,31.3298474 0.661598018,31.9835483 1.08841296,32.5833329 C5.41653984,38.6880853 18.7401924,36.6827526 30.8442896,28.0985943 C42.9405056,19.5126189 49.2306527,7.6045125 44.8991927,1.50066756 C44.4857054,0.919969443 43.9725564,0.431964549 43.4215456,-1.0658141e-14 Z M38.8453192,2.83594435 C40.2332998,4.79493068 40.2202738,7.52666655 39.0700864,10.52982 C38.9910232,10.0911916 38.8553191,9.68921604 38.6087422,9.34721848 C36.481026,6.34345938 28.4815052,8.36545335 20.7318915,13.8595221 C12.9792482,19.3620694 8.43877497,26.2386687 10.5683058,29.2384896 C10.7967084,29.5662485 11.1308295,29.8573547 11.5312908,30.0700057 C8.32306004,30.1536129 5.73399964,29.2684774 4.34753215,27.3107048 C0.933011999,22.4994186 5.88303486,13.1185775 15.4177579,6.35618254 C24.9424834,-0.401366878 35.4320158,-1.97746119 38.8453192,2.83594435 Z M243.842821,10.3559334 L243.842821,13.4769894 L242.723346,13.4769894 L242.723346,10.3559334 L241.869426,10.3559334 L241.869426,9.39780345 L244.696702,9.39780345 L244.696702,10.3559334 L243.842821,10.3559334 Z M244.905194,13.4769894 L245.588455,9.39780345 L246.688643,9.39780345 L247.466877,11.4846839 L248.282945,9.39780345 L249.392386,9.39780345 L250,13.4769894 L248.880525,13.4769894 L248.604898,11.2665794 L247.694656,13.4769894 L247.201284,13.4769894 L246.338129,11.2665794 L246.015415,13.4769894 L244.905194,13.4769894 Z" id="Combined-Shape" fill="#0078BD" fill-rule="nonzero"></path>
    </g>
</svg>