<?xml version="1.0" encoding="UTF-8"?>
<svg width="372px" height="25px" viewBox="0 0 372 25" version="1.1" xmlns="http://www.w3.org/2000/svg" xmlns:xlink="http://www.w3.org/1999/xlink">
    <title>jrws_logo</title>
    <g id="jrws_logo" stroke="none" stroke-width="1" fill="none" fill-rule="evenodd">
        <g id="Logo" transform="translate(1.000000, 0.000000)" fill="#FFFFFF" fill-rule="nonzero">
            <path d="M80.881,21.23 C83.756,21.23 85.895,19.367 85.895,15.664 L85.895,4.9 L84.055,4.9 L84.055,15.687 C84.055,18.24 82.721,19.551 80.904,19.551 C79.225,19.551 78.213,18.746 77.224,17.251 L75.913,18.378 C76.925,20.034 78.466,21.23 80.881,21.23 Z M92.939,21.253 C95.032,21.253 96.412,20.287 97.24,19.206 L97.24,21 L98.942,21 L98.942,13.732 C98.942,10.604 97.125,8.948 93.882,8.948 C92.157,8.948 90.869,9.339 89.558,9.937 L90.087,11.386 C91.191,10.88 92.295,10.512 93.698,10.512 C95.929,10.512 97.24,11.616 97.24,13.755 L97.24,14.169 C96.182,13.87 95.101,13.663 93.583,13.663 C90.57,13.663 88.5,14.997 88.5,17.527 C88.5,20.011 90.731,21.253 92.939,21.253 Z M93.284,19.85 C91.674,19.85 90.294,18.976 90.294,17.458 C90.294,15.94 91.536,14.974 93.767,14.974 C95.216,14.974 96.389,15.227 97.263,15.48 L97.263,16.63 C97.263,18.516 95.469,19.85 93.284,19.85 Z M106.147,21.23 C108.516,21.23 110.379,19.919 110.379,17.665 L110.379,17.619 C110.379,15.48 108.401,14.767 106.561,14.215 C104.974,13.732 103.502,13.295 103.502,12.168 L103.502,12.122 C103.502,11.133 104.399,10.397 105.802,10.397 C106.952,10.397 108.217,10.834 109.321,11.547 L110.126,10.213 C108.907,9.408 107.297,8.902 105.848,8.902 C103.502,8.902 101.8,10.259 101.8,12.306 L101.8,12.352 C101.8,14.537 103.87,15.181 105.733,15.71 C107.297,16.147 108.7,16.607 108.7,17.803 L108.7,17.849 C108.7,18.999 107.665,19.735 106.239,19.735 C104.836,19.735 103.41,19.183 102.122,18.217 L101.225,19.482 C102.559,20.563 104.445,21.23 106.147,21.23 Z M114.939,24.68 L114.939,18.723 C115.859,20.057 117.285,21.253 119.493,21.253 C122.368,21.253 125.174,18.953 125.174,15.043 C125.174,11.11 122.345,8.856 119.493,8.856 C117.308,8.856 115.905,10.075 114.939,11.501 L114.939,9.109 L113.168,9.109 L113.168,24.68 L114.939,24.68 Z M119.171,19.666 C116.963,19.666 114.87,17.826 114.87,15.043 C114.87,12.283 116.963,10.443 119.171,10.443 C121.425,10.443 123.357,12.237 123.357,15.066 C123.357,17.964 121.471,19.666 119.171,19.666 Z M133.138,21.276 C135.392,21.276 136.841,20.379 138.037,19.045 L136.933,18.056 C135.967,19.068 134.817,19.735 133.184,19.735 C131.091,19.735 129.251,18.286 128.998,15.71 L138.428,15.71 C138.451,15.503 138.451,15.319 138.451,15.158 C138.451,11.662 136.427,8.856 132.908,8.856 C129.619,8.856 127.204,11.616 127.204,15.066 C127.204,18.769 129.872,21.276 133.138,21.276 Z M136.657,14.399 L128.998,14.399 C129.228,12.076 130.792,10.351 132.862,10.351 C135.231,10.351 136.473,12.237 136.657,14.399 Z M142.827,21 L142.827,16.262 C142.827,12.674 144.943,10.811 147.542,10.811 L147.68,10.811 L147.68,8.902 C145.426,8.81 143.701,10.236 142.827,12.214 L142.827,9.109 L141.056,9.109 L141.056,21 L142.827,21 Z M151.987,21 L151.987,14.744 L156.587,14.744 L161.256,21 L163.487,21 L158.542,14.422 C161.072,13.962 162.912,12.398 162.912,9.707 C162.912,6.809 160.635,4.9 157.093,4.9 L150.17,4.9 L150.17,21 L151.987,21 Z M156.932,13.111 L151.987,13.111 L151.987,6.579 L156.955,6.579 C159.554,6.579 161.072,7.775 161.072,9.776 C161.072,11.869 159.347,13.111 156.932,13.111 Z M170.968,21.276 C173.222,21.276 174.671,20.379 175.867,19.045 L174.763,18.056 C173.797,19.068 172.647,19.735 171.014,19.735 C168.921,19.735 167.081,18.286 166.828,15.71 L176.258,15.71 C176.281,15.503 176.281,15.319 176.281,15.158 C176.281,11.662 174.257,8.856 170.738,8.856 C167.449,8.856 165.034,11.616 165.034,15.066 C165.034,18.769 167.702,21.276 170.968,21.276 Z M174.487,14.399 L166.828,14.399 C167.058,12.076 168.622,10.351 170.692,10.351 C173.061,10.351 174.303,12.237 174.487,14.399 Z M180.657,24.68 L180.657,18.723 C181.577,20.057 183.003,21.253 185.211,21.253 C188.086,21.253 190.892,18.953 190.892,15.043 C190.892,11.11 188.063,8.856 185.211,8.856 C183.026,8.856 181.623,10.075 180.657,11.501 L180.657,9.109 L178.886,9.109 L178.886,24.68 L180.657,24.68 Z M184.889,19.666 C182.681,19.666 180.588,17.826 180.588,15.043 C180.588,12.283 182.681,10.443 184.889,10.443 C187.143,10.443 189.075,12.237 189.075,15.066 C189.075,17.964 187.189,19.666 184.889,19.666 Z M199.086,21.276 C202.674,21.276 205.319,18.424 205.319,15.043 C205.319,11.662 202.697,8.856 199.132,8.856 C195.544,8.856 192.922,11.708 192.922,15.089 C192.922,18.47 195.521,21.276 199.086,21.276 Z M199.132,19.689 C196.625,19.689 194.739,17.619 194.739,15.043 C194.739,12.467 196.51,10.42 199.086,10.42 C201.593,10.42 203.502,12.49 203.502,15.089 C203.502,17.642 201.708,19.689 199.132,19.689 Z M209.787,21 L209.787,16.262 C209.787,12.674 211.903,10.811 214.502,10.811 L214.64,10.811 L214.64,8.902 C212.386,8.81 210.661,10.236 209.787,12.214 L209.787,9.109 L208.016,9.109 L208.016,21 L209.787,21 Z M220.81,21.207 C221.661,21.207 222.328,21.023 222.949,20.701 L222.949,19.183 C222.328,19.482 221.822,19.597 221.224,19.597 C220.028,19.597 219.223,19.068 219.223,17.619 L219.223,10.673 L222.995,10.673 L222.995,9.109 L219.223,9.109 L219.223,5.521 L217.452,5.521 L217.452,9.109 L215.796,9.109 L215.796,10.673 L217.452,10.673 L217.452,17.849 C217.452,20.264 218.901,21.207 220.81,21.207 Z M229.556,21.23 C231.925,21.23 233.788,19.919 233.788,17.665 L233.788,17.619 C233.788,15.48 231.81,14.767 229.97,14.215 C228.383,13.732 226.911,13.295 226.911,12.168 L226.911,12.122 C226.911,11.133 227.808,10.397 229.211,10.397 C230.361,10.397 231.626,10.834 232.73,11.547 L233.535,10.213 C232.316,9.408 230.706,8.902 229.257,8.902 C226.911,8.902 225.209,10.259 225.209,12.306 L225.209,12.352 C225.209,14.537 227.279,15.181 229.142,15.71 C230.706,16.147 232.109,16.607 232.109,17.803 L232.109,17.849 C232.109,18.999 231.074,19.735 229.648,19.735 C228.245,19.735 226.819,19.183 225.531,18.217 L224.634,19.482 C225.968,20.563 227.854,21.23 229.556,21.23 Z M249.302,21.115 L253.741,8.051 L258.157,21.115 L259.698,21.115 L265.448,4.9 L263.539,4.9 L258.939,18.309 L254.523,4.854 L253.028,4.854 L248.612,18.309 L244.012,4.9 L242.034,4.9 L247.784,21.115 L249.302,21.115 Z M271.641,21.276 C273.895,21.276 275.344,20.379 276.54,19.045 L275.436,18.056 C274.47,19.068 273.32,19.735 271.687,19.735 C269.594,19.735 267.754,18.286 267.501,15.71 L276.931,15.71 C276.954,15.503 276.954,15.319 276.954,15.158 C276.954,11.662 274.93,8.856 271.411,8.856 C268.122,8.856 265.707,11.616 265.707,15.066 C265.707,18.769 268.375,21.276 271.641,21.276 Z M275.16,14.399 L267.501,14.399 C267.731,12.076 269.295,10.351 271.365,10.351 C273.734,10.351 274.976,12.237 275.16,14.399 Z M285.884,21.253 C288.759,21.253 291.565,18.953 291.565,15.043 C291.565,11.11 288.736,8.856 285.884,8.856 C283.699,8.856 282.296,10.075 281.33,11.501 L281.33,4.21 L279.559,4.21 L279.559,21 L281.33,21 L281.33,18.723 C282.25,20.057 283.676,21.253 285.884,21.253 Z M285.562,19.666 C283.354,19.666 281.261,17.826 281.261,15.043 C281.261,12.283 283.354,10.443 285.562,10.443 C287.816,10.443 289.748,12.237 289.748,15.066 C289.748,17.964 287.862,19.666 285.562,19.666 Z M306.55,21.23 C309.747,21.23 312.047,19.436 312.047,16.653 C312.047,14.169 310.391,12.858 306.803,12.076 C303.261,11.317 302.433,10.466 302.433,8.925 C302.433,7.453 303.767,6.303 305.86,6.303 C307.516,6.303 309.011,6.832 310.506,8.051 L311.564,6.648 C309.931,5.337 308.252,4.67 305.906,4.67 C302.847,4.67 300.616,6.51 300.616,9.086 C300.616,11.754 302.318,12.95 306.021,13.755 C309.402,14.468 310.207,15.319 310.207,16.837 C310.207,18.47 308.781,19.597 306.619,19.597 C304.388,19.597 302.778,18.838 301.099,17.32 L299.972,18.654 C301.904,20.379 303.997,21.23 306.55,21.23 Z M318.815,21.207 C319.666,21.207 320.333,21.023 320.954,20.701 L320.954,19.183 C320.333,19.482 319.827,19.597 319.229,19.597 C318.033,19.597 317.228,19.068 317.228,17.619 L317.228,10.673 L321,10.673 L321,9.109 L317.228,9.109 L317.228,5.521 L315.457,5.521 L315.457,9.109 L313.801,9.109 L313.801,10.673 L315.457,10.673 L315.457,17.849 C315.457,20.264 316.906,21.207 318.815,21.207 Z M327.998,21.253 C330.045,21.253 331.264,20.218 332.069,18.93 L332.069,21 L333.817,21 L333.817,9.109 L332.069,9.109 L332.069,15.917 C332.069,18.148 330.528,19.643 328.504,19.643 C326.411,19.643 325.215,18.263 325.215,16.055 L325.215,9.109 L323.444,9.109 L323.444,16.492 C323.444,19.321 325.123,21.253 327.998,21.253 Z M342.287,21.253 C344.472,21.253 345.875,20.034 346.841,18.608 L346.841,21 L348.612,21 L348.612,4.21 L346.841,4.21 L346.841,11.386 C345.921,10.052 344.495,8.856 342.287,8.856 C339.435,8.856 336.606,11.156 336.606,15.066 C336.606,18.999 339.435,21.253 342.287,21.253 Z M342.609,19.666 C340.355,19.666 338.423,17.872 338.423,15.043 C338.423,12.145 340.309,10.443 342.609,10.443 C344.817,10.443 346.91,12.283 346.91,15.043 C346.91,17.826 344.817,19.666 342.609,19.666 Z M354.138,6.51 L354.138,4.555 L352.114,4.555 L352.114,6.51 L354.138,6.51 Z M354,21 L354,9.109 L352.229,9.109 L352.229,21 L354,21 Z M363.045,21.276 C366.633,21.276 369.278,18.424 369.278,15.043 C369.278,11.662 366.656,8.856 363.091,8.856 C359.503,8.856 356.881,11.708 356.881,15.089 C356.881,18.47 359.48,21.276 363.045,21.276 Z M363.091,19.689 C360.584,19.689 358.698,17.619 358.698,15.043 C358.698,12.467 360.469,10.42 363.045,10.42 C365.552,10.42 367.461,12.49 367.461,15.089 C367.461,17.642 365.667,19.689 363.091,19.689 Z" id="JasperReportsWebStudio"></path>
            <g id="TIBCO-shapes" transform="translate(0.000000, 4.700000)">
                <polygon id="Path" points="8.10928962 2.17351598 8.10928962 17 5.89071038 17 5.89071038 2.17351598 0 2.17351598 0 0 14 0 14 2.17351598"></polygon>
                <rect id="Rectangle" x="16" y="0" width="2" height="17"></rect>
                <path d="M27.5384615,9.58181818 L24.2307692,9.58181818 L24.2307692,14.9136364 L27.9230769,14.9136364 C30.4615385,14.9136364 31.6923077,13.9863636 31.6923077,12.2863636 C31.6923077,10.2772727 29.9230769,9.58181818 27.5384615,9.58181818 M27.7692308,2.16363636 L24.3076923,2.16363636 L24.3076923,7.49545455 L27.3846154,7.49545455 C29.8461538,7.49545455 31.1538462,6.41363636 31.1538462,4.71363636 C31.1538462,3.09090909 29.9230769,2.16363636 27.7692308,2.16363636 M34,12.2090909 C34,15.0681818 32.0769231,17 27.7692308,17 L22,17 L22,0 L27.6153846,0 C31.6923077,0 33.4615385,1.85454545 33.4615385,4.48181818 C33.4615385,6.25909091 32.4615385,7.49545455 30.5384615,8.19090909 C32.7692308,8.80909091 34,10.2772727 34,12.2090909" id="Shape"></path>
                <path d="M49.2222222,3.32272727 C47.7444444,2.39545455 46.3444444,1.93181818 44.5555556,1.93181818 C40.8222222,1.93181818 38.3333333,4.40454545 38.3333333,8.42272727 C38.3333333,12.4409091 40.8222222,14.9909091 44.6333333,14.9909091 C46.5,14.9909091 48.2888889,14.2954545 49.4555556,13.4454545 L49.8444444,15.6863636 C48.4444444,16.5363636 46.5,17 44.5555556,17 C39.5777778,17 36,13.6772727 36,8.57727273 C36,3.4 39.5777778,0 44.5555556,0 C46.5,0 48.6,0.540909091 50,1.31363636 L49.2222222,3.32272727 Z" id="Path"></path>
                <g id="Group" transform="translate(50.000000, 0.000000)">
                    <path d="M13.1538462,1.15909091 C12.9230769,1.00454545 12.6153846,0.85 12.3846154,0.772727273 C10.1538462,4.86818182 6.15384615,9.65909091 0.846153846,12.4409091 C1.15384615,13.1363636 1.53846154,13.6772727 2,14.2181818 C6.61538462,11.2045455 10.7692308,6.18181818 13.1538462,1.15909091" id="Path"></path>
                    <path d="M12.1538462,0.695454545 C11.0769231,0.231818182 9.84615385,0 8.46153846,0 C3.53846154,0 0,3.70909091 0,8.5 C0,9.35 0.0769230769,10.1227273 0.230769231,10.8181818 C5.38461538,8.88636364 9.92307692,4.48181818 12.1538462,0.695454545" id="Path"></path>
                    <path d="M13.3846154,1.31363636 C10.7692308,7.49545455 7.61538462,11.8227273 3.53846154,15.6090909 C4.92307692,16.5363636 6.61538462,17 8.53846154,17 C13.4615385,17 17,13.2909091 17,8.42272727 C17,5.25454545 15.6153846,2.70454545 13.3846154,1.31363636" id="Path"></path>
                </g>
            </g>
            <g id="R-symbol" transform="translate(65.800000, 3.700000)">
                <path d="M0.380952381,2 C0.380952381,1.14285714 1.14285714,0.380952381 2,0.380952381 C2.85714286,0.380952381 3.61904762,1.14285714 3.61904762,2 C3.61904762,2.85714286 2.85714286,3.61904762 2,3.61904762 C1.04761905,3.61904762 0.380952381,2.85714286 0.380952381,2 M0,2 C0,3.04761905 0.857142857,4 2,4 C3.14285714,4 4,3.14285714 4,2 C4,0.857142857 3.14285714,0 2,0 C0.857142857,0 0,0.857142857 0,2" id="Shape"></path>
                <path d="M1.71437872,2.08426339 L1.71437872,2.85714286 L1.48697917,2.85714286 L1.48697917,0.990513393 L1.97107515,0.990513393 C2.0529208,0.990513393 2.12244205,0.993536056 2.179641,0.999581473 C2.23683994,1.00562689 2.28915527,1.01515991 2.33658854,1.0281808 C2.46679753,1.06352324 2.5663129,1.12374399 2.63513765,1.20884487 C2.7039624,1.29394574 2.73837426,1.40020398 2.73837426,1.52762277 C2.73837426,1.60295797 2.7262836,1.67038661 2.70210193,1.72991071 C2.67792027,1.78943482 2.64397343,1.84105261 2.60026042,1.88476562 C2.5565474,1.92847864 2.50423208,1.96428557 2.44331287,1.9921875 C2.38239367,2.02008943 2.31473251,2.04055053 2.24032738,2.05357143 L2.24032738,2.05915179 L2.8499814,2.85714286 L2.5639881,2.85714286 L1.98921131,2.08426339 L1.71437872,2.08426339 Z M1.71437872,1.19559152 L1.71437872,1.87918527 L1.9389881,1.87918527 C2.00874291,1.87918527 2.06826612,1.87686014 2.11755952,1.87220982 C2.16685293,1.8675595 2.21103031,1.85918905 2.25009301,1.84709821 C2.32914846,1.82291655 2.39006675,1.78431946 2.4328497,1.7313058 C2.47563265,1.67829215 2.49702381,1.6090034 2.49702381,1.5234375 C2.49609375,1.44345198 2.47563264,1.379046 2.43563988,1.33021763 C2.39564712,1.28138926 2.34030913,1.24627987 2.26962426,1.22488839 C2.23614195,1.21465769 2.19614979,1.20721729 2.14964658,1.20256696 C2.10314337,1.19791664 2.04408518,1.19559152 1.97247024,1.19559152 L1.71437872,1.19559152 Z" id="R"></path>
            </g>
        </g>
    </g>
</svg>