<svg xmlns="http://www.w3.org/2000/svg" width="28" height="1740" viewBox="0 0 28 1740">
  <g fill="none" fill-rule="evenodd">
    <g transform="translate(1 1713)">
      <path fill="#CCC" d="M13,26 C5.82029825,26 0,20.1797017 0,13 C0,5.82029825 5.82029825,0 13,0 C20.1797017,0 26,5.82029825 26,13 C26,20.1797017 20.1797017,26 13,26 Z M13,23 C18.5228475,23 23,18.5228475 23,13 C23,7.4771525 18.5228475,3 13,3 C7.4771525,3 3,7.4771525 3,13 C3,18.5228475 7.4771525,23 13,23 Z"/>
      <path fill="#CCC" d="M13,21 C8.581722,21 5,17.418278 5,13 C5,8.581722 8.581722,5 13,5 C17.418278,5 21,8.581722 21,13 C21,17.418278 17.418278,21 13,21 Z M13,19 C16.3137085,19 19,16.3137085 19,13 C19,9.6862915 16.3137085,7 13,7 C9.6862915,7 7,9.6862915 7,13 C7,16.3137085 9.6862915,19 13,19 Z"/>
      <path fill="#8BBC22" d="M5,12.9999912 L7,12.9999912 C7,16.3137085 9.6862915,19 13,19 C16.3137085,19 19,16.3137085 19,13 C19,9.6862915 16.3137085,7 13,7 L13,4.99995587 C17.418278,4.99995587 21,8.58167787 21,12.9999559 C21,17.4182339 17.418278,20.9999559 13,20.9999559 C8.58173377,20.9999559 5.00001908,17.4182529 5,12.9999912 Z"/>
      <path fill="#2C7ED8" d="M3.10439525,4.56889281 L5.13470657,6.82378197 C3.79757083,8.52423471 3,10.668976 3,13 C3,18.5228475 7.4771525,23 13,23 C18.5228475,23 23,18.5228475 23,13 C23,7.49088815 18.5450897,3.02227635 13.0411875,3.00008303 L13.0405179,5.7372529e-05 C20.2015865,0.0219101483 26,5.83380905 26,13 C26,20.1797017 20.1797017,26 13,26 C5.82029825,26 0,20.1797017 0,13 C0,9.7829247 1.16857041,6.83878365 3.10439525,4.56889281 Z"/>
      <path fill="#224886" d="M15 16C14.1715729 16 13.5 15.3284271 13.5 14.5 13.5 13.6715729 14.1715729 13 15 13 15.8284271 13 16.5 13.6715729 16.5 14.5 16.5 15.3284271 15.8284271 16 15 16zM15 15.0625C15.3106602 15.0625 15.5625 14.8106602 15.5625 14.5 15.5625 14.1893398 15.3106602 13.9375 15 13.9375 14.6893398 13.9375 14.4375 14.1893398 14.4375 14.5 14.4375 14.8106602 14.6893398 15.0625 15 15.0625zM11 13C10.1715729 13 9.5 12.3284271 9.5 11.5 9.5 10.6715729 10.1715729 10 11 10 11.8284271 10 12.5 10.6715729 12.5 11.5 12.5 12.3284271 11.8284271 13 11 13zM11 12.0625C11.3106602 12.0625 11.5625 11.8106602 11.5625 11.5 11.5625 11.1893398 11.3106602 10.9375 11 10.9375 10.6893398 10.9375 10.4375 11.1893398 10.4375 11.5 10.4375 11.8106602 10.6893398 12.0625 11 12.0625zM15.9601007 10L11.1874852 16 10.0374844 16 14.8100999 10 15.9601007 10z"/>
    </g>
    <g transform="translate(1 1667)">
      <path fill="#CCC" d="M13,26 C5.82029825,26 0,20.1797017 0,13 C0,5.82029825 5.82029825,0 13,0 C20.1797017,0 26,5.82029825 26,13 C26,20.1797017 20.1797017,26 13,26 Z M13,23 C18.5228475,23 23,18.5228475 23,13 C23,7.4771525 18.5228475,3 13,3 C7.4771525,3 3,7.4771525 3,13 C3,18.5228475 7.4771525,23 13,23 Z"/>
      <path fill="#2C7ED8" d="M3.10439525,4.56889281 L5.13470657,6.82378197 C3.79757083,8.52423471 3,10.668976 3,13 C3,18.5228475 7.4771525,23 13,23 C18.5228475,23 23,18.5228475 23,13 C23,7.49088815 18.5450897,3.02227635 13.0411875,3.00008303 L13.0405179,5.7372529e-05 C20.2015865,0.0219101483 26,5.83380905 26,13 C26,20.1797017 20.1797017,26 13,26 C5.82029825,26 0,20.1797017 0,13 C0,9.7829247 1.16857041,6.83878365 3.10439525,4.56889281 Z"/>
      <path fill="#224886" d="M9.5 13C8.11928813 13 7 11.8807119 7 10.5 7 9.11928813 8.11928813 8 9.5 8 10.8807119 8 12 9.11928813 12 10.5 12 11.8807119 10.8807119 13 9.5 13zM9.5 11.5C10.0522847 11.5 10.5 11.0522847 10.5 10.5 10.5 9.94771525 10.0522847 9.5 9.5 9.5 8.94771525 9.5 8.5 9.94771525 8.5 10.5 8.5 11.0522847 8.94771525 11.5 9.5 11.5zM16.5 18C15.1192881 18 14 16.8807119 14 15.5 14 14.1192881 15.1192881 13 16.5 13 17.8807119 13 19 14.1192881 19 15.5 19 16.8807119 17.8807119 18 16.5 18zM16.5 16.5C17.0522847 16.5 17.5 16.0522847 17.5 15.5 17.5 14.9477153 17.0522847 14.5 16.5 14.5 15.9477153 14.5 15.5 14.9477153 15.5 15.5 15.5 16.0522847 15.9477153 16.5 16.5 16.5zM17.9690886 8L10.0147294 18 8.09806146 18 16.0524206 8 17.9690886 8z"/>
    </g>
    <g transform="translate(1 1632)">
      <path fill="#CCC" d="M0.152896362,15 C0.0522294813,14.3480602 0,13.6801295 0,13 C0,5.82029825 5.82029825,0 13,0 C20.1797017,0 26,5.82029825 26,13 C26,13.6801295 25.9477705,14.3480602 25.8471036,15 L22.7999638,15 C22.9311395,14.3537801 23,13.6849317 23,13 C23,7.4771525 18.5228475,3 13,3 C7.4771525,3 3,7.4771525 3,13 C3,13.6849317 3.06886052,14.3537801 3.20003623,15 L0.152896362,15 Z"/>
      <path fill="#2C7ED8" d="M0.154697894,15.0032265 C-0.116633552,13.2663471 -0.0380789784,11.4458983 0.446190776,9.63857893 C2.30443433,2.70351959 9.43281476,-1.41205277 16.3678741,0.446190776 C19.648775,1.32530552 22.2986372,3.38394689 23.9834691,6.04362419 L21.2951821,7.41337481 C19.9944428,5.48211661 18.0171465,3.99394052 15.591417,3.34396826 C10.2567559,1.91455014 4.77338637,5.08037503 3.34396826,10.4150361 C2.92830711,11.9663046 2.90121553,13.5301478 3.20303066,15.0032265 L0.154697894,15.0032265 Z"/>
      <path fill="#224886" fill-rule="nonzero" d="M11.0078125,9.015625 C11.5546902,9.015625 11.995441,9.13997271 12.3300781,9.38867188 C12.6647152,9.63737104 12.8320312,9.97265414 12.8320312,10.3945312 C12.8320312,10.6861994 12.7513029,10.9459624 12.5898438,11.1738281 C12.4283846,11.4016938 12.1679705,11.6054679 11.8085938,11.7851562 C12.2356792,12.0143241 12.5423168,12.253254 12.7285156,12.5019531 C12.9147145,12.7506523 13.0078125,13.023436 13.0078125,13.3203125 C13.0078125,13.7890648 12.8242206,14.1660142 12.4570312,14.4511719 C12.0898419,14.7363296 11.6067738,14.8789062 11.0078125,14.8789062 C10.3828094,14.8789062 9.89192887,14.7460951 9.53515625,14.4804688 C9.17838363,14.2148424 9,13.8385441 9,13.3515625 C9,13.02604 9.08658768,12.7369804 9.25976562,12.484375 C9.43294357,12.2317696 9.71093559,12.0091155 10.09375,11.8164062 C9.76822754,11.6106761 9.53385488,11.3906262 9.390625,11.15625 C9.24739512,10.9218738 9.17578125,10.665366 9.17578125,10.3867188 C9.17578125,9.97786254 9.34505039,9.64713668 9.68359375,9.39453125 C10.0221371,9.14192582 10.4635389,9.015625 11.0078125,9.015625 Z M10.1171875,13.28125 C10.1171875,13.5052095 10.1953117,13.6796869 10.3515625,13.8046875 C10.5078133,13.9296881 10.7213528,13.9921875 10.9921875,13.9921875 C11.2916682,13.9921875 11.5156243,13.927735 11.6640625,13.7988281 C11.8125007,13.6699212 11.8867188,13.5000011 11.8867188,13.2890625 C11.8867188,13.1145825 11.8131518,12.9511726 11.6660156,12.7988281 C11.5188795,12.6464836 11.2799496,12.4843759 10.9492188,12.3125 C10.3945285,12.5677096 10.1171875,12.890623 10.1171875,13.28125 Z M11,9.8984375 C10.7942698,9.8984375 10.6282558,9.95117135 10.5019531,10.0566406 C10.3756504,10.1621099 10.3125,10.3033845 10.3125,10.4804688 C10.3125,10.6367195 10.3626297,10.7766921 10.4628906,10.9003906 C10.5631515,11.0240892 10.7447904,11.151041 11.0078125,11.28125 C11.2630221,11.1614577 11.4414057,11.0390631 11.5429688,10.9140625 C11.6445318,10.7890619 11.6953125,10.6445321 11.6953125,10.4804688 C11.6953125,10.3007804 11.630209,10.1588547 11.5,10.0546875 C11.369791,9.95052031 11.203126,9.8984375 11,9.8984375 Z M17.5664062,11.9453125 C17.5664062,12.9427133 17.4029964,13.6809872 17.0761719,14.1601562 C16.7493473,14.6393253 16.2460971,14.8789062 15.5664062,14.8789062 C14.9075488,14.8789062 14.410809,14.6315129 14.0761719,14.1367188 C13.7415348,13.6419246 13.5742188,12.9114632 13.5742188,11.9453125 C13.5742188,10.937495 13.7369775,10.1946638 14.0625,9.71679688 C14.3880225,9.2389299 14.8893195,9 15.5664062,9 C16.2252637,9 16.7233056,9.2499975 17.0605469,9.75 C17.3977881,10.2500025 17.5664062,10.981766 17.5664062,11.9453125 Z M14.7734375,11.9453125 C14.7734375,12.6458368 14.8339838,13.1477849 14.9550781,13.4511719 C15.0761725,13.7545588 15.2799465,13.90625 15.5664062,13.90625 C15.8476577,13.90625 16.0507806,13.7526057 16.1757812,13.4453125 C16.3007819,13.1380193 16.3632812,12.6380243 16.3632812,11.9453125 C16.3632812,11.2447882 16.3001308,10.741538 16.1738281,10.4355469 C16.0475254,10.1295558 15.8450535,9.9765625 15.5664062,9.9765625 C15.2825507,9.9765625 15.0794277,10.1295558 14.9570312,10.4355469 C14.8346348,10.741538 14.7734375,11.2447882 14.7734375,11.9453125 Z"/>
    </g>
    <g fill-rule="nonzero" transform="translate(0 1584)">
      <path fill="#8BBE2C" d="M0.56,7.02 L2.24,7.02 L2.24,26.46 L0.56,26.46 L0.56,7.02 Z M2.24,24.84 L25.76,24.84 L25.76,26.46 L2.24,26.46 L2.24,24.84 Z M25.76,7.02 L27.44,7.02 L27.44,26.46 L25.76,26.46 L25.76,7.02 Z"/>
      <path fill="#1D487C" d="M2.24,2.16 L8.96,2.16 L8.96,7.02 L2.24,7.02 L2.24,2.16 Z M10.64,2.16 L17.36,2.16 L17.36,7.02 L10.64,7.02 L10.64,2.16 Z M19.04,2.16 L25.76,2.16 L25.76,7.02 L19.04,7.02 L19.04,2.16 Z"/>
      <path fill="#CCC" d="M8.96,7.02 L8.96,24.84 L10.64,24.84 L10.64,7.02 L8.96,7.02 Z M2.24,11.88 L8.96,11.88 L8.96,13.5 L2.24,13.5 L2.24,11.88 Z M2.24,18.36 L8.96,18.36 L8.96,19.98 L2.24,19.98 L2.24,18.36 Z M10.64,11.88 L17.36,11.88 L17.36,13.5 L10.64,13.5 L10.64,11.88 Z M10.64,18.36 L17.36,18.36 L17.36,19.98 L10.64,19.98 L10.64,18.36 Z M19.04,11.88 L25.76,11.88 L25.76,13.5 L19.04,13.5 L19.04,11.88 Z M19.04,18.36 L25.76,18.36 L25.76,19.98 L19.04,19.98 L19.04,18.36 Z M17.36,7.02 L19.04,7.02 L19.04,24.84 L17.36,24.84 L17.36,7.02 Z"/>
      <path fill="#2E7AD7" d="M8.96,2.16 L10.64,2.16 L10.64,7.02 L8.96,7.02 L8.96,2.16 Z M0.56,2.16 L2.24,2.16 L2.24,7.02 L0.56,7.02 L0.56,2.16 Z M0.56,0.54 L27.44,0.54 L27.44,2.16 L0.56,2.16 L0.56,0.54 Z M17.36,2.16 L19.04,2.16 L19.04,7.02 L17.36,7.02 L17.36,2.16 Z M25.76,2.16 L27.44,2.16 L27.44,7.02 L25.76,7.02 L25.76,2.16 Z"/>
    </g>
    <g fill-rule="nonzero" transform="translate(1 1536)">
      <path fill="#1D487C" d="M9.08,2.24 L15.8,2.24 L15.8,7.28 L9.08,7.28 L9.08,2.24 L9.08,2.24 Z M2.36,7.28 L9.08,7.28 L9.08,12.32 L2.36,12.32 L2.36,7.28 Z M2.36,14 L9.08,14 L9.08,19.04 L2.36,19.04 L2.36,14 Z M2.36,20.72 L9.08,20.72 L9.08,25.76 L2.36,25.76 L2.36,20.72 Z M17.48,2.24 L24.2,2.24 L24.2,7.28 L17.48,7.28 L17.48,2.24 Z"/>
      <path fill="#CCC" d="M9.08,12.32 L9.08,14 L15.8,14 L15.8,12.32 L9.08,12.32 L9.08,12.32 Z M17.48,12.32 L17.48,14 L24.2,14 L24.2,12.32 L17.48,12.32 Z M9.08,19.04 L9.08,20.72 L15.8,20.72 L15.8,19.04 L9.08,19.04 L9.08,19.04 Z M17.48,19.04 L17.48,20.72 L24.2,20.72 L24.2,19.04 L17.48,19.04 Z M15.8,7.28 L17.48,7.28 L17.48,25.76 L15.8,25.76 L15.8,7.28 Z"/>
      <path fill="#2E7AD7" d="M7.4,2.24 L9.08,2.24 L9.08,7.28 L7.4,7.28 L7.4,2.24 Z M15.8,2.24 L17.48,2.24 L17.48,7.28 L15.8,7.28 L15.8,2.24 Z M2.36,12.32 L9.08,12.32 L9.08,14 L2.36,14 L2.36,12.32 Z M2.36,19.04 L9.08,19.04 L9.08,20.72 L2.36,20.72 L2.36,19.04 Z M2.36,5.6 L7.4,5.6 L7.4,7.28 L2.36,7.28 L2.36,5.6 Z M2.36,25.76 L9.08,25.76 L9.08,27.44 L2.36,27.44 L2.36,25.76 Z M0.68,5.6 L2.36,5.6 L2.36,27.44 L0.68,27.44 L0.68,5.6 Z M7.4,0.56 L25.88,0.56 L25.88,2.24 L7.4,2.24 L7.4,0.56 Z M24.2,2.24 L25.88,2.24 L25.88,7.28 L24.2,7.28 L24.2,2.24 Z"/>
      <path fill="#8BBE2C" d="M9.08,25.76 L24.2,25.76 L24.2,27.44 L9.08,27.44 L9.08,25.76 Z M24.2,7.28 L25.88,7.28 L25.88,27.44 L24.2,27.44 L24.2,7.28 Z"/>
    </g>
    <g fill-rule="nonzero" transform="translate(3 1488)">
      <path fill="#224584" d="M3.706,9.212 L3.706,0.84 L0.08,0.84 L0.08,9.212 L3.706,9.212 Z M15.2,9.212 L15.2,5.446 L4.546,5.446 L4.546,9.212 L15.2,9.212 Z M15.2,4.606 L15.2,0.84 L4.546,0.84 L4.546,4.606 L15.2,4.606 Z"/>
      <path fill="#FFF" d="M15.2,5.446 L15.2,4.606 L4.546,4.606 L4.546,0.84 L3.706,0.84 L3.706,9.212 L4.546,9.212 L4.546,5.446 L15.2,5.446 Z M20.66,0.84 L20.66,0.826 L19.82,0.826 L19.82,6.678 L16.334,6.678 L16.334,7.518 L19.82,7.518 L19.82,13.678 L16.334,13.678 L16.334,14.518 L24.16,14.518 L24.16,13.678 L20.66,13.678 L20.66,0.84 Z M10.706,10.36 L9.866,10.36 L9.866,13.958 L0.066,13.958 L0.066,14.798 L4.546,14.798 L4.546,24.92 L5.386,24.92 L5.386,14.798 L9.866,14.798 L9.866,24.92 L10.706,24.92 L10.706,19.278 L15.284,19.278 L15.284,18.438 L10.706,18.438 L10.706,10.36 Z M19.694,24.92 L19.694,20.146 L18.854,20.146 L18.854,24.92 L19.694,24.92 Z"/>
      <path fill="#2C7ED8" d="M19.82,13.678 L19.82,7.518 L16.334,7.518 L16.334,13.678 L19.82,13.678 Z M19.82,6.678 L19.82,0.84 L16.334,0.84 L16.334,6.678 L19.82,6.678 Z M24.16,0.84 L20.66,0.84 L20.66,13.678 L24.16,13.678 L24.16,0.84 Z M24.16,19.054 L24.16,14.518 L16.334,14.518 L16.334,19.054 L24.16,19.054 Z"/>
      <path fill="#8BBC22" d="M10.706,19.278 L10.706,24.92 L15.2,24.92 L15.2,19.278 L10.706,19.278 Z M0.08,14.798 L0.08,24.92 L4.546,24.92 L4.546,14.798 L0.08,14.798 Z M5.386,14.798 L5.386,24.92 L9.866,24.92 L9.866,14.798 L5.386,14.798 Z M9.866,10.36 L10.706,10.36 L10.706,18.438 L15.2,18.438 L15.2,10.346 L0.08,10.346 L0.08,13.958 L9.866,13.958 L9.866,10.36 Z"/>
      <path fill="#EE9020" d="M18.854,20.146 L16.334,20.146 L16.334,24.92 L18.854,24.92 L18.854,20.146 Z M19.694,20.146 L19.694,24.92 L24.16,24.92 L24.16,20.146 L19.694,20.146 Z"/>
    </g>
    <g fill-rule="nonzero" transform="translate(3 1440)">
      <polygon fill="#8BBC22" points=".08 24.92 15.2 24.92 15.2 10.346 .08 10.346"/>
      <polygon fill="#224584" points="15.2 9.212 15.2 .84 .08 .84 .08 9.212"/>
      <polygon fill="#2C7ED8" points="24.16 19.054 24.16 .84 16.334 .84 16.334 19.054"/>
      <polygon fill="#EE9020" points="24.16 24.92 24.16 20.146 16.334 20.146 16.334 24.92"/>
    </g>
    <g fill-rule="nonzero" transform="translate(3 1392)">
      <polygon fill="#7A91B6" points="10.426 8.652 .08 8.652 .08 24.92 10.426 24.92"/>
      <polygon fill="#A7B6CF" points="10.426 7.532 10.426 .84 .08 .84 .08 7.532"/>
      <polygon fill="#4E6D9E" points="24.16 24.92 24.16 13.384 11.546 13.384 11.546 24.92"/>
      <polygon fill="#224886" points="24.16 12.306 24.16 .84 11.546 .84 11.546 12.306"/>
    </g>
    <g fill-rule="nonzero" transform="translate(3 1344)">
      <path fill="#8BBC22" d="M4.308,17.206 L0.08,17.206 L0.08,21.238 L4.308,21.238 L4.308,17.206 Z M11.434,17.206 L9.838,17.206 L9.838,21.91 L11.434,21.91 L11.434,17.206 Z M19.764,13.16 L19.764,5.026 L16.894,5.026 L16.894,0.84 L13.492,0.84 L13.492,5.04 L15.2,5.04 L15.2,8.05 L9.698,8.05 L9.698,11.004 L7.304,11.004 L7.304,5.04 L5.512,5.04 L5.512,0.84 L0.08,0.84 L0.08,5.054 L4.084,5.054 L4.084,13.16 L7.29,13.16 L7.29,13.174 L15.102,13.174 L15.102,21.868 L18.784,21.868 L18.784,24.92 L24.16,24.92 L24.16,21.882 L21.304,21.882 L21.304,17.108 L17.692,17.108 L17.692,13.16 L19.764,13.16 L19.764,13.16 Z"/>
      <path fill="#2C7ED8" d="M0.08,21.238 L0.08,24.92 L7.318,24.92 L7.318,21.238 L0.08,21.238 Z M7.29,13.174 L7.29,13.16 L4.084,13.16 L4.084,5.054 L0.08,5.054 L0.08,17.206 L7.29,17.206 L7.29,13.174 Z M19.764,5.026 L19.764,13.16 L17.692,13.16 L17.692,17.108 L21.304,17.108 L21.304,21.882 L24.16,21.882 L24.16,0.84 L16.894,0.84 L16.894,5.026 L19.764,5.026 L19.764,5.026 Z"/>
      <path fill="#224584" d="M7.29,17.206 L4.308,17.206 L4.308,21.238 L7.318,21.238 L7.318,24.92 L18.784,24.92 L18.784,21.868 L15.102,21.868 L15.102,13.174 L7.29,13.174 L7.29,17.206 L7.29,17.206 Z M9.838,17.206 L11.434,17.206 L11.434,21.91 L9.838,21.91 L9.838,17.206 Z M13.492,5.04 L13.492,0.84 L5.512,0.84 L5.512,5.04 L7.304,5.04 L7.304,11.004 L9.698,11.004 L9.698,8.05 L15.2,8.05 L15.2,5.04 L13.492,5.04 Z"/>
    </g>
    <g fill-rule="nonzero" transform="translate(3 1297)">
      <path fill="#224584" d="M6.52,12.72 L6.52,17.76 L11.56,17.76 L11.56,12.72 L6.52,12.72 L6.52,12.72 Z M12.68,18.88 L12.68,23.92 L17.72,23.92 L17.72,18.88 L12.68,18.88 Z M6.52,18.88 L6.52,23.92 L11.56,23.92 L11.56,18.88 L6.52,18.88 Z M0.08,18.88 L0.08,23.92 L5.12,23.92 L5.12,18.88 L0.08,18.88 Z M5.12,12.72 L0.08,12.72 L0.08,17.76 L5.12,17.76 L5.12,12.72 L5.12,12.72 Z M0.08,6.56 L0.08,11.6 L5.12,11.6 L5.12,6.56 L0.08,6.56 Z"/>
      <path fill="#2C7ED8" d="M5.12,5.44 L5.12,0.4 L0.08,0.4 L0.08,5.44 L5.12,5.44 Z M17.72,12.72 L12.68,12.72 L12.68,17.76 L17.72,17.76 L17.72,12.72 L17.72,12.72 Z M11.56,11.6 L11.56,6.56 L6.52,6.56 L6.52,11.6 L11.56,11.6 Z M12.68,6.56 L12.68,11.6 L17.72,11.6 L17.72,6.56 L12.68,6.56 Z M11.56,5.44 L11.56,0.4 L6.52,0.4 L6.52,5.44 L11.56,5.44 Z M24.16,17.76 L24.16,12.72 L19.12,12.72 L19.12,17.76 L24.16,17.76 Z M24.16,23.92 L24.16,18.88 L19.12,18.88 L19.12,23.92 L24.16,23.92 Z"/>
      <path fill="#8BBC22" d="M17.72,5.44 L17.72,0.4 L12.68,0.4 L12.68,5.44 L17.72,5.44 Z M24.16,11.6 L24.16,6.56 L19.12,6.56 L19.12,11.6 L24.16,11.6 Z M24.16,5.44 L24.16,0.4 L19.12,0.4 L19.12,5.44 L24.16,5.44 Z"/>
    </g>
    <g fill-rule="nonzero" transform="translate(0 1257)">
      <path fill="#2C7ED8" d="M4.41,4.342 L4.396,4.356 L14,13.946 L14.028,13.918 L23.618,4.342 C20.958,1.69133333 17.752,0.366 14,0.366 C10.2573333,0.366 7.06066667,1.69133333 4.41,4.342 Z"/>
      <path fill="#224886" d="M27.58,13.96 L27.58,13.946 L14,13.946 L13.972,13.918 L4.396,4.356 C4.34933333,4.40266667 4.30266667,4.44933333 4.256,4.496 C1.70533333,7.13066667 0.426666667,10.2713333 0.42,13.918 C0.42,13.9273333 0.42,13.9366667 0.42,13.946 L0.42,13.96 L27.58,13.96 L27.58,13.96 Z"/>
      <path fill="#8BBC22" d="M27.58,13.946 C27.58,13.9366667 27.58,13.9273333 27.58,13.918 C27.5733333,10.1966667 26.2526667,7.00466667 23.618,4.342 L14,13.946 L27.58,13.946 Z"/>
    </g>
    <g fill-rule="nonzero" transform="translate(1 1201)">
      <path fill="#2C7ED8" d="M5.328,7.218 L2.878,5.342 C1.18866667,7.54466667 0.344,10.0973333 0.344,13 C0.344,16.5 1.576,19.482 4.04,21.946 C6.51333333,24.4193333 9.5,25.656 13,25.656 C15.1166667,25.656 17.044,25.2033333 18.782,24.298 C19.8913333,23.7206667 20.9226667,22.96 21.876,22.016 L19.72,19.818 C19.2986667,20.2366667 18.8553333,20.6053333 18.39,20.924 C16.8253333,22.026 15.0286667,22.5766667 13,22.576 C10.35,22.576 8.08666667,21.638 6.21,19.762 C4.35266667,17.904 3.424,15.65 3.424,13 C3.42466667,10.8086667 4.05933333,8.88133333 5.328,7.218 L5.328,7.218 Z M6.84,17.956 C7.018,18.1713333 7.20466667,18.3766667 7.4,18.572 C8.94866667,20.1213333 10.8153333,20.896 13,20.896 C15.1846667,20.8953333 17.042,20.1206667 18.572,18.572 C19.184,17.9733333 19.674,17.32 20.042,16.612 L13,13 L6.84,17.956 L6.84,17.956 Z"/>
      <path fill="#8BBC22" d="M13,3.424 L13,0.344 C10.6846667,0.344 8.594,0.880666667 6.728,1.954 C6.616,2.02333333 6.504,2.09333333 6.392,2.164 C6.11666667,2.33333333 5.846,2.51533333 5.58,2.71 C5.046,3.10533333 4.53266667,3.54866667 4.04,4.04 C3.61933333,4.462 3.232,4.896 2.878,5.342 L5.328,7.218 C5.59866667,6.874 5.89266667,6.538 6.21,6.21 C6.222,6.208 6.23133333,6.20333333 6.238,6.196 C6.73933333,5.7 7.26666667,5.27066667 7.82,4.908 C8.00266667,4.792 8.18466667,4.68 8.366,4.572 C9.75133333,3.80666667 11.296,3.424 13,3.424 Z M8.926,6.196 C8.38866667,6.53 7.88,6.93133333 7.4,7.4 C5.86866667,8.948 5.10333333,10.8146667 5.10399956,13 C5.10399956,14.9 5.68266667,16.552 6.84,17.956 L13,13 L8.926,6.196 Z"/>
      <path fill="#224886" d="M22.576,13 C22.576,13.0233333 22.576,13.0466667 22.576,13.07 C22.5666667,14.6246667 22.2306667,16.0433333 21.568,17.326 C21.5673333,17.336 21.5626667,17.3453333 21.554,17.354 C21.11,18.222 20.5126667,19.0246667 19.762,19.762 C19.7513333,19.782 19.7373333,19.8006667 19.72,19.818 L21.876,22.016 C21.9,21.992 21.9233333,21.9686667 21.946,21.946 C23.318,20.5793333 24.3073333,19.0533333 24.914,17.368 L24.928,17.354 C25.406,16.0253333 25.6486667,14.5973333 25.656,13.07 C25.656,13.0466667 25.656,13.0233333 25.656,13 C25.656,9.5 24.4193333,6.51333333 21.946,4.04 C19.4986667,1.59266667 16.54,0.360666667 13.07,0.344 C13.0466667,0.344 13.0233333,0.344 13,0.344 L13,3.424 C13.0233333,3.424 13.0466667,3.424 13.07,3.424 C15.69,3.44066667 17.9206667,4.36933333 19.762,6.21 C21.638,8.08666667 22.576,10.35 22.576,13 Z M18.572,7.4 C17.042,5.86933333 15.1846667,5.104 13,5.104 C11.6293333,5.104 10.3833333,5.40266667 9.262,6 C9.15533333,6.06533333 9.048,6.13066667 8.94,6.196 C8.93533333,6.19866667 8.93066667,6.19866667 8.926,6.196 L13,13 L20.042,16.612 C20.5953333,15.56 20.88,14.3933333 20.896,13.112 C20.896,13.0746667 20.896,13.0373333 20.896,13 C20.896,10.8153333 20.1213333,8.94866667 18.572,7.4 L18.572,7.4 Z"/>
    </g>
    <g fill-rule="nonzero" transform="translate(1 1153)">
      <path fill="#8BBC22" d="M13,0.344 C9.50933333,0.344 6.52266667,1.576 4.04,4.04 L13,13 L13,0.344 Z"/>
      <path fill="#2C7ED8" d="M0.344,13 C0.344,16.4906667 1.576,19.468 4.04,21.932 C4.04466667,21.9366667 4.04933333,21.9413333 4.054,21.946 L13,13 L4.04,4.04 C1.576,6.52266667 0.344,9.50933333 0.344,13 Z"/>
      <path fill="#224886" d="M21.946,21.932 C24.4193333,19.468 25.656,16.4906667 25.656,13 C25.656,9.50933333 24.4193333,6.52266667 21.946,4.04 C19.4726667,1.576 16.4906667,0.344 13,0.344 L13,13 L4.054,21.946 C4.1,21.9913333 4.14666667,22.0333333 4.194,22.072 C6.64466667,24.4613333 9.58,25.656 13,25.656 C16.4906667,25.656 19.4726667,24.4146667 21.946,21.932 Z"/>
    </g>
    <g fill-rule="nonzero" transform="translate(0 1104)">
      <polygon fill="#CCC" points="1.68 .84 .28 .84 .28 27.72 27.16 27.72 27.16 26.32 1.68 26.32"/>
      <path fill="#224784" d="M20.202,18.564 C20.202,17.388 19.7913333,16.3893333 18.97,15.568 C18.1393333,14.7653333 17.1453333,14.364 15.988,14.364 C14.8306667,14.364 13.8413333,14.7653333 13.02,15.568 C12.1986667,16.3893333 11.788,17.388 11.788,18.564 C11.788,19.712 12.1986667,20.6966667 13.02,21.518 C13.8413333,22.3486667 14.8306667,22.764 15.988,22.764 C17.1453333,22.764 18.1393333,22.3486667 18.97,21.518 C19.7913333,20.6966667 20.202,19.712 20.202,18.564 Z"/>
      <path fill="#2C7ED8" d="M5.474,10.92 C4.802,10.92 4.23266667,11.1486667 3.766,11.606 C3.30866667,12.082 3.08,12.6466667 3.08,13.3 C3.08,13.944 3.30866667,14.5086667 3.766,14.994 C4.23266667,15.4513333 4.802,15.68 5.474,15.68 C6.12733333,15.68 6.692,15.4513333 7.168,14.994 C7.60666667,14.5086667 7.826,13.944 7.826,13.3 C7.826,12.6466667 7.60666667,12.082 7.168,11.606 C6.692,11.1486667 6.12733333,10.92 5.474,10.92 L5.474,10.92 Z M5.04,6.16 C4.51733333,6.16 4.06,6.33733333 3.668,6.692 C3.276,7.084 3.08,7.56 3.08,8.12 C3.08,8.64266667 3.276,9.1 3.668,9.492 C4.06,9.884 4.51733333,10.08 5.04,10.08 C5.56266667,10.08 6.02,9.884 6.412,9.492 C6.804,9.1 7,8.64266667 7,8.12 C7,7.56 6.804,7.084 6.412,6.692 C6.02,6.33733333 5.56266667,6.16 5.04,6.16 L5.04,6.16 Z M27.09,17.388 C27.09,16.576 26.8006667,15.8806667 26.222,15.302 C25.634,14.7233333 24.9433333,14.434 24.15,14.434 C23.338,14.434 22.652,14.7233333 22.092,15.302 C21.5133333,15.8806667 21.224,16.576 21.224,17.388 C21.224,18.2 21.5133333,18.8953333 22.092,19.474 C22.652,20.0433333 23.338,20.328 24.15,20.328 C24.9433333,20.328 25.634,20.0433333 26.222,19.474 C26.8006667,18.8953333 27.09,18.2 27.09,17.388 Z"/>
      <path fill="#8BBC22" d="M13.16,7.98 C13.16,7.224 12.9033333,6.58933333 12.39,6.076 C11.886,5.572 11.256,5.32 10.5,5.32 C9.772,5.32 9.14666667,5.572 8.624,6.076 C8.10133333,6.58933333 7.84,7.224 7.84,7.98 C7.84,8.708 8.10133333,9.32866667 8.624,9.842 C9.14666667,10.374 9.772,10.64 10.5,10.64 C11.256,10.64 11.886,10.374 12.39,9.842 C12.9033333,9.32866667 13.16,8.708 13.16,7.98 Z M21.98,10.612 C21.4666667,10.1173333 20.8786667,9.87 20.216,9.87 C19.516,9.87 18.9233333,10.1173333 18.438,10.612 C17.9526667,11.0973333 17.71,11.69 17.71,12.39 C17.71,13.062 17.9526667,13.65 18.438,14.154 C18.9233333,14.63 19.516,14.868 20.216,14.868 C20.8786667,14.868 21.4666667,14.63 21.98,14.154 C22.456,13.65 22.694,13.062 22.694,12.39 C22.694,11.69 22.456,11.0973333 21.98,10.612 L21.98,10.612 Z"/>
    </g>
    <g fill-rule="nonzero" transform="translate(0 1056)">
      <polygon fill="#CCC" points="1.68 .84 .28 .84 .28 27.72 27.16 27.72 27.16 26.32 1.68 26.32"/>
      <path fill="#224584" d="M13.454,18.494 C13.09,18.494 12.7633333,18.6246667 12.474,18.886 C12.222,19.1566667 12.096,19.4693333 12.096,19.824 C12.096,20.216 12.222,20.5333333 12.474,20.776 C12.7633333,21.056 13.09,21.196 13.454,21.196 C13.8366667,21.196 14.154,21.056 14.406,20.776 C14.6766667,20.5333333 14.812,20.216 14.812,19.824 C14.812,19.4693333 14.6766667,19.1566667 14.406,18.886 C14.154,18.6246667 13.8366667,18.494 13.454,18.494 Z M18.69,15.624 C18.69,15.2506667 18.564,14.938 18.312,14.686 C18.032,14.4153333 17.7146667,14.28 17.36,14.28 C16.968,14.28 16.6506667,14.4153333 16.408,14.686 C16.1373333,14.938 16.002,15.2506667 16.002,15.624 C16.002,16.0066667 16.1373333,16.3333333 16.408,16.604 C16.6506667,16.884 16.968,17.024 17.36,17.024 C17.7146667,17.024 18.032,16.884 18.312,16.604 C18.564,16.3333333 18.69,16.0066667 18.69,15.624 L18.69,15.624 Z M10.976,17.108 C10.7146667,16.828 10.4066667,16.688 10.052,16.688 C9.66933333,16.688 9.32866667,16.828 9.03,17.108 C8.78733333,17.36 8.666,17.668 8.666,18.032 C8.666,18.4426667 8.78733333,18.774 9.03,19.026 C9.32866667,19.306 9.66933333,19.446 10.052,19.446 C10.4066667,19.446 10.7146667,19.306 10.976,19.026 C11.2653333,18.774 11.41,18.4426667 11.41,18.032 C11.41,17.668 11.2653333,17.36 10.976,17.108 Z"/>
      <path fill="#8BBC22" d="M13.23,16.562 C13.594,16.562 13.8973333,16.436 14.14,16.184 C14.4106667,15.9226667 14.546,15.6006667 14.546,15.218 C14.546,14.882 14.4106667,14.5693333 14.14,14.28 C13.8973333,14.0186667 13.594,13.888 13.23,13.888 C12.838,13.888 12.516,14.0186667 12.264,14.28 C11.984,14.5693333 11.844,14.882 11.844,15.218 C11.844,15.6006667 11.984,15.9226667 12.264,16.184 C12.516,16.436 12.838,16.562 13.23,16.562 Z M21.112,9.688 C21.42,9.51066667 21.6253333,9.23066667 21.728,8.848 C21.8306667,8.484 21.784,8.14333333 21.588,7.826 C21.4013333,7.49933333 21.126,7.294 20.762,7.21 C20.398,7.08866667 20.062,7.112 19.754,7.28 C19.4086667,7.504 19.194,7.80266667 19.11,8.176 C19.0073333,8.53066667 19.054,8.88066667 19.25,9.226 C19.4366667,9.51533333 19.712,9.71133333 20.076,9.814 C20.4026667,9.926 20.748,9.884 21.112,9.688 L21.112,9.688 Z M23.856,9.702 C23.464,9.702 23.142,9.83266667 22.89,10.094 C22.61,10.3646667 22.47,10.682 22.47,11.046 C22.47,11.4193333 22.61,11.7506667 22.89,12.04 C23.142,12.292 23.464,12.418 23.856,12.418 C24.22,12.418 24.5326667,12.292 24.794,12.04 C25.0553333,11.7506667 25.186,11.4193333 25.186,11.046 C25.186,10.682 25.0553333,10.3646667 24.794,10.094 C24.5326667,9.83266667 24.22,9.702 23.856,9.702 Z M24.262,5.726 C23.8793333,5.726 23.548,5.86133333 23.268,6.132 C23.0346667,6.412 22.918,6.72933333 22.918,7.084 C22.918,7.448 23.0346667,7.77 23.268,8.05 C23.548,8.302 23.8793333,8.428 24.262,8.428 C24.6446667,8.428 24.962,8.302 25.214,8.05 C25.4753333,7.77 25.606,7.448 25.606,7.084 C25.606,6.72933333 25.4753333,6.412 25.214,6.132 C24.962,5.86133333 24.6446667,5.726 24.262,5.726 L24.262,5.726 Z"/>
      <path fill="#2C7ED8" d="M5.362,22.372 C5.09133333,22.092 4.78333333,21.952 4.438,21.952 C4.074,21.952 3.752,22.092 3.472,22.372 C3.21066667,22.6333333 3.08,22.9553333 3.08,23.338 C3.08,23.7206667 3.21066667,24.0426667 3.472,24.304 C3.752,24.5746667 4.074,24.71 4.438,24.71 C4.78333333,24.71 5.09133333,24.5746667 5.362,24.304 C5.63266667,24.0426667 5.768,23.7206667 5.768,23.338 C5.768,22.9553333 5.63266667,22.6333333 5.362,22.372 Z M6.874,19.908 C6.874,19.5346667 6.74333333,19.2033333 6.482,18.914 C6.202,18.6713333 5.88466667,18.55 5.53,18.55 C5.14733333,18.55 4.82533333,18.6713333 4.564,18.914 C4.312,19.2033333 4.186,19.5346667 4.186,19.908 C4.186,20.2813333 4.312,20.594 4.564,20.846 C4.82533333,21.1446667 5.14733333,21.294 5.53,21.294 C5.88466667,21.294 6.202,21.1446667 6.482,20.846 C6.74333333,20.594 6.874,20.2813333 6.874,19.908 Z M7.994,16.478 C7.994,16.0953333 7.85866667,15.7733333 7.588,15.512 C7.336,15.2413333 7.02333333,15.106 6.65,15.106 C6.258,15.106 5.92666667,15.2413333 5.656,15.512 C5.38533333,15.7733333 5.25,16.0953333 5.25,16.478 C5.25,16.8513333 5.38533333,17.1686667 5.656,17.43 C5.92666667,17.6913333 6.258,17.822 6.65,17.822 C7.02333333,17.822 7.336,17.6913333 7.588,17.43 C7.85866667,17.1686667 7.994,16.8513333 7.994,16.478 Z M18.984,10.906 C18.592,10.906 18.2606667,11.032 17.99,11.284 C17.7473333,11.536 17.626,11.8626667 17.626,12.264 C17.626,12.6466667 17.7473333,12.964 17.99,13.216 C18.2606667,13.4773333 18.592,13.608 18.984,13.608 C19.3386667,13.608 19.656,13.4773333 19.936,13.216 C20.1973333,12.964 20.328,12.6466667 20.328,12.264 C20.328,11.8626667 20.1973333,11.536 19.936,11.284 C19.656,11.032 19.3386667,10.906 18.984,10.906 Z M22.904,15.708 C23.2493333,15.5026667 23.4593333,15.2273333 23.534,14.882 C23.6366667,14.5086667 23.5946667,14.154 23.408,13.818 C23.212,13.5006667 22.9366667,13.3046667 22.582,13.23 C22.2273333,13.1273333 21.882,13.16 21.546,13.328 C21.21,13.524 21,13.804 20.916,14.168 C20.8133333,14.5133333 20.8553333,14.8493333 21.042,15.176 C21.2286667,15.5306667 21.5133333,15.75 21.896,15.834 C22.2413333,15.9366667 22.5773333,15.8946667 22.904,15.708 L22.904,15.708 Z"/>
    </g>
    <g fill-rule="nonzero" transform="translate(0 1008)">
      <path fill="#8BBC22" d="M10.08,25.2 L13.16,25.2 L13.16,2.968 L10.08,2.968 L10.08,25.2 Z M25.48,25.2 L25.48,8.932 L22.4,8.932 L22.4,25.2 L25.48,25.2 L25.48,25.2 Z"/>
      <path fill="#224886" d="M15.12,25.2 L18.2,25.2 L18.2,15.036 L15.12,15.036 L15.12,25.2 Z M2.8,25.2 L5.88,25.2 L5.88,14.14 L2.8,14.14 L2.8,25.2 Z"/>
      <path fill="#2C7ED8" d="M18.76,25.2 L21.84,25.2 L21.84,17.192 L18.76,17.192 L18.76,25.2 L18.76,25.2 Z M9.8,11.872 L6.72,11.872 L6.72,25.2 L9.8,25.2 L9.8,11.872 Z"/>
      <polygon fill="#CCC" points="27.72 .84 26.32 .84 26.32 26.32 1.68 26.32 1.68 .84 .28 .84 .28 27.72 27.72 27.72"/>
    </g>
    <g fill-rule="nonzero" transform="translate(0 960)">
      <path fill="#224886" d="M25.018,8.834 L25.158,6.874 C21.5633333,6.616 18.4086667,7.4 15.694,9.226 L15.68,9.226 L15.666,9.24 C14.522,10.07 13.6913333,10.6393333 13.174,10.948 L13.174,10.934 C12.4773333,11.348 11.796,11.5346667 11.13,11.494 L11.116,11.494 C10.5326667,11.4146667 9.84666667,10.9806667 9.058,10.192 C7.77733333,8.89933333 6.54533333,8.05933333 5.362,7.672 L5.348,7.672 C4.90666667,7.53066667 4.37,7.46533333 3.738,7.476 L3.01,7.518 L3.178,9.478 L3.85,9.436 C4.19333333,9.43466667 4.48733333,9.46733333 4.732,9.534 C4.74333333,9.54133333 4.75266667,9.546 4.76,9.548 C5.684,9.87733333 6.65466667,10.554 7.672,11.578 C8.90933333,12.8146667 10.02,13.44 11.004,13.454 C12.0346667,13.54 13.0893333,13.2646667 14.168,12.628 L14.182,12.628 C14.7246667,12.3046667 15.5926667,11.712 16.786,10.85 C19.1486667,9.27866667 21.8926667,8.60666667 25.018,8.834 Z"/>
      <path fill="#8BBC22" d="M3.64,12.95 L3.528,12.95 L2.912,13.132 L3.472,15.008 L3.808,14.91 C4.25733333,14.926 4.892,15.066 5.712,15.33 L5.726,15.33 C7.12866667,15.8253333 8.54733333,17.1786667 9.982,19.39 C10.2746667,19.254 10.564,19.0953333 10.85,18.914 L10.864,18.914 C10.898,18.894 10.9353333,18.8706667 10.976,18.844 L10.99,18.83 C11.194,18.6993333 11.4133333,18.5406667 11.648,18.354 C9.886,15.624 8.108,13.9953333 6.314,13.468 L6.328,13.468 C5.15266667,13.088 4.25666667,12.9153333 3.64,12.95 Z M25.06,15.344 L24.78,13.412 C23,13.6746667 21.4646667,14.4026667 20.174,15.596 L20.174,15.61 C19.3073333,16.4013333 18.4533333,17.5493333 17.612,19.054 L17.612,19.04 C16.6486667,20.7486667 16.1026667,21.6866667 15.974,21.854 L15.946,21.882 C15.57,22.4026667 15.178,22.6686667 14.77,22.68 L14.756,22.68 C14.4913333,22.5926667 14.1646667,22.2846667 13.776,21.756 C13.644,21.5713333 13.28,20.9926667 12.684,20.02 C12.4673333,20.1933333 12.262,20.3426667 12.068,20.468 C12.002,20.512 11.9413333,20.5493333 11.886,20.58 C11.8813333,20.5873333 11.8766667,20.592 11.872,20.594 C11.5906667,20.7673333 11.306,20.9213333 11.018,21.056 C11.6573333,22.1 12.0493333,22.7206667 12.194,22.918 C13.0493333,24.082 13.8566667,24.656 14.616,24.64 L14.602,24.626 C15.6593333,24.778 16.63,24.26 17.514,23.072 C17.5213333,23.0673333 17.526,23.058 17.528,23.044 C17.7146667,22.8066667 18.312,21.794 19.32,20.006 L19.32,20.006 C20.044,18.7153333 20.772,17.726 21.504,17.038 L21.518,17.038 C22.508,16.112 23.6886667,15.5473333 25.06,15.344 L25.06,15.344 Z"/>
      <path fill="#2C7ED8" d="M24.808,12.152 L25.102,10.22 C22.926,9.884 20.91,10.29 19.054,11.438 C17.9913333,12.092 16.582,13.366 14.826,15.26 C13.5606667,16.6413333 12.5013333,17.6726667 11.648,18.354 C11.4133333,18.5406667 11.194,18.6993333 10.99,18.83 L10.976,18.844 C10.9353333,18.8706667 10.898,18.894 10.864,18.914 L10.85,18.914 C10.564,19.0953333 10.2746667,19.254 9.982,19.39 C8.792,19.93 7.532,20.126 6.202,19.978 C4.98066667,19.8426667 4.178,19.6933333 3.794,19.53 L2.954,21.294 C3.42866667,21.5413333 4.43666667,21.7513333 5.978,21.924 L5.978,21.924 C7.76066667,22.1233333 9.44066667,21.834 11.018,21.056 C11.306,20.9213333 11.5906667,20.7673333 11.872,20.594 C11.8766667,20.592 11.8813333,20.5873333 11.886,20.58 C11.9413333,20.55 12.002,20.5126667 12.068,20.468 C12.262,20.3426667 12.4673333,20.1933333 12.684,20.02 C13.6406667,19.292 14.8353333,18.1486667 16.268,16.59 C17.8626667,14.872 19.1366667,13.71 20.09,13.104 C21.538,12.208 23.1106667,11.8906667 24.808,12.152 Z"/>
      <polygon fill="#CCC" points="27.72 .84 26.32 .84 26.32 26.32 1.68 26.32 1.68 .84 .28 .84 .28 27.72 27.72 27.72"/>
    </g>
    <g fill-rule="nonzero" transform="translate(0 912)">
      <polygon fill="#CCC" points="27.72 .84 26.32 .84 26.32 26.32 1.68 26.32 1.68 .84 .28 .84 .28 27.72 27.72 27.72"/>
      <polygon fill="#224886" points="25.34 15.092 23.982 13.678 19.586 17.92 10.136 17.92 6.412 23.086 8.008 24.234 11.144 19.88 20.384 19.88"/>
      <polygon fill="#2C7ED8" points="25.69 9.674 24.332 8.26 18.032 14.266 8.722 14.28 3.808 20.958 5.39 22.12 9.716 16.24 18.816 16.226 25.69 9.674"/>
      <polygon fill="#8ABB22" points="25.2 4.998 23.842 3.584 16.492 10.654 7.462 10.682 2.436 17.164 3.99 18.368 8.428 12.642 17.29 12.614"/>
    </g>
    <g fill-rule="nonzero" transform="translate(0 864)">
      <polygon fill="#CCC" points="1.68 .84 .28 .84 .28 27.72 27.16 27.72 27.16 26.32 1.68 26.32"/>
      <path fill="#8BBC22" d="M27.832,6.552 L25.886,6.314 C25.7753333,7.24066667 25.6026667,8.12733333 25.368,8.974 L25.368,8.988 C25.05,10.208 24.7046667,10.8986667 24.332,11.06 C24.2046667,10.9713333 23.934,10.6446667 23.52,10.08 L23.52,10.066 C23.3426667,9.82066667 22.638,8.71933333 21.406,6.762 C19.0606667,3.034 16.998,1.05533333 15.218,0.826 L15.218,0.826 C13.9813333,0.590666667 12.6793333,0.838 11.312,1.568 L11.312,1.568 C9.72133333,2.41266667 8.71333333,2.898 8.288,3.024 C7.198,3.332 6.18066667,3.14533333 5.236,2.464 C4.754,2.118 4.38066667,1.74 4.116,1.33 L2.45,2.366 C2.82933333,2.98266667 3.37533333,3.54733333 4.088,4.06 C5.55133333,5.11466667 7.12866667,5.39933333 8.82,4.914 C9.30933333,4.788 10.448,4.25133333 12.236,3.304 L12.236,3.29 C13.1626667,2.79866667 14.04,2.62133333 14.868,2.758 L14.882,2.758 C16.2053333,3.07333333 17.8293333,4.758 19.754,7.812 C21.0153333,9.82 21.7433333,10.9586667 21.938,11.228 L21.952,11.228 C22.9706667,12.6406667 23.848,13.2333333 24.584,13.006 C25.7573333,12.9846667 26.6486667,11.8133333 27.258,9.492 L27.258,9.492 C27.5173333,8.556 27.7086667,7.576 27.832,6.552 Z M3.92,8.666 L3.92,12.964 L9.52,12.964 L9.52,8.666 L3.92,8.666 Z M16.8,11.354 L16.8,5.88 L11.2,5.88 L11.2,11.354 L16.8,11.354 Z M24.08,17.654 L24.08,14.56 L18.48,14.56 L18.48,17.654 L24.08,17.654 Z"/>
      <path fill="#224886" d="M9.52,24.934 L9.52,18.844 L3.92,18.844 L3.92,24.934 L9.52,24.934 Z M11.2,18.396 L11.2,24.934 L16.8,24.934 L16.8,18.396 L11.2,18.396 L11.2,18.396 Z M24.08,24.934 L24.08,20.958 L18.48,20.958 L18.48,24.934 L24.08,24.934 Z"/>
      <path fill="#2E7ED8" d="M9.52,12.964 L3.92,12.964 L3.92,18.844 L9.52,18.844 L9.52,12.964 L9.52,12.964 Z M16.8,18.396 L16.8,11.354 L11.2,11.354 L11.2,18.396 L16.8,18.396 Z M24.08,20.958 L24.08,17.654 L18.48,17.654 L18.48,20.958 L24.08,20.958 Z"/>
    </g>
    <g fill-rule="nonzero" transform="translate(0 816)">
      <polygon fill="#CCC" points="1.68 .84 .28 .84 .28 27.72 27.16 27.72 27.16 26.32 1.68 26.32"/>
      <polygon fill="#8BBC21" points="27.65 7.924 23.282 4.69 14.686 7.952 7.014 1.12 3.052 2.576 3.724 4.41 6.58 3.36 14.266 10.206 22.974 6.902 26.488 9.506"/>
      <path fill="#8BBC22" d="M11.2,13.44 L11.2,16.94 L16.8,16.94 L16.8,13.44 L11.2,13.44 L11.2,13.44 Z M3.92,12.964 L9.52,12.964 L9.52,8.666 L3.92,8.666 L3.92,12.964 Z M24.08,15.652 L24.08,11.48 L18.48,11.48 L18.48,15.652 L24.08,15.652 L24.08,15.652 Z"/>
      <path fill="#224886" d="M11.2,21.098 L11.2,24.934 L16.8,24.934 L16.8,21.098 L11.2,21.098 L11.2,21.098 Z M9.52,24.934 L9.52,18.844 L3.92,18.844 L3.92,24.934 L9.52,24.934 Z M24.08,24.934 L24.08,20.02 L18.48,20.02 L18.48,24.934 L24.08,24.934 L24.08,24.934 Z"/>
      <path fill="#2E7ED8" d="M11.2,16.94 L11.2,21.098 L16.8,21.098 L16.8,16.94 L11.2,16.94 L11.2,16.94 Z M9.52,12.964 L3.92,12.964 L3.92,18.844 L9.52,18.844 L9.52,12.964 L9.52,12.964 Z M24.08,20.02 L24.08,15.652 L18.48,15.652 L18.48,20.02 L24.08,20.02 Z"/>
    </g>
    <g fill-rule="nonzero" transform="translate(0 768)">
      <polygon fill="#CCC" points="1.68 .84 .28 .84 .28 27.72 27.16 27.72 27.16 26.32 1.68 26.32"/>
      <polygon fill="#2E7ED8" points="11.2 24.934 16.8 24.934 16.8 5.866 11.2 5.866 11.2 24.934"/>
      <polygon fill="#224886" points="9.52 8.666 3.92 8.666 3.92 24.934 9.52 24.934"/>
      <path fill="#8BBC22" d="M24.08,24.934 L24.08,15.974 L18.48,15.974 L18.48,24.934 L24.08,24.934 Z M27.832,6.552 L25.886,6.314 C25.7753333,7.24066667 25.6026667,8.12733333 25.368,8.974 L25.368,8.988 C25.05,10.208 24.7046667,10.8986667 24.332,11.06 C24.2046667,10.9713333 23.934,10.6446667 23.52,10.08 L23.52,10.066 C23.3426667,9.82066667 22.638,8.71933333 21.406,6.762 C19.0606667,3.034 16.998,1.05533333 15.218,0.826 L15.218,0.826 C13.9813333,0.590666667 12.6793333,0.838 11.312,1.568 L11.312,1.568 C9.72133333,2.41266667 8.71333333,2.898 8.288,3.024 C7.198,3.332 6.18066667,3.14533333 5.236,2.464 C4.754,2.118 4.38066667,1.74 4.116,1.33 L2.45,2.366 C2.82933333,2.98266667 3.37533333,3.54733333 4.088,4.06 C5.55133333,5.11466667 7.12866667,5.39933333 8.82,4.914 C9.30933333,4.788 10.448,4.25133333 12.236,3.304 L12.236,3.29 C13.1626667,2.79866667 14.04,2.62133333 14.868,2.758 L14.882,2.758 C16.2053333,3.07333333 17.8293333,4.758 19.754,7.812 C21.0153333,9.82 21.7433333,10.9586667 21.938,11.228 L21.952,11.228 C22.9706667,12.6406667 23.848,13.2333333 24.584,13.006 C25.7573333,12.9846667 26.6486667,11.8133333 27.258,9.492 L27.258,9.492 C27.5173333,8.556 27.7086667,7.576 27.832,6.552 Z"/>
    </g>
    <g fill-rule="nonzero" transform="translate(0 720)">
      <polygon fill="#CCC" points="1.68 .84 .28 .84 .28 27.72 27.16 27.72 27.16 26.32 1.68 26.32"/>
      <polygon fill="#2E7ED8" points="11.2 24.934 16.8 24.934 16.8 13.72 11.2 13.72 11.2 24.934"/>
      <polygon fill="#224886" points="9.52 8.666 3.92 8.666 3.92 24.934 9.52 24.934"/>
      <polygon fill="#8BBC22" points="24.08 24.934 24.08 11.48 18.48 11.48 18.48 24.934"/>
      <polygon fill="#8BBC21" points="27.65 7.924 23.282 4.69 14.686 7.952 7.014 1.12 3.052 2.576 3.724 4.41 6.58 3.36 14.266 10.206 22.974 6.902 26.488 9.506"/>
    </g>
    <g fill-rule="nonzero" transform="translate(0 672)">
      <path fill="#CCC" d="M23.66,23.66 C26.33,20.998 27.6646667,17.778 27.6640002,14 C27.6646667,10.222 26.33,6.99733333 23.66,4.326 C20.998,1.66533333 17.778,0.335333333 14,0.3359375 C13.8693333,0.335333333 13.7386667,0.34 13.608,0.35 C10.004,0.438 6.91,1.76333333 4.326,4.326 L4.312,4.34 L4.284,4.382 C4.25866667,4.41666667 4.226,4.44933333 4.186,4.48 L4.172,4.508 C4.15266667,4.528 4.134,4.54666667 4.116,4.564 C2.94333333,5.79 2.04266667,7.134 1.414,8.596 C0.698666667,10.2446667 0.339333333,12.0366667 0.336,13.972 L0.336,14.028 C0.338666667,14.8613333 0.408666667,15.664 0.546,16.436 L0.532,16.436 C0.995333333,19.1113333 2.20866667,21.4586667 4.172,23.478 C4.192,23.5066667 4.21066667,23.53 4.228,23.548 C4.24066667,23.5593333 4.25,23.5686667 4.256,23.576 C4.26666667,23.5853333 4.276,23.5946667 4.284,23.604 L4.312,23.646 L4.326,23.66 C6.91333333,26.2353333 10.012,27.57 13.622,27.6640002 L13.622,27.6640002 C13.6346667,27.6640002 13.644,27.6640002 13.65,27.6640002 L13.678,27.6640002 C13.788,27.6640002 13.8953333,27.6640002 14,27.6640002 C17.778,27.6646667 20.998,26.33 23.66,23.66 L23.66,23.66 Z M23.058,5.726 C25.0373333,7.868 26.1013333,10.3926667 26.25,13.3 L23.66,13.3 C23.5246667,11.1013333 22.7173333,9.17866667 21.238,7.532 L23.058,5.726 Z M26.25,14.7 C26.1,17.63 25.0173333,20.1686667 23.002,22.316 L21.182,20.496 C22.6973333,18.858 23.5233333,16.926 23.66,14.7 L26.25,14.7 Z M22.05,4.746 L20.23,6.552 C18.5606667,5.13533333 16.6053333,4.38866667 14.364,4.312 L14.364,1.736 C17.312,1.81533333 19.874,2.81866667 22.05,4.746 Z M12.964,1.778 L12.964,4.368 C10.874,4.556 9.04,5.36333333 7.462,6.79 L5.67,4.998 C7.74466667,3.064 10.176,1.99066667 12.964,1.778 Z M20.244,8.526 C21.454,9.89666667 22.126,11.488 22.26,13.3 L15.456,13.3 L20.244,8.526 Z M19.222,7.546 L14.364,12.404 L14.364,5.712 C16.2166667,5.78666667 17.836,6.398 19.222,7.546 Z M12.964,5.768 L12.964,12.292 L8.456,7.784 C9.756,6.62533333 11.2586667,5.95333333 12.964,5.768 L12.964,5.768 Z M5.124,10.01 L5.124,10.024 C4.67466667,11.046 4.40866667,12.138 4.326,13.3 L1.75,13.3 C1.82666667,11.82 2.144,10.4386667 2.702,9.156 C3.188,8.03 3.85066667,6.98 4.69,6.006 L6.51,7.826 C5.936,8.514 5.474,9.242 5.124,10.01 L5.124,10.01 Z M6.398,10.584 C6.68266667,9.966 7.05133333,9.378 7.504,8.82 L11.984,13.3 L5.74,13.3 C5.80866667,12.3386667 6.028,11.4333333 6.398,10.584 L6.398,10.584 Z M5.894,15.918 C5.81533333,15.5286667 5.75933333,15.1226667 5.726,14.7 L12.068,14.7 L7.56,19.236 C6.738,18.238 6.178,17.1226667 5.88,15.89 L5.894,15.918 L5.894,15.918 Z M1.75,14.7 L4.326,14.7 C4.35933333,15.2206667 4.42466667,15.72 4.522,16.198 L4.522,16.212 C4.878,17.6973333 5.55933333,19.0366667 6.566,20.23 L4.746,22.05 C3.24066667,20.344 2.298,18.3933333 1.918,16.198 C1.836,15.7133333 1.78,15.214 1.75,14.7 L1.75,14.7 Z M5.726,23.058 L7.532,21.238 C9.09466667,22.6486667 10.9053333,23.4513333 12.964,23.646 L12.964,26.222 C10.202,26.0126667 7.78933333,24.958 5.726,23.058 Z M22.26,14.7 C22.1226667,16.5386667 21.432,18.1393333 20.188,19.502 L15.372,14.7 L22.26,14.7 L22.26,14.7 Z M14.364,26.25 L14.364,23.674 C16.5866667,23.606 18.5233333,22.8733333 20.174,21.476 L21.994,23.296 C19.8326667,25.196 17.2893333,26.1806667 14.364,26.25 Z M14.364,15.68 L19.194,20.496 C17.8093333,21.6193333 16.1993333,22.212 14.364,22.274 L14.364,15.68 L14.364,15.68 Z M12.964,15.792 L12.964,22.232 C11.29,22.048 9.81066667,21.3853333 8.526,20.244 L12.964,15.792 L12.964,15.792 Z"/>
      <path fill="#8BBC22" d="M13.874,3.738 L5.656,13.426 L9.212,21.938 L20.734,22.036 L25.158,14.672 L13.874,3.738 Z M9.674,21.28 L7.588,16.072 L15.47,7.532 L21.63,15.75 L17.206,20.678 L9.674,21.28 L9.674,21.28 Z"/>
      <path fill="#2E7ED8" d="M7.588,16.072 L9.674,21.28 L17.206,20.678 L21.63,15.75 L15.47,7.532 L7.588,16.072 Z M11.452,19.18 L11.438,15.456 L14.476,11.872 L17.094,15.736 L15.54,19.012 L11.452,19.18 L11.452,19.18 Z"/>
      <polygon fill="#224886" points="11.438 15.456 11.452 19.18 15.54 19.012 17.094 15.736 14.476 11.872 11.438 15.456"/>
    </g>
    <g fill-rule="nonzero" transform="translate(0 624)">
      <path fill="#CCC" d="M23.66,23.66 C26.33,20.998 27.6646667,17.778 27.6640002,14 C27.6646667,10.222 26.33,6.99733333 23.66,4.326 C20.998,1.66533333 17.778,0.335333333 14,0.3359375 C13.8693333,0.335333333 13.7386667,0.34 13.608,0.35 C10.004,0.438 6.91,1.76333333 4.326,4.326 L4.312,4.34 L4.284,4.382 C4.25866667,4.41666667 4.226,4.44933333 4.186,4.48 L4.172,4.508 C4.15266667,4.528 4.134,4.54666667 4.116,4.564 C2.94333333,5.79 2.04266667,7.134 1.414,8.596 C0.698666667,10.2446667 0.339333333,12.0366667 0.336,13.972 L0.336,14.028 C0.338666667,14.8613333 0.408666667,15.664 0.546,16.436 L0.532,16.436 C0.995333333,19.1113333 2.20866667,21.4586667 4.172,23.478 C4.192,23.5066667 4.21066667,23.53 4.228,23.548 C4.24066667,23.5593333 4.25,23.5686667 4.256,23.576 C4.26666667,23.5853333 4.276,23.5946667 4.284,23.604 L4.312,23.646 L4.326,23.66 C6.91333333,26.2353333 10.012,27.57 13.622,27.6640002 L13.622,27.6640002 C13.6346667,27.6640002 13.644,27.6640002 13.65,27.6640002 L13.678,27.6640002 C13.788,27.6640002 13.8953333,27.6640002 14,27.6640002 C17.778,27.6646667 20.998,26.33 23.66,23.66 L23.66,23.66 Z M23.058,5.726 C25.0373333,7.868 26.1013333,10.3926667 26.25,13.3 L23.66,13.3 C23.5246667,11.1013333 22.7173333,9.17866667 21.238,7.532 L23.058,5.726 Z M26.25,14.7 C26.1,17.63 25.0173333,20.1686667 23.002,22.316 L21.182,20.496 C22.6973333,18.858 23.5233333,16.926 23.66,14.7 L26.25,14.7 Z M22.05,4.746 L20.23,6.552 C18.5606667,5.13533333 16.6053333,4.38866667 14.364,4.312 L14.364,1.736 C17.312,1.81533333 19.874,2.81866667 22.05,4.746 Z M12.964,1.778 L12.964,4.368 C10.874,4.556 9.04,5.36333333 7.462,6.79 L5.67,4.998 C7.74466667,3.064 10.176,1.99066667 12.964,1.778 Z M20.244,8.526 C21.454,9.89666667 22.126,11.488 22.26,13.3 L15.456,13.3 L20.244,8.526 Z M19.222,7.546 L14.364,12.404 L14.364,5.712 C16.2166667,5.78666667 17.836,6.398 19.222,7.546 Z M12.964,5.768 L12.964,12.292 L8.456,7.784 C9.756,6.62533333 11.2586667,5.95333333 12.964,5.768 L12.964,5.768 Z M5.124,10.01 L5.124,10.024 C4.67466667,11.046 4.40866667,12.138 4.326,13.3 L1.75,13.3 C1.82666667,11.82 2.144,10.4386667 2.702,9.156 C3.188,8.03 3.85066667,6.98 4.69,6.006 L6.51,7.826 C5.936,8.514 5.474,9.242 5.124,10.01 L5.124,10.01 Z M6.398,10.584 C6.68266667,9.966 7.05133333,9.378 7.504,8.82 L11.984,13.3 L5.74,13.3 C5.80866667,12.3386667 6.028,11.4333333 6.398,10.584 L6.398,10.584 Z M5.894,15.918 C5.81533333,15.5286667 5.75933333,15.1226667 5.726,14.7 L12.068,14.7 L7.56,19.236 C6.738,18.238 6.178,17.1226667 5.88,15.89 L5.894,15.918 L5.894,15.918 Z M1.75,14.7 L4.326,14.7 C4.35933333,15.2206667 4.42466667,15.72 4.522,16.198 L4.522,16.212 C4.878,17.6973333 5.55933333,19.0366667 6.566,20.23 L4.746,22.05 C3.24066667,20.344 2.298,18.3933333 1.918,16.198 C1.836,15.7133333 1.78,15.214 1.75,14.7 L1.75,14.7 Z M5.726,23.058 L7.532,21.238 C9.09466667,22.6486667 10.9053333,23.4513333 12.964,23.646 L12.964,26.222 C10.202,26.0126667 7.78933333,24.958 5.726,23.058 Z M22.26,14.7 C22.1226667,16.5386667 21.432,18.1393333 20.188,19.502 L15.372,14.7 L22.26,14.7 L22.26,14.7 Z M14.364,26.25 L14.364,23.674 C16.5866667,23.606 18.5233333,22.8733333 20.174,21.476 L21.994,23.296 C19.8326667,25.196 17.2893333,26.1806667 14.364,26.25 Z M14.364,15.68 L19.194,20.496 C17.8093333,21.6193333 16.1993333,22.212 14.364,22.274 L14.364,15.68 L14.364,15.68 Z M12.964,15.792 L12.964,22.232 C11.29,22.048 9.81066667,21.3853333 8.526,20.244 L12.964,15.792 L12.964,15.792 Z"/>
      <path fill="#2F7ED8" d="M18.088,15.764 L18.242,15.554 L15.358,16.618 L13.818,18.662 L12.656,19.11 L12.418,17.682 L10.822,18.27 L11.354,21.42 L14.868,20.048 L15.694,18.956 L18.088,15.764 Z M15.414,10.318 L15.442,12.012 L19.012,11.452 L19.25,11.41 L18.928,11.844 L17.556,13.678 L19.32,14.126 L23.1,9.086 L19.39,9.674 L17.612,9.968 L15.414,10.318 L15.414,10.318 Z M13.776,9.982 L13.09,9.674 L6.048,6.482 L5.908,6.636 L9.464,12.418 L9.968,13.244 L10.094,14.028 L10.43,15.974 L11.732,13.636 L11.662,13.258 L11.564,12.642 L10.948,11.648 L10.01,10.108 L11.76,10.906 L12.95,11.452 L13.776,9.982 L13.776,9.982 Z M12.096,15.834 L11.774,16.436 L12.18,16.282 L12.096,15.834 L12.096,15.834 Z"/>
      <path fill="#8BBC21" d="M10.416,18.41 L8.82,18.998 L9.8,24.724 L16.912,21.266 L18.088,15.764 L15.694,18.956 L15.442,20.104 L11.074,22.232 L10.416,18.41 L10.416,18.41 Z M9.464,12.418 L2.632,13.468 L8.652,18.004 L8.792,18.9 L9.926,16.87 L6.832,14.532 L10.094,14.028 L9.968,13.244 L9.464,12.418 L9.464,12.418 Z M19.012,11.452 L17.234,11.732 L16.856,13.51 L17.556,13.678 L18.928,11.844 L19.012,11.452 Z M12.95,11.452 L11.76,10.906 L10.948,11.648 L11.564,12.642 L11.662,13.258 L12.236,12.74 L12.95,11.452 L12.95,11.452 Z M13.09,9.674 L13.776,9.982 L14.854,8.036 L13.09,9.674 Z M20.888,2.66 L20.748,2.576 L15.204,7.714 L15.358,7.756 L15.4,9.814 L18.2,7.224 L17.612,9.968 L19.39,9.674 L20.888,2.66 L20.888,2.66 Z"/>
      <path fill="#224886" d="M15.05,7.686 L14.854,8.036 L13.776,9.982 L12.95,11.452 L12.236,12.74 L11.732,13.636 L10.43,15.974 L9.926,16.87 L8.792,18.9 L8.722,19.04 L8.82,18.998 L10.416,18.41 L10.822,18.27 L12.418,17.682 L15.358,16.618 L18.242,15.554 L20.734,14.644 L20.72,14.476 L19.32,14.126 L17.556,13.678 L16.856,13.51 L15.47,13.16 L15.442,12.012 L15.414,10.318 L15.4,9.814 L15.358,7.756 L15.204,7.714 L15.05,7.686 L15.05,7.686 Z M11.774,16.436 L12.096,15.834 L14.056,12.348 L14.098,14.252 L16.254,14.798 L12.18,16.282 L11.774,16.436 L11.774,16.436 Z"/>
    </g>
    <g fill-rule="nonzero" transform="translate(0 576)">
      <polygon fill="#CCC" points="1.68 .84 .28 .84 .28 27.72 27.16 27.72 27.16 26.32 1.68 26.32"/>
      <path fill="#224886" d="M27.16,24.262 C26.5066667,23.4966667 25.7973333,22.736 25.032,21.98 C23.0533333,20.02 21.5973333,19.04 20.664,19.04 C20.1786667,19.04 19.5766667,19.306 18.858,19.838 C18.606,20.0246667 17.92,20.6126667 16.8,21.602 C14.8586667,23.3006667 13.2533333,24.1453333 11.984,24.136 C11.4706667,24.136 10.57,23.7813333 9.282,23.072 C7.994,22.3626667 6.95333333,22.008 6.16,22.008 C5.31066667,22.008 4.28866667,22.4 3.094,23.184 L3.08,23.198 L3.08,24.92 L27.16,24.92 L27.16,24.262 L27.16,24.262 Z"/>
      <path fill="#2F7ED8" d="M25.032,21.98 C25.7973333,22.736 26.5066667,23.4966667 27.16,24.262 L27.16,18.914 C25.9653333,16.7113333 25.0646667,15.1946667 24.458,14.364 C23.4313333,12.9733333 22.26,12.3293333 20.944,12.432 C20.5146667,12.4693333 19.9266667,12.95 19.18,13.874 C19.1706667,13.8926667 18.4473333,14.896 17.01,16.884 C14.9193333,19.768 13.1693333,21.21 11.76,21.21 C10.36,21.21 9.25866667,20.9906667 8.456,20.552 C7.57866667,20.0666667 6.85066667,19.8053333 6.272,19.768 C5.69333333,19.7306667 5.22666667,19.7726667 4.872,19.894 C4.27466667,20.0806667 3.67733333,20.51 3.08,21.182 L3.08,23.198 L3.094,23.184 C4.28866667,22.4 5.31066667,22.008 6.16,22.008 C6.95333333,22.008 7.994,22.3626667 9.282,23.072 C10.57,23.7813333 11.4706667,24.136 11.984,24.136 C13.2533333,24.1453333 14.8586667,23.3006667 16.8,21.602 C17.92,20.6126667 18.606,20.0246667 18.858,19.838 C19.5766667,19.306 20.1786667,19.04 20.664,19.04 C21.5973333,19.04 23.0533333,20.02 25.032,21.98 L25.032,21.98 Z"/>
      <path fill="#89BA20" d="M27.16,12.096 C26.46,10.5466667 25.6153333,9.39866667 24.626,8.652 C23.6086667,7.88666667 22.4,7.504 21,7.504 C19.992,7.504 18.8253333,8.036 17.5,9.1 C16.5946667,9.828 15.4093333,10.9993333 13.944,12.614 C12.2173333,14.5086667 11.116,15.68 10.64,16.128 C9.50133333,17.192 8.596,17.724 7.924,17.724 C6.85066667,17.724 5.72133333,17.122 4.536,15.918 L3.08,14.112 L3.08,21.182 C3.67733333,20.51 4.27466667,20.0806667 4.872,19.894 C5.22666667,19.7726667 5.69333333,19.7306667 6.272,19.768 C6.85066667,19.8053333 7.57866667,20.0666667 8.456,20.552 C9.25866667,20.9906667 10.36,21.21 11.76,21.21 C13.1693333,21.21 14.9193333,19.768 17.01,16.884 C18.4473333,14.896 19.1706667,13.8926667 19.18,13.874 C19.9266667,12.95 20.5146667,12.4693333 20.944,12.432 C22.26,12.3293333 23.4313333,12.9733333 24.458,14.364 C25.0646667,15.1946667 25.9653333,16.7113333 27.16,18.914 L27.16,12.096 L27.16,12.096 Z"/>
    </g>
    <g fill-rule="nonzero" transform="translate(0 528)">
      <polygon fill="#CCC" points="1.68 .84 .28 .84 .28 27.72 27.16 27.72 27.16 26.32 1.68 26.32"/>
      <polygon fill="#224886" points="27.16 24.92 27.16 14.518 23.016 19.166 18.662 15.722 10.612 20.664 5.25 18.116 3.08 19.628 3.08 24.92 27.16 24.92"/>
      <polygon fill="#2D7ED8" points="27.16 2.408 22.694 10.892 19.04 6.636 16.576 9.576 8.064 9.548 5.278 13.188 3.08 7.588 3.08 19.628 5.25 18.116 10.612 20.664 18.662 15.722 23.016 19.166 27.16 14.518"/>
      <polygon fill="#8BBC22" points="22.694 10.892 27.16 2.408 27.16 .84 3.08 .84 3.08 7.588 5.278 13.188 8.064 9.548 16.576 9.576 19.04 6.636"/>
    </g>
    <g fill-rule="nonzero" transform="translate(0 480)">
      <polygon fill="#CCC" points="1.68 .84 .28 .84 .28 27.72 27.16 27.72 27.16 26.32 1.68 26.32"/>
      <polygon fill="#2E7ED8" points="27.16 15.932 27.16 12.306 19.334 16.016 12.25 13.524 6.328 15.512 3.08 13.594 3.08 16.968 9.016 20.818 12.712 19.026 19.754 21.546 27.16 15.932"/>
      <polygon fill="#224886" points="27.16 24.934 27.16 15.932 19.754 21.546 12.712 19.026 9.016 20.818 3.08 16.968 3.08 24.934"/>
      <polygon fill="#8BBC22" points="27.16 12.306 27.16 8.792 20.16 11.928 11.998 8.904 6.104 11.438 3.08 9.73 3.08 13.594 6.328 15.512 12.25 13.524 19.334 16.016 27.16 12.306"/>
    </g>
    <g fill-rule="nonzero" transform="translate(0 432)">
      <polygon fill="#CCC" points="1.68 .84 .28 .84 .28 27.72 27.16 27.72 27.16 26.32 1.68 26.32"/>
      <polygon fill="#224886" points="26.852 24.906 26.852 15.302 20.748 20.72 8.456 21.168 3.052 23.786 3.052 24.906 26.852 24.906"/>
      <path fill="#98C63A" d="M24.318,11.018 C25.2606667,10.15 26.1006667,9.338 26.838,8.582 L26.852,1.876 L17.122,11.158 L9.926,12.978 L3.066,19.376 L6.384,19.488 L11.256,16.772 L18.354,15.764 C20.482,14.3173333 22.47,12.7353333 24.318,11.018 L24.318,11.018 Z"/>
      <path fill="#348FDC" d="M26.852,8.554 L26.838,8.582 C26.1006667,9.338 25.2606667,10.15 24.318,11.018 C22.47,12.7353333 20.482,14.3173333 18.354,15.764 L11.256,16.772 L6.384,19.488 L3.066,19.376 L3.052,23.786 L8.456,21.168 L20.748,20.72 L26.852,15.302 L26.852,8.554 L26.852,8.554 Z"/>
    </g>
    <g fill-rule="nonzero" transform="translate(0 384)">
      <polygon fill="#CCC" points="1.68 .84 .28 .84 .28 27.72 27.16 27.72 27.16 26.32 1.68 26.32"/>
      <path fill="#8BBC22" d="M26.866,13.104 C26.818,11.8026667 26.3046667,9.908 25.326,7.42 C24.0073333,4.062 22.64,2.56866667 21.224,2.94 C20.3093333,2.992 19.2873333,4.196 18.158,6.552 L18.144,6.566 L18.144,6.58 C17.1046667,9.002 16.2646667,10.948 15.624,12.418 C15.878,12.9666667 16.1673333,13.6993333 16.492,14.616 C16.6406667,14.29 16.79,13.954 16.94,13.608 C17.6,12.0913333 18.51,9.982 19.67,7.28 C20.444,5.66066667 21.0506667,4.76466667 21.49,4.592 L21.504,4.592 C22.116,4.61066667 22.8673333,5.75866667 23.758,8.036 C24.646,10.2893333 25.122,12.002 25.186,13.174 L26.866,13.104 L26.866,13.104 Z M15.456,16.786 C15.176,15.9193333 14.9146667,15.168 14.672,14.532 C13.7926667,16.4486667 12.9853333,17.9186667 12.25,18.942 L12.25,18.928 C12.0753333,19.1793333 11.898,19.408 11.718,19.614 C12.1893333,19.8493333 12.67,20.148 13.16,20.51 C13.3133333,20.3286667 13.4626667,20.1326667 13.608,19.922 L13.608,19.922 C14.1853333,19.13 14.8013333,18.0846667 15.456,16.786 Z M10.248,20.846 C9.84066667,21.0586667 9.43466667,21.1566667 9.03,21.14 L9.03,21.14 C8.91333333,21.3813333 8.792,21.6006667 8.666,21.798 L8.68,21.798 C8.49533333,22.1186667 8.29933333,22.4126667 8.092,22.68 C8.36066667,22.7606667 8.62666667,22.8073333 8.89,22.82 C9.92933333,22.9546667 10.9606667,22.5906667 11.984,21.728 C11.3766667,21.3113333 10.798,21.0173333 10.248,20.846 L10.248,20.846 Z M6.776,19.796 C6.46,19.4806667 6.138,19.1026667 5.81,18.662 L4.2,16.072 L2.772,16.954 L4.424,19.628 L4.452,19.656 C4.79,20.108 5.126,20.5093333 5.46,20.86 C5.91733333,20.4373333 6.356,20.0826667 6.776,19.796 L6.776,19.796 Z"/>
      <path fill="#224886" d="M2.828,23.912 C3.114,23.5006667 3.42666667,23.0853333 3.766,22.666 L3.486,22.512 L2.66,23.968 L3.318,24.332 L3.374,24.36 L3.416,24.374 C3.49733333,24.4126667 3.57666667,24.4453333 3.654,24.472 L2.828,23.912 L2.828,23.912 Z M9.24,20.678 C9.172,20.6746667 9.102,20.6746667 9.03,20.678 C8.17933333,20.7926667 7.14333333,21.488 5.922,22.764 C5.324,23.4013333 4.80133333,24.0313333 4.354,24.654 C4.68,24.7046667 4.974,24.6906667 5.236,24.612 L5.236,24.612 C6.34733333,24.3593333 7.29933333,23.7153333 8.092,22.68 C8.29933333,22.4126667 8.49533333,22.1186667 8.68,21.798 L8.666,21.798 C8.792,21.6006667 8.91333333,21.3813333 9.03,21.14 C9.10333333,20.9926667 9.17333333,20.8386667 9.24,20.678 L9.24,20.678 Z M15.624,12.418 C15.5226667,12.1966667 15.4246667,12.0053333 15.33,11.844 L15.33,11.83 C14.3406667,10.0573333 13.23,9.46 11.998,10.038 C11.1653333,10.298 10.456,11.2406667 9.87,12.866 C9.806,13.0566667 9.42333333,14.4426667 8.722,17.024 L8.722,17.024 C8.50333333,17.8253333 8.27933333,18.5346667 8.05,19.152 C8.34066667,19.0613333 8.62066667,19.01 8.89,18.998 L8.89,18.998 C9.21533333,18.9653333 9.54666667,18.97 9.884,19.012 C10.0406667,18.5386667 10.1946667,18.0253333 10.346,17.472 L10.346,17.458 C11.026,14.9526667 11.3946667,13.6086667 11.452,13.426 C11.8093333,12.436 12.192,11.8293333 12.6,11.606 C13.0133333,11.5386667 13.4333333,11.8886667 13.86,12.656 L13.86,12.656 C14.0933333,13.074 14.364,13.6993333 14.672,14.532 C14.9146667,15.168 15.176,15.9193333 15.456,16.786 C15.4953333,16.888 15.5326667,16.9906667 15.568,17.094 C16.352,19.5306667 16.9773333,21.206 17.444,22.12 L17.444,22.12 C17.5813333,22.3833333 17.7166667,22.626 17.85,22.848 C17.9926667,22.756 18.1373333,22.644 18.284,22.512 L18.284,22.498 C18.498,22.32 18.7733333,22.0493333 19.11,21.686 C19.0593333,21.584 19.0033333,21.4766667 18.942,21.364 L18.942,21.35 C18.5033333,20.4813333 17.9106667,18.89 17.164,16.576 C16.9266667,15.85 16.7026667,15.1966667 16.492,14.616 C16.1673333,13.6993333 15.878,12.9666667 15.624,12.418 L15.624,12.418 Z M26.908,21.084 L25.564,20.076 C23.914,22.2666667 22.318,23.34 20.776,23.296 L20.762,23.296 C20.5673333,23.26 20.3713333,23.1666667 20.174,23.016 C19.8586667,23.3506667 19.5973333,23.6026667 19.39,23.772 L19.39,23.772 C19.2213333,23.9233333 19.0533333,24.0586667 18.886,24.178 C19.4473333,24.7093333 20.04,24.9753333 20.664,24.976 L20.664,24.976 C22.726,25.172 24.8073333,23.8746667 26.908,21.084 L26.908,21.084 Z"/>
      <path fill="#328AD5" d="M24.5,18.396 C25.3166667,17.7193333 26.054,17.374 26.712,17.36 L26.754,15.68 C25.742,15.6286667 24.6313333,16.1046667 23.422,17.108 C22.7666667,17.656 21.852,18.5986667 20.678,19.936 C20.06,20.658 19.5373333,21.2413333 19.11,21.686 C18.7733333,22.0493333 18.498,22.32 18.284,22.498 L18.284,22.512 C18.1373333,22.644 17.9926667,22.756 17.85,22.848 C17.432,23.148 17.068,23.2833333 16.758,23.254 L16.744,23.254 C16.4526667,23.176 16.0746667,22.952 15.61,22.582 C14.864,21.9226667 14.2806667,21.4186667 13.86,21.07 C13.628,20.87 13.3946667,20.6833333 13.16,20.51 C12.67,20.148 12.1893333,19.8493333 11.718,19.614 C11.084,19.2953333 10.4726667,19.0946667 9.884,19.012 C9.54666667,18.97 9.21533333,18.9653333 8.89,18.998 L8.89,18.998 C8.62066667,19.01 8.34066667,19.0613333 8.05,19.152 C7.64666667,19.2913333 7.222,19.506 6.776,19.796 C6.356,20.0826667 5.91733333,20.4373333 5.46,20.86 C5.21533333,21.0913333 4.96333333,21.3386667 4.704,21.602 C4.374,21.9606667 4.06133333,22.3153333 3.766,22.666 C3.42666667,23.0853333 3.114,23.5006667 2.828,23.912 L3.654,24.472 L4.214,24.85 C4.264,24.7886667 4.31066667,24.7233333 4.354,24.654 C4.80133333,24.0313333 5.324,23.4013333 5.922,22.764 C7.14333333,21.488 8.17933333,20.7926667 9.03,20.678 C9.102,20.6746667 9.172,20.6746667 9.24,20.678 C9.56666667,20.686 9.90266667,20.742 10.248,20.846 C10.798,21.0173333 11.3766667,21.3113333 11.984,21.728 C12.2466667,21.9173333 12.5126667,22.1273333 12.782,22.358 C13.192,22.7 13.7613333,23.1946667 14.49,23.842 L14.518,23.87 C15.2706667,24.47 15.896,24.8106667 16.394,24.892 C17.1206667,25.108 17.9513333,24.87 18.886,24.178 C19.0533333,24.0586667 19.2213333,23.9233333 19.39,23.772 L19.39,23.772 C19.5973333,23.6026667 19.8586667,23.3506667 20.174,23.016 C20.6446667,22.534 21.2373333,21.876 21.952,21.042 C23.046,19.794 23.8953333,18.912 24.5,18.396 L24.5,18.396 Z"/>
    </g>
    <g fill-rule="nonzero" transform="translate(0 336)">
      <polygon fill="#CCC" points="1.68 .84 .28 .84 .28 27.72 27.16 27.72 27.16 26.32 1.68 26.32"/>
      <path fill="#8BBC21" d="M13.342,10.766 L16.352,10.626 L11.55,6.902 L5.124,16.142 L3.08,16.128 L3.08,18.088 L6.146,18.102 L11.984,9.716 L13.342,10.766 Z M26.152,8.372 L24.514,7.308 L20.342,13.72 L18.76,12.488 L15.736,12.628 L20.818,16.576 L26.152,8.372 Z"/>
      <polygon fill="#2C7ED8" points="25.536 2.576 23.898 1.498 17.934 10.556 16.352 10.626 12.712 10.794 6.762 19.53 3.08 19.53 3.08 21.49 7.798 21.49 13.776 12.712 15.736 12.628 19.026 12.474"/>
      <polygon fill="#224886" points="25.732 15.526 24.094 14.448 21.098 19.026 14.784 13.986 8.484 22.848 3.08 22.806 3.066 24.766 9.492 24.822 15.176 16.8 21.56 21.896 25.732 15.526"/>
    </g>
    <g fill-rule="nonzero" transform="translate(0 288)">
      <path fill="#CCC" d="M23.478,23.478 C26.1006667,20.8633333 27.412,17.704 27.412,14 C27.412,10.296 26.1006667,7.132 23.478,4.508 C20.8633333,1.89466667 17.704,0.587777778 14,0.587777778 C13.8613333,0.586666667 13.726,0.591333333 13.594,0.602 C13.5866667,0.602 13.5773333,0.602 13.566,0.602 C13.5073333,0.602666667 13.4466667,0.607333333 13.384,0.616 C9.944,0.743333333 6.98533333,2.04066667 4.508,4.508 C4.472,4.55333333 4.43,4.6 4.382,4.648 L4.354,4.662 C4.354,4.67133333 4.34933333,4.676 4.34,4.676 L4.326,4.69 C3.16533333,5.91333333 2.274,7.248 1.652,8.694 C0.947333333,10.312 0.592666667,12.0713333 0.588,13.972 C0.588,13.984 0.588,13.9933333 0.588,14 L0.588,14.014 C0.59,14.834 0.655333333,15.6273333 0.784,16.394 C1.23466667,19.0193333 2.42,21.3246667 4.34,23.31 C4.382,23.36 4.424,23.402 4.466,23.436 L4.508,23.478 C7.04733333,26.0066667 10.09,27.318 13.636,27.412 L13.65,27.412 C13.6613333,27.412 13.6706667,27.412 13.678,27.412 L13.692,27.412 C13.7926667,27.412 13.8953333,27.412 14,27.412 C17.704,27.412 20.8633333,26.1006667 23.478,23.478 Z M24.136,14.84 L25.704,14.84 C25.5346667,17.5126667 24.5406667,19.8413333 22.722,21.826 L21.616,20.72 C23.13,19.0493333 23.97,17.0893333 24.136,14.84 Z M21.56,5.026 L20.454,6.132 C18.698,4.66333333 16.6446667,3.898 14.294,3.836 L14.294,2.268 C17.0753333,2.33066667 19.4973333,3.25 21.56,5.026 L21.56,5.026 Z M12.614,2.352 L12.614,3.92 C10.5866667,4.16533333 8.79466667,4.97733333 7.238,6.356 L6.146,5.264 C8.00866667,3.58066667 10.1646667,2.61 12.614,2.352 Z M14.518,12.054 L14.518,5.53 C16.3126667,5.62466667 17.8946667,6.222 19.264,7.322 L14.518,12.054 L14.518,12.054 Z M4.69,9.814 L4.69,9.828 C4.23,10.872 3.95466667,11.9826667 3.864,13.16 L2.296,13.16 C2.38066667,11.808 2.67933333,10.5433333 3.192,9.366 C3.63533333,8.34333333 4.23266667,7.382 4.984,6.482 L6.076,7.574 C5.5,8.28933333 5.038,9.036 4.69,9.814 Z M6.216,22.764 L7.308,21.672 C8.90333333,23.0866667 10.7466667,23.8986667 12.838,24.108 L12.838,25.676 C10.3226667,25.448 8.11533333,24.4773333 6.216,22.764 L6.216,22.764 Z M25.326,10.864 L25.508,10.836 L25.942,14.294 L18.032,14.84 L22.442,14.84 C22.2873333,16.6246667 21.6153333,18.188 20.426,19.53 L15.862,14.98 L15.19,15.036 L14.896,12.81 L16.436,12.516 L20.482,8.498 C21.252,9.39533333 21.798,10.3846667 22.12,11.466 L23.786,11.158 C23.3953333,9.74333333 22.6906667,8.45533333 21.672,7.294 L22.764,6.202 C24.0213333,7.59466667 24.8753333,9.14866667 25.326,10.864 L25.326,10.864 Z M14.042,12.74 L12.67,13.594 L12.754,14.854 L13.916,15.498 L13.86,15.358 L14.882,14.7 L21.882,22.96 L18.424,25.186 L18.312,24.948 C17.1333333,25.4126667 15.8686667,25.6693333 14.518,25.718 L14.518,24.15 C15.6313333,24.1013333 16.6766667,23.8913333 17.654,23.52 L16.94,21.994 C16.1826667,22.2673333 15.3753333,22.426 14.518,22.47 L14.518,16.772 L14,15.666 L12.838,18.592 L12.838,22.414 C12.3573333,22.3586667 11.8906667,22.2606667 11.438,22.12 L11.368,22.316 L8.162,20.51 L11.942,15.47 L11.004,15.596 L7.336,19.264 C6.60933333,18.3586667 6.09133333,17.36 5.782,16.268 L4.088,16.492 C4.46733333,17.952 5.15333333,19.2773333 6.146,20.468 L5.04,21.574 C3.792,20.13 2.96133333,18.5013333 2.548,16.688 L2.492,16.702 L2.45,16.24 C2.448,16.2 2.44333333,16.158 2.436,16.114 C2.36733333,15.6973333 2.32066667,15.2726667 2.296,14.84 L2.352,14.84 L2.254,13.328 L11.242,13.16 L5.544,13.16 C5.63266667,12.2226667 5.86133333,11.336 6.23,10.5 L6.23,10.5 C6.49733333,9.902 6.84733333,9.328 7.28,8.778 L11.648,13.146 L11.984,13.146 L7.756,7.812 L10.738,5.922 L10.822,6.09 C11.4586667,5.84133333 12.1306667,5.67333333 12.838,5.586 L12.838,10.248 L14.042,12.74 Z"/>
      <polygon fill="#2C7ED8" points="13.86 15.358 13.916 15.498 12.754 14.854 12.516 14.714 11.942 15.47 8.162 20.51 11.368 22.316 11.438 22.12 14 15.666 14.518 16.772 16.94 21.994 17.654 23.52 18.312 24.948 18.424 25.186 21.882 22.96 14.882 14.7 13.86 15.358"/>
      <polygon fill="#224886" points="12.67 13.594 14.042 12.74 12.838 10.248 10.822 6.09 10.738 5.922 7.756 7.812 11.984 13.146 11.648 13.146 11.242 13.16 2.254 13.328 2.352 14.84 2.45 16.24 2.492 16.702 2.548 16.688 4.088 16.492 5.782 16.268 11.942 15.47 12.516 14.714 12.754 14.854 12.67 13.594"/>
      <polygon fill="#8BBC22" points="25.326 10.864 23.786 11.158 14.896 12.81 15.19 15.036 15.862 14.98 18.032 14.84 25.942 14.294 25.508 10.836 25.326 10.864"/>
    </g>
    <g fill-rule="nonzero" transform="translate(0 240)">
      <polygon fill="#CCC" points="1.68 .84 .28 .84 .28 27.72 27.16 27.72 27.16 26.32 1.68 26.32"/>
      <path fill="#2C7ED8" d="M9.59,10.654 L9.59,16.814 L16.688,16.814 L16.688,10.654 L9.59,10.654 Z M14.462,18.774 L14.462,24.934 L21.588,24.934 L21.588,18.774 L14.462,18.774 Z M20.608,8.694 L20.608,2.534 L10.57,2.534 L10.57,8.694 L20.608,8.694 Z"/>
      <path fill="#224886" d="M9.59,10.654 L4.256,10.654 L4.256,16.814 L9.59,16.814 L9.59,10.654 Z M4.256,18.774 L4.256,24.934 L14.462,24.934 L14.462,18.774 L4.256,18.774 Z M4.256,8.694 L10.57,8.694 L10.57,2.534 L4.256,2.534 L4.256,8.694 Z"/>
      <path fill="#8BBC22" d="M25.536,16.814 L25.536,10.654 L16.688,10.654 L16.688,16.814 L25.536,16.814 Z M25.536,24.934 L25.536,18.774 L21.588,18.774 L21.588,24.934 L25.536,24.934 Z M25.536,8.694 L25.536,2.534 L20.608,2.534 L20.608,8.694 L25.536,8.694 Z"/>
    </g>
    <g fill-rule="nonzero" transform="translate(0 192)">
      <polygon fill="#CCC" points="1.68 .84 .28 .84 .28 27.72 27.16 27.72 27.16 26.32 1.68 26.32"/>
      <path fill="#224886" d="M7,8.666 L7,2.506 L3.29,2.506 L3.29,8.666 L7,8.666 Z M8.526,10.528 L3.29,10.528 L3.29,16.688 L8.526,16.688 L8.526,10.528 L8.526,10.528 Z M9.996,24.906 L9.996,18.746 L3.29,18.746 L3.29,24.906 L9.996,24.906 Z"/>
      <path fill="#2C7ED8" d="M7,8.666 L11.116,8.666 L11.116,2.506 L7,2.506 L7,8.666 Z M8.526,16.688 L13.986,16.688 L13.986,10.528 L8.526,10.528 L8.526,16.688 Z M9.996,18.746 L9.996,24.906 L17.318,24.906 L17.318,18.746 L9.996,18.746 L9.996,18.746 Z"/>
      <polygon fill="#8BBC21" points="14.574 8.666 14.574 2.506 11.116 2.506 11.116 8.666"/>
      <path fill="#8BBC22" d="M19.012,10.528 L13.986,10.528 L13.986,16.688 L19.012,16.688 L19.012,10.528 L19.012,10.528 Z M22.82,24.906 L22.82,18.746 L17.318,18.746 L17.318,24.906 L22.82,24.906 Z"/>
    </g>
    <g fill-rule="nonzero" transform="translate(0 144)">
      <polygon fill="#2E7ED8" points="3.36 11.186 3.36 16.786 18.83 16.786 18.83 11.186 3.36 11.186"/>
      <polygon fill="#8BBC21" points="12.6 9.8 12.6 4.2 3.36 4.2 3.36 9.8"/>
      <polygon fill="#224886" points="23.94 23.8 23.94 18.2 3.36 18.2 3.36 23.8 23.94 23.8"/>
      <polygon fill="#CCC" points="1.68 .84 .28 .84 .28 27.72 27.16 27.72 27.16 26.32 1.68 26.32"/>
    </g>
    <g fill-rule="nonzero" transform="translate(0 96)">
      <path fill="#2C7ED8" d="M26.586,15.246 L26.586,8.148 L20.426,8.148 L20.426,15.246 L26.586,15.246 L26.586,15.246 Z M10.094,8.848 L3.934,8.848 L3.934,15.946 L10.094,15.946 L10.094,8.848 L10.094,8.848 Z M18.34,12.068 L12.18,12.068 L12.18,19.166 L18.34,19.166 L18.34,12.068 L18.34,12.068 Z"/>
      <path fill="#224886" d="M26.586,24.92 L26.586,15.246 L20.426,15.246 L20.426,24.92 L26.586,24.92 Z M10.094,15.946 L3.934,15.946 L3.934,24.92 L10.094,24.92 L10.094,15.946 Z M18.34,19.166 L12.18,19.166 L12.18,24.92 L18.34,24.92 L18.34,19.166 L18.34,19.166 Z"/>
      <path fill="#8BBC22" d="M26.586,8.148 L26.586,3.78 L20.426,3.78 L20.426,8.148 L26.586,8.148 Z M3.934,3.78 L3.934,8.848 L10.094,8.848 L10.094,3.78 L3.934,3.78 Z M12.18,3.78 L12.18,12.068 L18.34,12.068 L18.34,3.78 L12.18,3.78 Z"/>
      <polygon fill="#CCC" points="1.68 .84 .28 .84 .28 27.72 27.16 27.72 27.16 26.32 1.68 26.32"/>
    </g>
    <g fill-rule="nonzero" transform="translate(0 48)">
      <polygon fill="#CCC" points="1.68 .84 .28 .84 .28 27.72 27.16 27.72 27.16 26.32 1.68 26.32"/>
      <path fill="#224886" d="M10.318,17.542 L4.158,17.542 L4.158,24.92 L10.318,24.92 L10.318,17.542 Z M18.438,19.558 L12.278,19.558 L12.278,24.92 L18.438,24.92 L18.438,19.558 Z M26.558,24.92 L26.558,21.238 L20.398,21.238 L20.398,24.92 L26.558,24.92 Z"/>
      <path fill="#2D7ED8" d="M10.318,11.564 L4.158,11.564 L4.158,17.542 L10.318,17.542 L10.318,11.564 L10.318,11.564 Z M18.438,19.558 L18.438,14.49 L12.278,14.49 L12.278,19.558 L18.438,19.558 Z M26.558,21.238 L26.558,17.388 L20.398,17.388 L20.398,21.238 L26.558,21.238 Z"/>
      <path fill="#8BBC22" d="M4.158,11.564 L10.318,11.564 L10.318,5.628 L4.158,5.628 L4.158,11.564 Z M18.438,9.996 L12.278,9.996 L12.278,14.49 L18.438,14.49 L18.438,9.996 Z"/>
      <polygon fill="#8BBC21" points="26.558 17.388 26.558 13.944 20.398 13.944 20.398 17.388"/>
    </g>
    <g fill-rule="nonzero">
      <polygon fill="#CCC" points="1.68 .84 .28 .84 .28 27.72 27.16 27.72 27.16 26.32 1.68 26.32"/>
      <polygon fill="#2F7ED8" points="11.186 24.906 16.786 24.906 16.786 10.066 11.186 10.066 11.186 24.906"/>
      <polygon fill="#224886" points="9.52 3.808 3.92 3.808 3.92 24.948 9.52 24.948"/>
      <polygon fill="#8BBC21" points="24.052 24.906 24.052 15.666 18.452 15.666 18.452 24.906"/>
    </g>
  </g>
</svg>
