<svg xmlns="http://www.w3.org/2000/svg" width="28" height="850" viewBox="0 0 28 850">
  <g fill="none" fill-rule="evenodd">
    <g transform="translate(1 827)">
      <path fill="#74BDFE" d="M0.152896362,15 C0.0522294813,14.3480602 0,13.6801295 0,13 C0,5.82029825 5.82029825,0 13,0 C20.1797017,0 26,5.82029825 26,13 C26,13.6801295 25.9477705,14.3480602 25.8471036,15 L20.747965,15 C20.912494,14.3607602 21,13.6905991 21,13 C21,8.581722 17.418278,5 13,5 C8.581722,5 5,8.581722 5,13 C5,13.6905991 5.08750601,14.3607602 5.25203497,15 L0.152896362,15 Z"/>
      <path fill="#055DAB" d="M0.154697894,15.0032265 C-0.116633552,13.2663471 -0.0380789784,11.4458983 0.446190776,9.63857893 C2.30443433,2.70351959 9.43281476,-1.41205277 16.3678741,0.446190776 C19.5631049,1.30235028 22.1598218,3.2772416 23.8495193,5.83651727 L19.7512559,8.70615216 C18.71401,7.07632198 17.0869347,5.81524339 15.0737789,5.27581991 C10.8060501,4.13228542 6.4193544,6.66494533 5.27581991,10.9326742 C4.90539041,12.3151358 4.92071546,13.7100811 5.25581351,15.0032265 L0.154697894,15.0032265 Z"/>
    </g>
    <g transform="translate(1 791)">
      <path fill="#EEF4F9" d="M0.152896362,15 C0.0522294813,14.3480602 0,13.6801295 0,13 C0,5.82029825 5.82029825,0 13,0 C20.1797017,0 26,5.82029825 26,13 C26,13.6801295 25.9477705,14.3480602 25.8471036,15 L20.747965,15 C20.912494,14.3607602 21,13.6905991 21,13 C21,8.581722 17.418278,5 13,5 C8.581722,5 5,8.581722 5,13 C5,13.6905991 5.08750601,14.3607602 5.25203497,15 L0.152896362,15 Z"/>
      <path fill="#74BDFE" d="M0.154697894,15.0032265 C-0.116633552,13.2663471 -0.0380789784,11.4458983 0.446190776,9.63857893 C2.30443433,2.70351959 9.43281476,-1.41205277 16.3678741,0.446190776 C19.5631049,1.30235028 22.1598218,3.2772416 23.8495193,5.83651727 L19.7512559,8.70615216 C18.71401,7.07632198 17.0869347,5.81524339 15.0737789,5.27581991 C10.8060501,4.13228542 6.4193544,6.66494533 5.27581991,10.9326742 C4.90539041,12.3151358 4.92071546,13.7100811 5.25581351,15.0032265 L0.154697894,15.0032265 Z"/>
    </g>
    <g fill-rule="nonzero" transform="translate(2 746)">
      <polygon fill="#055DAB" points=".08 24.92 15.2 24.92 15.2 10.346 .08 10.346"/>
      <polygon fill="#74BDFE" points="15.2 9.212 15.2 .84 .08 .84 .08 9.212"/>
      <polygon fill="#318DDE" points="24.16 19.054 24.16 .84 16.334 .84 16.334 19.054"/>
      <polygon fill="#74BDFE" points="24.16 24.92 24.16 20.146 16.334 20.146 16.334 24.92"/>
    </g>
    <g fill-rule="nonzero" transform="translate(2 701)">
      <polygon fill="#74BDFE" points=".08 24.92 15.2 24.92 15.2 10.346 .08 10.346"/>
      <polygon fill="#EEF4F9" points="15.2 9.212 15.2 .84 .08 .84 .08 9.212"/>
      <polygon fill="#C1DCF5" points="24.16 19.054 24.16 .84 16.334 .84 16.334 19.054"/>
      <polygon fill="#EEF4F9" points="24.16 24.92 24.16 20.146 16.334 20.146 16.334 24.92"/>
    </g>
    <g fill-rule="nonzero" transform="translate(1 655)">
      <path fill="#74BDFE" d="M13,0.344 C9.50933333,0.344 6.52266667,1.576 4.04,4.04 L13,13 L13,0.344 Z"/>
      <path fill="#0081CB" d="M0.344,13 C0.344,16.4906667 1.576,19.468 4.04,21.932 C4.04466667,21.9366667 4.04933333,21.9413333 4.054,21.946 L13,13 L4.04,4.04 C1.576,6.52266667 0.344,9.50933333 0.344,13 Z"/>
      <path fill="#055DAB" d="M21.946,21.932 C24.4193333,19.468 25.656,16.4906667 25.656,13 C25.656,9.50933333 24.4193333,6.52266667 21.946,4.04 C19.4726667,1.576 16.4906667,0.344 13,0.344 L13,13 L4.054,21.946 C4.1,21.9913333 4.14666667,22.0333333 4.194,22.072 C6.64466667,24.4613333 9.58,25.656 13,25.656 C16.4906667,25.656 19.4726667,24.4146667 21.946,21.932 Z"/>
    </g>
    <g fill-rule="nonzero" transform="translate(1 609)">
      <path fill="#EEF4F9" d="M13,0.344 C9.50933333,0.344 6.52266667,1.576 4.04,4.04 L13,13 L13,0.344 Z"/>
      <path fill="#C1DCF5" d="M0.344,13 C0.344,16.4906667 1.576,19.468 4.04,21.932 C4.04466667,21.9366667 4.04933333,21.9413333 4.054,21.946 L13,13 L4.04,4.04 C1.576,6.52266667 0.344,9.50933333 0.344,13 Z"/>
      <path fill="#74BDFE" d="M21.946,21.932 C24.4193333,19.468 25.656,16.4906667 25.656,13 C25.656,9.50933333 24.4193333,6.52266667 21.946,4.04 C19.4726667,1.576 16.4906667,0.344 13,0.344 L13,13 L4.054,21.946 C4.1,21.9913333 4.14666667,22.0333333 4.194,22.072 C6.64466667,24.4613333 9.58,25.656 13,25.656 C16.4906667,25.656 19.4726667,24.4146667 21.946,21.932 Z"/>
    </g>
    <g fill-rule="nonzero" transform="translate(2 570)">
      <path fill="#74BDFE" d="M12.5,14 C12.9226804,14 13.2731959,14.1450777 13.5515464,14.4352332 C13.8505155,14.7357513 14,15.0829016 14,15.4766839 C14,15.9119171 13.8505155,16.2642487 13.5515464,16.5336788 C13.2731959,16.8445596 12.9226804,17 12.5,17 C12.0979381,17 11.7371134,16.8445596 11.4175258,16.5336788 C11.1391753,16.2642487 11,15.9119171 11,15.4766839 C11,15.0829016 11.1391753,14.7357513 11.4175258,14.4352332 C11.7371134,14.1450777 12.0979381,14 12.5,14 Z M17,11.4693878 C17,11.8877551 16.859375,12.244898 16.578125,12.5408163 C16.265625,12.8469388 15.9114583,13 15.515625,13 C15.078125,13 14.7239583,12.8469388 14.453125,12.5408163 C14.1510417,12.244898 14,11.8877551 14,11.4693878 C14,11.0612245 14.1510417,10.7193878 14.453125,10.4438776 C14.7239583,10.1479592 15.078125,10 15.515625,10 C15.9114583,10 16.265625,10.1479592 16.578125,10.4438776 C16.859375,10.7193878 17,11.0612245 17,11.4693878 Z M9.1915102,12.1448528 C9.50783673,12.4189645 9.666,12.7539898 9.666,13.1499289 C9.666,13.5966294 9.50783673,13.9570355 9.1915102,14.2311472 C8.90579592,14.5357157 8.56906122,14.688 8.18130612,14.688 C7.76293878,14.688 7.3904898,14.5357157 7.06395918,14.2311472 C6.79865306,13.9570355 6.666,13.5966294 6.666,13.1499289 C6.666,12.7539898 6.79865306,12.4189645 7.06395918,12.1448528 C7.3904898,11.8402843 7.76293878,11.688 8.18130612,11.688 C8.56906122,11.688 8.90579592,11.8402843 9.1915102,12.1448528 Z"/>
      <path fill="#318DDE" d="M11.3828601,11.888 C10.9476269,11.888 10.590114,11.7466387 10.3103212,11.4639162 C9.99944041,11.1707225 9.844,10.809466 9.844,10.3801466 C9.844,10.0031832 9.99944041,9.65239791 10.3103212,9.32779058 C10.590114,9.03459686 10.9476269,8.888 11.3828601,8.888 C11.7870052,8.888 12.1237927,9.03459686 12.3932228,9.32779058 C12.6937409,9.65239791 12.844,10.0031832 12.844,10.3801466 C12.844,10.809466 12.6937409,11.1707225 12.3932228,11.4639162 C12.1237927,11.7466387 11.7870052,11.888 11.3828601,11.888 Z M19.2632509,4.79526156 C18.8623514,5.00974945 18.4820109,5.05571114 18.1222294,4.93314663 C17.7213299,4.82079583 17.4180854,4.60630794 17.212496,4.28968296 C16.996627,3.91177572 16.9452297,3.52876163 17.0583039,3.14064068 C17.1508191,2.73209231 17.387247,2.40525362 17.7675875,2.1601246 C18.1068102,1.97627784 18.4768712,1.95074356 18.8777706,2.08352178 C19.2786701,2.17544516 19.5819146,2.40014677 19.787504,2.75762659 C20.003373,3.1048927 20.0547703,3.47769308 19.9416961,3.87602774 C19.8286219,4.29478981 19.6024735,4.60120108 19.2632509,4.79526156 Z M22.0009278,4.702 C22.4029897,4.702 22.7483505,4.8463299 23.0370103,5.13498969 C23.3256701,5.43395876 23.47,5.78447423 23.47,6.18653608 C23.47,6.59890722 23.3256701,6.9648866 23.0370103,7.28447423 C22.7483505,7.56282474 22.4029897,7.702 22.0009278,7.702 C21.5679381,7.702 21.212268,7.56282474 20.9339175,7.28447423 C20.6246392,6.9648866 20.47,6.59890722 20.47,6.18653608 C20.47,5.78447423 20.6246392,5.43395876 20.9339175,5.13498969 C21.212268,4.8463299 21.5679381,4.702 22.0009278,4.702 Z M22.5,0 C22.9270833,0 23.28125,0.150259067 23.5625,0.450777202 C23.8541667,0.761658031 24,1.11398964 24,1.50777202 C24,1.9119171 23.8541667,2.26943005 23.5625,2.58031088 C23.28125,2.86010363 22.9270833,3 22.5,3 C22.0729167,3 21.703125,2.86010363 21.390625,2.58031088 C21.1302083,2.26943005 21,1.9119171 21,1.50777202 C21,1.11398964 21.1302083,0.761658031 21.390625,0.450777202 C21.703125,0.150259067 22.0729167,0 22.5,0 Z"/>
      <path fill="#055DAB" d="M6,9.51546392 C6,9.09278351 5.85204082,8.7371134 5.55612245,8.44845361 C5.28061224,8.14948454 4.93877551,8 4.53061224,8 C4.10204082,8 3.73979592,8.14948454 3.44387755,8.44845361 C3.14795918,8.7371134 3,9.09278351 3,9.51546392 C3,9.92783505 3.14795918,10.2783505 3.44387755,10.5670103 C3.73979592,10.8556701 4.10204082,11 4.53061224,11 C4.93877551,11 5.28061224,10.8556701 5.55612245,10.5670103 C5.85204082,10.2783505 6,9.92783505 6,9.51546392 Z M5,13.5154639 C5,13.0927835 4.85204082,12.7371134 4.55612245,12.4484536 C4.28061224,12.1494845 3.93877551,12 3.53061224,12 C3.10204082,12 2.73979592,12.1494845 2.44387755,12.4484536 C2.14795918,12.7371134 2,13.0927835 2,13.5154639 C2,13.9278351 2.14795918,14.2783505 2.44387755,14.5670103 C2.73979592,14.8556701 3.10204082,15 3.53061224,15 C3.93877551,15 4.28061224,14.8556701 4.55612245,14.5670103 C4.85204082,14.2783505 5,13.9278351 5,13.5154639 Z M3,17.5154639 C3,17.0927835 2.85204082,16.7371134 2.55612245,16.4484536 C2.28061224,16.1494845 1.93877551,16 1.53061224,16 C1.10204082,16 0.739795918,16.1494845 0.443877551,16.4484536 C0.147959184,16.7371134 0,17.0927835 0,17.5154639 C0,17.9278351 0.147959184,18.2783505 0.443877551,18.5670103 C0.739795918,18.8556701 1.10204082,19 1.53061224,19 C1.93877551,19 2.28061224,18.8556701 2.55612245,18.5670103 C2.85204082,18.2783505 3,17.9278351 3,17.5154639 Z M17.133772,5.906 C16.6985389,5.906 16.3306632,6.04589637 16.0301451,6.32568912 C15.760715,6.60548187 15.626,6.96817617 15.626,7.41377202 C15.626,7.83864249 15.760715,8.19097409 16.0301451,8.47076684 C16.3306632,8.76092228 16.6985389,8.906 17.133772,8.906 C17.5275544,8.906 17.879886,8.76092228 18.1907668,8.47076684 C18.4809223,8.19097409 18.626,7.83864249 18.626,7.41377202 C18.626,6.96817617 18.4809223,6.60548187 18.1907668,6.32568912 C17.879886,6.04589637 17.5275544,5.906 17.133772,5.906 Z M21.2468952,11.8005433 C21.6267594,11.5738276 21.8577579,11.2698224 21.9398907,10.8885278 C22.0528233,10.4763174 22.0066236,10.0847175 21.8012916,9.71372812 C21.585693,9.36334927 21.2828283,9.1469388 20.8926975,9.06449672 C20.5025667,8.95113885 20.1227024,8.98720726 19.7531048,9.17270195 C19.3835072,9.38911242 19.1525087,9.69827023 19.0601093,10.1001754 C18.9471767,10.48147 18.9933764,10.8524594 19.1987084,11.2131435 C19.4040404,11.6047434 19.7171717,11.846917 20.1381023,11.9396644 C20.5179666,12.0530222 20.8875642,12.0066486 21.2468952,11.8005433 L21.2468952,11.8005433 Z"/>
    </g>
    <g fill-rule="nonzero" transform="translate(2 531)">
      <path fill="#EEF4F9" d="M5.834 4C5.43193814 4 5.0711134 4.14507772 4.75152577 4.43523316 4.47317526 4.7357513 4.334 5.08290155 4.334 5.47668394 4.334 5.9119171 4.47317526 6.2642487 4.75152577 6.53367876 5.0711134 6.84455959 5.43193814 7 5.834 7 6.25668041 7 6.60719588 6.84455959 6.88554639 6.53367876 7.18451546 6.2642487 7.334 5.9119171 7.334 5.47668394 7.334 5.08290155 7.18451546 4.7357513 6.88554639 4.43523316 6.60719588 4.14507772 6.25668041 4 5.834 4zM10.334 1.46938776C10.334 1.06122449 10.193375.719387755 9.912125.443877551 9.599625.147959184 9.24545833 0 8.849625 0 8.412125 0 8.05795833.147959184 7.787125.443877551 7.48504167.719387755 7.334 1.06122449 7.334 1.46938776 7.334 1.8877551 7.48504167 2.24489796 7.787125 2.54081633 8.05795833 2.84693878 8.412125 3 8.849625 3 9.24545833 3 9.599625 2.84693878 9.912125 2.54081633 10.193375 2.24489796 10.334 1.8877551 10.334 1.46938776L10.334 1.46938776zM2.5255102 2.14485279C2.23979592 1.84028426 1.90306122 1.688 1.51530612 1.688 1.09693878 1.688.724489796 1.84028426.397959184 2.14485279.132653061 2.41896447 0 2.75398985 0 3.14992893 0 3.59662944.132653061 3.95703553.397959184 4.23114721.724489796 4.53571574 1.09693878 4.688 1.51530612 4.688 1.90306122 4.688 2.23979592 4.53571574 2.5255102 4.23114721 2.84183673 3.95703553 3 3.59662944 3 3.14992893 3 2.75398985 2.84183673 2.41896447 2.5255102 2.14485279z" transform="translate(6.666 10)"/>
      <path fill="#C1DCF5" d="M1.5388601 11.888C1.94300518 11.888 2.27979275 11.7466387 2.5492228 11.4639162 2.84974093 11.1707225 3 10.809466 3 10.3801466 3 10.0031832 2.84974093 9.65239791 2.5492228 9.32779058 2.27979275 9.03459686 1.94300518 8.888 1.5388601 8.888 1.10362694 8.888.74611399 9.03459686.466321244 9.32779058.155440415 9.65239791 0 10.0031832 0 10.3801466 0 10.809466.155440415 11.1707225.466321244 11.4639162.74611399 11.7466387 1.10362694 11.888 1.5388601 11.888zM9.41925088 4.79526156C9.7584735 4.60120108 9.98462191 4.29478981 10.0976961 3.87602774 10.2107703 3.47769308 10.159373 3.1048927 9.94350402 2.75762659 9.73791455 2.40014677 9.43467009 2.17544516 9.03377064 2.08352178 8.63287119 1.95074356 8.26281015 1.97627784 7.92358754 2.1601246 7.54324703 2.40525362 7.30681915 2.73209231 7.21430389 3.14064068 7.10122968 3.52876163 7.15262705 3.91177572 7.36849598 4.28968296 7.57408545 4.60630794 7.87732991 4.82079583 8.27822936 4.93314663 8.63801092 5.05571114 9.01835143 5.00974945 9.41925088 4.79526156L9.41925088 4.79526156zM12.1569278 4.702C11.7239381 4.702 11.368268 4.8463299 11.0899175 5.13498969 10.7806392 5.43395876 10.626 5.78447423 10.626 6.18653608 10.626 6.59890722 10.7806392 6.9648866 11.0899175 7.28447423 11.368268 7.56282474 11.7239381 7.702 12.1569278 7.702 12.5589897 7.702 12.9043505 7.56282474 13.1930103 7.28447423 13.4816701 6.9648866 13.626 6.59890722 13.626 6.18653608 13.626 5.78447423 13.4816701 5.43395876 13.1930103 5.13498969 12.9043505 4.8463299 12.5589897 4.702 12.1569278 4.702zM12.656 0C12.2289167 0 11.859125.150259067 11.546625.450777202 11.2862083.761658031 11.156 1.11398964 11.156 1.50777202 11.156 1.9119171 11.2862083 2.26943005 11.546625 2.58031088 11.859125 2.86010363 12.2289167 3 12.656 3 13.0830833 3 13.43725 2.86010363 13.7185 2.58031088 14.0101667 2.26943005 14.156 1.9119171 14.156 1.50777202 14.156 1.11398964 14.0101667.761658031 13.7185.450777202 13.43725.150259067 13.0830833 0 12.656 0L12.656 0z" transform="translate(9.844)"/>
      <path fill="#74BDFE" d="M6,9.51546392 C6,9.09278351 5.85204082,8.7371134 5.55612245,8.44845361 C5.28061224,8.14948454 4.93877551,8 4.53061224,8 C4.10204082,8 3.73979592,8.14948454 3.44387755,8.44845361 C3.14795918,8.7371134 3,9.09278351 3,9.51546392 C3,9.92783505 3.14795918,10.2783505 3.44387755,10.5670103 C3.73979592,10.8556701 4.10204082,11 4.53061224,11 C4.93877551,11 5.28061224,10.8556701 5.55612245,10.5670103 C5.85204082,10.2783505 6,9.92783505 6,9.51546392 Z M5,13.5154639 C5,13.0927835 4.85204082,12.7371134 4.55612245,12.4484536 C4.28061224,12.1494845 3.93877551,12 3.53061224,12 C3.10204082,12 2.73979592,12.1494845 2.44387755,12.4484536 C2.14795918,12.7371134 2,13.0927835 2,13.5154639 C2,13.9278351 2.14795918,14.2783505 2.44387755,14.5670103 C2.73979592,14.8556701 3.10204082,15 3.53061224,15 C3.93877551,15 4.28061224,14.8556701 4.55612245,14.5670103 C4.85204082,14.2783505 5,13.9278351 5,13.5154639 Z M3,17.5154639 C3,17.0927835 2.85204082,16.7371134 2.55612245,16.4484536 C2.28061224,16.1494845 1.93877551,16 1.53061224,16 C1.10204082,16 0.739795918,16.1494845 0.443877551,16.4484536 C0.147959184,16.7371134 0,17.0927835 0,17.5154639 C0,17.9278351 0.147959184,18.2783505 0.443877551,18.5670103 C0.739795918,18.8556701 1.10204082,19 1.53061224,19 C1.93877551,19 2.28061224,18.8556701 2.55612245,18.5670103 C2.85204082,18.2783505 3,17.9278351 3,17.5154639 Z M17.133772,5.906 C16.6985389,5.906 16.3306632,6.04589637 16.0301451,6.32568912 C15.760715,6.60548187 15.626,6.96817617 15.626,7.41377202 C15.626,7.83864249 15.760715,8.19097409 16.0301451,8.47076684 C16.3306632,8.76092228 16.6985389,8.906 17.133772,8.906 C17.5275544,8.906 17.879886,8.76092228 18.1907668,8.47076684 C18.4809223,8.19097409 18.626,7.83864249 18.626,7.41377202 C18.626,6.96817617 18.4809223,6.60548187 18.1907668,6.32568912 C17.879886,6.04589637 17.5275544,5.906 17.133772,5.906 Z M21.2468952,11.8005433 C21.6267594,11.5738276 21.8577579,11.2698224 21.9398907,10.8885278 C22.0528233,10.4763174 22.0066236,10.0847175 21.8012916,9.71372812 C21.585693,9.36334927 21.2828283,9.1469388 20.8926975,9.06449672 C20.5025667,8.95113885 20.1227024,8.98720726 19.7531048,9.17270195 C19.3835072,9.38911242 19.1525087,9.69827023 19.0601093,10.1001754 C18.9471767,10.48147 18.9933764,10.8524594 19.1987084,11.2131435 C19.4040404,11.6047434 19.7171717,11.846917 20.1381023,11.9396644 C20.5179666,12.0530222 20.8875642,12.0066486 21.2468952,11.8005433 L21.2468952,11.8005433 Z"/>
    </g>
    <g transform="translate(2 488)">
      <polygon fill="#055DAB" fill-rule="nonzero" points="22.532 13.092 21.174 11.678 16.778 15.92 7.328 15.92 3.604 21.086 5.2 22.234 8.336 17.88 17.576 17.88"/>
      <polygon fill="#318DDE" fill-rule="nonzero" points="21.524 6.26 15.224 12.266 5.914 12.28 1 18.958 2.582 20.12 6.908 14.24 16.008 14.226 22.882 7.674"/>
      <g fill="#0081CB" transform="translate(7)">
        <path d="M8.75,5 C8.75,2.92893219 7.07106781,1.25 5,1.25 C2.92893219,1.25 1.25,2.92893219 1.25,5 C1.25,7.07106781 2.92893219,8.75 5,8.75 C7.07106781,8.75 8.75,7.07106781 8.75,5 Z M0,5 C0,2.23857625 2.23857625,0 5,0 C7.76142375,0 10,2.23857625 10,5 C10,7.76142375 7.76142375,10 5,10 C2.23857625,10 0,7.76142375 0,5 Z"/>
        <polygon points="4.877 6.256 7.734 5.057 7.406 4.274 5.222 5.189 3.651 2.776 2.879 3.303" transform="rotate(3 5.307 4.516)"/>
      </g>
    </g>
    <g transform="translate(2 445)">
      <polygon fill="#74BDFE" fill-rule="nonzero" points="22.532 13.092 21.174 11.678 16.778 15.92 7.328 15.92 3.604 21.086 5.2 22.234 8.336 17.88 17.576 17.88"/>
      <polygon fill="#C1DCF5" fill-rule="nonzero" points="22.882 7.674 21.524 6.26 15.224 12.266 5.914 12.28 1 18.958 2.582 20.12 6.908 14.24 16.008 14.226 22.882 7.674"/>
      <g fill="#EEF4F9" transform="translate(7)">
        <path d="M8.75,5 C8.75,2.92893219 7.07106781,1.25 5,1.25 C2.92893219,1.25 1.25,2.92893219 1.25,5 C1.25,7.07106781 2.92893219,8.75 5,8.75 C7.07106781,8.75 8.75,7.07106781 8.75,5 Z M0,5 C0,2.23857625 2.23857625,0 5,0 C7.76142375,0 10,2.23857625 10,5 C10,7.76142375 7.76142375,10 5,10 C2.23857625,10 0,7.76142375 0,5 Z"/>
        <polygon points="4.877 6.256 7.734 5.057 7.406 4.274 5.222 5.189 3.651 2.776 2.879 3.303" transform="rotate(3 5.307 4.516)"/>
      </g>
    </g>
    <g fill-rule="nonzero" transform="translate(2 401)">
      <polygon fill="#318DDE" points="21.08 23.934 21.08 10.48 15.48 10.48 15.48 23.934"/>
      <polygon fill="#055DAB" points="13.8 23.934 13.8 12.72 8.2 12.72 8.2 23.934"/>
      <polygon fill="#062E79" points="6.52 7.666 .92 7.666 .92 23.934 6.52 23.934"/>
      <polygon fill="#055DAB" points="24.65 6.924 20.282 3.69 11.686 6.952 4.014 .12 .052 1.576 .724 3.41 3.58 2.36 11.266 9.206 19.974 5.902 23.488 8.506"/>
    </g>
    <g fill-rule="nonzero" transform="translate(2 357)">
      <polygon fill="#EEF4F9" points="21.08 23.934 21.08 10.48 15.48 10.48 15.48 23.934"/>
      <polygon fill="#C1DCF5" points="13.8 23.934 13.8 12.72 8.2 12.72 8.2 23.934"/>
      <polygon fill="#74BDFE" points="6.52 7.666 .92 7.666 .92 23.934 6.52 23.934"/>
      <polygon fill="#C1DCF5" points="24.65 6.924 20.282 3.69 11.686 6.952 4.014 .12 .052 1.576 .724 3.41 3.58 2.36 11.266 9.206 19.974 5.902 23.488 8.506"/>
    </g>
    <g fill-rule="nonzero" transform="translate(2 313)">
      <path fill="#318DDE" d="M10.342,9.766 L13.352,9.626 L8.55,5.902 L2.124,15.142 L0.08,15.128 L0.08,17.088 L3.146,17.102 L8.984,8.716 L10.342,9.766 Z M23.152,7.372 L21.514,6.308 L17.342,12.72 L15.76,11.488 L12.736,11.628 L17.818,15.576 L23.152,7.372 Z"/>
      <polygon fill="#062E79" points="22.536 1.576 20.898 .498 14.934 9.556 13.352 9.626 9.712 9.794 3.762 18.53 .08 18.53 .08 20.49 4.798 20.49 10.776 11.712 12.736 11.628 16.026 11.474"/>
      <polygon fill="#055DAB" points="22.732 14.526 21.094 13.448 18.098 18.026 11.784 12.986 5.484 21.848 .08 21.806 .066 23.766 6.492 23.822 12.176 15.8 18.56 20.896 22.732 14.526"/>
    </g>
    <g fill-rule="nonzero" transform="translate(2 269)">
      <path fill="#EEF4F9" d="M10.342,9.766 L13.352,9.626 L8.55,5.902 L2.124,15.142 L0.08,15.128 L0.08,17.088 L3.146,17.102 L8.984,8.716 L10.342,9.766 Z M23.152,7.372 L21.514,6.308 L17.342,12.72 L15.76,11.488 L12.736,11.628 L17.818,15.576 L23.152,7.372 Z"/>
      <polygon fill="#74BDFE" points="22.536 1.576 20.898 .498 14.934 9.556 13.352 9.626 9.712 9.794 3.762 18.53 .08 18.53 .08 20.49 4.798 20.49 10.776 11.712 12.736 11.628 16.026 11.474"/>
      <polygon fill="#C1DCF5" points="22.732 14.526 21.094 13.448 18.098 18.026 11.784 12.986 5.484 21.848 .08 21.806 .066 23.766 6.492 23.822 12.176 15.8 18.56 20.896 22.732 14.526"/>
    </g>
    <g fill-rule="nonzero" transform="translate(2 227)">
      <polygon fill="#055DAB" points="8.186 21.906 13.786 21.906 13.786 7.066 8.186 7.066 8.186 21.906"/>
      <polygon fill="#318DDE" points="6.52 .808 .92 .808 .92 21.948 6.52 21.948"/>
      <polygon fill="#062E79" points="21.052 21.906 21.052 12.666 15.452 12.666 15.452 21.906"/>
    </g>
    <g fill-rule="nonzero" transform="translate(2 185)">
      <polygon fill="#C1DCF5" points="8.186 21.906 13.786 21.906 13.786 7.066 8.186 7.066 8.186 21.906"/>
      <polygon fill="#74BDFE" points="6.52 .808 .92 .808 .92 21.948 6.52 21.948"/>
      <polygon fill="#EEF4F9" points="21.052 21.906 21.052 12.666 15.452 12.666 15.452 21.906"/>
    </g>
    <g fill-rule="nonzero" transform="translate(0 138)">
      <path fill="#062E79" d="M2.25,13.5 L9.65,13.5 L9.65,18.4 L2.25,18.4 L2.25,13.5 Z M2.25,19.98 L9.65,19.98 L9.65,24.88 L2.25,24.88 L2.25,19.98 Z M2.25,7 L9.65,7 L9.65,11.86 L2.25,11.86 L2.25,7 Z"/>
      <path fill="#0081CB" d="M9.64,24.84 L24.79,24.84 L24.79,26.46 L9.64,26.46 L9.64,24.84 Z M24.76,7.02 L26.44,7.02 L26.44,26.46 L24.76,26.46 L24.76,7.02 Z"/>
      <path fill="#062E79" d="M9.64,2.16 L16.36,2.16 L16.36,7.02 L9.64,7.02 L9.64,2.16 Z M18.04,2.16 L24.76,2.16 L24.76,7.02 L18.04,7.02 L18.04,2.16 Z"/>
      <path fill="#0081CB" d="M9.64,11.88 L16.36,11.88 L16.36,13.5 L9.64,13.5 L9.64,11.88 Z M9.64,18.36 L16.36,18.36 L16.36,19.98 L9.64,19.98 L9.64,18.36 Z M18.04,11.88 L24.76,11.88 L24.76,13.5 L18.04,13.5 L18.04,11.88 Z M18.04,18.36 L24.76,18.36 L24.76,19.98 L18.04,19.98 L18.04,18.36 Z M16.36,7.02 L18.04,7.02 L18.04,24.84 L16.36,24.84 L16.36,7.02 Z"/>
      <path fill="#74BDFE" d="M2.24,18.36 L9.64,18.36 L9.64,19.98 L2.24,19.98 L2.24,24.84 L9.64,24.84 L9.64,26.46 L1.24,26.46 L0.56,26.46 L0.56,7.02 L2.24,7.02 L2.24,18.36 Z M7.96,2.16 L9.64,2.16 L9.64,7.02 L7.96,7.02 L7.96,2.16 Z M8.56,5.35 L8.56,7.03 L0.56,7.03 L0.56,5.35 L8.56,5.35 Z M1.24,11.88 L9.64,11.88 L9.64,13.5 L1.24,13.5 L1.24,11.88 Z M7.96,0.54 L26.46,0.54 L26.46,2.54 L7.96,2.54 L7.96,0.54 Z M16.36,2.16 L18.04,2.16 L18.04,7.02 L16.36,7.02 L16.36,2.16 Z M24.76,2.16 L26.44,2.16 L26.44,7.02 L24.76,7.02 L24.76,2.16 Z"/>
    </g>
    <g fill-rule="nonzero" transform="translate(0 91)">
      <path fill="#EEF4F9" d="M1.25,13.5 L9.65,13.5 L9.65,18.4 L1.25,18.4 L1.25,13.5 Z M1.25,19.98 L9.65,19.98 L9.65,24.88 L1.25,24.88 L1.25,19.98 Z M1.25,7 L9.65,7 L9.65,11.86 L1.25,11.86 L1.25,7 Z"/>
      <path fill="#74BDFE" d="M9.64,24.84 L24.79,24.84 L24.79,26.46 L9.64,26.46 L9.64,24.84 Z M24.76,7.02 L26.44,7.02 L26.44,26.46 L24.76,26.46 L24.76,7.02 Z"/>
      <path fill="#EEF4F9" d="M9.64,2.16 L16.36,2.16 L16.36,7.02 L9.64,7.02 L9.64,2.16 Z M18.04,2.16 L24.76,2.16 L24.76,7.02 L18.04,7.02 L18.04,2.16 Z"/>
      <path fill="#74BDFE" d="M9.64,11.88 L16.36,11.88 L16.36,13.5 L9.64,13.5 L9.64,11.88 Z M9.64,18.36 L16.36,18.36 L16.36,19.98 L9.64,19.98 L9.64,18.36 Z M18.04,11.88 L24.76,11.88 L24.76,13.5 L18.04,13.5 L18.04,11.88 Z M18.04,18.36 L24.76,18.36 L24.76,19.98 L18.04,19.98 L18.04,18.36 Z M16.36,7.02 L18.04,7.02 L18.04,24.84 L16.36,24.84 L16.36,7.02 Z"/>
      <path fill="#C1DCF5" d="M2.24,18.36 L9.64,18.36 L9.64,19.98 L2.24,19.98 L2.24,24.84 L9.64,24.84 L9.64,26.46 L1.24,26.46 L0.56,26.46 L0.56,7.02 L2.24,7.02 L2.24,18.36 Z M7.96,2.16 L9.64,2.16 L9.64,7.02 L7.96,7.02 L7.96,2.16 Z M8.56,5.35 L8.56,7.03 L0.56,7.03 L0.56,5.35 L8.56,5.35 Z M1.24,11.88 L9.64,11.88 L9.64,13.5 L1.24,13.5 L1.24,11.88 Z M7.96,0.54 L26.46,0.54 L26.46,2.54 L7.96,2.54 L7.96,0.54 Z M16.36,2.16 L18.04,2.16 L18.04,7.02 L16.36,7.02 L16.36,2.16 Z M24.76,2.16 L26.44,2.16 L26.44,7.02 L24.76,7.02 L24.76,2.16 Z"/>
    </g>
    <path fill="#0081CB" d="M18,18 L25,18 L25,25 L18,25 L18,18 Z M9,18 L16,18 L16,25 L9,25 L9,18 Z M0,18 L7,18 L7,25 L0,25 L0,18 Z M18,9 L25,9 L25,16 L18,16 L18,9 Z M9,9 L16,9 L16,16 L9,16 L9,9 Z M0,9 L7,9 L7,16 L0,16 L0,9 Z M18,0 L25,0 L25,7 L18,7 L18,0 Z M9,0 L16,0 L16,7 L9,7 L9,0 Z M0,0 L7,0 L7,7 L0,7 L0,0 Z" transform="translate(2 46)"/>
    <path fill="#C1DCF5" d="M18,18 L25,18 L25,25 L18,25 L18,18 Z M9,18 L16,18 L16,25 L9,25 L9,18 Z M0,18 L7,18 L7,25 L0,25 L0,18 Z M18,9 L25,9 L25,16 L18,16 L18,9 Z M9,9 L16,9 L16,16 L9,16 L9,9 Z M0,9 L7,9 L7,16 L0,16 L0,9 Z M18,0 L25,0 L25,7 L18,7 L18,0 Z M9,0 L16,0 L16,7 L9,7 L9,0 Z M0,0 L7,0 L7,7 L0,7 L0,0 Z" transform="translate(2 1)"/>
  </g>
</svg>
