<?xml version="1.0" encoding="UTF-8"?>
<svg width="40px" height="400px" viewBox="0 0 40 400" version="1.1" xmlns="http://www.w3.org/2000/svg" xmlns:xlink="http://www.w3.org/1999/xlink">
    <title>icontrol_icons_sprite</title>
    <g id="icontrol_icons_sprite" stroke="none" stroke-width="1" fill="none" fill-rule="evenodd">
        <polygon id="Path" fill="#686868" fill-rule="nonzero" points="8 251 20.0260304 269 32 251"></polygon>
        <g id="Group" transform="translate(0.000000, 300.000000)" fill="#686868">
            <g id="cal-5-=" transform="translate(5.000000, 6.000000)">
                <path d="M8,0 L8,2 L22,2 L22,0 L25,0 L25,2 L30,2 L30,28 L0,28 L0,2 L5,2 L5,0 L8,0 Z M5,6 L2,6 L2,26 L28,26 L28,6 L25,6 L25,9 L22,9 L22,6 L8,6 L8,9 L5,9 L5,6 Z" id="Combined-Shape"></path>
                <path d="M7,18.9579158 L8.99866399,18.7154309 C9.06234723,19.2248968 9.23379954,19.6143384 9.51302605,19.8837675 C9.79225257,20.1531966 10.1302585,20.2879092 10.5270541,20.2879092 C10.9532419,20.2879092 11.3120671,20.1262541 11.6035404,19.8029392 C11.8950137,19.4796243 12.0407482,19.0436456 12.0407482,18.49499 C12.0407482,17.9757266 11.901137,17.5642411 11.6219105,17.260521 C11.342684,16.956801 11.0022287,16.8049432 10.6005344,16.8049432 C10.336004,16.8049432 10.0200419,16.8563789 9.65263861,16.9592518 L9.88042752,15.2765531 C10.4388805,15.2912492 10.865062,15.170008 11.1589846,14.9128257 C11.4529073,14.6556433 11.5998664,14.3139634 11.5998664,13.8877756 C11.5998664,13.525271 11.4920964,13.2362514 11.2765531,13.0207081 C11.0610098,12.8051648 10.7744396,12.6973948 10.4168337,12.6973948 C10.0641265,12.6973948 9.7628603,12.8198607 9.51302605,13.0647963 C9.2631918,13.3097318 9.11133405,13.6673323 9.05744823,14.1376086 L7.15430862,13.8142953 C7.28657381,13.1627667 7.48619328,12.6422865 7.75317301,12.252839 C8.02015275,11.8633915 8.39244918,11.5572267 8.87007348,11.3343353 C9.34769778,11.111444 9.8828739,11 10.4756179,11 C11.489651,11 12.3028248,11.3233101 12.9151637,11.9699399 C13.4197309,12.4990006 13.6720107,13.0966344 13.6720107,13.7628591 C13.6720107,14.7083102 13.1552045,15.4627004 12.1215765,16.0260521 C12.738814,16.1583173 13.2323517,16.4546848 13.6022044,16.9151637 C13.9720571,17.3756425 14.1569806,17.9316378 14.1569806,18.5831663 C14.1569806,19.5286175 13.8116267,20.3344433 13.1209085,21.000668 C12.4301903,21.6668927 11.5704794,22 10.5417502,22 C9.56690673,22 8.75863158,21.719553 8.11690047,21.1586506 C7.47516936,20.5977483 7.10287293,19.8641773 7,18.9579158 L7,18.9579158 Z M18.682387,11 C19.7258124,11 20.5414355,11.3722964 21.1292808,12.1169005 C21.8297964,12.9986684 22.180049,14.4609116 22.180049,16.503674 C22.180049,18.5415377 21.8273471,20.0062302 21.1219327,20.8977956 C20.5389862,21.6326022 19.7258124,22 18.682387,22 C17.6340629,22 16.789048,21.5970871 16.1473168,20.7912492 C15.5055857,19.9854112 15.184725,18.5488859 15.184725,16.4816299 C15.184725,14.4535637 15.5374269,12.9937698 16.2428412,12.1022044 C16.8257878,11.3673978 17.6389616,11 18.682387,11 L18.682387,11 Z M18.682387,12.7120908 C18.4325527,12.7120908 18.2096647,12.7916937 18.0137163,12.9509018 C17.8177679,13.1101099 17.6659101,13.3954555 17.5581385,13.8069472 C17.4160759,14.3409067 17.3450456,15.2398066 17.3450456,16.503674 C17.3450456,17.7675414 17.4087279,18.6358248 17.5360944,19.1085504 C17.6634609,19.581276 17.8238912,19.8960135 18.0173903,20.0527722 C18.2108894,20.209531 18.4325527,20.2879092 18.682387,20.2879092 C18.9322212,20.2879092 19.1551092,20.2083063 19.3510577,20.0490982 C19.5470061,19.8898901 19.6988638,19.6045445 19.8066355,19.1930528 C19.9486981,18.663992 20.0197283,17.7675414 20.0197283,16.503674 C20.0197283,15.2398066 19.956046,14.3715232 19.8286796,13.8987976 C19.7013131,13.426072 19.5408827,13.1101099 19.3473836,12.9509018 C19.1538846,12.7916937 18.9322212,12.7120908 18.682387,12.7120908 L18.682387,12.7120908 Z" id="30"></path>
            </g>
        </g>
        <g id="Group" transform="translate(0.000000, 360.000000)" fill="#FFFFFF" fill-rule="nonzero">
            <g id="Path" transform="translate(8.000000, 8.000000)">
                <polygon points="19.7200001 0.880000012 12 8.60000003 4.28000003 0.880000012 0.880000022 4.28000002 8.60000004 12 0.880000022 19.7200001 4.28000003 23.1200001 12 15.4 19.7200001 23.1200001 23.1200001 19.7200001 15.4000001 12 23.1200001 4.28000002 19.7200001 0.880000012"></polygon>
            </g>
        </g>
        <g id="Combined-Shape" transform="translate(0.000000, 180.000000)" fill="#686868">
            <path d="M7.31497116,7.6453788 C11.6107384,3.34961159 18.5755531,3.34961159 22.8713203,7.6453788 C26.74932,11.5233784 27.1264592,17.5765339 24.0027381,21.8776056 C24.0449667,21.9068577 24.0852816,21.9411727 24.1232973,21.9791883 L33.3156854,31.1715765 C33.7062097,31.5621008 33.7062097,32.1952657 33.3156854,32.58579 L32.2550253,33.6464502 C31.864501,34.0369745 31.231336,34.0369745 30.8408117,33.6464502 L21.6484235,24.454062 C21.6104079,24.4160464 21.5760929,24.3757315 21.5454785,24.3335649 C17.2461262,27.4568669 11.1929708,27.0797276 7.31497116,23.201728 C3.01920395,18.9059608 3.01920395,11.941146 7.31497116,7.6453788 Z M9.78162982,10.1306962 C8.32240235,11.6021248 7.59278862,13.3664105 7.59278862,15.4235534 C7.59278862,17.5092677 8.32240235,19.2735534 9.78162982,20.7164105 C11.2408573,22.1878391 13.0148201,22.9235534 15.1035182,22.9235534 C17.1636041,22.9235534 18.9232607,22.1878391 20.3824882,20.7164105 L20.3824882,20.7164105 L20.4039474,20.7164105 C21.8631749,19.2592677 22.5927886,17.494982 22.5927886,15.4235534 C22.5927886,13.3664105 21.8631749,11.6021248 20.4039474,10.1306962 L20.4039474,10.1306962 L20.3824882,10.1306962 C18.9232607,8.65926768 17.1636041,7.92355339 15.1035182,7.92355339 C13.0291262,7.92355339 11.2551634,8.65926768 9.78162982,10.1306962 Z"></path>
        </g>
        <g id="Group" transform="translate(0.000000, 120.000000)" fill="#686868" fill-rule="nonzero">
            <g id="Shape" transform="translate(4.000000, 4.000000)">
                <path d="M31.0200001,30.4000001 L31.0200001,0.800000002 L0.980000012,0.800000002 L0.980000012,30.4000001 L31.0200001,30.4000001 Z M29.0400001,2.78000001 L29.0400001,28.4200001 L2.98000002,28.4200001 L14.56,17.02 L9.22000003,11.7 L5.72000002,15.14 L5.72000002,5.18000001 L15.84,5.18000001 L12.28,8.70000002 L17.6000001,14.02 L29.0400001,2.78000001 L29.0400001,2.78000001 Z M22.9400001,19.34 L17.6000001,14.02 L14.56,17.02 L19.9200001,22.3600001 L16.3400001,25.8400001 L26.4400001,25.8400001 L26.4400001,15.88 L22.9400001,19.34 L22.9400001,19.34 Z"></path>
            </g>
        </g>
        <g id="Group" transform="translate(0.000000, 60.000000)" fill="#686868" fill-rule="nonzero">
            <g id="Path" transform="translate(8.000000, 8.000000)">
                <polygon points="19.7200001 0.880000012 12 8.60000003 4.28000003 0.880000012 0.880000022 4.28000002 8.60000004 12 0.880000022 19.7200001 4.28000003 23.1200001 12 15.4 19.7200001 23.1200001 23.1200001 19.7200001 15.4000001 12 23.1200001 4.28000002 19.7200001 0.880000012"></polygon>
            </g>
        </g>
        <g id="Group" fill="#686868" fill-rule="nonzero">
            <g id="Path" transform="translate(7.000000, 10.000000)">
                <polygon points="3.08000001 8.38000002 0 11.6 8.76000002 19.96 25.5600001 3.14000001 22.4000001 0 8.68000002 13.72"></polygon>
            </g>
        </g>
    </g>
</svg>