<?xml version="1.0" encoding="UTF-8"?>
<svg width="20px" height="228px" viewBox="0 0 20 228" version="1.1" xmlns="http://www.w3.org/2000/svg" xmlns:xlink="http://www.w3.org/1999/xlink">
    <title>resources_icons_sprite</title>
    <g id="resources_icons_sprite" stroke="none" stroke-width="1" fill="none" fill-rule="evenodd">
        <g id="Combined-Shape" transform="translate(0.000000, 180.000000)" fill="#01529A">
            <path d="M3.5,15 C1.56700338,15 0,13.4329966 0,11.5 C0,9.56700338 1.56700338,8 3.5,8 C3.68463928,8 3.86593924,8.01429736 4.04285316,8.04184538 C4.25677412,6.88020914 5.27559513,6 6.5,6 C6.7585863,6 7.00800302,6.03925969 7.24261472,6.11214364 C7.89102837,4.30690338 9.77593439,3 12,3 C14.7614237,3 17,5.01471863 17,7.5 C17,7.70401564 16.9849149,7.90486029 16.9556939,8.10167978 C18.7034613,8.47552298 20,9.8552765 20,11.5 C20,13.4329966 18.209139,15 16,15 L16,15 Z"></path>
        </g>
        <g id="Shape" transform="translate(0.000000, 210.000000)" fill="#01529A">
            <path d="M16.9803,18 L0.999,18 C0.4473,18 5.15143483e-14,17.559 5.15143483e-14,17.0154 L5.15143483e-14,1.2582 C5.15143483e-14,0.7146 0.4473,0.2736 0.999,0.2736 L7.6113,0.2736 C8.1621,0.2736 8.6103,0.7146 8.6103,1.2582 C8.6103,1.8018 8.1621,2.2428 7.6113,2.2428 L1.998,2.2428 L1.998,16.0308 L15.9813,16.0308 L15.9813,10.251 C15.9813,9.7074 16.4286,9.2655 16.9803,9.2655 C17.532,9.2655 17.9793,9.7065 17.9793,10.251 L17.9793,17.0154 C17.9793,17.559 17.532,18 16.9803,18 M10.7721,8.7336 L15.5997,3.9735 L15.5124,6.0795 C15.4989,6.3882 15.6141,6.7005 15.8544,6.9381 C16.3035,7.3809 17.0262,7.3899 17.4654,6.9561 C17.6706,6.7545 17.7777,6.4917 17.7894,6.2244 L17.9991,1.1961 C18.0113592,0.874728307 17.8871254,0.563162947 17.6571,0.3384 C17.426479,0.110455592 17.111714,-0.0117357857 16.7877,0.0009 L11.6883,0.2079 C11.4099243,0.218271746 11.1454525,0.332212876 10.9467,0.5274 C10.7357079,0.739014758 10.6187292,1.02662071 10.6221152,1.32543 C10.6255011,1.62423928 10.7489669,1.90912065 10.9647,2.1159 C11.2059,2.3544 11.5218,2.4669 11.8332,2.4543 L13.9698,2.3661 L9.1422,7.1271 C8.93132461,7.33883467 8.81450678,7.62650913 8.81798319,7.92531904 C8.82161727,8.22412894 8.94524657,8.50894256 9.1611,8.7156 C9.6111,9.1593 10.3329,9.1674 10.7721,8.7336"></path>
        </g>
        <g id="Group" transform="translate(0.000000, 150.000000)">
            <circle id="Oval" stroke="#01529A" fill-rule="nonzero" cx="9" cy="9" r="8.5"></circle>
            <polygon id="Triangle" fill="#01529A" transform="translate(10.000000, 9.000000) rotate(-270.000000) translate(-10.000000, -9.000000) " points="10 5 15 13 5 13"></polygon>
        </g>
        <g id="Combined-Shape" transform="translate(0.000000, 120.000000)" fill="#01529A">
            <path d="M9,0 C13.9705627,0 18,4.02943725 18,9 C18,13.9705627 13.9705627,18 9,18 C4.02943725,18 0,13.9705627 0,9 C0,4.02943725 4.02943725,0 9,0 Z M6,4 L6,14 L14,9 L6,4 Z"></path>
        </g>
        <g id="Combined-Shape" transform="translate(0.000000, 90.000000)" fill="#01529A">
            <path d="M5.4,-1.27453603e-13 L10.2,5.04 L7.799,5.039 L7.799,8.951 L13.352,8.951 L13.3527344,6.79148437 L18.9527344,11.1114844 L13.3527344,15.4314844 L13.352,13.271 L7.799,13.271 L7.8,18 L3,18 L2.999,5.039 L0.6,5.04 L5.4,-1.27453603e-13 Z"></path>
        </g>
        <g id="Shape" transform="translate(0.000000, 60.000000)" fill="#01529A">
            <path d="M10.1417161,5.79166667 C8.80842621,5.79166667 7.72758115,4.71901555 7.72758115,3.39583333 C7.72758115,2.07265112 8.80842621,1 10.1417161,1 C11.475006,1 12.5558511,2.07265112 12.5558511,3.39583333 C12.5558511,4.71901555 11.475006,5.79166667 10.1417161,5.79166667 Z M9.49794682,6.59027778 L10.7854855,6.59027778 C12.6520914,6.59027778 14.1652745,8.54072213 14.1652745,10.9467172 L14.1652745,18 L6.11815782,18 L6.11815782,10.9467172 C6.11815782,8.54072213 7.6313409,6.59027778 9.49794682,6.59027778 Z M3.67089469,6.88517711 C2.31930859,6.88517711 1.22363156,5.80314117 1.22363156,4.4683822 C1.22363156,3.13362324 2.31930859,2.0515873 3.67089469,2.0515873 C5.0224808,2.0515873 6.11815782,3.13362324 6.11815782,4.4683822 C6.11815782,5.80314117 5.0224808,6.88517711 3.67089469,6.88517711 Z M16.4991647,6.86767573 C15.2101927,6.86767573 14.1652745,5.78920228 14.1652745,4.45883786 C14.1652745,3.12847345 15.2101927,2.05 16.4991647,2.05 C17.7881367,2.05 18.8330549,3.12847345 18.8330549,4.45883786 C18.8330549,5.78920228 17.7881367,6.86767573 16.4991647,6.86767573 Z M4.89452626,11.1187156 L4.89452626,16.3439593 L0,16.3439593 L0,10.8437028 C0,9.32484891 1.09567702,8.09357456 2.44726313,8.09357456 L4.89452626,8.09357456 C5.13583487,8.09982876 5.3749926,8.14616595 5.60423257,8.23108097 C5.14304406,9.10542374 4.89803225,10.1023214 4.89452626,11.1187156 Z M17.6661098,8.09 C18.9550818,8.09 20,9.32121694 20,10.84 L20,16.34 L15.3322196,16.34 L15.3322196,11.115 C15.328876,10.0986532 15.0952148,9.101802 14.6553914,8.2275 C14.8740115,8.14258894 15.10209,8.09625391 15.3322196,8.09 L17.6661098,8.09 Z"></path>
        </g>
        <g id="Group" transform="translate(0.000000, 30.000000)">
            <rect id="Rectangle" stroke="#01529A" stroke-width="1.5" fill-rule="nonzero" x="4.75" y="0.75" width="12.5" height="14.5" rx="3"></rect>
            <rect id="Rectangle" fill="#01529A" x="7" y="10" width="8" height="1.5"></rect>
            <rect id="Rectangle" fill="#01529A" x="7" y="7" width="8" height="1.5"></rect>
            <rect id="Rectangle" fill="#01529A" x="7" y="4" width="8" height="1.5"></rect>
            <path d="M4.75,2.75 L3.75,2.75 C2.6454305,2.75 1.75,3.6454305 1.75,4.75 L1.75,15.25 C1.75,16.3545695 2.6454305,17.25 3.75,17.25 L11.1027344,17.25 C12.2073039,17.25 13.1027344,16.3545695 13.1027344,15.25 L13.1027344,15.1785714 L13.1027344,15.1785714" id="Path-14" stroke="#01529A" stroke-width="1.5" fill-rule="nonzero"></path>
        </g>
        <g id="Group" transform="translate(2.000000, 0.000000)">
            <polygon id="Path-15" fill="#01529A" points="8.9722519 4 5 11 8.9722519 11 12 5.61983471"></polygon>
            <polyline id="Path-16" stroke="#01529A" stroke-width="2.5" stroke-linecap="round" stroke-linejoin="round" fill-rule="nonzero" points="0 12.2 4.05349282 14 6.85175061 11 10 12.5 10 17"></polyline>
            <path d="M4.16271186,7.48252455 L6.65795818,4.92818977 C7.67692921,4.85115972 8.66883444,4.90620444 9.63367388,5.09332392 C10.5985133,5.2804434 11.2912471,5.8566882 11.7118753,6.82205834 L12.8516088,8.65557466 L15.1736293,8.52683378" id="Path-17" stroke="#01529A" stroke-width="2.5" stroke-linecap="round" stroke-linejoin="round" fill-rule="nonzero" transform="translate(9.668171, 6.775035) rotate(5.000000) translate(-9.668171, -6.775035) "></path>
            <circle id="Oval" fill="#01529A" cx="12" cy="2" r="2"></circle>
        </g>
    </g>
</svg>