<?xml version="1.0" encoding="utf-8"?>
<!-- Generated by IcoMoon.io -->
<!DOCTYPE svg PUBLIC "-//W3C//DTD SVG 1.1//EN" "http://www.w3.org/Graphics/SVG/1.1/DTD/svg11.dtd">
<svg version="1.1" xmlns="http://www.w3.org/2000/svg" xmlns:xlink="http://www.w3.org/1999/xlink" width="40" height="32" viewBox="0 0 40 32">
<path fill="#686868" d="M27 8v3h3v-3h3v-4h-3v-2h-3v2h-14v-2h-3v2h-3v4h3v3h3v-3h14zM27 6v0zM5 4h2v26h-2v-26zM33 4h2v26h-2v-26zM7 28h26v2h-26v-2z"></path>
<path fill="#686868" d="M12 20.958l1.999-0.242c0.064 0.509 0.235 0.899 0.514 1.168s0.617 0.404 1.014 0.404c0.426 0 0.785-0.162 1.076-0.485s0.437-0.759 0.437-1.308c0-0.519-0.14-0.931-0.419-1.234s-0.62-0.456-1.021-0.456c-0.265 0-0.581 0.051-0.948 0.154l0.228-1.683c0.558 0.015 0.985-0.107 1.279-0.364s0.441-0.599 0.441-1.025c0-0.363-0.108-0.652-0.323-0.867s-0.502-0.323-0.86-0.323c-0.353 0-0.654 0.122-0.904 0.367s-0.402 0.603-0.456 1.073l-1.903-0.323c0.132-0.652 0.332-1.172 0.599-1.561s0.639-0.696 1.117-0.918c0.478-0.223 1.013-0.334 1.606-0.334 1.014 0 1.827 0.323 2.44 0.97 0.505 0.529 0.757 1.127 0.757 1.793 0 0.945-0.517 1.7-1.55 2.263 0.617 0.132 1.111 0.429 1.481 0.889s0.555 1.016 0.555 1.668c0 0.945-0.345 1.751-1.036 2.418s-1.55 0.999-2.579 0.999c-0.975 0-1.783-0.28-2.425-0.841s-1.014-1.294-1.117-2.201v0zM23.682 13c1.043 0 1.859 0.372 2.447 1.117 0.701 0.882 1.051 2.344 1.051 4.387 0 2.038-0.353 3.503-1.058 4.394-0.583 0.735-1.396 1.102-2.44 1.102-1.048 0-1.893-0.403-2.535-1.209s-0.963-2.242-0.963-4.31c0-2.028 0.353-3.488 1.058-4.379 0.583-0.735 1.396-1.102 2.44-1.102v0zM23.682 14.712c-0.25 0-0.473 0.080-0.669 0.239s-0.348 0.445-0.456 0.856c-0.142 0.534-0.213 1.433-0.213 2.697s0.064 2.132 0.191 2.605c0.127 0.473 0.288 0.787 0.481 0.944s0.415 0.235 0.665 0.235c0.25 0 0.473-0.080 0.669-0.239s0.348-0.445 0.456-0.856c0.142-0.529 0.213-1.425 0.213-2.689s-0.064-2.132-0.191-2.605c-0.127-0.473-0.288-0.789-0.481-0.948s-0.415-0.239-0.665-0.239v0z"></path>
</svg>
