<?xml version="1.0" encoding="utf-8"?>
<!-- Generated by IcoMoon.io -->
<!DOCTYPE svg PUBLIC "-//W3C//DTD SVG 1.1//EN" "http://www.w3.org/Graphics/SVG/1.1/DTD/svg11.dtd">
<svg version="1.1" xmlns="http://www.w3.org/2000/svg" xmlns:xlink="http://www.w3.org/1999/xlink" width="40" height="32" viewBox="0 0 40 32">
<path fill="#686868" d="M30.74 5.24q-4.44-4.44-10.74-4.44t-10.76 4.44q-4.44 4.44-4.44 10.76 0 6.3 4.44 10.74 4.46 4.46 10.76 4.46t10.74-4.46q4.46-4.44 4.46-10.74 0-6.32-4.46-10.76zM20 4.3q4.86 0 8.26 3.42 3.44 3.42 3.44 8.28t-3.44 8.26q-3.4 3.44-8.26 3.44t-8.28-3.44q-3.42-3.4-3.42-8.26t3.42-8.28 8.28-3.42zM19.22 19.68l7.94-3.28-0.92-2.22-5.96 2.46-4.14-7.42-2.1 1.16 5.18 9.3z"></path>
</svg>
