<svg xmlns="http://www.w3.org/2000/svg" width="40" height="32" viewBox="0 0 40 32">
  <path fill="#686868" d="M23.5542754,4.28945092 C23.8463112,4.50162732 24.0423435,4.82151548 24.1423725,5.24911539 L24.1793643,5.43896709 L24.2198125,5.69434728 L24.2303126,5.78889638 C24.2346329,5.85384522 24.2335934,5.92262627 24.2271943,5.99523954 C23.5335802,8.7366593 22.836611,11.4701886 22.1362865,14.1958275 L22.1356694,14.1937443 L22.0891355,14.3793058 L21.7359944,15.7514733 L21.7359944,15.7514733 L21.3772552,17.1345878 L21.3713291,17.1355264 L21.0440564,18.4000336 C20.3159149,21.2087596 19.5869744,24.0265521 18.8572349,26.8534109 C18.6933261,27.1747205 18.4897417,27.4150518 18.2464817,27.574405 C18.0032218,27.7337582 17.763724,27.8321032 17.5279884,27.86944 C17.1350958,27.9316681 16.771772,27.8415385 16.4380168,27.5990511 C16.145981,27.3868747 15.9499487,27.0669866 15.8499197,26.6393867 L15.8129279,26.449535 L15.7724797,26.1941548 L15.7619795,26.0996057 C15.7576593,26.0346568 15.7586987,25.9658758 15.7650979,25.8932625 C16.5907437,22.6300043 17.4211437,19.3779263 18.2562978,16.1370287 L18.6136038,14.7525918 L18.61953,14.7516532 L18.9482358,13.4884685 C19.6763773,10.6797424 20.4053178,7.86194996 21.1350573,5.03509112 C21.2989661,4.71378158 21.5025505,4.47345022 21.7458104,4.31409706 C21.9890704,4.1547439 22.2285682,4.05639889 22.4643037,4.01906205 C22.8571963,3.95683397 23.2205202,4.0469636 23.5542754,4.28945092 Z M10.3824451,6.4524309 C10.8087774,6.4524309 11.1598746,6.61335044 11.4357367,6.93518952 C11.7115987,7.2570286 11.8495298,7.65201293 11.8495298,8.1201425 C11.8495298,8.61753017 11.6865204,9.10028879 11.3605016,9.56841836 C10.9341693,9.97803174 10.3949843,10.4754194 9.74294671,11.0605814 C9.09090909,11.6457433 8.4137931,12.2601634 7.71159875,12.9038416 C7.00940439,13.5475197 6.3322884,14.1619398 5.68025078,14.7471017 C5.02821317,15.3322637 4.48902821,15.8296514 4.06269592,16.2392648 C4.56426332,16.6781362 5.14733542,17.1828384 5.81191223,17.7533713 C6.47648903,18.3239043 7.14733542,18.9090662 7.82445141,19.5088572 L8.49947753,20.1037719 C8.94810171,20.4971308 9.39393939,20.8839879 9.8369906,21.2643431 C10.5015674,21.834876 11.0846395,22.3395782 11.5862069,22.7784497 C11.862069,23.2173212 12,23.6708217 12,24.1389513 C12,24.6070808 11.862069,24.9947507 11.5862069,25.3019607 C11.3103448,25.6091707 10.9592476,25.7627757 10.5329154,25.7627757 C10.2570533,25.7627757 9.94357367,25.6750014 9.59247649,25.4994528 C8.96551724,24.9728071 8.26332288,24.3730161 7.48589342,23.7000798 C6.70846395,23.0271435 5.9184953,22.3395782 5.11598746,21.6373839 C4.31347962,20.9351895 3.52351097,20.2403097 2.7460815,19.5527444 C1.96865204,18.8651791 1.2539185,18.2580735 0.601880878,17.7314278 C0.200626959,17.2632982 0,16.7805396 0,16.2831519 C0,15.6979899 0.238244514,15.1859732 0.714733542,14.7471017 C0.840125392,14.6300694 1.12225705,14.3667465 1.56112853,13.9571331 C2,13.5475197 2.53291536,13.0647611 3.15987461,12.5088572 C3.63009404,12.0919293 4.11794671,11.6503149 4.6234326,11.184014 L4.6234326,11.184014 L5.13479624,10.7094842 C5.82445141,10.065806 6.48275862,9.46601502 7.10971787,8.91011115 C7.73667712,8.35420729 8.27586207,7.86413414 8.72727273,7.43989172 C9.17868339,7.01564929 9.45454545,6.75964093 9.55485893,6.67186664 C9.88087774,6.52557615 10.1567398,6.4524309 10.3824451,6.4524309 Z M29.6175549,6.33309388 C29.8432602,6.33309388 30.1191223,6.40623913 30.4451411,6.55252962 C30.5454545,6.64030392 30.8213166,6.89631228 31.2727273,7.3205547 C31.7241379,7.74479712 32.2633229,8.23487027 32.8902821,8.79077414 C33.5172414,9.346678 34.1755486,9.94646902 34.8652038,10.5901472 L35.3765674,11.064677 C35.8820533,11.5309779 36.369906,11.9725923 36.8401254,12.3895202 C37.4670846,12.9454241 38,13.4281827 38.4388715,13.8377961 C38.8777429,14.2474095 39.1598746,14.5107323 39.2852665,14.6277647 C39.7617555,15.0666362 40,15.5786529 40,16.1638149 C40,16.6612026 39.799373,17.1439612 39.3981191,17.6120907 C38.7460815,18.1387365 38.031348,18.7458421 37.2539185,19.4334074 C36.476489,20.1209727 35.6865204,20.8158525 34.8840125,21.5180469 C34.0815047,22.2202412 33.2915361,22.9078065 32.5141066,23.5807428 C31.7366771,24.253679 31.0344828,24.8534701 30.4075235,25.3801158 C30.0564263,25.5556644 29.7429467,25.6434387 29.4670846,25.6434387 C29.0407524,25.6434387 28.6896552,25.4898337 28.4137931,25.1826237 C28.137931,24.8754136 28,24.4877438 28,24.0196143 C28,23.5514847 28.137931,23.0979842 28.4137931,22.6591127 C28.9153605,22.2202412 29.4984326,21.715539 30.1630094,21.1450061 C30.6060606,20.7646508 31.0518983,20.3777938 31.5005225,19.9844349 L32.1755486,19.3895202 C32.8526646,18.7897292 33.523511,18.2045672 34.1880878,17.6340343 C34.8526646,17.0635014 35.4357367,16.5587992 35.9373041,16.1199277 C35.5109718,15.7103144 34.9717868,15.2129267 34.3197492,14.6277647 C33.830721,14.1888933 33.3275862,13.7335641 32.8103448,13.2617773 L32.2884013,12.7845045 C31.5862069,12.1408264 30.9090909,11.5264063 30.2570533,10.9412444 C29.6050157,10.3560824 29.0658307,9.85869472 28.6394984,9.44908135 C28.3134796,8.98095177 28.1504702,8.49819315 28.1504702,8.00080548 C28.1504702,7.53267591 28.2884013,7.13769159 28.5642633,6.81585251 C28.8401254,6.49401342 29.1912226,6.33309388 29.6175549,6.33309388 Z"/>
</svg>
