<?xml version="1.0" encoding="utf-8"?>
<!-- Generated by IcoMoon.io -->
<!DOCTYPE svg PUBLIC "-//W3C//DTD SVG 1.1//EN" "http://www.w3.org/Graphics/SVG/1.1/DTD/svg11.dtd">
<svg version="1.1" xmlns="http://www.w3.org/2000/svg" xmlns:xlink="http://www.w3.org/1999/xlink" width="40" height="32" viewBox="0 0 40 32">
<path fill="#686868" d="M34.84 29.22q1.16-1.16 1.16-2.82t-1.16-2.84q-1.16-1.16-2.8-1.16h-24.060q-1.66 0-2.82 1.16-1.16 1.18-1.16 2.84t1.16 2.82q1.16 1.18 2.82 1.18h24.060q1.64 0 2.8-1.18zM28.44 28.4v-4h2v4h-2zM34.84 18.42q1.16-1.16 1.16-2.82t-1.16-2.84q-1.16-1.16-2.8-1.16h-24.060q-1.66 0-2.82 1.16-1.16 1.18-1.16 2.84t1.16 2.82q1.16 1.18 2.82 1.18h24.060q1.64 0 2.8-1.18zM28.44 17.6v-4h2v4h-2zM34.84 7.62q1.16-1.16 1.16-2.82t-1.16-2.84q-1.16-1.16-2.8-1.16h-24.060q-1.66 0-2.82 1.16-1.16 1.18-1.16 2.84t1.16 2.82q1.16 1.18 2.82 1.18h24.060q1.64 0 2.8-1.18zM28.44 6.8v-4h2v4h-2z"></path>
</svg>
