<?xml version="1.0" encoding="utf-8"?>
<!-- Generated by IcoMoon.io -->
<!DOCTYPE svg PUBLIC "-//W3C//DTD SVG 1.1//EN" "http://www.w3.org/Graphics/SVG/1.1/DTD/svg11.dtd">
<svg version="1.1" xmlns="http://www.w3.org/2000/svg" xmlns:xlink="http://www.w3.org/1999/xlink" width="40" height="32" viewBox="0 0 40 32">
<path fill="#686868" d="M30 8l-2.38 19.161c-0.116 1.568-1.243 2.839-2.519 2.839h-10.203c-1.275 0-2.403-1.27-2.519-2.839l-2.38-19.161h20zM9 5c0-0.552 0.439-1 1.002-1h19.995c0.554 0 1.002 0.444 1.002 1 0 0.552-0.439 1-1.002 1h-19.995c-0.554 0-1.002-0.444-1.002-1z"></path>
<path fill="#686868" d="M18 3.499c0-0.206 0.391-0.499 1.006-0.499h2.988c0.607 0 1.006 0.299 1.006 0.499v0.503h2v-0.503c0-1.452-1.4-2.499-3.006-2.499h-2.988c-1.615 0-3.006 1.043-3.006 2.499v0.503h2v-0.503z"></path>
</svg>