<?xml version="1.0" encoding="UTF-8"?>
<svg width="40px" height="32px" viewBox="0 0 40 32" version="1.1" xmlns="http://www.w3.org/2000/svg" xmlns:xlink="http://www.w3.org/1999/xlink">
    <!-- Generator: Sketch 47.1 (45422) - http://www.bohemiancoding.com/sketch -->
    <title>dragHandleVertical</title>
    <desc>Created with Sketch.</desc>
    <defs></defs>
    <g id="Symbols" stroke="none" stroke-width="1" fill="none" fill-rule="evenodd">
        <g id="dragHandleVertical" fill="#666666">
            <path d="M9,15 C7.8954305,15 7,14.1045695 7,13 C7,11.8954305 7.8954305,11 9,11 C10.1045695,11 11,11.8954305 11,13 C11,14.1045695 10.1045695,15 9,15 Z M16,15 C14.8954305,15 14,14.1045695 14,13 C14,11.8954305 14.8954305,11 16,11 C17.1045695,11 18,11.8954305 18,13 C18,14.1045695 17.1045695,15 16,15 Z M9,22 C7.8954305,22 7,21.1045695 7,20 C7,18.8954305 7.8954305,18 9,18 C10.1045695,18 11,18.8954305 11,20 C11,21.1045695 10.1045695,22 9,22 Z M16,22 C14.8954305,22 14,21.1045695 14,20 C14,18.8954305 14.8954305,18 16,18 C17.1045695,18 18,18.8954305 18,20 C18,21.1045695 17.1045695,22 16,22 Z M23,15 C21.8954305,15 21,14.1045695 21,13 C21,11.8954305 21.8954305,11 23,11 C24.1045695,11 25,11.8954305 25,13 C25,14.1045695 24.1045695,15 23,15 Z M30,15 C28.8954305,15 28,14.1045695 28,13 C28,11.8954305 28.8954305,11 30,11 C31.1045695,11 32,11.8954305 32,13 C32,14.1045695 31.1045695,15 30,15 Z M23,22 C21.8954305,22 21,21.1045695 21,20 C21,18.8954305 21.8954305,18 23,18 C24.1045695,18 25,18.8954305 25,20 C25,21.1045695 24.1045695,22 23,22 Z M30,22 C28.8954305,22 28,21.1045695 28,20 C28,18.8954305 28.8954305,18 30,18 C31.1045695,18 32,18.8954305 32,20 C32,21.1045695 31.1045695,22 30,22 Z" id="drag-handle-vertical" transform="translate(19.500000, 16.500000) rotate(90.000000) translate(-19.500000, -16.500000) "></path>
        </g>
    </g>
</svg>