<?xml version="1.0" encoding="UTF-8"?>
<svg width="40px" height="32px" viewBox="0 0 40 32" version="1.1" xmlns="http://www.w3.org/2000/svg" xmlns:xlink="http://www.w3.org/1999/xlink">
    <!-- Generator: Sketch 47.1 (45422) - http://www.bohemiancoding.com/sketch -->
    <title>dragHandleHorizontal</title>
    <desc>Created with Sketch.</desc>
    <defs></defs>
    <g id="Symbols" stroke="none" stroke-width="1" fill="none" fill-rule="evenodd">
        <g id="dragHandleHorizontal" fill="#666666">
            <path d="M9,14 C7.8954305,14 7,13.1045695 7,12 C7,10.8954305 7.8954305,10 9,10 C10.1045695,10 11,10.8954305 11,12 C11,13.1045695 10.1045695,14 9,14 Z M16,14 C14.8954305,14 14,13.1045695 14,12 C14,10.8954305 14.8954305,10 16,10 C17.1045695,10 18,10.8954305 18,12 C18,13.1045695 17.1045695,14 16,14 Z M9,21 C7.8954305,21 7,20.1045695 7,19 C7,17.8954305 7.8954305,17 9,17 C10.1045695,17 11,17.8954305 11,19 C11,20.1045695 10.1045695,21 9,21 Z M16,21 C14.8954305,21 14,20.1045695 14,19 C14,17.8954305 14.8954305,17 16,17 C17.1045695,17 18,17.8954305 18,19 C18,20.1045695 17.1045695,21 16,21 Z M23,14 C21.8954305,14 21,13.1045695 21,12 C21,10.8954305 21.8954305,10 23,10 C24.1045695,10 25,10.8954305 25,12 C25,13.1045695 24.1045695,14 23,14 Z M30,14 C28.8954305,14 28,13.1045695 28,12 C28,10.8954305 28.8954305,10 30,10 C31.1045695,10 32,10.8954305 32,12 C32,13.1045695 31.1045695,14 30,14 Z M23,21 C21.8954305,21 21,20.1045695 21,19 C21,17.8954305 21.8954305,17 23,17 C24.1045695,17 25,17.8954305 25,19 C25,20.1045695 24.1045695,21 23,21 Z M30,21 C28.8954305,21 28,20.1045695 28,19 C28,17.8954305 28.8954305,17 30,17 C31.1045695,17 32,17.8954305 32,19 C32,20.1045695 31.1045695,21 30,21 Z" id="drag-handle-horizontal"></path>
        </g>
    </g>
</svg>