<?xml version="1.0" encoding="UTF-8"?>
<svg width="35px" height="31px" viewBox="0 0 35 31" version="1.1" xmlns="http://www.w3.org/2000/svg" xmlns:xlink="http://www.w3.org/1999/xlink">
    <!-- Generator: Sketch 49.3 (51167) - http://www.bohemiancoding.com/sketch -->
    <title>Export1</title>
    <desc>Created with Sketch.</desc>
    <defs></defs>
    <g id="Icon" stroke="none" stroke-width="1" fill="none" fill-rule="evenodd">
        <g id="jrs-icon" transform="translate(-4.000000, 0.000000)" fill="#666666">
            <path d="M11,7 L25,7 L25,10 L11,10 L11,7 Z M11,12 L25,12 L25,15 L11,15 L11,12 Z M11,17 L21,17 L21,20 L11,20 L11,17 Z M11,22 L21,22 L21,25 L11,25 L11,22 Z M30,14 L39,21.924645 L30,30 L30,25.031056 L23,25.031056 L23,19.0683232 L30,19.0683232 L30,14 Z M29,11 C29,11 28.9994213,3.00007558 29,3 C29,3 6.99975053,2.99983808 7,3 C7,3 7.00027189,28 7,28 L26,28 L26,31 L6,31 C6,31 4,31 4,28.7857143 L4,2.21428571 C4,1.10714286 5,-1.42108547e-14 6,0 L30,1.42108547e-14 C31.5772927,1.42108547e-14 32,1.10714286 32,2.21428571 L32,11 L29,11 Z" id="Export1"></path>
        </g>
    </g>
</svg>