<?xml version="1.0" encoding="utf-8"?>
<!-- Generated by IcoMoon.io -->
<!DOCTYPE svg PUBLIC "-//W3C//DTD SVG 1.1//EN" "http://www.w3.org/Graphics/SVG/1.1/DTD/svg11.dtd">
<svg version="1.1" xmlns="http://www.w3.org/2000/svg" xmlns:xlink="http://www.w3.org/1999/xlink" width="40" height="32" viewBox="0 0 40 32">
<path fill="#686868" d="M30 13.9v-1.92h-10v-9.98h-17v27.98l18.834 0.002c-1.337-1.733-2.006-3.752-2.006-6.055 0-2.763 0.974-5.132 2.922-7.106 1.974-1.948 4.342-2.922 7.106-2.922 0.064 0 0.080 0.001 0.144 0.001zM35.666 29.666c1.556-1.556 2.334-3.441 2.334-5.655 0-2.199-0.778-4.092-2.334-5.677-1.526-1.511-3.351-2.289-5.475-2.334h-0.18c-2.214 0-4.099 0.778-5.655 2.334-1.571 1.586-2.356 3.478-2.356 5.677 0 2.124 0.733 3.95 2.199 5.475 0.045 0.075 0.097 0.135 0.157 0.18 1.556 1.556 3.441 2.334 5.655 2.334 2.199 0 4.084-0.778 5.655-2.334v0zM35 23.058v2h-4v3.942h-2l-0.022-3.942h-3.978v-2h3.978v-4.058h2.022v4.058h4zM29 9.98l-7-7v7h7z"></path>
</svg>
