<?xml version="1.0" encoding="utf-8"?>
<!-- Generated by IcoMoon.io -->
<!DOCTYPE svg PUBLIC "-//W3C//DTD SVG 1.1//EN" "http://www.w3.org/Graphics/SVG/1.1/DTD/svg11.dtd">
<svg version="1.1" xmlns="http://www.w3.org/2000/svg" xmlns:xlink="http://www.w3.org/1999/xlink" width="40" height="32" viewBox="0 0 40 32">
<path fill="#686868" d="M21.28 3.1l-2.4 2.36q-1.4-0.96-3.060-1.3v-3.36h-3.68v3.36q-1.72 0.32-3.080 1.26l-2.44-2.38-2.58 2.68 2.34 2.38q-0.92 1.36-1.26 3.060h-3.34v3.72h3.36q0.040 0.1 0.1 0.2 0.28 1.56 1.18 2.86l-2.4 2.46 2.6 2.62 2.46-2.4q1.36 0.88 3.060 1.22v3.44h3.68v-3.48q1.64-0.32 3.040-1.28l2.42 2.5 2.62-2.62-2.44-2.48q0.36-0.48 0.6-1.020v-0.020q0.48-0.94 0.72-2h3.4v-3.72h-3.4q-0.36-1.66-1.28-3.020l2.4-2.44-2.62-2.6zM16.74 10.32q1.060 1.080 1.060 2.68 0 0.86-0.32 1.6-0.020 0-0.020 0.020-0.12 0.26-0.28 0.5h-0.020q-0.18 0.3-0.42 0.52v-0.020q-0.040 0.040-0.080 0.1-0.84 0.86-1.94 1.060-0.36 0.1-0.76 0.1-1.58 0-2.7-1.12-0.32-0.32-0.54-0.64-0.38-0.52-0.48-1.14l-0.080-0.12q-0.080-0.42-0.080-0.86 0-1.6 1.14-2.76 1.16-1.12 2.74-1.12 0.4 0 0.76 0.060h0.020q0.84 0.16 1.5 0.68 0.22 0.2 0.42 0.38 0.040 0.060 0.080 0.1v-0.020zM35.060 16.64l-1.38 1.38q-0.74-0.46-1.58-0.66v-1.94h-2.74v1.94q-0.86 0.2-1.62 0.66l-1.36-1.38-1.88 1.9 1.36 1.4q-0.040 0.040-0.080 0.12v-0.020q-0.4 0.72-0.6 1.52h-1.94v2.7h1.96q0.2 0.86 0.66 1.62l-1.4 1.36 1.94 1.92 1.38-1.4q0.72 0.42 1.58 0.64v2.020h2.74v-2.020q0.84-0.22 1.54-0.66l1.42 1.42 1.9-1.92-1.4-1.38q0.14-0.26 0.3-0.46 0.24-0.58 0.42-1.14h1.96v-2.7h-1.96q-0.22-0.8-0.66-1.54-0.020-0.040-0.060-0.060l1.4-1.42-1.9-1.9zM32.62 21.84q0.28 0.44 0.24 1.060 0 0.48-0.14 0.88-0.1 0.16-0.18 0.3v-0.020q-0.14 0.16-0.26 0.34l-0.040 0.020q-0.66 0.64-1.54 0.64t-1.5-0.6v-0.040q-0.18-0.18-0.3-0.32l-0.020-0.040q-0.18-0.28-0.26-0.62v-0.040q-0.060-0.26-0.060-0.5 0-0.62 0.26-1.080v-0.020q0.14-0.24 0.38-0.46 0.6-0.62 1.5-0.62 0.74 0 1.3 0.42 0.1 0.060 0.26 0.2v0.020q0.18 0.2 0.36 0.44v0.040z"></path>
</svg>
