<?xml version="1.0" encoding="utf-8"?>
<!-- Generated by IcoMoon.io -->
<!DOCTYPE svg PUBLIC "-//W3C//DTD SVG 1.1//EN" "http://www.w3.org/Graphics/SVG/1.1/DTD/svg11.dtd">
<svg version="1.1" xmlns="http://www.w3.org/2000/svg" xmlns:xlink="http://www.w3.org/1999/xlink" width="40" height="32" viewBox="0 0 40 32">
<path fill="#686868" d="M34.86 17.84v-4.48h-4.12q-0.44-2.020-1.54-3.68l2.9-2.94-3.16-3.14-2.9 2.86q-1.7-1.16-3.72-1.58v-4.060h-4.44v4.060q-2.080 0.4-3.72 1.52l-2.96-2.88-3.12 3.24 2.84 2.88q-1.1 1.66-1.52 3.72h-4.040v4.48h4.060q0.060 0.12 0.12 0.24 0.34 1.88 1.42 3.46l-2.9 2.98 3.14 3.16 2.98-2.9q1.64 1.060 3.7 1.46v4.18h4.44v-4.22q2-0.38 3.7-1.54l2.92 3.020 3.16-3.16-2.94-3q0.42-0.6 0.72-1.24v-0.020q0.56-1.14 0.86-2.42h4.12zM23.44 12.34v-0.020q1.28 1.32 1.28 3.24 0 1.060-0.38 1.94-0.020 0-0.020 0.020-0.16 0.32-0.34 0.6h-0.020q-0.22 0.36-0.52 0.64v-0.020q-0.040 0.060-0.080 0.12-1.040 1.040-2.36 1.28-0.42 0.12-0.92 0.12-1.9 0-3.26-1.34-0.4-0.42-0.66-0.8-0.46-0.62-0.58-1.36l-0.080-0.14q-0.1-0.52-0.1-1.060 0-1.92 1.36-3.34 1.42-1.34 3.32-1.34 0.5 0 0.92 0.080h0.020q1.020 0.18 1.82 0.82 0.28 0.24 0.52 0.44 0.040 0.080 0.080 0.12z"></path>
</svg>
