<?xml version="1.0" encoding="utf-8"?>
<!-- Generated by IcoMoon.io -->
<!DOCTYPE svg PUBLIC "-//W3C//DTD SVG 1.1//EN" "http://www.w3.org/Graphics/SVG/1.1/DTD/svg11.dtd">
<svg version="1.1" xmlns="http://www.w3.org/2000/svg" xmlns:xlink="http://www.w3.org/1999/xlink" width="40" height="32" viewBox="0 0 40 32">
<path fill="#686868" d="M37.4 30.38v-29.58h-34.8v29.58h34.8zM35 3.2v6.66h-8.4v-6.66h8.4zM35 12.26v6.66h-8.4v-6.66h8.4zM35 21.32v6.66h-8.4v-6.66h8.4zM24.2 3.2v6.66h-8.4v-6.66h8.4zM24.2 12.26v6.66h-8.4v-6.66h8.4zM13.4 3.2v6.66h-8.4v-6.66h8.4zM5 18.92v-6.66h8.4v6.66h-8.4zM15.8 27.98v-6.66h8.4v6.66h-8.4zM13.4 27.98h-8.4v-6.66h8.4v6.66z"></path>
</svg>
