<?xml version="1.0" encoding="utf-8"?>
<!-- Generated by IcoMoon.io -->
<!DOCTYPE svg PUBLIC "-//W3C//DTD SVG 1.1//EN" "http://www.w3.org/Graphics/SVG/1.1/DTD/svg11.dtd">
<svg version="1.1" xmlns="http://www.w3.org/2000/svg" xmlns:xlink="http://www.w3.org/1999/xlink" width="40" height="32" viewBox="0 0 40 32">
<path fill="#686868" d="M27.412 5.706c0 1.014-0.364 1.885-1.093 2.613s-1.6 1.093-2.613 1.093c-1.014 0-1.885-0.364-2.613-1.093s-1.093-1.6-1.093-2.613c0-1.029 0.364-1.904 1.093-2.625s1.6-1.081 2.613-1.081c1.014 0 1.885 0.36 2.613 1.081s1.093 1.596 1.093 2.625v0zM26.021 24.407c-2.374 3.971-4.362 5.593-7.813 5.593-1.395 0-4.008-0.496-3.583-3.684 0.081-0.608 2.951-8.896 3.134-10.787s-2.632-0.127-3.478 1.085h-0.897c2.301-3.663 4.045-5.633 8.15-5.633 1.245 0 3.954 0.949 3.161 3.895-0.601 2.234-3.931 10.761-2.905 11.332s2.817-1.185 3.376-1.801h0.855z"></path>
</svg>
