<?xml version="1.0" encoding="utf-8"?>
<!-- Generated by IcoMoon.io -->
<!DOCTYPE svg PUBLIC "-//W3C//DTD SVG 1.1//EN" "http://www.w3.org/Graphics/SVG/1.1/DTD/svg11.dtd">
<svg version="1.1" xmlns="http://www.w3.org/2000/svg" xmlns:xlink="http://www.w3.org/1999/xlink" width="40" height="32" viewBox="0 0 40 32">
<path fill="#686868" d="M30.74 5.24q-4.44-4.44-10.74-4.44t-10.76 4.44q-4.44 4.46-4.44 10.76t4.44 10.74q4.46 4.46 10.76 4.46t10.74-4.46q4.46-4.44 4.46-10.74t-4.46-10.76zM19.74 9.38q0-1.040 0.72-1.82 0.78-0.72 1.82-0.72 1.020 0 1.78 0.72 0.74 0.82 0.74 1.82 0 0.96-0.74 1.78-0.82 0.74-1.78 0.74-1 0-1.82-0.74-0.72-0.76-0.72-1.78zM20.78 12.96q0.92 0 1.6 0.58 0.92 0.76 0.54 2.1-0.2 0.78-1.4 4.3-0.98 3.22-0.58 3.46 0.82 0.4 2.32-1.24h0.58q-1.26 2.1-2.38 2.92-1.2 0.88-2.94 0.88-1.060 0-1.68-0.4-0.96-0.66-0.78-2.1 2.020-6.080 2.14-7.38 0.080-0.9-0.92-0.42-0.96 0.42-1.46 1.16h-0.62q1.34-2.080 2.32-2.86 1.3-1 3.26-1z"></path>
</svg>
