<?xml version="1.0" encoding="utf-8"?>
<!-- Generated by IcoMoon.io -->
<!DOCTYPE svg PUBLIC "-//W3C//DTD SVG 1.1//EN" "http://www.w3.org/Graphics/SVG/1.1/DTD/svg11.dtd">
<svg version="1.1" xmlns="http://www.w3.org/2000/svg" xmlns:xlink="http://www.w3.org/1999/xlink" width="40" height="32" viewBox="0 0 40 32">
<path fill="#c5c3c3" d="M6.94 9.2q-2.78 2.76-2.78 6.68 0 3.9 2.78 6.68 2.76 2.76 6.66 2.76 2.44 0 4.44-1.060-3.48-3.48-3.48-8.38 0-4.92 3.46-8.38-1.98-1.080-4.42-1.080-3.9 0-6.66 2.78zM20 8.94q-0.14 0.12-0.26 0.26-2.78 2.76-2.78 6.68 0 3.9 2.78 6.68 0.12 0.12 0.26 0.26 0.14-0.14 0.28-0.26 2.76-2.78 2.76-6.68 0-3.92-2.76-6.68-0.14-0.14-0.28-0.26zM34.96 11.82q-0.68-1.42-1.88-2.62-2.78-2.78-6.68-2.78-2.44 0-4.42 1.080 3.46 3.46 3.46 8.38 0 4.9-3.46 8.38 1.98 1.060 4.42 1.060 3.9 0 6.68-2.76 1.2-1.22 1.88-2.62 0.88-1.86 0.88-4.060 0-2.22-0.88-4.060z"></path>
</svg>
