<?xml version="1.0" encoding="utf-8"?>
<!-- Generated by IcoMoon.io -->
<!DOCTYPE svg PUBLIC "-//W3C//DTD SVG 1.1//EN" "http://www.w3.org/Graphics/SVG/1.1/DTD/svg11.dtd">
<svg version="1.1" xmlns="http://www.w3.org/2000/svg" xmlns:xlink="http://www.w3.org/1999/xlink" width="40" height="32" viewBox="0 0 40 32">
<path fill="#c5c3c3" d="M13.6 6.42q-3.9 0-6.66 2.78-2.78 2.76-2.78 6.68 0 3.9 2.78 6.68 2.76 2.76 6.66 2.76 2.44 0 4.44-1.060-3.48-3.48-3.48-8.38 0-4.92 3.46-8.38-1.98-1.080-4.42-1.080zM20.28 9.2q-0.14-0.14-0.28-0.26-0.14 0.12-0.26 0.26-2.78 2.76-2.78 6.68 0 3.9 2.78 6.68 0.12 0.12 0.26 0.26 0.14-0.14 0.28-0.26 2.76-2.78 2.76-6.68 0-3.92-2.76-6.68z"></path>
</svg>
