<?xml version="1.0" encoding="utf-8"?>
<!-- Generated by IcoMoon.io -->
<!DOCTYPE svg PUBLIC "-//W3C//DTD SVG 1.1//EN" "http://www.w3.org/Graphics/SVG/1.1/DTD/svg11.dtd">
<svg version="1.1" xmlns="http://www.w3.org/2000/svg" xmlns:xlink="http://www.w3.org/1999/xlink" width="40" height="32" viewBox="0 0 40 32">
<path fill="#686868" d="M38.24 15.88q0-4.8-3.28-8.2-0.080-0.080-0.18-0.18-3.48-3.48-8.38-3.48-3.58 0-6.4 1.86-2.82-1.86-6.4-1.86-4.9 0-8.36 3.48-3.48 3.46-3.48 8.38 0 4.9 3.48 8.38 3.46 3.46 8.36 3.46 3.58 0 6.4-1.84 2.82 1.84 6.4 1.84 4.9 0 8.38-3.46 0.1-0.1 0.18-0.18 3.28-3.42 3.28-8.2zM33.080 9.2q1.2 1.2 1.88 2.62 0.88 1.84 0.88 4.060 0 2.2-0.88 4.060-0.68 1.4-1.88 2.62-2.78 2.76-6.68 2.76-2.44 0-4.42-1.060 3.46-3.48 3.46-8.38 0-4.92-3.46-8.38 1.98-1.080 4.42-1.080 3.9 0 6.68 2.78zM20.28 9.2q2.76 2.76 2.76 6.68 0 3.9-2.76 6.68-0.14 0.12-0.28 0.26-0.14-0.14-0.26-0.26-2.78-2.78-2.78-6.68 0-3.92 2.78-6.68 0.12-0.14 0.26-0.26 0.14 0.12 0.28 0.26zM4.16 15.88q0-3.92 2.78-6.68 2.76-2.78 6.66-2.78 2.44 0 4.42 1.080-3.46 3.46-3.46 8.38 0 4.9 3.48 8.38-2 1.060-4.44 1.060-3.9 0-6.66-2.76-2.78-2.78-2.78-6.68z"></path>
</svg>
