
<svg xmlns="http://www.w3.org/2000/svg" version="1.1" xmlns:xlink="http://www.w3.org/1999/xlink" preserveAspectRatio="none" x="0px" y="0px" width="40px" height="32px" viewBox="0 0 40 32">
<defs>
<g id="Layer0_0_FILL">
<path fill="#666666" stroke="none" d="
M 8 4
L 6 4 6 28 34 28 34 26 8 26 8 4
M 33.75 6.15
Q 32.8 5.2 31.45 5.2 30.15 5.2 29.2 6.15 28.25 7.1 28.25 8.4 28.25 9.55 28.95 10.4
L 26.35 14.35
Q 25.9 14.2 25.45 14.2 24.25 14.2 23.3 15.05
L 21.6 14.05 21.65 13.4
Q 21.65 12.1 20.75 11.15 19.8 10.2 18.45 10.2 17.15 10.2 16.2 11.15 15.25 12.1 15.25 13.4 15.25 14.25 15.7 15.05
L 13.35 18.35
Q 13.05 18.25 12.45 18.25 11.15 18.25 10.2 19.15 9.25 20.1 9.25 21.4 9.25 22.75 10.2 23.7 11.15 24.65 12.45 24.65 13.8 24.65 14.75 23.7 15.65 22.75 15.65 21.4 15.65 20.7 15.35 20
L 17.85 16.55 18.45 16.65
Q 19.2 16.65 20.1 16.2
L 22.25 17.5
Q 22.3 18.8 23.2 19.75 24.15 20.65 25.45 20.65 26.8 20.65 27.75 19.7 28.65 18.75 28.65 17.4 28.65 16.65 28.35 16.05
L 31.25 11.6 31.45 11.65
Q 32.8 11.65 33.75 10.7 34.65 9.75 34.65 8.4 34.65 7.1 33.75 6.15
M 30.45 7.4
Q 30.9 7 31.45 7 32.05 7 32.45 7.4 32.85 7.85 32.85 8.4 32.85 9 32.45 9.45 32.05 9.85 31.45 9.85 30.9 9.85 30.45 9.45 30.05 9 30.05 8.4 30.05 7.85 30.45 7.4
M 26.85 17.4
Q 26.85 18 26.45 18.4 26.05 18.8 25.45 18.8 24.9 18.8 24.45 18.4 24.05 18 24.05 17.4 24.05 16.85 24.45 16.4 24.9 16 25.45 16 26.05 16 26.45 16.4 26.85 16.85 26.85 17.4
M 19.45 14.45
Q 19.05 14.85 18.45 14.85 17.9 14.85 17.45 14.45 17.05 14 17.05 13.4 17.05 12.85 17.45 12.4 17.9 12 18.45 12 19.05 12 19.45 12.4 19.85 12.85 19.85 13.4 19.85 14 19.45 14.45
M 13.45 20.4
Q 13.85 20.85 13.85 21.4 13.85 22 13.45 22.4 13.05 22.8 12.45 22.8 11.9 22.8 11.45 22.4 11.05 22 11.05 21.4 11.05 20.85 11.45 20.4 11.9 20 12.45 20 13.05 20 13.45 20.4 Z"/>
</g>
</defs>

<g transform="matrix( 1, 0, 0, 1, 0,0) ">
<use xlink:href="#Layer0_0_FILL"/>
</g>
</svg>
