<?xml version="1.0" encoding="utf-8"?>
<!-- Generated by IcoMoon.io -->
<!DOCTYPE svg PUBLIC "-//W3C//DTD SVG 1.1//EN" "http://www.w3.org/Graphics/SVG/1.1/DTD/svg11.dtd">
<svg version="1.1" xmlns="http://www.w3.org/2000/svg" xmlns:xlink="http://www.w3.org/1999/xlink" width="40" height="32" viewBox="0 0 40 32">
<path fill="#686868" d="M23.42 13.84q-0.080-0.86-0.68-1.36-1.8-1.5-4.24-1.48-2.68 0.020-4.62 1.96l-6 6q-1.94 1.94-2 4.62l0.020 0.060q-0.020 2.7 1.9 4.62 1.9 1.9 4.62 1.86 2.7-0.040 4.64-1.98l6.66-6.64q-1.16 0.44-2.48 0.46l-0.020 0.020q-1.48-0.020-2.78-0.5-0.1-0.060-0.22-0.14l-3.98 3.98q-0.8 0.8-1.86 0.8-1.060 0.020-1.76-0.68-0.74-0.74-0.74-1.76v-0.040q0.040-1.080 0.82-1.86l6-6q0.76-0.74 1.84-0.8h0.040q0.88 0 1.56 0.54 0.62 0.54 1.44 0.46 0.84-0.080 1.38-0.7 0.48-0.62 0.46-1.44zM34.14 8.4l-0.020-0.020q0.080-2.7-1.82-4.62-1.92-1.92-4.68-1.86-2.68 0.020-4.62 1.94l-6.34 6.34q-0.14 0.14-0.22 0.28 0.92-0.34 2-0.4 0.18 0 0.38-0.040 1.48-0.020 2.78 0.52 0.14 0.040 0.26 0.080l3.96-3.94q0.78-0.78 1.82-0.8h0.040q1.040 0 1.76 0.72t0.7 1.72v0.040q0 1.060-0.78 1.84l-6 6q-0.8 0.8-1.88 0.8-0.72 0.040-1.28-0.32-0.72-0.42-1.52-0.24-0.82 0.2-1.24 0.92-0.44 0.68-0.22 1.48 0.16 0.82 0.88 1.24 1.52 0.98 3.44 0.94 2.72-0.080 4.64-1.98l6-6.020q1.92-1.9 1.96-4.62z"></path>
</svg>
