<?xml version="1.0" encoding="UTF-8"?>
<svg width="40px" height="32px" viewBox="0 0 40 32" version="1.1" xmlns="http://www.w3.org/2000/svg" xmlns:xlink="http://www.w3.org/1999/xlink">
    <!-- Generator: Sketch 47.1 (45422) - http://www.bohemiancoding.com/sketch -->
    <title>icon</title>
    <desc>Created with Sketch.</desc>
    <defs></defs>
    <g id="Page-1" stroke="none" stroke-width="1" fill="none" fill-rule="evenodd">
        <g id="icon" fill="#686868">
            <path d="M20,11 C18.3431458,11 17,9.65685425 17,8 C17,6.34314575 18.3431458,5 20,5 C21.6568542,5 23,6.34314575 23,8 C23,9.65685425 21.6568542,11 20,11 Z M20,19 C18.3431458,19 17,17.6568542 17,16 C17,14.3431458 18.3431458,13 20,13 C21.6568542,13 23,14.3431458 23,16 C23,17.6568542 21.6568542,19 20,19 Z M20,27 C18.3431458,27 17,25.6568542 17,24 C17,22.3431458 18.3431458,21 20,21 C21.6568542,21 23,22.3431458 23,24 C23,25.6568542 21.6568542,27 20,27 Z" id="meatball" transform="translate(20.000000, 16.000000) rotate(90.000000) translate(-20.000000, -16.000000) "></path>
        </g>
    </g>
</svg>