<?xml version="1.0" encoding="UTF-8"?>
<svg width="40px" height="32px" viewBox="0 0 40 32" version="1.1" xmlns="http://www.w3.org/2000/svg" xmlns:xlink="http://www.w3.org/1999/xlink">
    <!-- Generator: Sketch 43.2 (39069) - http://www.bohemiancoding.com/sketch -->
    <title>icon</title>
    <desc>Created with Sketch.</desc>
    <defs></defs>
    <g id="Page-1" stroke="none" stroke-width="1" fill="none" fill-rule="evenodd">
        <g id="icon" fill-rule="nonzero" fill="#686868">
            <path d="M4,2 L36,2 L36,24 L20,24 L11,32 L11,24 L4,24 L4,2 Z M19.2396014,22 L34,22 L34,4 L6,4 L6,22 L13,22 L13,27.5463123 L19.2396014,22 Z M11,8 L29,8 L29,10 L11,10 L11,8 Z M11,12 L29,12 L29,14 L11,14 L11,12 Z M11,16 L29,16 L29,18 L11,18 L11,16 Z" id="Combined-Shape"></path>
        </g>
    </g>
</svg>