<?xml version="1.0" encoding="utf-8"?>
<!-- Generated by IcoMoon.io -->
<!DOCTYPE svg PUBLIC "-//W3C//DTD SVG 1.1//EN" "http://www.w3.org/Graphics/SVG/1.1/DTD/svg11.dtd">
<svg version="1.1" xmlns="http://www.w3.org/2000/svg" xmlns:xlink="http://www.w3.org/1999/xlink" width="40" height="32" viewBox="0 0 40 32">
<path fill="#686868" d="M5.957 17.579l1.609-4.534h0.035l1.557 4.534h-3.201zM6.217 10l-4.672 12.355h2.734l0.969-2.751h4.62l0.934 2.751h2.821l-4.62-12.355h-2.786zM14.696 10v12.355h2.544v-8.271l5.174 8.271h2.717v-12.355h-2.544v8.289l-5.191-8.289h-2.699zM30.236 20.071v-7.787h1.938c0.669 0 1.231 0.095 1.687 0.286s0.822 0.464 1.099 0.822c0.277 0.358 0.476 0.787 0.597 1.289s0.182 1.064 0.182 1.687c0 0.681-0.087 1.257-0.26 1.73s-0.404 0.857-0.692 1.151c-0.288 0.294-0.617 0.505-0.986 0.632s-0.75 0.19-1.142 0.19h-2.423zM27.519 10v12.355h5.33c0.946 0 5.403-0.323 5.607-6.247 0.035-1.026-0.455-6.108-5.607-6.108h-5.33z"></path>
</svg>
