<?xml version="1.0" encoding="utf-8"?>
<!-- Generated by IcoMoon.io -->
<!DOCTYPE svg PUBLIC "-//W3C//DTD SVG 1.1//EN" "http://www.w3.org/Graphics/SVG/1.1/DTD/svg11.dtd">
<svg version="1.1" xmlns="http://www.w3.org/2000/svg" xmlns:xlink="http://www.w3.org/1999/xlink" width="40" height="32" viewBox="0 0 40 32">
<path fill="#686868" d="M25.532 20.532c1.219-1.202 1.828-2.652 1.828-4.352s-0.609-3.159-1.828-4.378c-1.202-1.202-2.652-1.803-4.352-1.803s-3.159 0.601-4.378 1.803c-1.202 1.219-1.803 2.678-1.803 4.378s0.601 3.15 1.803 4.352c1.219 1.219 2.678 1.828 4.378 1.828s3.15-0.609 4.352-1.828zM24.785 16.18c0 0.979-0.352 1.82-1.056 2.523-0.704 0.721-1.554 1.081-2.549 1.081-0.979 0-1.828-0.36-2.549-1.081-0.704-0.704-1.056-1.545-1.056-2.523 0-0.996 0.352-1.854 1.056-2.575 0.721-0.687 1.571-1.030 2.549-1.030 0.996 0 1.845 0.343 2.549 1.030 0.704 0.721 1.056 1.579 1.056 2.575zM30.841 12.285v10.075h2.598v-10.075h3.541v-2.285h-9.68v2.285h3.541zM3 10v12.36h2.545v-8.275l5.176 8.275h2.718v-12.36h-2.545v8.292l-5.193-8.292h-2.7z"></path>
</svg>
