<?xml version="1.0" encoding="utf-8"?>
<!-- Generated by IcoMoon.io -->
<!DOCTYPE svg PUBLIC "-//W3C//DTD SVG 1.1//EN" "http://www.w3.org/Graphics/SVG/1.1/DTD/svg11.dtd">
<svg version="1.1" xmlns="http://www.w3.org/2000/svg" xmlns:xlink="http://www.w3.org/1999/xlink" width="40" height="32" viewBox="0 0 40 32">
<path fill="#686868" d="M27 3h3.009l-17 25h-3.009z"></path>
<path fill="#686868" d="M16.462 8.5c0-1.636-1.326-2.962-2.962-2.962s-2.962 1.326-2.962 2.962c0 1.636 1.326 2.962 2.962 2.962s2.962-1.326 2.962-2.962zM8 8.5c0-3.038 2.462-5.5 5.5-5.5s5.5 2.462 5.5 5.5c0 3.038-2.462 5.5-5.5 5.5s-5.5-2.462-5.5-5.5z"></path>
<path fill="#686868" d="M30.462 22.5c0-1.636-1.326-2.962-2.962-2.962s-2.962 1.326-2.962 2.962c0 1.636 1.326 2.962 2.962 2.962s2.962-1.326 2.962-2.962zM22 22.5c0-3.038 2.462-5.5 5.5-5.5s5.5 2.462 5.5 5.5c0 3.038-2.462 5.5-5.5 5.5s-5.5-2.462-5.5-5.5z"></path>
</svg>
