<?xml version="1.0" encoding="utf-8"?>
<!-- Generated by IcoMoon.io -->
<!DOCTYPE svg PUBLIC "-//W3C//DTD SVG 1.1//EN" "http://www.w3.org/Graphics/SVG/1.1/DTD/svg11.dtd">
<svg version="1.1" xmlns="http://www.w3.org/2000/svg" xmlns:xlink="http://www.w3.org/1999/xlink" width="40" height="32" viewBox="0 0 40 32">
<path fill="#686868" d="M1.18 22.4v8h21.66q-1.86-0.9-3.44-2.48-2.4-2.42-3.22-5.52h-15zM9.98 24.84v1.82h-2.8v-1.82h2.8zM3.32 24.84h2.8v1.82h-2.8v-1.82zM1.18 11.6v8h14.6q-0.020-0.28-0.020-0.56 0-4.24 2.38-7.44h-16.96zM7.18 15.82v-1.82h2.8v1.82h-2.8zM6.12 14v1.82h-2.8v-1.82h2.8zM38.84 19.040q0-4.4-3.040-7.48v-0.020q-2.080-2.060-4.72-2.74-1.32-0.34-2.78-0.34t-2.76 0.34q-2.66 0.68-4.72 2.76v-0.020q-0.040 0.020-0.060 0.060-3 3.080-3 7.44 0 0.28 0.020 0.56 0.060 1.48 0.5 2.8 0.72 2.28 2.54 4.1 3.1 3.1 7.48 3.1 2.92 0 5.28-1.38 1.18-0.7 2.22-1.72 3.040-3.080 3.040-7.46zM32.64 15.76q0.2 0.46 0.2 1.16 0 0.62-0.2 1.22 0 0.12-0.1 0.28l-0.040 0.020q-0.1 0.34-0.34 0.66-0.020 0.020-0.1 0.14-0.12 0.12-0.3 0.34l-0.020 0.020-1.76 1.34q-0.38 0.28-0.5 0.54l-0.020 0.52-0.020 0.4-0.060 1.22h-1.86v-2.28q0-0.28 0.14-0.66l0.18-0.36q0.14-0.28 0.7-0.72 0.020-0.020 0.060-0.060 0.1-0.12 0.34-0.28l0.040-0.020q0.46-0.26 0.78-0.78l0.060-0.040q0.18-0.28 0.26-0.46 0.22-0.36 0.22-0.9 0-0.2-0.040-0.3-0.060-0.58-0.5-1.1-0.66-0.52-1.34-0.52-1.6 0-2.080 1.62-0.14 0.24-0.32 1.1l-2.040-0.32 0.020-0.080 0.1-0.7q0.3-1.36 1.36-2.48 1.46-1.16 3.14-1.16 1.84 0 3 1.1l0.060 0.020 0.020 0.020 0.34 0.4q0.36 0.32 0.62 1.1zM27.28 24.72h2.44v2.080h-2.44v-2.080zM33.58 7.58v-6.78h-32.4v8h19.78q3.18-2.34 7.34-2.34 2.88 0 5.28 1.12zM9.98 3.24v1.82h-2.8v-1.82h2.8zM3.32 3.24h2.8v1.82h-2.8v-1.82z"></path>
</svg>
