<?xml version="1.0" encoding="utf-8"?>
<!-- Generated by IcoMoon.io -->
<!DOCTYPE svg PUBLIC "-//W3C//DTD SVG 1.1//EN" "http://www.w3.org/Graphics/SVG/1.1/DTD/svg11.dtd">
<svg version="1.1" xmlns="http://www.w3.org/2000/svg" xmlns:xlink="http://www.w3.org/1999/xlink" width="40" height="32" viewBox="0 0 40 32">
<path fill="#686868" d="M18.56 0.54v3.18q-4.86 0.12-8.32 3.62v-0.020q-3.6 3.58-3.6 8.72 0 4.26 2.56 7.46l3.58-2.8q-1.56-2.020-1.56-4.66 0-3.22 2.24-5.5 2.14-2.12 5.1-2.22v5.14l9.6-6.32-9.6-6.6zM27.8 11.84q1.040 1.74 1.020 3.96 0 3.18-2.26 5.42v0.020q-1.72 1.76-4 2.18v-4.76l-9.6 6.28 9.6 6.54v-3.44q4.16-0.5 7.24-3.58 0.020 0 0.020-0.020 3.56-3.58 3.56-8.64-0.020-3.54-1.7-6.32l-3.88 2.36z"></path>
</svg>
