<?xml version="1.0" encoding="utf-8"?>
<!-- Generated by IcoMoon.io -->
<!DOCTYPE svg PUBLIC "-//W3C//DTD SVG 1.1//EN" "http://www.w3.org/Graphics/SVG/1.1/DTD/svg11.dtd">
<svg version="1.1" xmlns="http://www.w3.org/2000/svg" xmlns:xlink="http://www.w3.org/1999/xlink" width="40" height="32" viewBox="0 0 40 32">
<path fill="#686868" d="M25.080 16q0.84-1.92 0.84-4.2 0-4.42-3.12-7.52-3.12-3.080-7.48-3.080-4.4 0-7.48 3.1-3.12 3.1-3.12 7.5 0 4.38 3.1 7.48h0.020q3.080 3.1 7.48 3.1 3.72 0 6.52-2.26l9.78 9.78 3.68-3.68-10.22-10.22zM20.26 6.84q2.060 2.060 2.060 4.96 0 2.88-2.060 4.92v0.020q-2.060 2.040-4.94 2.040-2.9 0-4.94-2.040v-0.020q-2.060-2.040-2.060-4.92 0-2.92 2.060-4.96 2.020-2.040 4.94-2.040 2.88 0 4.94 2.040z"></path>
</svg>
