<?xml version="1.0" encoding="UTF-8"?>
<svg width="40px" height="32px" viewBox="0 0 40 32" version="1.1" xmlns="http://www.w3.org/2000/svg" xmlns:xlink="http://www.w3.org/1999/xlink">
    <!-- Generator: Sketch 47.1 (45422) - http://www.bohemiancoding.com/sketch -->
    <title>table</title>
    <desc>Created with Sketch.</desc>
    <defs></defs>
    <g id="Symbols" stroke="none" stroke-width="1" fill="none" fill-rule="evenodd">
        <g id="table" fill="#666666">
            <path d="M9,26 L15,26 L15,22 L9,22 L9,26 L9,26 Z M7,28 L7,10 L9,10 L9,14 L15,14 L15,10 L17,10 L17,14 L23,14 L23,10 L25,10 L25,14 L31,14 L31,10 L33,10 L33,28 L7,28 Z M31,26 L31,22 L25,22 L25,26 L31,26 L31,26 Z M23,26 L23,22 L17,22 L17,26 L23,26 L23,26 Z M9,20 L15,20 L15,16 L9,16 L9,20 Z M17,20 L23,20 L23,16 L17,16 L17,20 Z M25,20 L31,20 L31,16 L25,16 L25,20 L25,20 Z M7,4 L33,4 L33,10 L7,10 L7,4 Z"></path>
        </g>
    </g>
</svg>