<?xml version="1.0" encoding="utf-8"?>
<!-- Generated by IcoMoon.io -->
<!DOCTYPE svg PUBLIC "-//W3C//DTD SVG 1.1//EN" "http://www.w3.org/Graphics/SVG/1.1/DTD/svg11.dtd">
<svg version="1.1" xmlns="http://www.w3.org/2000/svg" xmlns:xlink="http://www.w3.org/1999/xlink" width="40" height="32" viewBox="0 0 40 32">
<path fill="#686868" d="M16.559 27.616l0.143 0.020c0.842 0.041 1.467 0.061 1.875 0.061 2.445 0 4.225-0.445 5.339-1.335s1.671-2.32 1.671-4.29c0-1.78-0.523-3.108-1.569-3.984s-2.615-1.314-4.707-1.314c-0.611 0-1.121 0.007-1.528 0.020s-0.815 0.034-1.223 0.061v10.76zM16.579 14.431c0.109 0.014 0.245 0.024 0.408 0.031s0.401 0.010 0.713 0.010c2.174 0 3.773-0.438 4.799-1.314s1.539-2.245 1.539-4.106c0-1.63-0.476-2.839-1.427-3.627s-2.411-1.182-4.381-1.182c-0.326 0-0.842 0.027-1.549 0.082h-0.122l0.020 10.108zM8 2h12.533c3.070 0 5.38 0.547 6.929 1.64s2.323 2.727 2.323 4.901c0 1.644-0.503 3.019-1.508 4.127s-2.486 1.919-4.442 2.435c2.391 0.041 4.252 0.652 5.584 1.834s1.997 2.812 1.997 4.891c0 2.636-0.903 4.656-2.71 6.063s-4.409 2.109-7.805 2.109h-12.9v-2.038l2.466-0.224 0.672-0.652v-22.253l-0.672-0.591-2.466-0.204v-2.038z"></path>
</svg>
