<?xml version="1.0" encoding="UTF-8"?>
<svg width="40px" height="32px" viewBox="0 0 40 32" version="1.1" xmlns="http://www.w3.org/2000/svg" xmlns:xlink="http://www.w3.org/1999/xlink">
    <title>jrs-icon-edit-text</title>
    <g id="jrs-icon-edit-text" stroke="none" stroke-width="1" fill="none" fill-rule="evenodd">
        <path d="M16.254,4 L18.959,15.072 L25.73,15.072 L23.904,12.67 L24.1218519,12.4120617 C24.7195802,11.7415761 25.4516296,11.2098889 26.318,10.817 C27.2926667,10.375 28.256,10.154 29.208,10.154 C30.2733333,10.154 31.1743333,10.324 31.911,10.664 C32.6476667,11.004 33.2426667,11.497 33.696,12.143 C34.1493333,12.789 34.4723333,13.588 34.665,14.54 C34.7000011,14.7129467 34.731823,14.8900077 34.7604655,15.071183 L38,15.072 L38,18.072 L34.953,18.072 L34.954,28.072 L31.758,28.072 L31.758,25.488 L31.69,25.488 L31.6169421,25.742438 C31.3565565,26.5732369 30.9275758,27.2307576 30.33,27.715 C29.6726667,28.2476667 28.8,28.514 27.712,28.514 C27.2133333,28.514 26.7033333,28.4233333 26.182,28.242 C25.6606667,28.0606667 25.1903333,27.7603333 24.771,27.341 C24.3516667,26.9216667 24.006,26.3776667 23.734,25.709 C23.462,25.0403333 23.326,24.23 23.326,23.278 C23.326,22.054 23.547,21.051 23.989,20.269 C24.431,19.487 24.9976667,18.8693333 25.689,18.416 C25.8807953,18.2902326 26.0786965,18.1753688 26.2827038,18.0714085 L19.692,18.072 L22.136,28.072 L17.886,28.072 L16.696,22.972 L10.372,22.972 L9.148,28.072 L5.068,28.072 L7.553,18.072 L2,18.072 L2,15.072 L8.299,15.072 L11.052,4 L16.254,4 Z M31.554,19.946 L30.432,19.946 L30.0781875,19.9534375 C29.7275625,19.9683125 29.3865,20.0055 29.055,20.065 C28.613,20.1443333 28.222,20.2973333 27.882,20.524 C27.542,20.7506667 27.27,21.0623333 27.066,21.459 C26.862,21.8556667 26.76,22.36 26.76,22.972 C26.76,23.8786667 26.9583333,24.5473333 27.355,24.978 C27.7516667,25.4086667 28.2106667,25.624 28.732,25.624 C29.2533333,25.624 29.6953333,25.4766667 30.058,25.182 C30.4206667,24.8873333 30.7096667,24.5133333 30.925,24.06 C31.1403333,23.6066667 31.299,23.1023333 31.401,22.547 C31.503,21.9916667 31.554,21.4533333 31.554,20.932 L31.554,20.932 L31.554,19.946 Z M15.821,18.072 L11.255,18.072 L10.882,19.776 L16.186,19.776 L15.821,18.072 Z M13.636,7.842 L13.5,7.842 L11.913,15.072 L15.18,15.072 L13.636,7.842 Z M28.902,13.418 C28.2446667,13.418 27.6496667,13.571 27.117,13.877 C26.5843333,14.183 26.1253333,14.5853333 25.74,15.084 L25.749,15.072 L31.2425076,15.0719621 C31.147018,14.7714001 31.0188843,14.5162215 30.8581065,14.306426 L30.755,14.183 C30.2903333,13.673 29.6726667,13.418 28.902,13.418 Z" id="textStrikethrough" fill="#686868" fill-rule="nonzero"></path>
    </g>
</svg>