<?xml version="1.0" encoding="utf-8"?>
<!-- Generated by IcoMoon.io -->
<!DOCTYPE svg PUBLIC "-//W3C//DTD SVG 1.1//EN" "http://www.w3.org/Graphics/SVG/1.1/DTD/svg11.dtd">
<svg version="1.1" xmlns="http://www.w3.org/2000/svg" xmlns:xlink="http://www.w3.org/1999/xlink" width="40" height="32" viewBox="0 0 40 32">
<path fill="#686868" d="M8 2h10.049v2.719l-2.17 0.172-0.496 0.497v11.296c0 2.345 0.444 4.020 1.333 5.026s2.347 1.51 4.375 1.51c1.869 0 3.221-0.535 4.059-1.604s1.256-2.822 1.256-5.258v-10.833l-0.53-0.6-2.239-0.206v-2.719h7.947v2.719l-2.136 0.206-0.479 0.6v11.193c0 3.259-0.729 5.621-2.188 7.085s-3.811 2.196-7.058 2.196c-1.698 0-3.187-0.249-4.469-0.746s-2.287-1.209-3.016-2.136c-0.558-0.732-0.954-1.57-1.188-2.513s-0.35-2.296-0.35-4.057v-11.159l-0.496-0.497-2.205-0.172v-2.719zM8 28.25h24.5v1.75h-24.5v-1.75z"></path>
</svg>
