<?xml version="1.0" encoding="utf-8"?>
<!-- Generated by IcoMoon.io -->
<!DOCTYPE svg PUBLIC "-//W3C//DTD SVG 1.1//EN" "http://www.w3.org/Graphics/SVG/1.1/DTD/svg11.dtd">
<svg version="1.1" xmlns="http://www.w3.org/2000/svg" xmlns:xlink="http://www.w3.org/1999/xlink" width="40" height="32" viewBox="0 0 40 32">
<path fill="#686868" d="M26.68 27.82l1.58-0.94-5.22-7.14-0.060 0.060 3.7 8.020zM16.060 13.14l0.020-0.060-7.88-4.34-0.74 1.7 8.6 2.7zM16.56 12.52l0.060-0.060-7.42-7.74-1.46 1.74 8.82 6.060zM23.54 19.14l-0.060 0.060 7.42 7.74 1.46-1.74-8.82-6.060zM17.060 11.92l0.060-0.060-3.7-8.020-1.58 0.94 5.22 7.14zM24.040 18.52l-0.020 0.060 7.88 4.34 0.74-1.7-8.6-2.7zM33.1 12.18q1.88-1.88 1.92-4.56v-0.040q0.020-2.66-1.84-4.6-1.94-1.94-4.68-1.88-2.66 0.060-4.58 1.9-0.020 0.020-0.080 0.040l-3.34 3.38q-1.94 1.94-1.98 4.62-0.020 2.78 1.9 4.7 1.9 1.9 4.62 1.82l0.020 0.020q2.7-0.020 4.62-1.94l3.42-3.46zM28.56 5.080q1.040 0.040 1.76 0.72 0.72 0.76 0.72 1.72l-0.020 0.020q0 1.040-0.76 1.8l-3.42 3.46q-0.74 0.78-1.84 0.76l-0.020 0.020q-0.98 0.020-1.72-0.72-0.7-0.7-0.72-1.76 0-1 0.8-1.84l3.36-3.36q0.020-0.060 0.060-0.060 0.76-0.76 1.78-0.74l0.020-0.020zM10.28 16.56q-0.020 0.020-0.080 0.040l-3.34 3.38q-1.96 1.96-2 4.64-0.020 2.78 1.9 4.7 1.9 1.9 4.62 1.82l0.020 0.020q2.7-0.020 4.64-1.96l3.4-3.44q1.9-1.9 1.92-4.56l0.020-0.060q0.020-2.66-1.86-4.58-1.94-1.94-4.66-1.9-2.66 0.060-4.58 1.9zM14.88 18.68l0.040-0.040q1.040 0.040 1.76 0.72 0.72 0.76 0.7 1.74 0 1.040-0.78 1.82l-3.4 3.44q-0.74 0.78-1.86 0.78-1 0.040-1.74-0.7-0.68-0.72-0.72-1.76 0.020-1.020 0.8-1.84l3.38-3.38q0.020-0.060 0.040-0.040 0.78-0.78 1.78-0.74z"></path>
</svg>
