<?xml version="1.0" encoding="utf-8"?>
<!-- Generated by IcoMoon.io -->
<!DOCTYPE svg PUBLIC "-//W3C//DTD SVG 1.1//EN" "http://www.w3.org/Graphics/SVG/1.1/DTD/svg11.dtd">
<svg version="1.1" xmlns="http://www.w3.org/2000/svg" xmlns:xlink="http://www.w3.org/1999/xlink" width="40" height="32" viewBox="0 0 40 32">
<path fill="#686868" d="M39.38 16.020q-1.76-4-6.96-8.86-4.94-4.74-12.42-5.4-7.48 0.66-12.42 5.4-5.2 4.86-6.98 8.86 1.78 3.96 6.98 8.82 4.94 4.74 12.42 5.42 7.48-0.68 12.42-5.42 5.2-4.86 6.96-8.82zM28.28 16.020q0 0.85-0.14 1.64-0.465 2.365-2.28 4.18-2.44 2.46-5.86 2.46-3.44 0-5.88-2.46-1.8-1.815-2.26-4.18-0.14-0.79-0.14-1.64 0-0.865 0.14-1.68 0.46-2.385 2.26-4.2 2.44-2.42 5.88-2.42 3.42 0 5.86 2.42 1.815 1.815 2.28 4.2 0.14 0.815 0.14 1.68zM22.46 18.46q1-1 1-2.44 0-1.46-1-2.48t-2.46-1.020-2.44 1.020q-1.020 1.020-1.020 2.48 0 1.44 1.020 2.44 0.98 1.020 2.44 1.020t2.46-1.020z"></path>
</svg>
