
<svg xmlns="http://www.w3.org/2000/svg" version="1.1" xmlns:xlink="http://www.w3.org/1999/xlink" preserveAspectRatio="none" x="0px" y="0px" width="40px" height="32px" viewBox="0 0 40 32">
<defs>
<g id="Layer0_0_FILL">
<path fill="#000000" stroke="none" d="
M 32.8 10.6
Q 33.2 9.15 32.8 7.7
L 29.55 10.9 26.4 10.05 25.55 6.9 28.75 3.65
Q 27.3 3.25 25.85 3.65 24.35 4.05 23.25 5.15 22.15 6.25 21.75 7.8 21.35 9.25 21.75 10.7
L 8.35 24.1
Q 7.55 24.9 7.55 26.05 7.55 27.15 8.35 27.95 9.2 28.7 10.25 28.7 11.4 28.7 12.15 27.95
L 25.5 14.6
Q 27 15.1 28.55 14.75 30.15 14.4 31.3 13.2 32.4 12.1 32.8 10.6
M 11.05 26.45
Q 11.05 26.85 10.75 27.15 10.45 27.45 10.05 27.45 9.6 27.45 9.3 27.15 9 26.85 9 26.45 9 26 9.3 25.7 9.6 25.4 10.05 25.4 10.45 25.4 10.75 25.7 11.05 26 11.05 26.45 Z"/>
</g>
</defs>

<g transform="matrix( 1, 0, 0, 1, 0,0) ">
<use xlink:href="#Layer0_0_FILL"/>
</g>
</svg>
