<?xml version="1.0" encoding="UTF-8"?>
<svg width="41px" height="20px" viewBox="0 0 41 20" version="1.1" xmlns="http://www.w3.org/2000/svg" xmlns:xlink="http://www.w3.org/1999/xlink">
    <title>alert/beta_fill</title>
    <g id="alert/beta_fill" stroke="none" stroke-width="1" fill="none" fill-rule="evenodd">
        <rect id="Rectangle" fill="#EE6520" x="0" y="0" width="41" height="20" rx="10"></rect>
        <path d="M10.903137,14.0563332 C11.2608696,14.0563332 11.5853513,14.0345482 11.8765823,13.9909782 C12.1678132,13.9474082 12.4418455,13.8797601 12.6986791,13.7880338 C12.9555127,13.6963075 13.1905614,13.5793565 13.403825,13.4371807 C13.6170886,13.295005 13.8005412,13.1253114 13.9541827,12.9280998 C14.1078243,12.7308883 14.228215,12.5038658 14.315355,12.2470322 C14.402495,11.9901985 14.4460649,11.7035539 14.4460649,11.3870982 C14.4460649,11.0844014 14.4002018,10.8115157 14.3084755,10.5684411 C14.2167492,10.3253664 14.0917722,10.1132494 13.9335443,9.93208994 C13.7753165,9.75093052 13.5895707,9.60302188 13.3763071,9.48836402 C13.1630435,9.37370616 12.930288,9.29344566 12.6780407,9.24758251 C12.8752522,9.17420148 13.0506788,9.07788888 13.2043203,8.9586447 C13.3579618,8.83940053 13.4875252,8.70181109 13.5930105,8.5458764 C13.6984957,8.38994171 13.7787562,8.21680834 13.833792,8.02647629 C13.8888277,7.83614424 13.9163456,7.63319983 13.9163456,7.41764305 C13.9163456,7.03239264 13.8475509,6.69759168 13.7099615,6.41324019 C13.572372,6.12888869 13.3740139,5.89384008 13.1148872,5.70809434 C12.8557604,5.52234861 12.5370116,5.3836126 12.1586406,5.29188631 C11.7802697,5.20016002 11.3181985,5.15429688 10.7724271,5.15429688 L10.7724271,5.15429688 L8.53659879,5.15429688 C8.38525041,5.15429688 8.25798019,5.19901344 8.15478811,5.28844657 C8.05159604,5.3778797 8,5.52349519 8,5.72529302 L8,5.72529302 L8,13.4853371 C8,13.6871349 8.05159604,13.8327504 8.15478811,13.9221835 C8.25798019,14.0116166 8.38525041,14.0563332 8.53659879,14.0563332 L8.53659879,14.0563332 L10.903137,14.0563332 Z M10.786186,8.82105527 L9.77490369,8.82105527 L9.77490369,6.50955279 L10.6898734,6.50955279 C10.9696386,6.50955279 11.1932214,6.53477752 11.3606219,6.58522698 C11.5280224,6.63567644 11.6667584,6.70791089 11.7768299,6.80193034 C11.8869015,6.89594978 11.9694551,7.01404738 12.0244909,7.15622313 C12.0795267,7.29839887 12.1070446,7.45891988 12.1070446,7.63778614 C12.1070446,7.79830715 12.0818198,7.9508021 12.0313704,8.09527101 C11.9809209,8.23973991 11.9041002,8.36586356 11.8009081,8.47364195 C11.697716,8.58142034 11.5681526,8.66626716 11.4122179,8.7281824 C11.2562833,8.79009765 11.0476059,8.82105527 10.786186,8.82105527 L10.786186,8.82105527 Z M11.0820033,12.6735594 L9.77490369,12.6735594 L9.77490369,10.1419138 L10.8481013,10.1419138 C11.1783159,10.1419138 11.4466153,10.1717249 11.6529994,10.231347 C11.8593836,10.290969 12.0290772,10.3758159 12.1620804,10.4858874 C12.2950835,10.595959 12.3959824,10.7324018 12.4647771,10.895216 C12.5335718,11.0580301 12.5679692,11.2426293 12.5679692,11.4490134 C12.5679692,11.646225 12.5324252,11.8216515 12.4613374,11.975293 C12.3902495,12.1289346 12.2916437,12.2573514 12.1655201,12.3605434 C12.0393964,12.4637355 11.8903412,12.5417029 11.7183544,12.5944455 C11.5463676,12.6471881 11.3342506,12.6735594 11.0820033,12.6735594 L11.0820033,12.6735594 Z M18.7182168,14.214561 C19.0209136,14.214561 19.3052651,14.1950692 19.5712713,14.1560855 C19.8372776,14.1171019 20.0734728,14.0712387 20.2798569,14.0184961 C20.4862411,13.9657535 20.6559347,13.9118643 20.7889378,13.8568285 C20.9219409,13.8017927 21.003348,13.7582228 21.0331591,13.7261186 C21.0629701,13.6940144 21.0870482,13.6607636 21.1053935,13.6263662 C21.1237388,13.5919689 21.1374977,13.5495455 21.1466703,13.499096 C21.155843,13.4486465 21.1627224,13.3878779 21.1673088,13.31679 C21.1718951,13.2457021 21.1741882,13.1597087 21.1741882,13.0588098 C21.1741882,12.9441519 21.1707485,12.8489859 21.163869,12.7733117 C21.1569895,12.6976375 21.1443772,12.639162 21.1260319,12.5978852 C21.1076867,12.5566084 21.0847551,12.5279439 21.0572372,12.5118918 C21.0297193,12.4958397 20.995322,12.4878137 20.9540451,12.4878137 C20.8852504,12.4878137 20.7958173,12.5095987 20.6857457,12.5531686 C20.5756742,12.5967386 20.4369382,12.6448949 20.2695377,12.6976375 C20.1021372,12.7503802 19.9037791,12.7985365 19.6744634,12.8421065 C19.4451477,12.8856764 19.1791414,12.9074614 18.8764447,12.9074614 C18.5783343,12.9074614 18.3226472,12.8684778 18.1093836,12.7905104 C17.89612,12.7125431 17.72184,12.5990318 17.5865438,12.4499766 C17.4512475,12.3009213 17.3526417,12.1197619 17.2907265,11.9064983 C17.2288112,11.6932347 17.1978536,11.4558929 17.1978536,11.194473 L17.1978536,11.194473 L20.9334067,11.194473 C21.098514,11.194473 21.2280774,11.1440235 21.3220969,11.0431246 C21.4161163,10.9422257 21.463126,10.786291 21.463126,10.5753205 L21.463126,10.5753205 L21.463126,10.3001417 C21.463126,9.86902812 21.4080903,9.47001876 21.2980187,9.10311361 C21.1879472,8.73620845 21.0159604,8.41860618 20.7820583,8.15030678 C20.5481563,7.88200739 20.2488993,7.6721835 19.8842873,7.52083512 C19.5196753,7.36948675 19.0805357,7.29381256 18.5668685,7.29381256 C18.0807191,7.29381256 17.6438727,7.37407306 17.2563291,7.53459407 C16.8687855,7.69511507 16.5397175,7.92787053 16.2691249,8.23286044 C15.9985324,8.53785035 15.7921482,8.90934182 15.6499725,9.34733485 C15.5077967,9.78532788 15.4367089,10.2772101 15.4367089,10.8229815 C15.4367089,11.3962708 15.504357,11.8961791 15.6396533,12.3227063 C15.7749496,12.7492336 15.9801871,13.1023798 16.255366,13.382145 C16.5305449,13.6619102 16.8733719,13.8705875 17.283847,14.0081769 C17.6943221,14.1457663 18.1724454,14.214561 18.7182168,14.214561 Z M19.7845349,10.0799986 L17.1978536,10.0799986 C17.2070262,9.8644418 17.240277,9.66149739 17.2976059,9.47116534 C17.3549349,9.28083329 17.4374885,9.11572597 17.5452669,8.97584338 C17.6530453,8.83596079 17.7883416,8.72474266 17.9511558,8.642189 C18.1139699,8.55963535 18.3054485,8.51835852 18.5255916,8.51835852 C18.9612915,8.51835852 19.2834801,8.65709453 19.4921574,8.93456655 C19.7008347,9.21203857 19.7982939,9.59384925 19.7845349,10.0799986 L19.7845349,10.0799986 Z M25.1849202,14.1939226 C25.313337,14.1939226 25.4406072,14.1870432 25.5667309,14.1732842 C25.6928545,14.1595253 25.8098055,14.1400334 25.9175839,14.1148087 C26.0253623,14.089584 26.1193818,14.0597729 26.1996423,14.0253756 C26.2799028,13.9909782 26.3406714,13.9519945 26.3819483,13.9084246 C26.4232251,13.8648546 26.4564759,13.7891804 26.4817006,13.681402 C26.5069253,13.5736236 26.5195377,13.4188355 26.5195377,13.2170377 C26.5195377,13.0886209 26.5138048,12.9831356 26.502339,12.900582 C26.4908732,12.8180283 26.4782609,12.7526733 26.4645019,12.704517 C26.450743,12.6563607 26.4312511,12.6242565 26.4060264,12.6082044 C26.3808017,12.5921523 26.3544304,12.5841263 26.3269125,12.5841263 C26.2948083,12.5841263 26.2592644,12.5921523 26.2202807,12.6082044 C26.181297,12.6242565 26.1331407,12.6426018 26.0758118,12.6632402 C26.0184828,12.6838786 25.9531279,12.7022239 25.8797468,12.718276 C25.8063658,12.7343281 25.7238121,12.7423541 25.6320859,12.7423541 C25.3614933,12.7423541 25.1734544,12.6586539 25.0679692,12.4912534 C24.9624839,12.3238529 24.9097413,12.0727522 24.9097413,11.7379513 L24.9097413,11.7379513 L24.9097413,8.85545263 L26.2512383,8.85545263 C26.3383783,8.85545263 26.4048798,8.80156343 26.450743,8.69378504 C26.4966061,8.58600665 26.5195377,8.40599381 26.5195377,8.15374652 C26.5195377,8.0207434 26.5138048,7.90837869 26.502339,7.81665241 C26.4908732,7.72492612 26.4736746,7.65269166 26.450743,7.59994905 C26.4278114,7.54720643 26.3991469,7.50936934 26.3647496,7.48643777 C26.3303522,7.46350619 26.290222,7.45204041 26.2443588,7.45204041 L26.2443588,7.45204041 L24.9097413,7.45204041 L24.9097413,6.08302555 C24.9097413,6.0371624 24.8959824,5.99588557 24.8684645,5.95919506 C24.8409466,5.92250454 24.7950835,5.89154692 24.7308751,5.86632219 C24.6666667,5.84109746 24.5783801,5.8227522 24.4660154,5.81128642 C24.3536507,5.79982063 24.2126215,5.79408774 24.0429279,5.79408774 C23.8778206,5.79408774 23.7390846,5.79982063 23.6267199,5.81128642 C23.5143552,5.8227522 23.424922,5.84109746 23.3584205,5.86632219 C23.2919189,5.89154692 23.2460558,5.92250454 23.220831,5.95919506 C23.1956063,5.99588557 23.1829939,6.0371624 23.1829939,6.08302555 L23.1829939,6.08302555 L23.1829939,7.45204041 L22.45377,7.45204041 C22.4079068,7.45204041 22.3677766,7.46350619 22.3333792,7.48643777 C22.2989818,7.50936934 22.2703174,7.54720643 22.2473858,7.59994905 C22.2244542,7.65269166 22.2072555,7.72492612 22.1957898,7.81665241 C22.184324,7.90837869 22.1785911,8.0207434 22.1785911,8.15374652 C22.1785911,8.40599381 22.2015227,8.58600665 22.2473858,8.69378504 C22.2932489,8.80156343 22.3597505,8.85545263 22.4468905,8.85545263 L22.4468905,8.85545263 L23.1829939,8.85545263 L23.1829939,11.9993712 C23.1829939,12.375449 23.2219776,12.7010773 23.299945,12.9762561 C23.3779123,13.251435 23.4994496,13.4796042 23.664557,13.6607636 C23.8296643,13.841923 24.0383416,13.9760727 24.2905889,14.0632127 C24.5428362,14.1503526 24.8409466,14.1939226 25.1849202,14.1939226 Z M29.6290589,14.214561 C30.0234819,14.214561 30.382361,14.1388869 30.7056962,13.9875385 C31.0290314,13.8361901 31.3168226,13.6252196 31.5690699,13.3546271 L31.5690699,13.3546271 L31.5690699,13.8430696 C31.5690699,13.907278 31.5885617,13.9577274 31.6275454,13.994418 C31.6665291,14.0311085 31.7330306,14.0574798 31.8270501,14.0735319 C31.9210695,14.089584 32.0712713,14.09761 32.2776555,14.09761 C32.4702807,14.09761 32.6158962,14.089584 32.7145019,14.0735319 C32.8131077,14.0574798 32.8853421,14.0311085 32.9312053,13.994418 C32.9770684,13.9577274 33,13.907278 33,13.8430696 L33,13.8430696 L33,9.71538658 C33,9.29344566 32.9495505,8.92883366 32.8486516,8.62155059 C32.7477527,8.31426752 32.5872317,8.06316681 32.3670886,7.86824844 C32.1469455,7.67333008 31.8660338,7.52886118 31.5243533,7.43484173 C31.1826729,7.34082228 30.7710512,7.29381256 30.2894882,7.29381256 C30.0188956,7.29381256 29.7563291,7.31559755 29.5017887,7.35916754 C29.2472482,7.40273753 29.0121996,7.45891988 28.7966428,7.5277146 C28.581086,7.59650931 28.3930471,7.67103692 28.2325261,7.75129743 C28.0720051,7.83155793 27.9596404,7.90493896 27.895432,7.97144052 C27.8312236,8.03794208 27.7876536,8.11246969 27.7647221,8.19502335 C27.7417905,8.27757701 27.7303247,8.38994171 27.7303247,8.53211746 C27.7303247,8.63760269 27.7372042,8.73391529 27.7509631,8.82105527 C27.7647221,8.90819524 27.7842139,8.98157627 27.8094386,9.04119836 C27.8346634,9.10082045 27.8667676,9.14668359 27.9057512,9.17878779 C27.9447349,9.210892 27.9894515,9.2269441 28.0399009,9.2269441 C28.113282,9.2269441 28.208448,9.19483989 28.325399,9.13063149 C28.44235,9.06642309 28.5879655,8.99533522 28.7622455,8.91736787 C28.9365254,8.83940053 29.1371767,8.76831265 29.3641992,8.70410425 C29.5912218,8.63989585 29.849202,8.60779165 30.1381398,8.60779165 C30.3582829,8.60779165 30.542882,8.63072322 30.6919373,8.67658636 C30.8409925,8.72244951 30.9602367,8.79353738 31.0496698,8.88984998 C31.1391029,8.98616259 31.2033113,9.10655334 31.242295,9.25102225 C31.2812787,9.39549115 31.3007705,9.56403821 31.3007705,9.75666341 L31.3007705,9.75666341 L31.3007705,10.1281549 L30.7022565,10.1281549 C30.156485,10.1281549 29.6772152,10.1694317 29.2644469,10.2519854 C28.8516786,10.334539 28.5065584,10.4618093 28.2290864,10.633796 C27.9516144,10.8057828 27.7429371,11.0236328 27.6030545,11.2873459 C27.4631719,11.5510589 27.3932306,11.8617817 27.3932306,12.2195143 C27.3932306,12.5497289 27.4482664,12.8386667 27.5583379,13.0863277 C27.6684095,13.3339887 27.8231976,13.5415194 28.0227023,13.7089199 C28.2222069,13.8763204 28.4584021,14.002444 28.7312878,14.0872908 C29.0041735,14.1721376 29.3034306,14.214561 29.6290589,14.214561 Z M30.0074298,12.9900151 C29.718492,12.9900151 29.492616,12.9166341 29.3298019,12.769872 C29.1669877,12.6231099 29.0855806,12.4213121 29.0855806,12.1644785 C29.0855806,12.0131301 29.1142451,11.8789804 29.171574,11.7620294 C29.228903,11.6450784 29.3194827,11.545326 29.4433132,11.4627724 C29.5671436,11.3802187 29.7276646,11.3183035 29.9248762,11.2770266 C30.1220877,11.2357498 30.360576,11.2151114 30.6403412,11.2151114 L30.6403412,11.2151114 L31.3007705,11.2151114 L31.3007705,12.2607911 C31.0898,12.4992794 30.8822693,12.6804389 30.6781783,12.8042694 C30.4740873,12.9280998 30.2505045,12.9900151 30.0074298,12.9900151 Z" id="Beta" fill="#FFFFFF" fill-rule="nonzero"></path>
    </g>
</svg>