<?xml version="1.0" encoding="UTF-8"?>
<svg width="224px" height="24px" viewBox="0 0 224 24" version="1.1" xmlns="http://www.w3.org/2000/svg" xmlns:xlink="http://www.w3.org/1999/xlink">
    <!-- Generator: Sketch 42 (36781) - http://www.bohemiancoding.com/sketch -->
    <title>logo</title>
    <desc>Created with Sketch.</desc>
    <defs></defs>
    <g id="Log-In" stroke="none" stroke-width="1" fill="none" fill-rule="evenodd">
        <g id="LogIn-Design_2" transform="translate(-58.000000, -60.000000)" fill-rule="nonzero" fill="#0081CB">
            <g id="text" transform="translate(39.000000, 60.000000)">
                <path d="M109.589091,19.5490909 C108.192727,19.5490909 106.970909,19.2 106.010909,18.5890909 C105.050909,17.9781818 104.265455,17.1927273 103.741818,16.1454545 L105.312727,14.8363636 C105.923636,15.7090909 106.534545,16.4072727 107.145455,16.8436364 C107.843636,17.28 108.629091,17.5418182 109.589091,17.5418182 C110.636364,17.5418182 111.509091,17.1927273 112.207273,16.4072727 C112.905455,15.6218182 113.254545,14.4872727 113.254545,13.0036364 L113.254545,0.349090909 L115.436364,0.349090909 L115.436364,13.0036364 C115.436364,14.1381818 115.261818,15.0981818 115,15.8836364 C114.738182,16.7563636 114.301818,17.3672727 113.778182,17.9781818 C112.730909,19.0254545 111.334545,19.5490909 109.589091,19.5490909 Z M123.64,19.5490909 C123.029091,19.5490909 122.330909,19.4618182 121.72,19.2872727 C121.109091,19.1127273 120.498182,18.8509091 120.061818,18.5018182 C119.538182,18.1527273 119.189091,17.7163636 118.927273,17.1927273 C118.665455,16.6690909 118.490909,16.0581818 118.490909,15.36 L118.490909,15.2727273 C118.490909,14.5745455 118.665455,13.8763636 118.927273,13.3527273 C119.189091,12.8290909 119.625455,12.3927273 120.149091,11.9563636 C120.672727,11.6072727 121.283636,11.3454545 122.069091,11.0836364 C122.767273,10.9090909 123.552727,10.8218182 124.512727,10.8218182 C125.385455,10.8218182 126.170909,10.9090909 126.869091,10.9963636 C127.48,11.0836364 128.178182,11.2581818 128.789091,11.4327273 L128.789091,10.9963636 C128.789091,9.77454545 128.44,8.90181818 127.741818,8.29090909 C127.043636,7.68 125.996364,7.33090909 124.687273,7.33090909 C123.901818,7.33090909 123.116364,7.41818182 122.418182,7.59272727 C121.72,7.76727273 121.109091,8.02909091 120.410909,8.29090909 L119.8,6.63272727 C120.585455,6.28363636 121.370909,6.02181818 122.156364,5.76 C122.941818,5.58545455 123.814545,5.41090909 124.861818,5.41090909 C126.869091,5.41090909 128.352727,5.93454545 129.312727,6.89454545 C130.272727,7.85454545 130.796364,9.16363636 130.796364,10.8218182 L130.796364,19.3745455 L128.789091,19.3745455 L128.789091,17.1054545 C128.265455,17.7163636 127.654545,18.24 126.869091,18.6763636 C125.909091,19.2872727 124.861818,19.5490909 123.64,19.5490909 Z M124.076364,17.8909091 C124.687273,17.8909091 125.298182,17.8036364 125.909091,17.6290909 C126.432727,17.4545455 126.956364,17.1927273 127.392727,16.9309091 C127.829091,16.5818182 128.178182,16.2327273 128.352727,15.7963636 C128.614545,15.36 128.701818,14.8363636 128.701818,14.3127273 L128.701818,13.0909091 C128.178182,12.9163636 127.567273,12.8290909 126.956364,12.7418182 C126.258182,12.6545455 125.56,12.5672727 124.687273,12.5672727 C123.378182,12.5672727 122.418182,12.8290909 121.72,13.2654545 C121.021818,13.7890909 120.672727,14.4 120.672727,15.1854545 L120.672727,15.2727273 C120.672727,15.7090909 120.76,16.0581818 120.934545,16.4072727 C121.109091,16.7563636 121.370909,17.0181818 121.72,17.28 C122.069091,17.5418182 122.418182,17.7163636 122.854545,17.8036364 C123.203636,17.8036364 123.64,17.8909091 124.076364,17.8909091 Z M139.436364,19.5490909 C138.389091,19.5490909 137.429091,19.3745455 136.381818,19.0254545 C135.334545,18.6763636 134.461818,18.1527273 133.676364,17.5418182 L134.723636,16.1454545 C135.509091,16.6690909 136.294545,17.1054545 137.08,17.4545455 C137.865455,17.7163636 138.738182,17.8909091 139.523636,17.8909091 C140.396364,17.8909091 141.094545,17.7163636 141.618182,17.28 C142.141818,16.9309091 142.403636,16.4072727 142.403636,15.7090909 L142.403636,15.7090909 C142.403636,15.36 142.316364,15.0981818 142.141818,14.8363636 C141.967273,14.5745455 141.705455,14.4 141.356364,14.2254545 C141.007273,14.0509091 140.658182,13.8763636 140.221818,13.7018182 C139.785455,13.5272727 139.349091,13.44 138.912727,13.3527273 C138.389091,13.1781818 137.865455,13.0036364 137.254545,12.8290909 C136.730909,12.6545455 136.207273,12.3927273 135.770909,12.1309091 C135.334545,11.8690909 134.985455,11.52 134.723636,11.0836364 C134.461818,10.6472727 134.287273,10.1236364 134.287273,9.51272727 L134.287273,9.42545455 C134.287273,8.81454545 134.374545,8.29090909 134.636364,7.85454545 C134.898182,7.41818182 135.16,6.98181818 135.596364,6.63272727 C136.032727,6.28363636 136.556364,6.02181818 137.08,5.84727273 C137.690909,5.67272727 138.301818,5.58545455 139,5.58545455 C139.872727,5.58545455 140.745455,5.76 141.618182,6.02181818 C142.490909,6.28363636 143.276364,6.63272727 144.061818,7.06909091 L143.101818,8.55272727 C142.490909,8.11636364 141.792727,7.85454545 141.094545,7.59272727 C140.396364,7.33090909 139.698182,7.24363636 139,7.24363636 C138.127273,7.24363636 137.516364,7.41818182 136.992727,7.76727273 C136.469091,8.11636364 136.294545,8.64 136.294545,9.16363636 L136.294545,9.25090909 C136.294545,9.6 136.381818,9.86181818 136.556364,10.0363636 C136.730909,10.2981818 136.992727,10.4727273 137.341818,10.6472727 C137.690909,10.8218182 138.04,10.9963636 138.476364,11.0836364 C138.912727,11.2581818 139.349091,11.3454545 139.872727,11.52 C140.396364,11.6945455 140.92,11.8690909 141.443636,12.0436364 C141.967273,12.2181818 142.490909,12.48 142.927273,12.7418182 C143.363636,13.0036364 143.712727,13.3527273 143.974545,13.7890909 C144.236364,14.2254545 144.323636,14.7490909 144.323636,15.36 L144.323636,15.4472727 C144.323636,16.0581818 144.236364,16.6690909 143.974545,17.1927273 C143.712727,17.7163636 143.363636,18.0654545 142.927273,18.4145455 C142.490909,18.7636364 141.967273,19.0254545 141.356364,19.2 C140.745455,19.4618182 140.134545,19.5490909 139.436364,19.5490909 Z M147.290909,5.58545455 L149.385455,5.58545455 L149.385455,8.55272727 C149.647273,8.11636364 149.996364,7.76727273 150.345455,7.41818182 C150.694545,7.06909091 151.043636,6.72 151.48,6.45818182 C151.916364,6.19636364 152.352727,5.93454545 152.876364,5.84727273 C153.4,5.67272727 154.010909,5.58545455 154.621818,5.58545455 C155.407273,5.58545455 156.28,5.76 157.065455,6.02181818 C157.850909,6.37090909 158.549091,6.80727273 159.16,7.41818182 C159.770909,8.02909091 160.294545,8.72727273 160.643636,9.6 C160.992727,10.4727273 161.167273,11.4327273 161.167273,12.5672727 L161.167273,12.6545455 C161.167273,13.7018182 160.992727,14.7490909 160.643636,15.5345455 C160.294545,16.4072727 159.770909,17.1054545 159.16,17.7163636 C158.549091,18.3272727 157.850909,18.7636364 157.065455,19.1127273 C156.28,19.4618182 155.494545,19.5490909 154.621818,19.5490909 C154.010909,19.5490909 153.4,19.4618182 152.876364,19.2872727 C152.352727,19.1127273 151.829091,18.9381818 151.392727,18.6763636 C150.956364,18.4145455 150.607273,18.1527273 150.258182,17.8036364 C149.909091,17.4545455 149.56,17.1054545 149.298182,16.7563636 L149.298182,24 L147.290909,24 L147.290909,5.58545455 Z M154.272727,17.7163636 C154.970909,17.7163636 155.581818,17.6290909 156.192727,17.3672727 C156.803636,17.1054545 157.327273,16.7563636 157.763636,16.32 C158.2,15.8836364 158.549091,15.36 158.810909,14.7490909 C159.072727,14.1381818 159.16,13.3527273 159.16,12.5672727 L159.16,12.48 C159.16,11.6945455 159.072727,10.9963636 158.810909,10.2981818 C158.549091,9.68727273 158.2,9.16363636 157.763636,8.64 C157.327273,8.20363636 156.803636,7.85454545 156.192727,7.59272727 C155.581818,7.33090909 154.970909,7.24363636 154.36,7.24363636 C153.749091,7.24363636 153.138182,7.33090909 152.527273,7.59272727 C151.916364,7.85454545 151.392727,8.20363636 150.956364,8.64 C150.52,9.07636364 150.083636,9.6 149.821818,10.2981818 C149.56,10.9090909 149.385455,11.6072727 149.385455,12.3927273 L149.385455,12.48 C149.385455,13.2654545 149.56,13.9636364 149.821818,14.5745455 C150.083636,15.1854545 150.432727,15.7090909 150.956364,16.2327273 C151.392727,16.6690909 152.003636,17.0181818 152.527273,17.28 C153.050909,17.5418182 153.661818,17.7163636 154.272727,17.7163636 Z M165.967273,13.3527273 C166.054545,14.0509091 166.229091,14.6618182 166.490909,15.2727273 C166.752727,15.7963636 167.101818,16.32 167.625455,16.6690909 C168.061818,17.0181818 168.585455,17.3672727 169.109091,17.5418182 C169.632727,17.7163636 170.243636,17.8036364 170.854545,17.8036364 C171.814545,17.8036364 172.687273,17.6290909 173.298182,17.28 C173.996364,16.9309091 174.607273,16.4945455 175.218182,15.8836364 L176.527273,17.0181818 C175.829091,17.8036364 175.043636,18.4145455 174.170909,18.8509091 C173.298182,19.2872727 172.163636,19.5490909 170.854545,19.5490909 C169.894545,19.5490909 169.021818,19.3745455 168.149091,19.0254545 C167.276364,18.6763636 166.578182,18.24 165.967273,17.6290909 C165.356364,17.0181818 164.832727,16.32 164.483636,15.4472727 C164.134545,14.5745455 163.96,13.6145455 163.96,12.5672727 C163.96,11.6072727 164.134545,10.7345455 164.483636,9.86181818 C164.832727,8.98909091 165.269091,8.29090909 165.88,7.68 C166.490909,7.06909091 167.189091,6.54545455 167.974545,6.19636364 C168.76,5.84727273 169.632727,5.67272727 170.68,5.67272727 C171.727273,5.67272727 172.6,5.84727273 173.385455,6.19636364 C174.170909,6.54545455 174.869091,7.06909091 175.392727,7.68 C175.916364,8.29090909 176.352727,9.07636364 176.614545,9.94909091 C176.876364,10.8218182 177.050909,11.6945455 177.050909,12.7418182 L177.050909,13.0036364 L177.050909,13.44 L165.967273,13.44 L165.967273,13.3527273 Z M174.869091,11.6945455 C174.781818,11.0836364 174.694545,10.56 174.432727,9.94909091 C174.258182,9.42545455 173.909091,8.90181818 173.56,8.55272727 C173.210909,8.11636364 172.774545,7.85454545 172.250909,7.59272727 C171.727273,7.33090909 171.116364,7.24363636 170.418182,7.24363636 C169.807273,7.24363636 169.283636,7.33090909 168.76,7.59272727 C168.236364,7.85454545 167.8,8.11636364 167.363636,8.55272727 C167.014545,8.98909091 166.665455,9.42545455 166.403636,9.94909091 C166.141818,10.4727273 165.967273,11.0836364 165.88,11.6945455 L174.869091,11.6945455 Z M180.454545,5.84727273 L182.287273,5.84727273 L182.287273,9.42545455 C182.549091,8.90181818 182.810909,8.37818182 183.16,7.85454545 C183.509091,7.41818182 183.858182,6.98181818 184.294545,6.63272727 C184.730909,6.28363636 185.167273,6.02181818 185.690909,5.84727273 C186.214545,5.67272727 186.738182,5.58545455 187.349091,5.58545455 L187.349091,7.76727273 L187.174545,7.76727273 C186.476364,7.76727273 185.865455,7.94181818 185.254545,8.20363636 C184.643636,8.46545455 184.12,8.90181818 183.683636,9.42545455 C183.247273,9.94909091 182.898182,10.6472727 182.636364,11.4327273 C182.374545,12.2181818 182.287273,13.0909091 182.287273,14.1381818 L182.287273,19.6363636 L180.454545,19.6363636 L180.454545,5.84727273 Z M195.465455,19.5490909 C194.418182,19.5490909 193.458182,19.3745455 192.410909,19.0254545 C191.363636,18.6763636 190.490909,18.1527273 189.705455,17.5418182 L190.752727,16.1454545 C191.538182,16.6690909 192.323636,17.1054545 193.109091,17.4545455 C193.894545,17.7163636 194.767273,17.8909091 195.552727,17.8909091 C196.425455,17.8909091 197.123636,17.7163636 197.647273,17.28 C198.170909,16.9309091 198.432727,16.4072727 198.432727,15.7090909 L198.432727,15.7090909 C198.432727,15.36 198.345455,15.0981818 198.170909,14.8363636 C197.996364,14.5745455 197.734545,14.4 197.385455,14.2254545 C197.036364,14.0509091 196.687273,13.8763636 196.250909,13.7018182 C195.814545,13.5272727 195.378182,13.44 194.941818,13.3527273 C194.418182,13.1781818 193.894545,13.0036364 193.283636,12.8290909 C192.76,12.6545455 192.236364,12.3927273 191.8,12.1309091 C191.363636,11.8690909 191.014545,11.52 190.752727,11.0836364 C190.490909,10.6472727 190.316364,10.1236364 190.316364,9.51272727 L190.316364,9.42545455 C190.316364,8.81454545 190.403636,8.29090909 190.665455,7.85454545 C190.927273,7.41818182 191.189091,6.98181818 191.625455,6.63272727 C192.061818,6.28363636 192.585455,6.02181818 193.109091,5.84727273 C193.72,5.67272727 194.330909,5.58545455 195.029091,5.58545455 C195.901818,5.58545455 196.774545,5.76 197.647273,6.02181818 C198.52,6.28363636 199.305455,6.63272727 200.090909,7.06909091 L199.130909,8.55272727 C198.52,8.11636364 197.821818,7.85454545 197.123636,7.59272727 C196.425455,7.33090909 195.727273,7.24363636 195.029091,7.24363636 C194.156364,7.24363636 193.545455,7.41818182 193.021818,7.76727273 C192.498182,8.11636364 192.323636,8.64 192.323636,9.16363636 L192.323636,9.25090909 C192.323636,9.6 192.410909,9.86181818 192.585455,10.0363636 C192.76,10.2981818 193.021818,10.4727273 193.370909,10.6472727 C193.72,10.8218182 194.069091,10.9963636 194.505455,11.0836364 C194.941818,11.2581818 195.378182,11.3454545 195.901818,11.52 C196.425455,11.6945455 196.949091,11.8690909 197.472727,12.0436364 C197.996364,12.2181818 198.52,12.48 198.956364,12.7418182 C199.392727,13.0036364 199.741818,13.3527273 200.003636,13.7890909 C200.265455,14.2254545 200.44,14.7490909 200.44,15.36 L200.44,15.4472727 C200.44,16.0581818 200.265455,16.6690909 200.003636,17.1927273 C199.741818,17.7163636 199.392727,18.0654545 198.956364,18.4145455 C198.52,18.7636364 197.996364,19.0254545 197.385455,19.2 C196.774545,19.4618182 196.163636,19.5490909 195.465455,19.5490909 Z M209.865455,19.5490909 C208.818182,19.5490909 207.858182,19.3745455 206.985455,19.0254545 C206.112727,18.6763636 205.327273,18.1527273 204.716364,17.5418182 C204.105455,16.9309091 203.581818,16.1454545 203.232727,15.36 C202.883636,14.4872727 202.709091,13.6145455 202.709091,12.6545455 L202.709091,12.5672727 C202.709091,11.6072727 202.883636,10.7345455 203.232727,9.86181818 C203.581818,8.98909091 204.105455,8.29090909 204.716364,7.68 C205.327273,7.06909091 206.112727,6.54545455 207.072727,6.19636364 C207.945455,5.84727273 208.905455,5.67272727 210.04,5.67272727 C211.087273,5.67272727 212.047273,5.84727273 212.92,6.19636364 C213.792727,6.54545455 214.578182,7.06909091 215.276364,7.68 C215.887273,8.29090909 216.410909,9.07636364 216.76,9.86181818 C217.109091,10.7345455 217.283636,11.6072727 217.283636,12.5672727 L217.283636,12.6545455 C217.283636,13.6145455 217.109091,14.4872727 216.76,15.36 C216.410909,16.2327273 215.887273,16.9309091 215.189091,17.5418182 C214.578182,18.1527273 213.792727,18.6763636 212.832727,19.0254545 C211.96,19.3745455 210.912727,19.5490909 209.865455,19.5490909 Z M209.952727,17.8036364 C210.738182,17.8036364 211.436364,17.6290909 212.047273,17.3672727 C212.658182,17.1054545 213.181818,16.7563636 213.705455,16.2327273 C214.141818,15.7963636 214.490909,15.1854545 214.752727,14.5745455 C215.014545,13.9636364 215.101818,13.2654545 215.101818,12.5672727 L215.101818,12.48 C215.101818,11.7818182 215.014545,11.0836364 214.752727,10.4727273 C214.490909,9.86181818 214.141818,9.25090909 213.618182,8.81454545 C213.181818,8.37818182 212.570909,7.94181818 211.96,7.68 C211.349091,7.41818182 210.650909,7.24363636 209.865455,7.24363636 C209.08,7.24363636 208.381818,7.41818182 207.770909,7.68 C207.16,7.94181818 206.636364,8.29090909 206.2,8.81454545 C205.763636,9.25090909 205.414545,9.86181818 205.152727,10.4727273 C204.890909,11.0836364 204.803636,11.7818182 204.803636,12.48 L204.803636,12.5672727 C204.803636,13.2654545 204.890909,13.9636364 205.152727,14.5745455 C205.414545,15.1854545 205.763636,15.7090909 206.2,16.2327273 C206.636364,16.6690909 207.247273,17.1054545 207.858182,17.3672727 C208.556364,17.6290909 209.254545,17.8036364 209.952727,17.8036364 Z M220.774545,7.33090909 L218.854545,7.33090909 L218.854545,5.58545455 L220.774545,5.58545455 L220.774545,4.88727273 C220.774545,3.31636364 221.210909,2.18181818 221.996364,1.39636364 C222.694545,0.698181818 223.741818,0.349090909 224.963636,0.349090909 C225.487273,0.349090909 225.836364,0.349090909 226.185455,0.436363636 C226.534545,0.523636364 226.883636,0.610909091 227.232727,0.698181818 L227.232727,2.44363636 C226.883636,2.35636364 226.534545,2.26909091 226.185455,2.18181818 C225.836364,2.09454545 225.574545,2.09454545 225.225455,2.09454545 C223.567273,2.09454545 222.781818,3.05454545 222.781818,4.97454545 L222.781818,5.58545455 L227.232727,5.58545455 L227.232727,7.33090909 L222.781818,7.33090909 L222.781818,19.5490909 L220.687273,19.5490909 L220.687273,7.33090909 L220.774545,7.33090909 Z M234.738182,19.5490909 C234.214545,19.5490909 233.690909,19.4618182 233.167273,19.2872727 C232.643636,19.1127273 232.294545,18.9381818 231.945455,18.5890909 C231.596364,18.24 231.334545,17.8036364 231.16,17.28 C230.985455,16.7563636 230.898182,16.1454545 230.898182,15.36 L230.898182,7.24363636 L228.978182,7.24363636 L228.978182,5.49818182 L230.898182,5.49818182 L230.898182,2.00727273 L232.992727,2.00727273 L232.992727,5.49818182 L237.443636,5.49818182 L237.443636,7.24363636 L232.992727,7.24363636 L232.992727,15.0109091 C232.992727,15.8836364 233.167273,16.4945455 233.603636,16.9309091 C234.04,17.28 234.563636,17.4545455 235.349091,17.4545455 C235.698182,17.4545455 236.047273,17.4545455 236.396364,17.3672727 C236.745455,17.28 237.007273,17.1927273 237.443636,17.0181818 L237.443636,18.8509091 C237.094545,19.0254545 236.658182,19.2 236.309091,19.2872727 C235.698182,19.4618182 235.261818,19.5490909 234.738182,19.5490909 Z M238.927273,2.18181818 C238.927273,1.13454545 239.712727,0.349090909 240.76,0.349090909 C241.807273,0.349090909 242.592727,1.13454545 242.592727,2.18181818 C242.592727,3.22909091 241.807273,4.01454545 240.76,4.01454545 C239.712727,4.01454545 238.927273,3.14181818 238.927273,2.18181818 Z M239.276364,2.18181818 C239.276364,2.96727273 239.887273,3.66545455 240.76,3.66545455 C241.545455,3.66545455 242.243636,2.96727273 242.243636,2.18181818 C242.243636,1.39636364 241.545455,0.698181818 240.76,0.698181818 C239.974545,0.698181818 239.276364,1.39636364 239.276364,2.18181818 Z M240.498182,3.14181818 L240.236364,3.14181818 L240.236364,1.22181818 L240.76,1.22181818 C241.021818,1.22181818 241.196364,1.30909091 241.283636,1.39636364 C241.370909,1.48363636 241.458182,1.65818182 241.458182,1.83272727 C241.458182,2.00727273 241.458182,2.09454545 241.370909,2.18181818 C241.283636,2.26909091 241.196364,2.35636364 241.021818,2.35636364 L241.545455,3.14181818 L241.283636,3.14181818 L240.847273,2.35636364 L240.498182,2.35636364 L240.498182,3.14181818 L240.498182,3.14181818 Z M28.2509091,2.79272727 L28.2509091,19.4618182 L25.72,19.4618182 L25.72,2.79272727 L19,2.79272727 L19,0.349090909 L34.9709091,0.349090909 L34.9709091,2.79272727 L28.2509091,2.79272727 Z M37.1527273,0.349090909 L39.6836364,0.349090909 L39.6836364,19.4618182 L37.1527273,19.4618182 L37.1527273,0.349090909 Z M57.9236364,14.3127273 C57.9236364,17.5418182 55.7418182,19.7236364 50.8545455,19.7236364 L44.3090909,19.7236364 L44.3090909,0.523636364 L50.68,0.523636364 C55.3054545,0.523636364 57.3127273,2.61818182 57.3127273,5.58545455 C57.3127273,7.59272727 56.1781818,8.98909091 53.9963636,9.77454545 C56.5272727,10.4727273 57.9236364,12.1309091 57.9236364,14.3127273 Z M50.5927273,11.3454545 L46.84,11.3454545 L46.84,17.3672727 L51.0290909,17.3672727 C53.9090909,17.3672727 55.3054545,16.32 55.3054545,14.4 C55.3054545,12.1309091 53.2981818,11.3454545 50.5927273,11.3454545 Z M50.8545455,2.96727273 L46.9272727,2.96727273 L46.9272727,8.98909091 L50.4181818,8.98909091 C53.2109091,8.98909091 54.6945455,7.76727273 54.6945455,5.84727273 C54.6945455,4.01454545 53.2981818,2.96727273 50.8545455,2.96727273 Z M74.9418182,4.10181818 C73.2836364,3.05454545 71.7127273,2.53090909 69.7054545,2.53090909 C65.5163636,2.53090909 62.7236364,5.32363636 62.7236364,9.86181818 C62.7236364,14.4 65.5163636,17.28 69.7927273,17.28 C71.8872727,17.28 73.8945455,16.4945455 75.2036364,15.5345455 L75.64,18.0654545 C74.0690909,19.0254545 71.8872727,19.5490909 69.7054545,19.5490909 C64.12,19.5490909 60.1054545,15.7963636 60.1054545,10.0363636 C60.1054545,4.18909091 64.12,0.349090909 69.7054545,0.349090909 C71.8872727,0.349090909 74.2436364,0.96 75.8145455,1.83272727 L74.9418182,4.10181818 Z M91.4363636,1.65818182 C88.7309091,7.33090909 84.0181818,13.0036364 78.7818182,16.4072727 C78.2581818,15.7963636 77.8218182,15.1854545 77.4727273,14.4 C83.4945455,11.2581818 88.0327273,5.84727273 90.5636364,1.22181818 C90.8254545,1.30909091 91.1745455,1.48363636 91.4363636,1.65818182 Z M90.3018182,1.13454545 C87.7709091,5.41090909 82.6218182,10.3854545 76.7745455,12.5672727 C76.6,11.7818182 76.5127273,10.9090909 76.5127273,9.94909091 C76.5127273,4.53818182 80.5272727,0.349090909 86.1127273,0.349090909 C87.6836364,0.349090909 89.08,0.610909091 90.3018182,1.13454545 Z M91.6981818,1.83272727 C94.2290909,3.40363636 95.8,6.28363636 95.8,9.86181818 C95.8,15.36 91.7854545,19.5490909 86.2,19.5490909 C84.0181818,19.5490909 82.0981818,19.0254545 80.5272727,17.9781818 C85.1527273,13.7018182 88.7309091,8.81454545 91.6981818,1.83272727 Z M96.4981818,1.83272727 C96.4981818,0.785454545 97.2836364,0 98.3309091,0 C99.3781818,0 100.163636,0.785454545 100.163636,1.83272727 C100.163636,2.88 99.3781818,3.66545455 98.3309091,3.66545455 C97.2836364,3.66545455 96.4981818,2.79272727 96.4981818,1.83272727 Z M96.8472727,1.83272727 C96.8472727,2.61818182 97.4581818,3.31636364 98.3309091,3.31636364 C99.1163636,3.31636364 99.8145455,2.61818182 99.8145455,1.83272727 C99.8145455,1.04727273 99.1163636,0.349090909 98.3309091,0.349090909 C97.5454545,0.349090909 96.8472727,1.04727273 96.8472727,1.83272727 Z M97.9818182,2.79272727 L97.72,2.79272727 L97.72,0.872727273 L98.2436364,0.872727273 C98.5054545,0.872727273 98.68,0.96 98.7672727,1.04727273 C98.8545455,1.13454545 98.9418182,1.30909091 98.9418182,1.48363636 C98.9418182,1.65818182 98.9418182,1.74545455 98.8545455,1.83272727 C98.7672727,1.92 98.68,2.00727273 98.5054545,2.00727273 L99.0290909,2.79272727 L98.7672727,2.79272727 L98.3309091,2.00727273 L97.9818182,2.00727273 L97.9818182,2.79272727 L97.9818182,2.79272727 Z M98.3309091,1.83272727 L98.5054545,1.83272727 C98.5927273,1.83272727 98.5927273,1.83272727 98.68,1.74545455 L98.7672727,1.65818182 L98.7672727,1.48363636 C98.7672727,1.39636364 98.7672727,1.30909091 98.68,1.22181818 C98.5927273,1.13454545 98.5054545,1.13454545 98.3309091,1.13454545 L98.0690909,1.13454545 L98.0690909,1.83272727 L98.3309091,1.83272727 Z" id="logo"></path>
            </g>
        </g>
    </g>
</svg>