<?xml version="1.0" encoding="utf-8"?>
<!DOCTYPE svg PUBLIC "-//W3C//DTD SVG 1.1//EN" "http://www.w3.org/Graphics/SVG/1.1/DTD/svg11.dtd">
<svg version="1.1" xmlns="http://www.w3.org/2000/svg" xmlns:xlink="http://www.w3.org/1999/xlink" width="28" height="1680" viewBox="0 0 28 1680">
<svg id="icon-column" width="28" height="28" viewBox="0 0 28 28" x="0" y="0">
<path fill="#ccc" d="M1.68 0.84h-1.4v26.88h26.88v-1.4h-25.48v-25.48z"></path>
<path fill="#2f7ed8" d="M11.186 24.906h5.6v-14.84h-5.6v14.84z"></path>
<path fill="#224886" d="M9.52 3.808h-5.6v21.14h5.6v-21.14z"></path>
<path fill="#8bbc21" d="M24.052 24.906v-9.24h-5.6v9.24h5.6z"></path>
</svg>
<svg id="icon-stacked_column" width="28" height="28" viewBox="0 0 28 28" x="0" y="48">
<path fill="#ccc" d="M1.68 0.84h-1.4v26.88h26.88v-1.4h-25.48v-25.48z"></path>
<path fill="#224886" d="M10.318 17.542h-6.16v7.378h6.16v-7.378zM18.438 19.558h-6.16v5.362h6.16v-5.362zM26.558 24.92v-3.682h-6.16v3.682h6.16z"></path>
<path fill="#2d7ed8" d="M10.318 11.564h-6.16v5.978h6.16v-5.978zM18.438 19.558v-5.068h-6.16v5.068h6.16zM26.558 21.238v-3.85h-6.16v3.85h6.16z"></path>
<path fill="#8bbc22" d="M4.158 11.564h6.16v-5.936h-6.16v5.936zM18.438 9.996h-6.16v4.494h6.16v-4.494z"></path>
<path fill="#8bbc21" d="M26.558 17.388v-3.444h-6.16v3.444h6.16z"></path>
</svg>
<svg id="icon-percent_column" width="28" height="28" viewBox="0 0 28 28" x="0" y="96">
<path fill="#2c7ed8" d="M26.586 15.246v-7.098h-6.16v7.098h6.16zM10.094 8.848h-6.16v7.098h6.16v-7.098zM18.34 12.068h-6.16v7.098h6.16v-7.098z"></path>
<path fill="#224886" d="M26.586 24.92v-9.674h-6.16v9.674h6.16zM10.094 15.946h-6.16v8.974h6.16v-8.974zM18.34 19.166h-6.16v5.754h6.16v-5.754z"></path>
<path fill="#8bbc22" d="M26.586 8.148v-4.368h-6.16v4.368h6.16zM3.934 3.78v5.068h6.16v-5.068h-6.16zM12.18 3.78v8.288h6.16v-8.288h-6.16z"></path>
<path fill="#ccc" d="M1.68 0.84h-1.4v26.88h26.88v-1.4h-25.48v-25.48z"></path>
</svg>
<svg id="icon-bar" width="28" height="28" viewBox="0 0 28 28" x="0" y="144">
<path fill="#2e7ed8" d="M3.36 11.186v5.6h15.47v-5.6h-15.47z"></path>
<path fill="#8bbc21" d="M12.6 9.8v-5.6h-9.24v5.6h9.24z"></path>
<path fill="#224886" d="M23.94 23.8v-5.6h-20.58v5.6h20.58z"></path>
<path fill="#ccc" d="M1.68 0.84h-1.4v26.88h26.88v-1.4h-25.48v-25.48z"></path>
</svg>
<svg id="icon-stacked_bar" width="28" height="28" viewBox="0 0 28 28" x="0" y="192">
<path fill="#ccc" d="M1.68 0.84h-1.4v26.88h26.88v-1.4h-25.48v-25.48z"></path>
<path fill="#224886" d="M7 8.666v-6.16h-3.71v6.16h3.71zM8.526 10.528h-5.236v6.16h5.236v-6.16zM9.996 24.906v-6.16h-6.706v6.16h6.706z"></path>
<path fill="#2c7ed8" d="M7 8.666h4.116v-6.16h-4.116v6.16zM8.526 16.688h5.46v-6.16h-5.46v6.16zM9.996 18.746v6.16h7.322v-6.16h-7.322z"></path>
<path fill="#8bbc21" d="M14.574 8.666v-6.16h-3.458v6.16h3.458z"></path>
<path fill="#8bbc22" d="M19.012 10.528h-5.026v6.16h5.026v-6.16zM22.82 24.906v-6.16h-5.502v6.16h5.502z"></path>
</svg>
<svg id="icon-percent_bar" width="28" height="28" viewBox="0 0 28 28" x="0" y="240">
<path fill="#ccc" d="M1.68 0.84h-1.4v26.88h26.88v-1.4h-25.48v-25.48z"></path>
<path fill="#2c7ed8" d="M9.59 10.654v6.16h7.098v-6.16h-7.098zM14.462 18.774v6.16h7.126v-6.16h-7.126zM20.608 8.694v-6.16h-10.038v6.16h10.038z"></path>
<path fill="#224886" d="M9.59 10.654h-5.334v6.16h5.334v-6.16zM4.256 18.774v6.16h10.206v-6.16h-10.206zM4.256 8.694h6.314v-6.16h-6.314v6.16z"></path>
<path fill="#8bbc22" d="M25.536 16.814v-6.16h-8.848v6.16h8.848zM25.536 24.934v-6.16h-3.948v6.16h3.948zM25.536 8.694v-6.16h-4.928v6.16h4.928z"></path>
</svg>
<svg id="icon-spider_column" width="28" height="28" viewBox="0 0 28 28" x="0" y="288">
<path fill="#ccc" d="M23.478 23.478q3.934-3.922 3.934-9.478t-3.934-9.492q-3.922-3.92-9.478-3.92-0.208-0.002-0.406 0.014-0.011 0-0.028 0-0.088 0.001-0.182 0.014-5.16 0.191-8.876 3.892-0.054 0.068-0.126 0.14l-0.028 0.014q-0 0.014-0.014 0.014l-0.014 0.014q-1.741 1.835-2.674 4.004-1.057 2.427-1.064 5.278 0 0.018 0 0.028v0.014q0.003 1.23 0.196 2.38 0.676 3.938 3.556 6.916 0.063 0.075 0.126 0.126l0.042 0.042q3.809 3.793 9.128 3.934h0.014q0.017 0 0.028 0h0.014q0.151 0 0.308 0 5.556 0 9.478-3.934zM24.136 14.84h1.568q-0.254 4.009-2.982 6.986l-1.106-1.106q2.271-2.506 2.52-5.88zM21.56 5.026l-1.106 1.106q-2.634-2.203-6.16-2.296v-1.568q4.172 0.094 7.266 2.758zM12.614 2.352v1.568q-3.041 0.368-5.376 2.436l-1.092-1.092q2.794-2.525 6.468-2.912zM14.518 12.054v-6.524q2.692 0.142 4.746 1.792l-4.746 4.732zM4.69 9.814v0.014q-0.69 1.566-0.826 3.332h-1.568q0.127-2.028 0.896-3.794 0.665-1.534 1.792-2.884l1.092 1.092q-0.864 1.073-1.386 2.24zM6.216 22.764l1.092-1.092q2.393 2.122 5.53 2.436v1.568q-3.773-0.342-6.622-2.912zM25.326 10.864l0.182-0.028 0.434 3.458-7.91 0.546h4.41q-0.232 2.677-2.016 4.69l-4.564-4.55-0.672 0.056-0.294-2.226 1.54-0.294 4.046-4.018q1.155 1.346 1.638 2.968l1.666-0.308q-0.586-2.122-2.114-3.864l1.092-1.092q1.886 2.089 2.562 4.662zM14.042 12.74l-1.372 0.854 0.084 1.26 1.162 0.644-0.056-0.14 1.022-0.658 7 8.26-3.458 2.226-0.112-0.238q-1.768 0.697-3.794 0.77v-1.568q1.67-0.073 3.136-0.63l-0.714-1.526q-1.136 0.41-2.422 0.476v-5.698l-0.518-1.106-1.162 2.926v3.822q-0.721-0.083-1.4-0.294l-0.070 0.196-3.206-1.806 3.78-5.040-0.938 0.126-3.668 3.668q-1.090-1.358-1.554-2.996l-1.694 0.224q0.569 2.19 2.058 3.976l-1.106 1.106q-1.872-2.166-2.492-4.886l-0.056 0.014-0.042-0.462q-0.003-0.060-0.014-0.126-0.103-0.625-0.14-1.274h0.056l-0.098-1.512 8.988-0.168h-5.698q0.133-1.406 0.686-2.66v0q0.401-0.897 1.050-1.722l4.368 4.368h0.336l-4.228-5.334 2.982-1.89 0.084 0.168q0.955-0.373 2.016-0.504v4.662l1.204 2.492z"></path>
<path fill="#2c7ed8" d="M13.86 15.358l0.056 0.14-1.162-0.644-0.238-0.14-0.574 0.756-3.78 5.040 3.206 1.806 0.070-0.196 2.562-6.454 0.518 1.106 2.422 5.222 0.714 1.526 0.658 1.428 0.112 0.238 3.458-2.226-7-8.26-1.022 0.658z"></path>
<path fill="#224886" d="M12.67 13.594l1.372-0.854-1.204-2.492-2.016-4.158-0.084-0.168-2.982 1.89 4.228 5.334h-0.336l-0.406 0.014-8.988 0.168 0.098 1.512 0.098 1.4 0.042 0.462 0.056-0.014 1.54-0.196 1.694-0.224 6.16-0.798 0.574-0.756 0.238 0.14-0.084-1.26z"></path>
<path fill="#8bbc22" d="M25.326 10.864l-1.54 0.294-8.89 1.652 0.294 2.226 0.672-0.056 2.17-0.14 7.91-0.546-0.434-3.458-0.182 0.028z"></path>
</svg>
<svg id="icon-line" width="28" height="28" viewBox="0 0 28 28" x="0" y="336">
<path fill="#ccc" d="M1.68 0.84h-1.4v26.88h26.88v-1.4h-25.48v-25.48z"></path>
<path fill="#8bbc21" d="M13.342 10.766l3.010-0.14-4.802-3.724-6.426 9.24-2.044-0.014v1.96l3.066 0.014 5.838-8.386 1.358 1.050zM26.152 8.372l-1.638-1.064-4.172 6.412-1.582-1.232-3.024 0.14 5.082 3.948 5.334-8.204z"></path>
<path fill="#2c7ed8" d="M25.536 2.576l-1.638-1.078-5.964 9.058-1.582 0.070-3.64 0.168-5.95 8.736h-3.682v1.96h4.718l5.978-8.778 1.96-0.084 3.29-0.154 6.51-9.898z"></path>
<path fill="#224886" d="M25.732 15.526l-1.638-1.078-2.996 4.578-6.314-5.040-6.3 8.862-5.404-0.042-0.014 1.96 6.426 0.056 5.684-8.022 6.384 5.096 4.172-6.37z"></path>
</svg>
<svg id="icon-spline" width="28" height="28" viewBox="0 0 28 28" x="0" y="384">
<path fill="#ccc" d="M1.68 0.84h-1.4v26.88h26.88v-1.4h-25.48v-25.48z"></path>
<path fill="#8bbc22" d="M26.866 13.104q-0.072-1.952-1.54-5.684-1.978-5.037-4.102-4.48-1.372 0.078-3.066 3.612l-0.014 0.014v0.014q-1.559 3.633-2.52 5.838 0.381 0.823 0.868 2.198 0.223-0.489 0.448-1.008 0.99-2.275 2.73-6.328 1.161-2.429 1.82-2.688h0.014q0.918 0.028 2.254 3.444 1.332 3.38 1.428 5.138l1.68-0.070zM15.456 16.786q-0.42-1.3-0.784-2.254-1.319 2.875-2.422 4.41v-0.014q-0.262 0.377-0.532 0.686 0.707 0.353 1.442 0.896 0.23-0.272 0.448-0.588v0q0.866-1.188 1.848-3.136zM10.248 20.846q-0.611 0.319-1.218 0.294v0q-0.175 0.362-0.364 0.658h0.014q-0.277 0.481-0.588 0.882 0.403 0.121 0.798 0.14 1.559 0.202 3.094-1.092-0.911-0.625-1.736-0.882zM6.776 19.796q-0.474-0.473-0.966-1.134l-1.61-2.59-1.428 0.882 1.652 2.674 0.028 0.028q0.507 0.678 1.008 1.204 0.686-0.634 1.316-1.064z"></path>
<path fill="#224886" d="M2.828 23.912q0.429-0.617 0.938-1.246l-0.28-0.154-0.826 1.456 0.658 0.364 0.056 0.028 0.042 0.014q0.122 0.058 0.238 0.098l-0.826-0.56zM9.24 20.678q-0.102-0.005-0.21 0-1.276 0.172-3.108 2.086-0.897 0.956-1.568 1.89 0.489 0.076 0.882-0.042v0q1.667-0.379 2.856-1.932 0.311-0.401 0.588-0.882h-0.014q0.189-0.296 0.364-0.658 0.11-0.221 0.21-0.462zM15.624 12.418q-0.152-0.332-0.294-0.574v-0.014q-1.484-2.659-3.332-1.792-1.249 0.39-2.128 2.828-0.096 0.286-1.148 4.158v0q-0.328 1.202-0.672 2.128 0.436-0.136 0.84-0.154v0q0.488-0.049 0.994 0.014 0.235-0.71 0.462-1.54v-0.014q1.020-3.758 1.106-4.032 0.536-1.485 1.148-1.82 0.62-0.101 1.26 1.050v0q0.35 0.627 0.812 1.876 0.364 0.954 0.784 2.254 0.059 0.153 0.112 0.308 1.176 3.655 1.876 5.026v0q0.206 0.395 0.406 0.728 0.214-0.138 0.434-0.336v-0.014q0.321-0.267 0.826-0.812-0.076-0.153-0.168-0.322v-0.014q-0.658-1.303-1.778-4.774-0.356-1.089-0.672-1.96-0.487-1.375-0.868-2.198zM26.908 21.084l-1.344-1.008q-2.475 3.286-4.788 3.22h-0.014q-0.292-0.054-0.588-0.28-0.473 0.502-0.784 0.756v0q-0.253 0.227-0.504 0.406 0.842 0.797 1.778 0.798v0q3.093 0.294 6.244-3.892z"></path>
<path fill="#328ad5" d="M24.5 18.396q1.225-1.015 2.212-1.036l0.042-1.68q-1.518-0.077-3.332 1.428-0.983 0.822-2.744 2.828-0.927 1.083-1.568 1.75-0.505 0.545-0.826 0.812v0.014q-0.22 0.198-0.434 0.336-0.627 0.45-1.092 0.406h-0.014q-0.437-0.117-1.134-0.672-1.119-0.989-1.75-1.512-0.348-0.3-0.7-0.56-0.735-0.543-1.442-0.896-0.951-0.478-1.834-0.602-0.506-0.063-0.994-0.014v0q-0.404 0.018-0.84 0.154-0.605 0.209-1.274 0.644-0.63 0.43-1.316 1.064-0.367 0.347-0.756 0.742-0.495 0.538-0.938 1.064-0.509 0.629-0.938 1.246l0.826 0.56 0.56 0.378q0.075-0.092 0.14-0.196 0.671-0.934 1.568-1.89 1.832-1.914 3.108-2.086 0.108-0.005 0.21 0 0.49 0.012 1.008 0.168 0.825 0.257 1.736 0.882 0.394 0.284 0.798 0.63 0.615 0.513 1.708 1.484l0.028 0.028q1.129 0.9 1.876 1.022 1.090 0.324 2.492-0.714 0.251-0.179 0.504-0.406v0q0.311-0.254 0.784-0.756 0.706-0.723 1.778-1.974 1.641-1.872 2.548-2.646z"></path>
</svg>
<svg id="icon-area" width="28" height="28" viewBox="0 0 28 28" x="0" y="432">
<path fill="#ccc" d="M1.68 0.84h-1.4v26.88h26.88v-1.4h-25.48v-25.48z"></path>
<path fill="#224886" d="M26.852 24.906v-9.604l-6.104 5.418-12.292 0.448-5.404 2.618v1.12h23.8z"></path>
<path fill="#98c63a" d="M24.318 11.018q1.414-1.302 2.52-2.436l0.014-6.706-9.73 9.282-7.196 1.82-6.86 6.398 3.318 0.112 4.872-2.716 7.098-1.008q3.192-2.17 5.964-4.746z"></path>
<path fill="#348fdc" d="M26.852 8.554l-0.014 0.028q-1.106 1.134-2.52 2.436-2.772 2.576-5.964 4.746l-7.098 1.008-4.872 2.716-3.318-0.112-0.014 4.41 5.404-2.618 12.292-0.448 6.104-5.418v-6.748z"></path>
</svg>
<svg id="icon-stacked_area" width="28" height="28" viewBox="0 0 28 28" x="0" y="480">
<path fill="#ccc" d="M1.68 0.84h-1.4v26.88h26.88v-1.4h-25.48v-25.48z"></path>
<path fill="#2e7ed8" d="M27.16 15.932v-3.626l-7.826 3.71-7.084-2.492-5.922 1.988-3.248-1.918v3.374l5.936 3.85 3.696-1.792 7.042 2.52 7.406-5.614z"></path>
<path fill="#224886" d="M27.16 24.934v-9.002l-7.406 5.614-7.042-2.52-3.696 1.792-5.936-3.85v7.966h24.080z"></path>
<path fill="#8bbc22" d="M27.16 12.306v-3.514l-7 3.136-8.162-3.024-5.894 2.534-3.024-1.708v3.864l3.248 1.918 5.922-1.988 7.084 2.492 7.826-3.71z"></path>
</svg>
<svg id="icon-percent_area" width="28" height="28" viewBox="0 0 28 28" x="0" y="528">
<path fill="#ccc" d="M1.68 0.84h-1.4v26.88h26.88v-1.4h-25.48v-25.48z"></path>
<path fill="#224886" d="M27.16 24.92v-10.402l-4.144 4.648-4.354-3.444-8.050 4.942-5.362-2.548-2.17 1.512v5.292h24.080z"></path>
<path fill="#2d7ed8" d="M27.16 2.408l-4.466 8.484-3.654-4.256-2.464 2.94-8.512-0.028-2.786 3.64-2.198-5.6v12.040l2.17-1.512 5.362 2.548 8.050-4.942 4.354 3.444 4.144-4.648v-12.11z"></path>
<path fill="#8bbc22" d="M22.694 10.892l4.466-8.484v-1.568h-24.080v6.748l2.198 5.6 2.786-3.64 8.512 0.028 2.464-2.94 3.654 4.256z"></path>
</svg>
<svg id="icon-area_spline" width="28" height="28" viewBox="0 0 28 28" x="0" y="576">
<path fill="#ccc" d="M1.68 0.84h-1.4v26.88h26.88v-1.4h-25.48v-25.48z"></path>
<path fill="#224886" d="M27.16 24.262q-0.98-1.148-2.128-2.282-2.968-2.94-4.368-2.94-0.728 0-1.806 0.798-0.378 0.28-2.058 1.764-2.912 2.548-4.816 2.534-0.77 0-2.702-1.064t-3.122-1.064q-1.274 0-3.066 1.176l-0.014 0.014v1.722h24.080v-0.658z"></path>
<path fill="#2f7ed8" d="M25.032 21.98q1.148 1.134 2.128 2.282v-5.348q-1.792-3.304-2.702-4.55-1.54-2.086-3.514-1.932-0.644 0.056-1.764 1.442-0.014 0.028-2.17 3.010-3.136 4.326-5.25 4.326-2.1 0-3.304-0.658-1.316-0.728-2.184-0.784t-1.4 0.126q-0.896 0.28-1.792 1.288v2.016l0.014-0.014q1.792-1.176 3.066-1.176 1.19 0 3.122 1.064t2.702 1.064q1.904 0.014 4.816-2.534 1.68-1.484 2.058-1.764 1.078-0.798 1.806-0.798 1.4 0 4.368 2.94z"></path>
<path fill="#89ba20" d="M27.16 12.096q-1.050-2.324-2.534-3.444-1.526-1.148-3.626-1.148-1.512 0-3.5 1.596-1.358 1.092-3.556 3.514-2.59 2.842-3.304 3.514-1.708 1.596-2.716 1.596-1.61 0-3.388-1.806l-1.456-1.806v7.070q0.896-1.008 1.792-1.288 0.532-0.182 1.4-0.126t2.184 0.784q1.204 0.658 3.304 0.658 2.114 0 5.25-4.326 2.156-2.982 2.17-3.010 1.12-1.386 1.764-1.442 1.974-0.154 3.514 1.932 0.91 1.246 2.702 4.55v-6.818z"></path>
</svg>
<svg id="icon-spider_line" width="28" height="28" viewBox="0 0 28 28" x="0" y="624">
<path fill="#ccc" d="M23.66 23.66q4.005-3.993 4.004-9.66 0.001-5.667-4.004-9.674-3.993-3.991-9.66-3.99-0.196-0.001-0.392 0.014-5.406 0.132-9.282 3.976l-0.014 0.014-0.028 0.042q-0.038 0.052-0.098 0.098l-0.014 0.028q-0.029 0.030-0.056 0.056-1.759 1.839-2.702 4.032-1.073 2.473-1.078 5.376v0.056q0.004 1.25 0.21 2.408h-0.014q0.695 4.013 3.64 7.042 0.030 0.043 0.056 0.070 0.019 0.017 0.028 0.028 0.016 0.014 0.028 0.028l0.028 0.042 0.014 0.014q3.881 3.863 9.296 4.004v0q0.019-0 0.028 0h0.028q0.165 0 0.322 0 5.667 0.001 9.66-4.004zM23.058 5.726q2.969 3.213 3.192 7.574h-2.59q-0.203-3.298-2.422-5.768l1.82-1.806zM26.25 14.7q-0.225 4.395-3.248 7.616l-1.82-1.82q2.273-2.457 2.478-5.796h2.59zM22.050 4.746l-1.82 1.806q-2.504-2.125-5.866-2.24v-2.576q4.422 0.119 7.686 3.010zM12.964 1.778v2.59q-3.135 0.282-5.502 2.422l-1.792-1.792q3.112-2.901 7.294-3.22zM20.244 8.526q1.815 2.056 2.016 4.774h-6.804l4.788-4.774zM19.222 7.546l-4.858 4.858v-6.692q2.779 0.112 4.858 1.834zM12.964 5.768v6.524l-4.508-4.508q1.95-1.738 4.508-2.016zM5.124 10.010v0.014q-0.674 1.533-0.798 3.276h-2.576q0.115-2.22 0.952-4.144 0.729-1.689 1.988-3.15l1.82 1.82q-0.861 1.032-1.386 2.184zM6.398 10.584q0.427-0.927 1.106-1.764l4.48 4.48h-6.244q0.103-1.442 0.658-2.716v0zM5.894 15.918q-0.118-0.584-0.168-1.218h6.342l-4.508 4.536q-1.233-1.497-1.68-3.346l0.014 0.028zM1.75 14.7h2.576q0.050 0.781 0.196 1.498v0.014q0.534 2.228 2.044 4.018l-1.82 1.82q-2.258-2.559-2.828-5.852-0.123-0.727-0.168-1.498zM5.726 23.058l1.806-1.82q2.344 2.116 5.432 2.408v2.576q-4.143-0.314-7.238-3.164zM22.26 14.7q-0.206 2.758-2.072 4.802l-4.816-4.802h6.888zM14.364 26.25v-2.576q3.334-0.102 5.81-2.198l1.82 1.82q-3.242 2.85-7.63 2.954zM14.364 15.68l4.83 4.816q-2.077 1.685-4.83 1.778v-6.594zM12.964 15.792v6.44q-2.511-0.276-4.438-1.988l4.438-4.452z"></path>
<path fill="#2f7ed8" d="M18.088 15.764l0.154-0.21-2.884 1.064-1.54 2.044-1.162 0.448-0.238-1.428-1.596 0.588 0.532 3.15 3.514-1.372 0.826-1.092 2.394-3.192zM15.414 10.318l0.028 1.694 3.57-0.56 0.238-0.042-0.322 0.434-1.372 1.834 1.764 0.448 3.78-5.040-3.71 0.588-1.778 0.294-2.198 0.35zM13.776 9.982l-0.686-0.308-7.042-3.192-0.14 0.154 3.556 5.782 0.504 0.826 0.126 0.784 0.336 1.946 1.302-2.338-0.070-0.378-0.098-0.616-0.616-0.994-0.938-1.54 1.75 0.798 1.19 0.546 0.826-1.47zM12.096 15.834l-0.322 0.602 0.406-0.154-0.084-0.448z"></path>
<path fill="#8bbc21" d="M10.416 18.41l-1.596 0.588 0.98 5.726 7.112-3.458 1.176-5.502-2.394 3.192-0.252 1.148-4.368 2.128-0.658-3.822zM9.464 12.418l-6.832 1.050 6.020 4.536 0.14 0.896 1.134-2.030-3.094-2.338 3.262-0.504-0.126-0.784-0.504-0.826zM19.012 11.452l-1.778 0.28-0.378 1.778 0.7 0.168 1.372-1.834 0.084-0.392zM12.95 11.452l-1.19-0.546-0.812 0.742 0.616 0.994 0.098 0.616 0.574-0.518 0.714-1.288zM13.090 9.674l0.686 0.308 1.078-1.946-1.764 1.638zM20.888 2.66l-0.14-0.084-5.544 5.138 0.154 0.042 0.042 2.058 2.8-2.59-0.588 2.744 1.778-0.294 1.498-7.014z"></path>
<path fill="#224886" d="M15.050 7.686l-0.196 0.35-1.078 1.946-0.826 1.47-0.714 1.288-0.504 0.896-1.302 2.338-0.504 0.896-1.134 2.030-0.070 0.14 0.098-0.042 1.596-0.588 0.406-0.14 1.596-0.588 2.94-1.064 2.884-1.064 2.492-0.91-0.014-0.168-1.4-0.35-1.764-0.448-0.7-0.168-1.386-0.35-0.028-1.148-0.028-1.694-0.014-0.504-0.042-2.058-0.154-0.042-0.154-0.028zM11.774 16.436l0.322-0.602 1.96-3.486 0.042 1.904 2.156 0.546-4.074 1.484-0.406 0.154z"></path>
</svg>
<svg id="icon-spider_area" width="28" height="28" viewBox="0 0 28 28" x="0" y="672">
<path fill="#ccc" d="M23.66 23.66q4.005-3.993 4.004-9.66 0.001-5.667-4.004-9.674-3.993-3.991-9.66-3.99-0.196-0.001-0.392 0.014-5.406 0.132-9.282 3.976l-0.014 0.014-0.028 0.042q-0.038 0.052-0.098 0.098l-0.014 0.028q-0.029 0.030-0.056 0.056-1.759 1.839-2.702 4.032-1.073 2.473-1.078 5.376v0.056q0.004 1.25 0.21 2.408h-0.014q0.695 4.013 3.64 7.042 0.030 0.043 0.056 0.070 0.019 0.017 0.028 0.028 0.016 0.014 0.028 0.028l0.028 0.042 0.014 0.014q3.881 3.863 9.296 4.004v0q0.019-0 0.028 0h0.028q0.165 0 0.322 0 5.667 0.001 9.66-4.004zM23.058 5.726q2.969 3.213 3.192 7.574h-2.59q-0.203-3.298-2.422-5.768l1.82-1.806zM26.25 14.7q-0.225 4.395-3.248 7.616l-1.82-1.82q2.273-2.457 2.478-5.796h2.59zM22.050 4.746l-1.82 1.806q-2.504-2.125-5.866-2.24v-2.576q4.422 0.119 7.686 3.010zM12.964 1.778v2.59q-3.135 0.282-5.502 2.422l-1.792-1.792q3.112-2.901 7.294-3.22zM20.244 8.526q1.815 2.056 2.016 4.774h-6.804l4.788-4.774zM19.222 7.546l-4.858 4.858v-6.692q2.779 0.112 4.858 1.834zM12.964 5.768v6.524l-4.508-4.508q1.95-1.738 4.508-2.016zM5.124 10.010v0.014q-0.674 1.533-0.798 3.276h-2.576q0.115-2.22 0.952-4.144 0.729-1.689 1.988-3.15l1.82 1.82q-0.861 1.032-1.386 2.184zM6.398 10.584q0.427-0.927 1.106-1.764l4.48 4.48h-6.244q0.103-1.442 0.658-2.716v0zM5.894 15.918q-0.118-0.584-0.168-1.218h6.342l-4.508 4.536q-1.233-1.497-1.68-3.346l0.014 0.028zM1.75 14.7h2.576q0.050 0.781 0.196 1.498v0.014q0.534 2.228 2.044 4.018l-1.82 1.82q-2.258-2.559-2.828-5.852-0.123-0.727-0.168-1.498zM5.726 23.058l1.806-1.82q2.344 2.116 5.432 2.408v2.576q-4.143-0.314-7.238-3.164zM22.26 14.7q-0.206 2.758-2.072 4.802l-4.816-4.802h6.888zM14.364 26.25v-2.576q3.334-0.102 5.81-2.198l1.82 1.82q-3.242 2.85-7.63 2.954zM14.364 15.68l4.83 4.816q-2.077 1.685-4.83 1.778v-6.594zM12.964 15.792v6.44q-2.511-0.276-4.438-1.988l4.438-4.452z"></path>
<path fill="#8bbc22" d="M13.874 3.738l-8.218 9.688 3.556 8.512 11.522 0.098 4.424-7.364-11.284-10.934zM9.674 21.28l-2.086-5.208 7.882-8.54 6.16 8.218-4.424 4.928-7.532 0.602z"></path>
<path fill="#2e7ed8" d="M7.588 16.072l2.086 5.208 7.532-0.602 4.424-4.928-6.16-8.218-7.882 8.54zM11.452 19.18l-0.014-3.724 3.038-3.584 2.618 3.864-1.554 3.276-4.088 0.168z"></path>
<path fill="#224886" d="M11.438 15.456l0.014 3.724 4.088-0.168 1.554-3.276-2.618-3.864-3.038 3.584z"></path>
</svg>
<svg id="icon-column_line" width="28" height="28" viewBox="0 0 28 28" x="0" y="720">
<path fill="#ccc" d="M1.68 0.84h-1.4v26.88h26.88v-1.4h-25.48v-25.48z"></path>
<path fill="#2e7ed8" d="M11.2 24.934h5.6v-11.214h-5.6v11.214z"></path>
<path fill="#224886" d="M9.52 8.666h-5.6v16.268h5.6v-16.268z"></path>
<path fill="#8bbc22" d="M24.080 24.934v-13.454h-5.6v13.454h5.6z"></path>
<path fill="#8bbc21" d="M27.65 7.924l-4.368-3.234-8.596 3.262-7.672-6.832-3.962 1.456 0.672 1.834 2.856-1.050 7.686 6.846 8.708-3.304 3.514 2.604 1.162-1.582z"></path>
</svg>
<svg id="icon-column_spline" width="28" height="28" viewBox="0 0 28 28" x="0" y="768">
<path fill="#ccc" d="M1.68 0.84h-1.4v26.88h26.88v-1.4h-25.48v-25.48z"></path>
<path fill="#2e7ed8" d="M11.2 24.934h5.6v-19.068h-5.6v19.068z"></path>
<path fill="#224886" d="M9.52 8.666h-5.6v16.268h5.6v-16.268z"></path>
<path fill="#8bbc22" d="M24.080 24.934v-8.96h-5.6v8.96h5.6zM27.832 6.552l-1.946-0.238q-0.166 1.39-0.518 2.66v0.014q-0.477 1.83-1.036 2.072-0.191-0.133-0.812-0.98v-0.014q-0.266-0.368-2.114-3.304-3.518-5.592-6.188-5.936v0q-1.855-0.353-3.906 0.742v0q-2.386 1.267-3.024 1.456-1.635 0.462-3.052-0.56-0.723-0.519-1.12-1.134l-1.666 1.036q0.569 0.925 1.638 1.694 2.195 1.582 4.732 0.854 0.734-0.189 3.416-1.61v-0.014q1.39-0.737 2.632-0.532h0.014q1.985 0.473 4.872 5.054 1.892 3.012 2.184 3.416h0.014q1.528 2.119 2.632 1.778 1.76-0.032 2.674-3.514v0q0.389-1.404 0.574-2.94z"></path>
</svg>
<svg id="icon-stacked_column_line" width="28" height="28" viewBox="0 0 28 28" x="0" y="816">
<path fill="#ccc" d="M1.68 0.84h-1.4v26.88h26.88v-1.4h-25.48v-25.48z"></path>
<path fill="#8bbc21" d="M27.65 7.924l-4.368-3.234-8.596 3.262-7.672-6.832-3.962 1.456 0.672 1.834 2.856-1.050 7.686 6.846 8.708-3.304 3.514 2.604 1.162-1.582z"></path>
<path fill="#8bbc22" d="M11.2 13.44v3.5h5.6v-3.5h-5.6zM3.92 12.964h5.6v-4.298h-5.6v4.298zM24.080 15.652v-4.172h-5.6v4.172h5.6z"></path>
<path fill="#224886" d="M11.2 21.098v3.836h5.6v-3.836h-5.6zM9.52 24.934v-6.090h-5.6v6.090h5.6zM24.080 24.934v-4.914h-5.6v4.914h5.6z"></path>
<path fill="#2e7ed8" d="M11.2 16.94v4.158h5.6v-4.158h-5.6zM9.52 12.964h-5.6v5.88h5.6v-5.88zM24.080 20.020v-4.368h-5.6v4.368h5.6z"></path>
</svg>
<svg id="icon-stacked_column_spline" width="28" height="28" viewBox="0 0 28 28" x="0" y="864">
<path fill="#ccc" d="M1.68 0.84h-1.4v26.88h26.88v-1.4h-25.48v-25.48z"></path>
<path fill="#8bbc22" d="M27.832 6.552l-1.946-0.238q-0.166 1.39-0.518 2.66v0.014q-0.477 1.83-1.036 2.072-0.191-0.133-0.812-0.98v-0.014q-0.266-0.368-2.114-3.304-3.518-5.592-6.188-5.936v0q-1.855-0.353-3.906 0.742v0q-2.386 1.267-3.024 1.456-1.635 0.462-3.052-0.56-0.723-0.519-1.12-1.134l-1.666 1.036q0.569 0.925 1.638 1.694 2.195 1.582 4.732 0.854 0.734-0.189 3.416-1.61v-0.014q1.39-0.737 2.632-0.532h0.014q1.985 0.473 4.872 5.054 1.892 3.012 2.184 3.416h0.014q1.528 2.119 2.632 1.778 1.76-0.032 2.674-3.514v0q0.389-1.404 0.574-2.94zM3.92 8.666v4.298h5.6v-4.298h-5.6zM16.8 11.354v-5.474h-5.6v5.474h5.6zM24.080 17.654v-3.094h-5.6v3.094h5.6z"></path>
<path fill="#224886" d="M9.52 24.934v-6.090h-5.6v6.090h5.6zM11.2 18.396v6.538h5.6v-6.538h-5.6zM24.080 24.934v-3.976h-5.6v3.976h5.6z"></path>
<path fill="#2e7ed8" d="M9.52 12.964h-5.6v5.88h5.6v-5.88zM16.8 18.396v-7.042h-5.6v7.042h5.6zM24.080 20.958v-3.304h-5.6v3.304h5.6z"></path>
</svg>
<svg id="icon-multi_axis_line" width="28" height="28" viewBox="0 0 28 28" x="0" y="912">
<path fill="#ccc" d="M27.72 0.84h-1.4v25.48h-24.64v-25.48h-1.4v26.88h27.44v-26.88z"></path>
<path fill="#224886" d="M25.34 15.092l-1.358-1.414-4.396 4.242h-9.45l-3.724 5.166 1.596 1.148 3.136-4.354h9.24l4.956-4.788z"></path>
<path fill="#2c7ed8" d="M25.69 9.674l-1.358-1.414-6.3 6.006-9.31 0.014-4.914 6.678 1.582 1.162 4.326-5.88 9.1-0.014 6.874-6.552z"></path>
<path fill="#8abb22" d="M25.2 4.998l-1.358-1.414-7.35 7.070-9.030 0.028-5.026 6.482 1.554 1.204 4.438-5.726 8.862-0.028 7.91-7.616z"></path>
</svg>
<svg id="icon-multi_axis_spline" width="28" height="28" viewBox="0 0 28 28" x="0" y="960">
<path fill="#224886" d="M25.018 8.834l0.14-1.96q-5.392-0.387-9.464 2.352h-0.014l-0.014 0.014q-1.716 1.245-2.492 1.708v-0.014q-1.045 0.621-2.044 0.56h-0.014q-0.875-0.119-2.058-1.302-1.921-1.939-3.696-2.52h-0.014q-0.662-0.212-1.61-0.196l-0.728 0.042 0.168 1.96 0.672-0.042q0.515-0.002 0.882 0.098 0.017 0.011 0.028 0.014 1.386 0.494 2.912 2.030 1.856 1.855 3.332 1.876 1.546 0.129 3.164-0.826h0.014q0.814-0.485 2.604-1.778 3.544-2.357 8.232-2.016z"></path>
<path fill="#8bbc22" d="M3.64 12.95h-0.112l-0.616 0.182 0.56 1.876 0.336-0.098q0.674 0.024 1.904 0.42h0.014q2.104 0.743 4.256 4.060 0.439-0.204 0.868-0.476h0.014q0.051-0.030 0.112-0.070l0.014-0.014q0.306-0.196 0.658-0.476-2.643-4.095-5.334-4.886h0.014q-1.763-0.57-2.688-0.518zM25.060 15.344l-0.28-1.932q-2.67 0.394-4.606 2.184v0.014q-1.3 1.187-2.562 3.444v-0.014q-1.445 2.563-1.638 2.814l-0.028 0.028q-0.564 0.781-1.176 0.798h-0.014q-0.397-0.131-0.98-0.924-0.198-0.277-1.092-1.736-0.325 0.26-0.616 0.448-0.099 0.066-0.182 0.112-0.007 0.011-0.014 0.014-0.422 0.26-0.854 0.462 0.959 1.566 1.176 1.862 1.283 1.746 2.422 1.722l-0.014-0.014q1.586 0.228 2.912-1.554 0.011-0.007 0.014-0.028 0.28-0.356 1.792-3.038v0q1.086-1.936 2.184-2.968h0.014q1.485-1.389 3.542-1.694z"></path>
<path fill="#2c7ed8" d="M24.808 12.152l0.294-1.932q-3.264-0.504-6.048 1.218-1.594 0.981-4.228 3.822-1.898 2.072-3.178 3.094-0.352 0.28-0.658 0.476l-0.014 0.014q-0.061 0.040-0.112 0.070h-0.014q-0.429 0.272-0.868 0.476-1.785 0.81-3.78 0.588-1.832-0.203-2.408-0.448l-0.84 1.764q0.712 0.371 3.024 0.63v0q2.674 0.299 5.040-0.868 0.432-0.202 0.854-0.462 0.007-0.003 0.014-0.014 0.083-0.045 0.182-0.112 0.291-0.188 0.616-0.448 1.435-1.092 3.584-3.43 2.392-2.577 3.822-3.486 2.172-1.344 4.718-0.952z"></path>
<path fill="#ccc" d="M27.72 0.84h-1.4v25.48h-24.64v-25.48h-1.4v26.88h27.44v-26.88z"></path>
</svg>
<svg id="icon-multi_axis_column" width="28" height="28" viewBox="0 0 28 28" x="0" y="1008">
<path fill="#8bbc22" d="M10.080 25.2h3.080v-22.232h-3.080v22.232zM25.48 25.2v-16.268h-3.080v16.268h3.080z"></path>
<path fill="#224886" d="M15.12 25.2h3.080v-10.164h-3.080v10.164zM2.8 25.2h3.080v-11.060h-3.080v11.060z"></path>
<path fill="#2c7ed8" d="M18.76 25.2h3.080v-8.008h-3.080v8.008zM9.8 11.872h-3.080v13.328h3.080v-13.328z"></path>
<path fill="#ccc" d="M27.72 0.84h-1.4v25.48h-24.64v-25.48h-1.4v26.88h27.44v-26.88z"></path>
</svg>
<svg id="icon-scatter" width="28" height="28" viewBox="0 0 28 28" x="0" y="1056">
<path fill="#ccc" d="M1.68 0.84h-1.4v26.88h26.88v-1.4h-25.48v-25.48z"></path>
<path fill="#224584" d="M13.454 18.494q-0.546 0-0.98 0.392-0.378 0.406-0.378 0.938 0 0.588 0.378 0.952 0.434 0.42 0.98 0.42 0.574 0 0.952-0.42 0.406-0.364 0.406-0.952 0-0.532-0.406-0.938-0.378-0.392-0.952-0.392zM18.69 15.624q0-0.56-0.378-0.938-0.42-0.406-0.952-0.406-0.588 0-0.952 0.406-0.406 0.378-0.406 0.938 0 0.574 0.406 0.98 0.364 0.42 0.952 0.42 0.532 0 0.952-0.42 0.378-0.406 0.378-0.98zM10.976 17.108q-0.392-0.42-0.924-0.42-0.574 0-1.022 0.42-0.364 0.378-0.364 0.924 0 0.616 0.364 0.994 0.448 0.42 1.022 0.42 0.532 0 0.924-0.42 0.434-0.378 0.434-0.994 0-0.546-0.434-0.924z"></path>
<path fill="#8bbc22" d="M13.23 16.562q0.546 0 0.91-0.378 0.406-0.392 0.406-0.966 0-0.504-0.406-0.938-0.364-0.392-0.91-0.392-0.588 0-0.966 0.392-0.42 0.434-0.42 0.938 0 0.574 0.42 0.966 0.378 0.378 0.966 0.378zM21.112 9.688q0.462-0.266 0.616-0.84 0.154-0.546-0.14-1.022-0.28-0.49-0.826-0.616-0.546-0.182-1.008 0.070-0.518 0.336-0.644 0.896-0.154 0.532 0.14 1.050 0.28 0.434 0.826 0.588 0.49 0.168 1.036-0.126zM23.856 9.702q-0.588 0-0.966 0.392-0.42 0.406-0.42 0.952 0 0.56 0.42 0.994 0.378 0.378 0.966 0.378 0.546 0 0.938-0.378 0.392-0.434 0.392-0.994 0-0.546-0.392-0.952-0.392-0.392-0.938-0.392zM24.262 5.726q-0.574 0-0.994 0.406-0.35 0.42-0.35 0.952 0 0.546 0.35 0.966 0.42 0.378 0.994 0.378t0.952-0.378q0.392-0.42 0.392-0.966 0-0.532-0.392-0.952-0.378-0.406-0.952-0.406z"></path>
<path fill="#2c7ed8" d="M5.362 22.372q-0.406-0.42-0.924-0.42-0.546 0-0.966 0.42-0.392 0.392-0.392 0.966t0.392 0.966q0.42 0.406 0.966 0.406 0.518 0 0.924-0.406 0.406-0.392 0.406-0.966t-0.406-0.966zM6.874 19.908q0-0.56-0.392-0.994-0.42-0.364-0.952-0.364-0.574 0-0.966 0.364-0.378 0.434-0.378 0.994t0.378 0.938q0.392 0.448 0.966 0.448 0.532 0 0.952-0.448 0.392-0.378 0.392-0.938zM7.994 16.478q0-0.574-0.406-0.966-0.378-0.406-0.938-0.406-0.588 0-0.994 0.406-0.406 0.392-0.406 0.966 0 0.56 0.406 0.952t0.994 0.392q0.56 0 0.938-0.392 0.406-0.392 0.406-0.952zM18.984 10.906q-0.588 0-0.994 0.378-0.364 0.378-0.364 0.98 0 0.574 0.364 0.952 0.406 0.392 0.994 0.392 0.532 0 0.952-0.392 0.392-0.378 0.392-0.952 0-0.602-0.392-0.98-0.42-0.378-0.952-0.378zM22.904 15.708q0.518-0.308 0.63-0.826 0.154-0.56-0.126-1.064-0.294-0.476-0.826-0.588-0.532-0.154-1.036 0.098-0.504 0.294-0.63 0.84-0.154 0.518 0.126 1.008 0.28 0.532 0.854 0.658 0.518 0.154 1.008-0.126z"></path>
</svg>
<svg id="icon-bubble" width="28" height="28" viewBox="0 0 28 28" x="0" y="1104">
<path fill="#ccc" d="M1.68 0.84h-1.4v26.88h26.88v-1.4h-25.48v-25.48z"></path>
<path fill="#224784" d="M20.202 18.564q0-1.764-1.232-2.996-1.246-1.204-2.982-1.204t-2.968 1.204q-1.232 1.232-1.232 2.996 0 1.722 1.232 2.954 1.232 1.246 2.968 1.246t2.982-1.246q1.232-1.232 1.232-2.954z"></path>
<path fill="#2c7ed8" d="M5.474 10.92q-1.008 0-1.708 0.686-0.686 0.714-0.686 1.694 0 0.966 0.686 1.694 0.7 0.686 1.708 0.686 0.98 0 1.694-0.686 0.658-0.728 0.658-1.694 0-0.98-0.658-1.694-0.714-0.686-1.694-0.686zM5.040 6.16q-0.784 0-1.372 0.532-0.588 0.588-0.588 1.428 0 0.784 0.588 1.372t1.372 0.588 1.372-0.588 0.588-1.372q0-0.84-0.588-1.428-0.588-0.532-1.372-0.532zM27.090 17.388q0-1.218-0.868-2.086-0.882-0.868-2.072-0.868-1.218 0-2.058 0.868-0.868 0.868-0.868 2.086t0.868 2.086q0.84 0.854 2.058 0.854 1.19 0 2.072-0.854 0.868-0.868 0.868-2.086z"></path>
<path fill="#8bbc22" d="M13.16 7.98q0-1.134-0.77-1.904-0.756-0.756-1.89-0.756-1.092 0-1.876 0.756-0.784 0.77-0.784 1.904 0 1.092 0.784 1.862 0.784 0.798 1.876 0.798 1.134 0 1.89-0.798 0.77-0.77 0.77-1.862zM21.98 10.612q-0.77-0.742-1.764-0.742-1.050 0-1.778 0.742-0.728 0.728-0.728 1.778 0 1.008 0.728 1.764 0.728 0.714 1.778 0.714 0.994 0 1.764-0.714 0.714-0.756 0.714-1.764 0-1.050-0.714-1.778z"></path>
</svg>
<svg id="icon-pie" width="28" height="28" viewBox="0 0 28 28" x="0" y="1152">
<path fill="#8bbc22" d="M14 1.344q-5.236 0-8.96 3.696l8.96 8.96v-12.656z"></path>
<path fill="#2c7ed8" d="M1.344 14q0 5.236 3.696 8.932 0.007 0.007 0.014 0.014l8.946-8.946-8.96-8.96q-3.696 3.724-3.696 8.96z"></path>
<path fill="#224886" d="M22.946 22.932q3.71-3.696 3.71-8.932t-3.71-8.96q-3.71-3.696-8.946-3.696v12.656l-8.946 8.946q0.069 0.068 0.14 0.126 3.676 3.584 8.806 3.584 5.236 0 8.946-3.724z"></path>
</svg>
<svg id="icon-dual_level_pie" width="28" height="28" viewBox="0 0 28 28" x="0" y="1200">
<path fill="#2c7ed8" d="M6.328 8.218l-2.45-1.876q-2.534 3.304-2.534 7.658 0 5.25 3.696 8.946 3.71 3.71 8.96 3.71 3.175 0 5.782-1.358 1.664-0.866 3.094-2.282l-2.156-2.198q-0.632 0.628-1.33 1.106-2.347 1.653-5.39 1.652-3.975 0-6.79-2.814-2.786-2.787-2.786-6.762 0.001-3.287 1.904-5.782zM7.84 18.956q0.267 0.323 0.56 0.616 2.323 2.324 5.6 2.324 3.277-0.001 5.572-2.324 0.918-0.898 1.47-1.96l-7.042-3.612-6.16 4.956z"></path>
<path fill="#8bbc22" d="M14 4.424v-3.080q-3.473 0-6.272 1.61-0.168 0.104-0.336 0.21-0.413 0.254-0.812 0.546-0.801 0.593-1.54 1.33-0.631 0.633-1.162 1.302l2.45 1.876q0.406-0.516 0.882-1.008 0.018-0.003 0.028-0.014 0.752-0.744 1.582-1.288 0.274-0.174 0.546-0.336 2.078-1.148 4.634-1.148zM9.926 7.196q-0.806 0.501-1.526 1.204-2.297 2.322-2.296 5.6-0 2.85 1.736 4.956l6.16-4.956-4.074-6.804z"></path>
<path fill="#224886" d="M23.576 14q0 0.035 0 0.070-0.014 2.332-1.008 4.256-0.001 0.015-0.014 0.028-0.666 1.302-1.792 2.408-0.016 0.030-0.042 0.056l2.156 2.198q0.036-0.036 0.070-0.070 2.058-2.050 2.968-4.578l0.014-0.014q0.717-1.993 0.728-4.284 0-0.035 0-0.070 0-5.25-3.71-8.96-3.671-3.671-8.876-3.696-0.035 0-0.070 0v3.080q0.035 0 0.070 0 3.93 0.025 6.692 2.786 2.814 2.815 2.814 6.79zM19.572 8.4q-2.295-2.296-5.572-2.296-2.056-0-3.738 0.896-0.16 0.098-0.322 0.196-0.007 0.004-0.014 0l4.074 6.804 7.042 3.612q0.83-1.578 0.854-3.5 0-0.056 0-0.112-0-3.277-2.324-5.6z"></path>
</svg>
<svg id="icon-semi_pie" width="28" height="28" viewBox="0 0 28 28" x="0" y="1248">
<path fill="#2c7ed8" d="M4.41 13.342l-0.014 0.014 9.604 9.59 0.028-0.028 9.59-9.576q-3.99-3.976-9.618-3.976-5.614 0-9.59 3.976z"></path>
<path fill="#224886" d="M27.58 22.96v-0.014h-13.58l-0.028-0.028-9.576-9.562q-0.070 0.070-0.14 0.14-3.826 3.952-3.836 9.422 0 0.014 0 0.028v0.014h27.16z"></path>
<path fill="#8bbc22" d="M27.58 22.946q0-0.014 0-0.028-0.010-5.582-3.962-9.576l-9.618 9.604h13.58z"></path>
</svg>
<svg id="icon-heat_map" width="28" height="28" viewBox="0 0 28 28" x="0" y="1296">
<path fill="#224584" d="M9.52 13.72v5.040h5.040v-5.040h-5.040zM15.68 19.88v5.040h5.040v-5.040h-5.040zM9.52 19.88v5.040h5.040v-5.040h-5.040zM3.080 19.88v5.040h5.040v-5.040h-5.040zM8.12 13.72h-5.040v5.040h5.040v-5.040zM3.080 7.56v5.040h5.040v-5.040h-5.040z"></path>
<path fill="#2c7ed8" d="M8.12 6.44v-5.040h-5.040v5.040h5.040zM20.72 13.72h-5.040v5.040h5.040v-5.040zM14.56 12.6v-5.040h-5.040v5.040h5.040zM15.68 7.56v5.040h5.040v-5.040h-5.040zM14.56 6.44v-5.040h-5.040v5.040h5.040zM27.16 18.76v-5.040h-5.040v5.040h5.040zM27.16 24.92v-5.040h-5.040v5.040h5.040z"></path>
<path fill="#8bbc22" d="M20.72 6.44v-5.040h-5.040v5.040h5.040zM27.16 12.6v-5.040h-5.040v5.040h5.040zM27.16 6.44v-5.040h-5.040v5.040h5.040z"></path>
</svg>
<svg id="icon-time_series_heap_map" width="28" height="28" viewBox="0 0 28 28" x="0" y="1344">
<path fill="#8bbc22" d="M7.308 17.206h-4.228v4.032h4.228v-4.032zM14.434 17.206h-1.596v4.704h1.596v-4.704zM22.764 13.16v-8.134h-2.87v-4.186h-3.402v4.2h1.708v3.010h-5.502v2.954h-2.394v-5.964h-1.792v-4.2h-5.432v4.214h4.004v8.106h3.206v0.014h7.812v8.694h3.682v3.052h5.376v-3.038h-2.856v-4.774h-3.612v-3.948h2.072z"></path>
<path fill="#2c7ed8" d="M3.080 21.238v3.682h7.238v-3.682h-7.238zM10.29 13.174v-0.014h-3.206v-8.106h-4.004v12.152h7.21v-4.032zM22.764 5.026v8.134h-2.072v3.948h3.612v4.774h2.856v-21.042h-7.266v4.186h2.87z"></path>
<path fill="#224584" d="M10.29 17.206h-2.982v4.032h3.010v3.682h11.466v-3.052h-3.682v-8.694h-7.812v4.032zM12.838 17.206h1.596v4.704h-1.596v-4.704zM16.492 5.040v-4.2h-7.98v4.2h1.792v5.964h2.394v-2.954h5.502v-3.010h-1.708z"></path>
</svg>
<svg id="icon-dual_measure_tree_map" width="28" height="28" viewBox="0 0 28 28" x="0" y="1392">
<path fill="#7a91b6" d="M13.426 8.652h-10.346v16.268h10.346v-16.268z"></path>
<path fill="#a7b6cf" d="M13.426 7.532v-6.692h-10.346v6.692h10.346z"></path>
<path fill="#4e6d9e" d="M27.16 24.92v-11.536h-12.614v11.536h12.614z"></path>
<path fill="#224886" d="M27.16 12.306v-11.466h-12.614v11.466h12.614z"></path>
</svg>
<svg id="icon-tree_map" width="28" height="28" viewBox="0 0 28 28" x="0" y="1440">
<path fill="#8bbc22" d="M3.080 24.92h15.12v-14.574h-15.12v14.574z"></path>
<path fill="#224584" d="M18.2 9.212v-8.372h-15.12v8.372h15.12z"></path>
<path fill="#2c7ed8" d="M27.16 19.054v-18.214h-7.826v18.214h7.826z"></path>
<path fill="#ee9020" d="M27.16 24.92v-4.774h-7.826v4.774h7.826z"></path>
</svg>
<svg id="icon-parent_tree_map" width="28" height="28" viewBox="0 0 28 28" x="0" y="1488">
<path fill="#224584" d="M6.706 9.212v-8.372h-3.626v8.372h3.626zM18.2 9.212v-3.766h-10.654v3.766h10.654zM18.2 4.606v-3.766h-10.654v3.766h10.654z"></path>
<path fill="#fff" d="M18.2 5.446v-0.84h-10.654v-3.766h-0.84v8.372h0.84v-3.766h10.654zM23.66 0.84v-0.014h-0.84v5.852h-3.486v0.84h3.486v6.16h-3.486v0.84h7.826v-0.84h-3.5v-12.838zM13.706 10.36h-0.84v3.598h-9.8v0.84h4.48v10.122h0.84v-10.122h4.48v10.122h0.84v-5.642h4.578v-0.84h-4.578v-8.078zM22.694 24.92v-4.774h-0.84v4.774h0.84z"></path>
<path fill="#2c7ed8" d="M22.82 13.678v-6.16h-3.486v6.16h3.486zM22.82 6.678v-5.838h-3.486v5.838h3.486zM27.16 0.84h-3.5v12.838h3.5v-12.838zM27.16 19.054v-4.536h-7.826v4.536h7.826z"></path>
<path fill="#8bbc22" d="M13.706 19.278v5.642h4.494v-5.642h-4.494zM3.080 14.798v10.122h4.466v-10.122h-4.466zM8.386 14.798v10.122h4.48v-10.122h-4.48zM12.866 10.36h0.84v8.078h4.494v-8.092h-15.12v3.612h9.786v-3.598z"></path>
<path fill="#ee9020" d="M21.854 20.146h-2.52v4.774h2.52v-4.774zM22.694 20.146v4.774h4.466v-4.774h-4.466z"></path>
</svg>

<svg id="icon-crosstab" width="28" height="28" viewBox="0 0 28 28" x="0" y="1536">
<path fill="#1d487c" d="M10.080 2.24h6.72v5.040h-6.72v-5.040zM3.36 7.28h6.72v5.040h-6.72v-5.040zM3.36 14h6.72v5.040h-6.72v-5.040zM3.36 20.72h6.72v5.040h-6.72v-5.040zM18.48 2.24h6.72v5.040h-6.72v-5.040z"></path>
<path fill="#ccc" d="M10.080 12.32v1.68h6.72v-1.68h-6.72zM18.48 12.32v1.68h6.72v-1.68h-6.72zM10.080 19.040v1.68h6.72v-1.68h-6.72zM18.48 19.040v1.68h6.72v-1.68h-6.72zM16.8 7.28h1.68v18.48h-1.68v-18.48z"></path>
<path fill="#2e7ad7" d="M8.4 2.24h1.68v5.040h-1.68v-5.040zM16.8 2.24h1.68v5.040h-1.68v-5.040zM3.36 12.32h6.72v1.68h-6.72v-1.68zM3.36 19.040h6.72v1.68h-6.72v-1.68zM3.36 5.6h5.040v1.68h-5.040v-1.68zM3.36 25.76h6.72v1.68h-6.72v-1.68zM1.68 5.6h1.68v21.84h-1.68v-21.84zM8.4 0.56h18.48v1.68h-18.48v-1.68zM25.2 2.24h1.68v5.040h-1.68v-5.040z"></path>
<path fill="#8bbe2c" d="M10.080 25.76h15.12v1.68h-15.12v-1.68zM25.2 7.28h1.68v20.16h-1.68v-20.16z"></path>
</svg>
<svg id="icon-table" width="28" height="28" viewBox="0 0 28 28" x="0" y="1584">
<path fill="#8bbe2c" d="M0.56 7.28h1.68v20.16h-1.68v-20.16zM2.24 25.76h23.52v1.68h-23.52v-1.68zM25.76 7.28h1.68v20.16h-1.68v-20.16z"></path>
<path fill="#1d487c" d="M2.24 2.24h6.72v5.040h-6.72v-5.040zM10.64 2.24h6.72v5.040h-6.72v-5.040zM19.040 2.24h6.72v5.040h-6.72v-5.040z"></path>
<path fill="#ccc" d="M8.96 7.28v18.48h1.68v-18.48h-1.68zM2.24 12.32h6.72v1.68h-6.72v-1.68zM2.24 19.040h6.72v1.68h-6.72v-1.68zM10.64 12.32h6.72v1.68h-6.72v-1.68zM10.64 19.040h6.72v1.68h-6.72v-1.68zM19.040 12.32h6.72v1.68h-6.72v-1.68zM19.040 19.040h6.72v1.68h-6.72v-1.68zM17.36 7.28h1.68v18.48h-1.68v-18.48z"></path>
<path fill="#2e7ad7" d="M8.96 2.24h1.68v5.040h-1.68v-5.040zM0.56 2.24h1.68v5.040h-1.68v-5.040zM0.56 0.56h26.88v1.68h-26.88v-1.68zM17.36 2.24h1.68v5.040h-1.68v-5.040zM25.76 2.24h1.68v5.040h-1.68v-5.040z"></path>
</svg>

</svg>
