<svg xmlns="http://www.w3.org/2000/svg" width="54" height="434" viewBox="0 0 54 434">
  <g fill="none" fill-rule="evenodd">
    <g transform="translate(0 304)">
      <circle cx="27" cy="27" r="27" fill="#249490" fill-rule="nonzero"/>
      <rect width="15" height="11" x="10" y="11" fill="#246E75" fill-rule="nonzero" rx="1"/>
      <rect width="11" height="6" x="12" y="14" fill="#DDE4E4" fill-rule="nonzero"/>
      <rect width="15" height="11" x="10" y="31" fill="#246E75" fill-rule="nonzero" rx="1"/>
      <rect width="1.5" height="5" x="39" y="32" fill="#246E75" fill-rule="nonzero"/>
      <rect width="1.5" height="5" x="17" y="21" fill="#246E75" fill-rule="nonzero"/>
      <rect width="11" height="6" x="12" y="34" fill="#DDE4E4" fill-rule="nonzero"/>
      <rect width="15" height="11" x="32" y="21" fill="#246E75" fill-rule="nonzero" rx="1"/>
      <rect width="11" height="6" x="34" y="24" fill="#DDE4E4" fill-rule="nonzero"/>
      <rect width="16.5" height="1.5" x="24" y="36" fill="#246E75" fill-rule="nonzero"/>
      <rect width="15" height="1.5" x="17" y="26" fill="#246E75" fill-rule="nonzero"/>
    </g>
    <g transform="translate(0 380)">
      <circle cx="27" cy="27" r="27" fill="#214584" fill-rule="nonzero"/>
      <g transform="translate(9 8)">
        <path fill="#6C8CCA" d="M23.9153222,13.6989997 L21.0617487,14.0722131 C20.85043,14.0999728 20.6781873,14.2547073 20.628314,14.4618768 C20.4252219,15.3075189 20.0910196,16.1130636 19.6354761,16.8574343 C19.5244181,17.0389003 19.5367579,17.270231 19.6663256,17.4388453 L21.4216589,19.722336 C20.9172705,20.3448725 20.3491266,20.9134319 19.726482,21.4182468 L17.4436232,19.6637322 C17.2749796,19.5341871 17.0430946,19.5218494 16.8615971,19.6334022 C16.1170972,20.0893806 15.3103842,20.424039 14.4640812,20.6281241 C14.2573899,20.6779887 14.1026286,20.8502015 14.0748641,21.0614835 L13.7010716,23.9150757 C12.8907596,24.0009251 12.1138678,24.0009251 11.3035558,23.9161038 L10.9302775,21.0635398 C10.902513,20.8522578 10.7477516,20.6800449 10.5405462,20.6306944 C9.69321486,20.4271234 8.88547361,20.0924651 8.13943126,19.6359726 C7.9579337,19.5254479 7.72656288,19.5372715 7.55791926,19.6668166 L5.27403217,21.4218453 C4.99792966,21.1971975 4.72953951,20.9576417 4.47400329,20.7088327 L4.29199158,20.5263386 C4.04159693,20.2703326 3.80251375,20.0030172 3.57885529,19.7274767 L5.33367443,17.4450142 C5.46324209,17.2763998 5.47558187,17.0450692 5.36400971,16.863089 C4.90640965,16.1171762 4.57117903,15.3090611 4.36705855,14.4608486 C4.31718529,14.2536792 4.14494257,14.0989447 3.93413804,14.071185 L1.08056458,13.6979715 C1.04560187,13.3581725 1.02554974,13.014775 1.02040816,12.67549 L1.02040816,12.3326066 C1.02554974,11.9876668 1.04560187,11.6427271 1.08107873,11.3019 L3.93413804,10.9286865 C4.14494257,10.9009268 4.31718529,10.7461923 4.36705855,10.5390228 C4.57117903,9.69132449 4.90640965,8.88320938 5.36400971,8.13678245 C5.47558187,7.9553164 5.46324209,7.72398573 5.33367443,7.55485732 L3.57885529,5.2723948 C3.80251375,4.99736835 4.04056862,4.73108105 4.28839247,4.47764546 L4.47040419,4.29566534 C4.72851119,4.04325789 4.99792966,3.80318807 5.27403217,3.5785403 L7.55791926,5.33305484 C7.72656288,5.46260001 7.95741954,5.47493765 8.13943126,5.36389893 C8.88547361,4.90740642 9.69321486,4.57274807 10.5405462,4.36969116 C10.7477516,4.32034061 10.902513,4.14761372 10.9302775,3.93684579 L11.3035558,1.08428171 C12.1138678,0.998946396 12.8907596,0.998946396 13.7010716,1.08530984 L14.0748641,3.93890206 C14.1026286,4.14966999 14.2573899,4.32188282 14.4640812,4.37174743 C15.3103842,4.57583248 16.1170972,4.91049083 16.8615971,5.36698334 C17.0425805,5.47802205 17.2739513,5.46619849 17.4436232,5.33613925 L19.726482,3.58213877 C20.3491266,4.08695368 20.9172705,4.65551304 21.4216589,5.27753548 L19.6663256,7.56102614 C19.5367579,7.72964048 19.5244181,7.96148521 19.6354761,8.14295126 C20.0910196,8.88680786 20.4252219,9.69286669 20.628314,10.5379947 C20.6781873,10.7451642 20.85043,10.8998987 21.0617487,10.9276584 L23.9153222,11.3008718 C23.9579972,11.7064716 23.9795918,12.1084729 23.9795918,12.5001928 C23.9795918,12.8919127 23.9579972,13.293914 23.9153222,13.6989997 L23.9153222,13.6989997 Z M24.4368397,10.3337009 L21.5326592,9.9540325 C21.3327784,9.24401656 21.0496568,8.56071611 20.6874049,7.91543389 L22.4740001,5.59169862 C22.6147902,5.40880016 22.6158178,5.15346157 22.4765692,4.96902183 C21.7787849,4.04682311 20.9571669,3.22480754 20.0348378,2.52712183 C19.850372,2.38737918 19.5955112,2.38789294 19.412073,2.52917686 L17.088523,4.31449193 C16.4431496,3.95177756 15.7592387,3.66766843 15.0480947,3.46730213 L14.6678588,0.563018372 C14.6375426,0.333881532 14.4582152,0.153038107 14.2290459,0.121185003 C13.0636741,-0.0396217927 11.9409504,-0.0406493122 10.7766062,0.119643724 C10.547437,0.151496827 10.3670818,0.332340253 10.3372796,0.561990853 L9.95704361,3.46473334 C9.24487195,3.66458587 8.55941957,3.94818124 7.91250462,4.31140937 L5.58895466,2.52558055 C5.40500267,2.38481038 5.15065565,2.38378286 4.965676,2.52301175 C4.54690262,2.8400015 4.13994738,3.19038564 3.75251778,3.56954032 L3.56342747,3.75911766 C3.18987134,4.14032738 2.84046533,4.54517005 2.52445842,4.96285671 C2.38469602,5.14781022 2.38572368,5.40263504 2.52651375,5.58604727 L4.31208123,7.90875501 C3.94828791,8.55609227 3.66362478,9.24196152 3.46271632,9.95506002 L0.559049616,10.3352422 C0.329366547,10.3650403 0.148497554,10.54537 0.116639947,10.7745068 C0.0467587454,11.2800464 0.00770748551,11.7994575 0,12.3245199 L0,12.6820967 C0.00770748551,13.1999665 0.0467587454,13.7188638 0.116639947,14.2249172 C0.148497554,14.454054 0.329366547,14.6338699 0.559049616,14.6641817 L3.46271632,15.0438502 C3.66362478,15.7574624 3.94828791,16.4433317 4.31208123,17.0901552 L2.52651375,19.4128629 C2.38572368,19.5962751 2.38469602,19.8516137 2.52445842,20.0360535 C2.84046533,20.4537401 3.18987134,20.8590966 3.56702429,21.2433888 L3.75662844,21.4334799 C4.13994738,21.8085245 4.54690262,22.1594224 4.965676,22.4758984 C5.15014182,22.6151273 5.40500267,22.6140998 5.58895466,22.4733296 L7.91250462,20.6875008 C8.55941957,21.0507289 9.24487195,21.3348381 9.95704361,21.5346906 L10.3372796,24.4374331 C10.3670818,24.6665699 10.547437,24.8479271 10.7766062,24.8792665 C11.3572368,24.959413 11.9363259,25 12.4979447,25 C13.0626464,25 13.6448185,24.9588992 14.2290459,24.8782389 C14.4582152,24.8463858 14.6375426,24.6650287 14.6678588,24.4358918 L15.0480947,21.5316081 C15.7592387,21.3317555 16.4431496,21.0476464 17.088523,20.684932 L19.412073,22.4702471 C19.5955112,22.6110172 19.850372,22.6120448 20.0348378,22.4723021 C20.9571669,21.7746164 21.7787849,20.9526008 22.4765692,20.0304021 C22.6158178,19.8459624 22.6147902,19.5906238 22.4740001,19.4072116 L20.6874049,17.0834763 C21.0496568,16.4387078 21.3327784,15.7554074 21.5326592,15.0448777 L24.4368397,14.6652092 C24.6665228,14.6354112 24.8473918,14.4550815 24.8792494,14.2259447 C24.9594072,13.6433411 25,13.0622789 25,12.499712 C25,11.9371451 24.9594072,11.3560828 24.8792494,10.7729655 C24.8473918,10.5438287 24.6665228,10.3640128 24.4368397,10.3337009 Z"/>
        <path fill="#6C8CCA" fill-rule="nonzero" d="M20.4297302,17.2672513 L22.1747031,19.9077123 L20.0029387,22.1619177 L17.4463831,20.3928488 C16.449667,21.0388398 15.3233083,21.4951719 14.1160745,21.7120799 L14.1160745,24 L10.8758018,24 L10.8758018,21.7089407 C9.55964151,21.4698036 8.34001156,20.946005 7.28022925,20.2021575 C5.98909565,21.0438413 5.34352884,21.5124121 5.34352884,21.6078697 C5.34352884,21.7316728 4.61960737,20.9802711 3.17176442,19.3536644 L4.8016987,17.6272792 C4.11060554,16.5615172 3.62622912,15.3439625 3.40689127,14.0341301 L1,14.0341301 L1,10.5269109 L3.46439787,10.5269109 C3.68952801,9.41115037 4.10803295,8.36744425 4.68258754,7.43388127 L3.17176442,4.86433172 L5.34352884,2.77023971 L7.78548107,4.33998414 C8.72128359,3.77075993 9.76410881,3.36568667 10.8758018,3.16369983 L10.8758018,1 L14.1160745,1 L14.1160745,3.16056066 C15.4179461,3.39447257 16.6257657,3.90681795 17.6783741,4.6351865 L19.4599976,2.77023971 C21.0261595,3.50421617 21.747262,4.24294676 21.6233049,4.98643148 C21.5395795,5.48860977 21.0366824,6.19473226 20.1146136,7.10479897 C20.7986982,8.11964879 21.2928867,9.27815186 21.5448523,10.5269109 L24,10.5269109 L24,14.4052465 L21.532646,14.4052465 C21.3188798,15.430927 20.9415089,16.39486 20.4297302,17.2672513 Z"/>
        <circle cx="12.5" cy="12.5" r="5.5" fill="#062E79" fill-rule="nonzero"/>
      </g>
      <g transform="rotate(-7 204.348 -233.423)">
        <path fill="#647CAC" d="M3.70316353,12.7387104 L3.69320299,12.7516659 L3.72463648,12.775193 C3.7174441,12.7630574 3.7102864,12.7508965 3.70316353,12.7387104 Z M15.5695655,10.823677 C15.434717,11.3832373 15.2352711,11.9154589 14.980131,12.4109176 L16.1812801,13.9731923 C16.2826489,14.1052491 16.2833888,14.2890929 16.1831299,14.4218895 C15.6807251,15.0858726 15.0891602,15.6777238 14.4250832,16.1800575 C14.2922679,16.2806722 14.108768,16.2799324 13.9766926,16.1785779 L12.5389614,15.0738876 C12.0013212,15.4068037 11.4146062,15.660555 10.7930898,15.8200329 L10.5608583,17.5938421 C10.5390307,17.7588206 10.4099149,17.8893978 10.2449131,17.912332 C9.82426933,17.9704074 9.40510544,18 8.99852016,18 C8.59415464,18 8.17721051,17.9707773 7.75915649,17.9130719 C7.59415464,17.8905075 7.46429893,17.7599304 7.44284129,17.5949518 L7.18960956,15.6617667 C6.65731193,15.4740683 6.15553241,15.2156901 5.69420707,14.8971497 L4.02404735,16.1807973 C3.89160192,16.2821519 3.70810211,16.2828917 3.57528672,16.1826469 C3.27376989,15.9547842 2.98076212,15.7021377 2.70477248,15.4321056 L2.56825749,15.29524 C2.29670736,15.0185495 2.04513504,14.7266929 1.81761006,14.4259585 C1.71698113,14.2931619 1.71772105,14.1093181 1.8190899,13.9772613 L3.10469848,12.3049117 C2.8427673,11.8391988 2.63780984,11.345373 2.49315575,10.8315721 L0.402515723,10.5582108 C0.237143914,10.5363863 0.106918239,10.4069189 0.0839807621,10.2419403 C0.0336662967,9.87758195 0.00554938957,9.50397587 -1.77635684e-15,9.13110961 L-1.77635684e-15,8.87365433 C0.00554938957,8.49560937 0.0336662967,8.12163339 0.0839807621,7.75764489 C0.106918239,7.59266637 0.237143914,7.46282901 0.402515723,7.4413744 L2.49315575,7.16764322 C2.63780984,6.65421229 2.8427673,6.16038644 3.10469848,5.69430361 L1.8190899,4.02195403 C1.71772105,3.88989723 1.71698113,3.70642336 1.81761006,3.57325683 C2.04513504,3.27252244 2.29670736,2.98103572 2.56566778,2.70656472 L2.7018128,2.57006903 C2.98076212,2.29707766 3.27376989,2.04480108 3.57528672,1.81656846 C3.70847207,1.71632366 3.89160192,1.71706347 4.02404735,1.81841799 L5.69700333,3.10421475 C6.16278209,2.84269049 6.65630781,2.63850183 7.1690714,2.494608 L7.44284129,0.404633414 C7.46429893,0.239284982 7.59415464,0.109077716 7.75915649,0.0861434813 C8.59748428,-0.0292675048 9.40584536,-0.0285276907 10.2449131,0.0872532023 C10.4099149,0.110187437 10.5390307,0.240394703 10.5608583,0.405373228 L10.8237,2.41298686 C11.3710075,2.55641265 11.8910454,2.77302086 12.3740129,3.05243694 L13.9766926,1.82100734 C14.108768,1.71928292 14.2922679,1.71891301 14.4250832,1.81952771 C15.0891602,2.32186143 15.6807251,2.91371264 16.1831299,3.57769572 C16.2833888,3.71049233 16.2826489,3.89433611 16.1812801,4.02602301 L14.909374,5.68032787 C15.1613914,6.14481154 15.3638297,6.64327465 15.5090454,7.16762646 L17.5945246,7.44026468 C17.7598964,7.46208919 17.8901221,7.59155665 17.9130596,7.75653517 C17.9707732,8.17637962 18,8.59474445 18,8.99979262 C18,9.40484079 17.9707732,9.82320562 17.9130596,10.2426802 C17.8901221,10.4076587 17.7598964,10.537496 17.5945246,10.5589507 L15.5695655,10.823677 Z"/>
        <circle cx="8.913" cy="8.889" r="3.5" fill="#062E79" fill-rule="nonzero"/>
      </g>
      <g transform="translate(19 33)">
        <path fill="#87A2D7" d="M9.68764227,11.6742813 C9.29060669,11.921926 8.85889371,12.1171129 8.40170027,12.2504311 L8.2140009,13.6840994 C8.19702388,13.812416 8.09660049,13.9139761 7.96826571,13.9318138 C7.94724742,13.9347157 7.92623388,13.9375261 7.90522738,13.9402448 L7.90522738,14 L6.125,14 L6.125,13.9442623 C6.09497856,13.940494 6.06494271,13.9365362 6.03489949,13.9323892 C5.90656472,13.9148392 5.80556583,13.8132792 5.78887656,13.6849625 L5.60405645,12.2740355 C5.13300827,12.1453177 4.68806458,11.9511967 4.27908465,11.7017612 L3.12981461,12.5850646 C3.0268015,12.6638959 2.88407942,12.6644713 2.78077856,12.5865031 C2.54626547,12.4092766 2.31837053,12.2127737 2.10371193,12.0027488 L1.9975336,11.8962978 C1.78632795,11.6810941 1.59066058,11.4540945 1.41369672,11.2201899 C1.33542977,11.1169037 1.33600526,10.9739141 1.4148477,10.8712032 L2.35172038,9.65249744 C2.14623977,9.26668828 1.98567361,8.85222455 1.87720939,8.41646083 L0.313067785,8.21194176 C0.184445267,8.19496714 0.0831586303,8.09427024 0.0653183705,7.9659536 C0.0650994857,7.96436852 0.064881141,7.96278322 0.0646633364,7.96119769 L4.4408921e-15,7.96119769 L4.4408921e-15,6.06666667 L0.0608472205,6.06666667 C0.0623116756,6.05567423 0.0638020629,6.04469319 0.0653183705,6.03372381 C0.0831586303,5.90540717 0.184445267,5.80442256 0.313067785,5.78773565 L1.92589085,5.57656588 C2.04256575,5.16879802 2.20526375,4.78114511 2.40784038,4.41989447 L1.4148477,3.12818647 C1.33600526,3.02547562 1.33542977,2.88277372 1.41369672,2.77919976 C1.59066058,2.54529523 1.78632795,2.31858333 1.99551938,2.10510589 L2.10140996,1.99894258 C2.31837053,1.78661596 2.54626547,1.59040084 2.78077856,1.41288658 C2.88436716,1.3349184 3.0268015,1.33549381 3.12981461,1.41432511 L4.40836178,2.39698803 C4.77423788,2.18805562 5.16708732,2.02264585 5.58022096,1.90760335 L5.78887656,0.314714878 C5.80556583,0.186110542 5.90656472,0.0848382233 6.03489949,0.0670004855 C6.06498106,0.0628592136 6.09501302,0.0589102244 6.125,0.0551534329 L6.125,2.08721929e-14 L7.90522738,2.08721929e-14 L7.90522738,0.0594339902 C7.92621639,0.0621508715 7.94722864,0.0649607484 7.96826571,0.0678636018 C8.09660049,0.0857013397 8.19702388,0.186973658 8.2140009,0.315290288 L8.42562147,1.93167129 C8.61489684,1.98786706 8.79976036,2.05467981 8.97955563,2.13143787 C9.18163045,2.21375837 9.37861414,2.30879237 9.5695729,2.41611548 L10.8707609,1.41633904 C10.9734862,1.33722005 11.1162083,1.33693234 11.2195092,1.41518822 C11.7360135,1.80589222 12.1961195,2.26622094 12.5868788,2.78265222 C12.664858,2.88593848 12.6642825,3.02892809 12.58544,3.13135123 L11.5849468,4.43264298 C11.7878078,4.79400102 11.9463559,5.17664927 12.0582891,5.5742582 L13.6846302,5.78687253 C13.8018236,5.80233881 13.8963232,5.88730957 13.9256866,5.99934823 L14,5.99934823 L14,8.20963442 L13.7024615,8.20963442 C13.6965812,8.21077523 13.6906355,8.21173808 13.6846302,8.21251718 L12.0582891,8.4251315 C12.0146857,8.58013169 11.9640085,8.73281795 11.9063936,8.88281614 C11.8216295,9.12728033 11.7200433,9.36359584 11.6030596,9.5903052 L12.58544,10.8680385 C12.6642825,10.9707493 12.664858,11.1137389 12.5868788,11.2170252 C12.5579829,11.2552143 12.5287078,11.2930966 12.4990587,11.3306667 L12.5085227,11.3455219 L12.3196064,11.548926 C12.1962839,11.692937 12.0672443,11.8318689 11.9328135,11.9653813 L11.3153409,12.6302068 L11.2351345,12.5726353 C11.2299318,12.5765937 11.2247234,12.580545 11.2195092,12.5844892 C11.1162083,12.6627451 10.9734862,12.6621697 10.8707609,12.5833384 L9.68764227,11.6742813 Z"/>
        <circle cx="7.075" cy="6.875" r="3.125" fill="#062E79" fill-rule="nonzero" stroke="#87A2D7"/>
      </g>
    </g>
    <g transform="translate(0 228)">
      <circle cx="27" cy="27" r="27" fill="#FF9B3F"/>
      <path fill="#B85410" fill-rule="nonzero" d="M14 11L40 11C41.1045695 11 42 11.8954305 42 13L42 18C42 19.1045695 41.1045695 20 40 20L14 20C12.8954305 20 12 19.1045695 12 18L12 13C12 11.8954305 12.8954305 11 14 11zM14 33L40 33C41.1045695 33 42 33.8954305 42 35L42 40C42 41.1045695 41.1045695 42 40 42L14 42C12.8954305 42 12 41.1045695 12 40L12 35C12 33.8954305 12.8954305 33 14 33zM14 22L40 22C41.1045695 22 42 22.8954305 42 24L42 29C42 30.1045695 41.1045695 31 40 31L14 31C12.8954305 31 12 30.1045695 12 29L12 24C12 22.8954305 12.8954305 22 14 22z"/>
      <circle cx="16.5" cy="15.5" r="1.5" fill="#DED9EE" fill-rule="nonzero"/>
      <circle cx="16.5" cy="26.5" r="1.5" fill="#DED9EE" fill-rule="nonzero"/>
      <circle cx="16.5" cy="37.5" r="1.5" fill="#DED9EE" fill-rule="nonzero"/>
    </g>
    <g transform="translate(0 152)">
      <circle cx="27" cy="27" r="27" fill="#BA0871"/>
      <g transform="translate(7 6)">
        <circle cx="20" cy="21" r="20" fill="#E6E8EC"/>
        <path fill="#CF92BF" fill-rule="nonzero" d="M0,20.7924831 C0,9.86139651 8.954305,1 20,1 C31.045695,1 40,9.86139651 40,20.7924831 C40,26.3667485 39,31 34,35 L28.6268096,28.7087146 C30.57413,26.6313793 31.7647059,23.8495255 31.7647059,20.7924831 C31.7647059,14.3624322 26.4974676,9.14984597 20,9.14984597 C13.5025324,9.14984597 8.23529412,14.3624322 8.23529412,20.7924831 C8.23529412,23.8495255 9.42586999,26.6313793 11.3731904,28.7087146 L6,35 C1,31 0,26.3667485 0,20.7924831 Z"/>
        <path fill="#E1BCD7" fill-rule="nonzero" d="M20.5,1 C25.690386,1 30.4233117,3.01806704 34,6.3342151 L28.6714251,12.9225806 C26.5424683,10.84201 24,9.56563076 20.5,9.56563076 C17,9.56563076 14.1289567,9.91942933 12,12 L7.08370536,6 C10.6603937,2.68385194 15.309614,1 20.5,1 Z"/>
        <path fill="#CF92BF" d="M15.7894737,25.2381726 L24.2105263,25.2381726 C24.2105263,27.556512 22.3254095,29.4358974 20,29.4358974 C17.6745905,29.4358974 15.7894737,27.556512 15.7894737,25.2381726 Z M20,1.05128205 L24.2105263,25.2381726 L15.7894737,25.2381726 L20,1.05128205 Z" transform="rotate(3 20 15.244)"/>
      </g>
    </g>
    <g transform="translate(0 76)">
      <circle cx="27" cy="27" r="27" fill="#7A9F35"/>
      <path fill="#FFF" d="M2,0 L26,0 C27.1045695,-2.02906125e-16 28,0.8954305 28,2 L28,31 C28,32.1045695 27.1045695,33 26,33 L2,33 C0.8954305,33 1.3527075e-16,32.1045695 0,31 L0,2 C-1.3527075e-16,0.8954305 0.8954305,2.02906125e-16 2,0 Z" transform="translate(13 10)"/>
      <path stroke="#78924B" stroke-linecap="square" d="M17.5277778 32.25L35.4722222 32.25M17.5277778 36.25L35.4722222 36.25M17.5277778 39.25L35.4722222 39.25"/>
      <rect width="3" height="14" x="17" y="14" fill="#78924B" fill-rule="nonzero"/>
      <rect width="3" height="11" x="23" y="17" fill="#CEDABA" fill-rule="nonzero"/>
      <polygon fill="#A5BE78" fill-rule="nonzero" points="28 16 31 16 31 28 28 28"/>
      <rect width="3" height="10" x="33" y="18" fill="#5C742F" fill-rule="nonzero"/>
      <circle cx="27" cy="27" r="27" fill="#7A9F35"/>
      <path fill="#FFF" d="M2,0 L24,0 C25.1045695,-2.02906125e-16 26,0.8954305 26,2 L26,31 C26,32.1045695 25.1045695,33 24,33 L2,33 C0.8954305,33 1.3527075e-16,32.1045695 0,31 L0,2 C-1.3527075e-16,0.8954305 0.8954305,2.02906125e-16 2,0 Z" transform="translate(14 10)"/>
      <rect width="3" height="18" x="18" y="15" fill="#7A9F35" fill-rule="nonzero"/>
      <rect width="3" height="12" x="23" y="21" fill="#97C93E" fill-rule="nonzero"/>
      <polygon fill="#7A9F35" fill-rule="nonzero" points="28 18 31 18 31 33 28 33"/>
      <rect width="3" height="10" x="33" y="23" fill="#97C93E" fill-rule="nonzero"/>
      <rect width="18" height="4" x="18" y="35" fill="#D2EAA4" fill-rule="nonzero"/>
    </g>
    <circle cx="27" cy="27" r="27" fill="#318DDE"/>
    <g transform="translate(14 13)">
      <polyline stroke="#D7ECF8" stroke-width="2" points=".084 .081 .084 25.959 29.016 25.959"/>
      <polygon fill="#A5D4F0" points="3.214 9.75 10.714 2.167 16.071 13 25.714 2.167 25.714 22.75 3.214 22.75"/>
      <polygon fill="#006E9C" points="3.214 15.167 10.714 10.833 16.071 17.333 25.714 7.583 25.714 22.75 3.214 22.75"/>
    </g>
  </g>
</svg>
