<?xml version="1.0" encoding="UTF-8"?>
<svg width="20px" height="820px" viewBox="0 0 20 820" version="1.1" xmlns="http://www.w3.org/2000/svg" xmlns:xlink="http://www.w3.org/1999/xlink">
    <title>adhoc_datatree_icons_sprite_mui</title>
    <g id="adhoc_datatree_icons_sprite_mui" stroke="none" stroke-width="1" fill="none" fill-rule="evenodd">
        <g id="tree/adhoc-mui-selected/boolean-measure" transform="translate(3.000000, 803.000000)" fill="#D7E8B9">
            <path d="M12,8 C13.6568542,8 15,9.34314575 15,11 C15,12.6568542 13.6568542,14 12,14 L3,14 C1.34314575,14 2.02906125e-16,12.6568542 0,11 C-2.02906125e-16,9.34314575 1.34314575,8 3,8 L12,8 Z M12,9 C10.8954305,9 10,9.8954305 10,11 C10,12.1045695 10.8954305,13 12,13 C13.1045695,13 14,12.1045695 14,11 C14,9.8954305 13.1045695,9 12,9 Z M12,0 C13.6568542,-3.04359188e-16 15,1.34314575 15,3 C15,4.65685425 13.6568542,6 12,6 L3,6 C1.34314575,6 2.02906125e-16,4.65685425 0,3 C-2.02906125e-16,1.34314575 1.34314575,3.04359188e-16 3,0 L12,0 Z M3,1 C1.8954305,1 1,1.8954305 1,3 C1,4.1045695 1.8954305,5 3,5 C4.1045695,5 5,4.1045695 5,3 C5,1.8954305 4.1045695,1 3,1 Z" id="Combined-Shape"></path>
        </g>
        <g id="tree/adhoc-mui-selected/boolean-field" transform="translate(3.000000, 771.000000)" fill="#C1DCF5">
            <path d="M12,8 C13.6568542,8 15,9.34314575 15,11 C15,12.6568542 13.6568542,14 12,14 L3,14 C1.34314575,14 2.02906125e-16,12.6568542 0,11 C-2.02906125e-16,9.34314575 1.34314575,8 3,8 L12,8 Z M12,9 C10.8954305,9 10,9.8954305 10,11 C10,12.1045695 10.8954305,13 12,13 C13.1045695,13 14,12.1045695 14,11 C14,9.8954305 13.1045695,9 12,9 Z M12,0 C13.6568542,-3.04359188e-16 15,1.34314575 15,3 C15,4.65685425 13.6568542,6 12,6 L3,6 C1.34314575,6 2.02906125e-16,4.65685425 0,3 C-2.02906125e-16,1.34314575 1.34314575,3.04359188e-16 3,0 L12,0 Z M3,1 C1.8954305,1 1,1.8954305 1,3 C1,4.1045695 1.8954305,5 3,5 C4.1045695,5 5,4.1045695 5,3 C5,1.8954305 4.1045695,1 3,1 Z" id="Combined-Shape"></path>
        </g>
        <g id="Group" transform="translate(3.000000, 739.000000)" fill="#D7E8B9">
            <path d="M13.125,7.5 C13.125,4.39339828 10.6066017,1.875 7.5,1.875 C4.39339828,1.875 1.875,4.39339828 1.875,7.5 C1.875,10.6066017 4.39339828,13.125 7.5,13.125 C10.6066017,13.125 13.125,10.6066017 13.125,7.5 Z M0,7.5 C0,3.35786438 3.35786438,0 7.5,0 C11.6421356,0 15,3.35786438 15,7.5 C15,11.6421356 11.6421356,15 7.5,15 C3.35786438,15 0,11.6421356 0,7.5 Z" id="Oval-8"></path>
            <polygon id="Path-3" transform="translate(7.959818, 6.774436) rotate(3.000000) translate(-7.959818, -6.774436) " points="7.3156853 9.38469196 11.6007445 7.58561089 11.1095416 6.41099895 7.83302696 7.7830686 5.47674703 4.16417919 4.31889156 4.95468518"></polygon>
        </g>
        <g id="clock" transform="translate(3.000000, 707.000000)" fill="#C1DCF5">
            <path d="M13.125,7.5 C13.125,4.39339828 10.6066017,1.875 7.5,1.875 C4.39339828,1.875 1.875,4.39339828 1.875,7.5 C1.875,10.6066017 4.39339828,13.125 7.5,13.125 C10.6066017,13.125 13.125,10.6066017 13.125,7.5 Z M0,7.5 C0,3.35786438 3.35786438,0 7.5,0 C11.6421356,0 15,3.35786438 15,7.5 C15,11.6421356 11.6421356,15 7.5,15 C3.35786438,15 0,11.6421356 0,7.5 Z" id="Oval-8"></path>
            <polygon id="Path-3" transform="translate(7.959818, 6.774436) rotate(3.000000) translate(-7.959818, -6.774436) " points="7.3156853 9.38469196 11.6007445 7.58561089 11.1095416 6.41099895 7.83302696 7.7830686 5.47674703 4.16417919 4.31889156 4.95468518"></polygon>
        </g>
        <g id="Rectangle" transform="translate(3.000000, 675.000000)" fill="#D7E8B9">
            <path d="M15,4 L15,14 L0,14 L0,4 L15,4 Z M5.14453125,6.30859375 C4.85286313,6.30859375 4.60677184,6.34374965 4.40625,6.4140625 C4.20572816,6.48437535 4.03255281,6.58593684 3.88671875,6.71875 C3.69140527,6.90625094 3.54817754,7.11067598 3.45703125,7.33203125 C3.37109332,7.58463668 3.32291672,7.85156109 3.3125,8.1328125 L3.3125,8.1328125 L4.3515625,8.1328125 C4.34635414,7.85416527 4.40559834,7.63151125 4.52929688,7.46484375 C4.65299541,7.29817625 4.84635285,7.21484375 5.109375,7.21484375 C5.33854281,7.21484375 5.51627541,7.28255141 5.64257812,7.41796875 C5.76888084,7.55338609 5.83203125,7.72916559 5.83203125,7.9453125 C5.83203125,8.2786475 5.70833457,8.49999945 5.4609375,8.609375 C5.31770762,8.67447949 5.06510598,8.70963539 4.703125,8.71484375 L4.703125,8.71484375 L4.703125,9.51171875 C5.07291852,9.51171875 5.34374914,9.54687465 5.515625,9.6171875 C5.81770984,9.74218813 5.96875,9.99088355 5.96875,10.3632812 C5.96875,10.6445327 5.88737061,10.8600253 5.72460938,11.0097656 C5.56184814,11.159506 5.37109484,11.234375 5.15234375,11.234375 C4.79557113,11.234375 4.54947984,11.0976576 4.4140625,10.8242188 C4.34114547,10.6757805 4.3046875,10.4882824 4.3046875,10.2617188 L4.3046875,10.2617188 L3.2109375,10.2617188 C3.22916676,10.7122418 3.32031168,11.0768215 3.484375,11.3554688 C3.79687656,11.8789089 4.35416266,12.140625 5.15625,12.140625 C5.80729492,12.140625 6.29882646,11.9589862 6.63085938,11.5957031 C6.96289229,11.2324201 7.12890625,10.8112003 7.12890625,10.3320312 C7.12890625,9.8762998 6.98698059,9.5169284 6.703125,9.25390625 C6.51301988,9.07942621 6.36718801,8.9921875 6.265625,8.9921875 C6.40104234,8.94010391 6.53124937,8.84244863 6.65625,8.69921875 C6.85416766,8.47005094 6.953125,8.18880375 6.953125,7.85546875 C6.953125,7.38411223 6.78711104,7.00846494 6.45507812,6.72851562 C6.12304521,6.44856631 5.68620062,6.30859375 5.14453125,6.30859375 Z M9.65234375,6.296875 C8.93098598,6.296875 8.42513166,6.55077871 8.13476562,7.05859375 C7.84439959,7.56640879 7.69921875,8.28775574 7.69921875,9.22265625 C7.69921875,10.1575568 7.84439959,10.8776016 8.13476562,11.3828125 C8.42513166,11.8880234 8.93098598,12.140625 9.65234375,12.140625 C10.3737015,12.140625 10.8795558,11.8880234 11.1699219,11.3828125 C11.4602879,10.8776016 11.6054688,10.1575568 11.6054688,9.22265625 C11.6054688,8.28775574 11.4602879,7.56640879 11.1699219,7.05859375 C10.8795558,6.55077871 10.3737015,6.296875 9.65234375,6.296875 Z M9.65234375,7.21484375 C9.98307457,7.21484375 10.1998693,7.37890461 10.3027344,7.70703125 C10.4055995,8.03515789 10.4570312,8.54036117 10.4570312,9.22265625 C10.4570312,9.87370117 10.4055995,10.3717431 10.3027344,10.7167969 C10.1998693,11.0618507 9.98307457,11.234375 9.65234375,11.234375 C9.32161293,11.234375 9.10286512,11.0618507 8.99609375,10.7167969 C8.88932238,10.3717431 8.8359375,9.87370117 8.8359375,9.22265625 C8.8359375,8.54036117 8.88932238,8.03515789 8.99609375,7.70703125 C9.10286512,7.37890461 9.32161293,7.21484375 9.65234375,7.21484375 Z" id="Combined-Shape"></path>
            <path d="M15,0 L15,3 L0,3 L0,0 L15,0 Z M3.25,0.8 C2.83578644,0.8 2.5,1.13578644 2.5,1.55 C2.5,1.96421356 2.83578644,2.3 3.25,2.3 C3.66421356,2.3 4,1.96421356 4,1.55 C4,1.13578644 3.66421356,0.8 3.25,0.8 Z M12.25,0.8 C11.8357864,0.8 11.5,1.13578644 11.5,1.55 C11.5,1.96421356 11.8357864,2.3 12.25,2.3 C12.6642136,2.3 13,1.96421356 13,1.55 C13,1.13578644 12.6642136,0.8 12.25,0.8 Z" id="Combined-Shape"></path>
        </g>
        <g id="Rectangle" transform="translate(3.000000, 643.000000)" fill="#C1DCF5">
            <path d="M15,4 L15,14 L0,14 L0,4 L15,4 Z M5.14453125,6.30859375 C4.85286313,6.30859375 4.60677184,6.34374965 4.40625,6.4140625 C4.20572816,6.48437535 4.03255281,6.58593684 3.88671875,6.71875 C3.69140527,6.90625094 3.54817754,7.11067598 3.45703125,7.33203125 C3.37109332,7.58463668 3.32291672,7.85156109 3.3125,8.1328125 L3.3125,8.1328125 L4.3515625,8.1328125 C4.34635414,7.85416527 4.40559834,7.63151125 4.52929688,7.46484375 C4.65299541,7.29817625 4.84635285,7.21484375 5.109375,7.21484375 C5.33854281,7.21484375 5.51627541,7.28255141 5.64257812,7.41796875 C5.76888084,7.55338609 5.83203125,7.72916559 5.83203125,7.9453125 C5.83203125,8.2786475 5.70833457,8.49999945 5.4609375,8.609375 C5.31770762,8.67447949 5.06510598,8.70963539 4.703125,8.71484375 L4.703125,8.71484375 L4.703125,9.51171875 C5.07291852,9.51171875 5.34374914,9.54687465 5.515625,9.6171875 C5.81770984,9.74218813 5.96875,9.99088355 5.96875,10.3632812 C5.96875,10.6445327 5.88737061,10.8600253 5.72460938,11.0097656 C5.56184814,11.159506 5.37109484,11.234375 5.15234375,11.234375 C4.79557113,11.234375 4.54947984,11.0976576 4.4140625,10.8242188 C4.34114547,10.6757805 4.3046875,10.4882824 4.3046875,10.2617188 L4.3046875,10.2617188 L3.2109375,10.2617188 C3.22916676,10.7122418 3.32031168,11.0768215 3.484375,11.3554688 C3.79687656,11.8789089 4.35416266,12.140625 5.15625,12.140625 C5.80729492,12.140625 6.29882646,11.9589862 6.63085938,11.5957031 C6.96289229,11.2324201 7.12890625,10.8112003 7.12890625,10.3320312 C7.12890625,9.8762998 6.98698059,9.5169284 6.703125,9.25390625 C6.51301988,9.07942621 6.36718801,8.9921875 6.265625,8.9921875 C6.40104234,8.94010391 6.53124937,8.84244863 6.65625,8.69921875 C6.85416766,8.47005094 6.953125,8.18880375 6.953125,7.85546875 C6.953125,7.38411223 6.78711104,7.00846494 6.45507812,6.72851562 C6.12304521,6.44856631 5.68620062,6.30859375 5.14453125,6.30859375 Z M9.65234375,6.296875 C8.93098598,6.296875 8.42513166,6.55077871 8.13476562,7.05859375 C7.84439959,7.56640879 7.69921875,8.28775574 7.69921875,9.22265625 C7.69921875,10.1575568 7.84439959,10.8776016 8.13476562,11.3828125 C8.42513166,11.8880234 8.93098598,12.140625 9.65234375,12.140625 C10.3737015,12.140625 10.8795558,11.8880234 11.1699219,11.3828125 C11.4602879,10.8776016 11.6054688,10.1575568 11.6054688,9.22265625 C11.6054688,8.28775574 11.4602879,7.56640879 11.1699219,7.05859375 C10.8795558,6.55077871 10.3737015,6.296875 9.65234375,6.296875 Z M9.65234375,7.21484375 C9.98307457,7.21484375 10.1998693,7.37890461 10.3027344,7.70703125 C10.4055995,8.03515789 10.4570312,8.54036117 10.4570312,9.22265625 C10.4570312,9.87370117 10.4055995,10.3717431 10.3027344,10.7167969 C10.1998693,11.0618507 9.98307457,11.234375 9.65234375,11.234375 C9.32161293,11.234375 9.10286512,11.0618507 8.99609375,10.7167969 C8.88932238,10.3717431 8.8359375,9.87370117 8.8359375,9.22265625 C8.8359375,8.54036117 8.88932238,8.03515789 8.99609375,7.70703125 C9.10286512,7.37890461 9.32161293,7.21484375 9.65234375,7.21484375 Z" id="Combined-Shape"></path>
            <path d="M15,0 L15,3 L0,3 L0,0 L15,0 Z M3.25,0.8 C2.83578644,0.8 2.5,1.13578644 2.5,1.55 C2.5,1.96421356 2.83578644,2.3 3.25,2.3 C3.66421356,2.3 4,1.96421356 4,1.55 C4,1.13578644 3.66421356,0.8 3.25,0.8 Z M12.25,0.8 C11.8357864,0.8 11.5,1.13578644 11.5,1.55 C11.5,1.96421356 11.8357864,2.3 12.25,2.3 C12.6642136,2.3 13,1.96421356 13,1.55 C13,1.13578644 12.6642136,0.8 12.25,0.8 Z" id="Combined-Shape"></path>
        </g>
        <g id="tree/adhoc-mui-selected/calculated-measure" transform="translate(3.000000, 612.000000)" fill="#D7E8B9" fill-rule="nonzero">
            <path d="M2.63183594,3.88964844 L2.72753906,3.43847656 C2.91438896,3.4202473 3.05452427,3.39746107 3.14794922,3.37011719 C3.24137417,3.3427733 3.32226528,3.3028974 3.390625,3.25048828 C3.45898472,3.19807917 3.52278616,3.1126308 3.58203125,2.99414062 C3.64127634,2.87565045 3.70507778,2.68880336 3.7734375,2.43359375 C3.88737036,2.00064888 4.03092361,1.64176575 4.20410156,1.35693359 C4.37727951,1.07210144 4.60286319,0.823731528 4.88085938,0.611816406 C5.15885556,0.399901284 5.48355934,0.244954917 5.85498047,0.146972656 C6.2264016,0.0489903955 6.63541443,0 7.08203125,0 C7.25976651,0 7.45231016,0.00683586914 7.65966797,0.0205078125 C7.86702578,0.0341797559 8.10286326,0.0683591016 8.3671875,0.123046875 L8.05957031,1.49023438 L7.17773438,1.49023438 C7.15950512,1.20768088 7.11393266,1.00716205 7.04101562,0.888671875 C6.96809859,0.770181699 6.85416744,0.7109375 6.69921875,0.7109375 C6.59440052,0.7109375 6.50097697,0.731445107 6.41894531,0.772460938 C6.33691365,0.813476768 6.25716185,0.886392705 6.1796875,0.991210938 C6.10221315,1.09602917 6.02815791,1.2475576 5.95751953,1.44580078 C5.88688116,1.64404396 5.81282591,1.92317528 5.73535156,2.28320312 L5.56445312,3.03515625 L6.86328125,3.03515625 L6.67871094,3.88964844 L5.37304688,3.88964844 L4.13574219,9.60449219 C3.97623618,10.3382198 3.75179181,10.9443335 3.46240234,11.4228516 C3.17301288,11.9013696 2.79817938,12.2625313 2.33789062,12.5063477 C1.87760187,12.750164 1.31478197,12.8720703 0.649414062,12.8720703 C0.435220283,12.8720703 0.218751094,12.8424482 0,12.7832031 L0.184570312,12.0380859 C0.312175117,12.0745445 0.462564238,12.0927734 0.635742188,12.0927734 C0.840821338,12.0927734 1.00830013,12.0642906 1.13818359,12.0073242 C1.26806706,11.9503578 1.38541614,11.852377 1.49023438,11.7133789 C1.59505261,11.5743808 1.6930334,11.3704441 1.78417969,11.1015625 C1.87532598,10.8326809 1.97558539,10.4544295 2.08496094,9.96679688 L3.45214844,3.88964844 L2.63183594,3.88964844 Z M10.2265625,5.42773438 C10.6367208,5.05403459 10.9033197,4.76237084 11.0263672,4.55273438 C11.1494147,4.34309791 11.2109375,4.13346459 11.2109375,3.92382812 C11.2109375,3.80989526 11.1813154,3.71305378 11.1220703,3.63330078 C11.0628252,3.55354778 10.9580086,3.50455738 10.8076172,3.48632812 L10.9101562,3.03515625 L13.1181641,3.03515625 L13.2890625,3.48632812 C13.0885407,3.7005219 12.8173845,3.97623529 12.4755859,4.31347656 C12.1337874,4.65071783 11.7931332,4.97883955 11.4536133,5.29785156 C11.1140934,5.61686357 10.8053399,5.90169146 10.5273438,6.15234375 L11.4775391,8.26464844 C11.5732427,8.46517027 11.6598303,8.636067 11.7373047,8.77734375 C11.814779,8.9186205 11.8854163,9.02457647 11.9492188,9.09521484 C12.0130212,9.16585322 12.0779619,9.22167948 12.144043,9.26269531 C12.210124,9.30371114 12.3001296,9.33789049 12.4140625,9.36523438 L12.3115234,9.81640625 L10.0693359,9.81640625 L9.10546875,7.24609375 C8.60416416,7.68815325 8.28059969,8.02197153 8.13476562,8.24755859 C7.98893156,8.47314566 7.91601562,8.69303278 7.91601562,8.90722656 C7.91601562,9.03027405 7.94449841,9.13281209 8.00146484,9.21484375 C8.05843127,9.29687541 8.16438725,9.34700512 8.31933594,9.36523438 L8.21679688,9.81640625 L6.00878906,9.81640625 L5.83105469,9.36523438 C6.12272281,9.05533699 6.58870123,8.59391583 7.22900391,7.98095703 C7.86930659,7.36799824 8.3945292,6.88151222 8.8046875,6.52148438 L8.09375,4.90820312 C7.94791594,4.58007648 7.83170616,4.33284588 7.74511719,4.16650391 C7.65852821,4.00016193 7.57877641,3.87597697 7.50585938,3.79394531 C7.43294234,3.71191365 7.36116572,3.64925152 7.29052734,3.60595703 C7.21988897,3.56266254 7.113933,3.52278664 6.97265625,3.48632812 L7.07519531,3.03515625 L9.34472656,3.03515625 L10.2265625,5.42773438 Z" id="fx"></path>
        </g>
        <g id="tree/adhoc-mui-selected/calculated-field" transform="translate(3.000000, 580.000000)" fill="#C1DCF5" fill-rule="nonzero">
            <path d="M2.63183594,3.88964844 L2.72753906,3.43847656 C2.91438896,3.4202473 3.05452427,3.39746107 3.14794922,3.37011719 C3.24137417,3.3427733 3.32226528,3.3028974 3.390625,3.25048828 C3.45898472,3.19807917 3.52278616,3.1126308 3.58203125,2.99414062 C3.64127634,2.87565045 3.70507778,2.68880336 3.7734375,2.43359375 C3.88737036,2.00064888 4.03092361,1.64176575 4.20410156,1.35693359 C4.37727951,1.07210144 4.60286319,0.823731528 4.88085938,0.611816406 C5.15885556,0.399901284 5.48355934,0.244954917 5.85498047,0.146972656 C6.2264016,0.0489903955 6.63541443,0 7.08203125,0 C7.25976651,0 7.45231016,0.00683586914 7.65966797,0.0205078125 C7.86702578,0.0341797559 8.10286326,0.0683591016 8.3671875,0.123046875 L8.05957031,1.49023438 L7.17773438,1.49023438 C7.15950512,1.20768088 7.11393266,1.00716205 7.04101562,0.888671875 C6.96809859,0.770181699 6.85416744,0.7109375 6.69921875,0.7109375 C6.59440052,0.7109375 6.50097697,0.731445107 6.41894531,0.772460938 C6.33691365,0.813476768 6.25716185,0.886392705 6.1796875,0.991210938 C6.10221315,1.09602917 6.02815791,1.2475576 5.95751953,1.44580078 C5.88688116,1.64404396 5.81282591,1.92317528 5.73535156,2.28320312 L5.56445312,3.03515625 L6.86328125,3.03515625 L6.67871094,3.88964844 L5.37304688,3.88964844 L4.13574219,9.60449219 C3.97623618,10.3382198 3.75179181,10.9443335 3.46240234,11.4228516 C3.17301288,11.9013696 2.79817938,12.2625313 2.33789062,12.5063477 C1.87760187,12.750164 1.31478197,12.8720703 0.649414062,12.8720703 C0.435220283,12.8720703 0.218751094,12.8424482 0,12.7832031 L0.184570312,12.0380859 C0.312175117,12.0745445 0.462564238,12.0927734 0.635742188,12.0927734 C0.840821338,12.0927734 1.00830013,12.0642906 1.13818359,12.0073242 C1.26806706,11.9503578 1.38541614,11.852377 1.49023438,11.7133789 C1.59505261,11.5743808 1.6930334,11.3704441 1.78417969,11.1015625 C1.87532598,10.8326809 1.97558539,10.4544295 2.08496094,9.96679688 L3.45214844,3.88964844 L2.63183594,3.88964844 Z M10.2265625,5.42773438 C10.6367208,5.05403459 10.9033197,4.76237084 11.0263672,4.55273438 C11.1494147,4.34309791 11.2109375,4.13346459 11.2109375,3.92382812 C11.2109375,3.80989526 11.1813154,3.71305378 11.1220703,3.63330078 C11.0628252,3.55354778 10.9580086,3.50455738 10.8076172,3.48632812 L10.9101562,3.03515625 L13.1181641,3.03515625 L13.2890625,3.48632812 C13.0885407,3.7005219 12.8173845,3.97623529 12.4755859,4.31347656 C12.1337874,4.65071783 11.7931332,4.97883955 11.4536133,5.29785156 C11.1140934,5.61686357 10.8053399,5.90169146 10.5273438,6.15234375 L11.4775391,8.26464844 C11.5732427,8.46517027 11.6598303,8.636067 11.7373047,8.77734375 C11.814779,8.9186205 11.8854163,9.02457647 11.9492188,9.09521484 C12.0130212,9.16585322 12.0779619,9.22167948 12.144043,9.26269531 C12.210124,9.30371114 12.3001296,9.33789049 12.4140625,9.36523438 L12.3115234,9.81640625 L10.0693359,9.81640625 L9.10546875,7.24609375 C8.60416416,7.68815325 8.28059969,8.02197153 8.13476562,8.24755859 C7.98893156,8.47314566 7.91601562,8.69303278 7.91601562,8.90722656 C7.91601562,9.03027405 7.94449841,9.13281209 8.00146484,9.21484375 C8.05843127,9.29687541 8.16438725,9.34700512 8.31933594,9.36523438 L8.21679688,9.81640625 L6.00878906,9.81640625 L5.83105469,9.36523438 C6.12272281,9.05533699 6.58870123,8.59391583 7.22900391,7.98095703 C7.86930659,7.36799824 8.3945292,6.88151222 8.8046875,6.52148438 L8.09375,4.90820312 C7.94791594,4.58007648 7.83170616,4.33284588 7.74511719,4.16650391 C7.65852821,4.00016193 7.57877641,3.87597697 7.50585938,3.79394531 C7.43294234,3.71191365 7.36116572,3.64925152 7.29052734,3.60595703 C7.21988897,3.56266254 7.113933,3.52278664 6.97265625,3.48632812 L7.07519531,3.03515625 L9.34472656,3.03515625 L10.2265625,5.42773438 Z" id="fx"></path>
        </g>
        <g id="tree/adhoc-mui-selected/number-measure" transform="translate(3.000000, 550.000000)" fill="#D7E8B9" fill-rule="nonzero">
            <path d="M1.77,7.23 L1.77,2.01 L0.71,2.81 L8.8817842e-16,1.57 L1.94,0.15 L3.34,0.15 L3.34,7.23 L1.77,7.23 Z M9.54,2.1 C9.54,2.3333345 9.5100003,2.549999 9.45,2.75 C9.3899997,2.950001 9.3100005,3.1399991 9.21,3.32 C9.1099995,3.5 8.9966673,3.6733325 8.87,3.84 C8.7433327,4.0066675 8.613334,4.1666659 8.48,4.32 L7.16,5.85 L9.45,5.85 L9.45,7.23 L5.26,7.23 L5.26,5.81 L7.41,3.34 C7.5833342,3.139999 7.7199995,2.93500105 7.82,2.725 C7.9200005,2.51499895 7.97,2.3133343 7.97,2.12 C7.97,1.9133323 7.92166715,1.7366674 7.825,1.59 C7.72833285,1.4433326 7.5766677,1.37 7.37,1.37 C7.1766657,1.37 7.0166673,1.44833255 6.89,1.605 C6.7633327,1.76166745 6.6866668,1.9899985 6.66,2.29 L5.16,2.15 C5.2400004,1.4299964 5.48499795,0.89166845 5.895,0.535 C6.30500205,0.17833155 6.8133303,0 7.42,0 C7.7466683,0 8.0399987,0.0499995 8.3,0.15 C8.5600013,0.2500005 8.78166575,0.3899991 8.965,0.57 C9.14833425,0.7500009 9.2899995,0.9699987 9.39,1.23 C9.4900005,1.4900013 9.54,1.7799984 9.54,2.1 Z M14.84,5.16 C14.84,5.5200018 14.7816673,5.8366653 14.665,6.11 C14.5483328,6.3833347 14.390001,6.61499905 14.19,6.805 C13.989999,6.99500095 13.7550014,7.13833285 13.485,7.235 C13.2149987,7.33166715 12.9233349,7.38 12.61,7.38 C12.0299971,7.38 11.5333354,7.23166815 11.12,6.935 C10.7066646,6.63833185 10.433334,6.1866697 10.3,5.58 L11.71,5.22 C11.7633336,5.4533345 11.856666,5.6433326 11.99,5.79 C12.123334,5.9366674 12.3066655,6.01 12.54,6.01 C12.6666673,6.01 12.7766662,5.9833336 12.87,5.93 C12.9633338,5.8766664 13.0416664,5.8066671 13.105,5.72 C13.1683337,5.6333329 13.2149999,5.53500055 13.245,5.425 C13.2750002,5.31499945 13.29,5.2033339 13.29,5.09 C13.29,4.7833318 13.2016675,4.5566674 13.025,4.41 C12.8483325,4.2633326 12.6133348,4.19 12.32,4.19 L11.96,4.19 L11.96,3.01 L12.36,3.01 C12.626668,3.01 12.831666,2.93166745 12.975,2.775 C13.1183341,2.61833255 13.19,2.4000014 13.19,2.12 C13.19,1.9399991 13.1383339,1.7700008 13.035,1.61 C12.9316662,1.4499992 12.7666678,1.37 12.54,1.37 C12.3466657,1.37 12.1966672,1.4333327 12.09,1.56 C11.9833328,1.6866673 11.9033336,1.8466657 11.85,2.04 L10.48,1.7 C10.5600004,1.3933318 10.6749993,1.1333344 10.825,0.92 C10.9750008,0.7066656 11.1449991,0.53166735 11.335,0.395 C11.525001,0.25833265 11.7333322,0.15833365 11.96,0.095 C12.1866678,0.03166635 12.4166655,0 12.65,0 C12.9100013,0 13.1616655,0.0399996 13.405,0.12 C13.6483346,0.2000004 13.8666657,0.3199992 14.06,0.48 C14.2533343,0.6400008 14.4083328,0.8399988 14.525,1.08 C14.6416673,1.3200012 14.7,1.5999984 14.7,1.92 C14.7,2.3333354 14.6116676,2.68166525 14.435,2.965 C14.2583325,3.24833475 14.0233348,3.4366662 13.73,3.53 L13.73,3.56 C14.0700017,3.6533338 14.339999,3.8466652 14.54,4.14 C14.740001,4.4333348 14.84,4.7733314 14.84,5.16 Z" id="123"></path>
        </g>
        <g id="tree/adhoc-mui-selected/number-field" transform="translate(3.000000, 518.000000)" fill="#C1DCF5" fill-rule="nonzero">
            <path d="M1.77,7.23 L1.77,2.01 L0.71,2.81 L8.8817842e-16,1.57 L1.94,0.15 L3.34,0.15 L3.34,7.23 L1.77,7.23 Z M9.54,2.1 C9.54,2.3333345 9.5100003,2.549999 9.45,2.75 C9.3899997,2.950001 9.3100005,3.1399991 9.21,3.32 C9.1099995,3.5 8.9966673,3.6733325 8.87,3.84 C8.7433327,4.0066675 8.613334,4.1666659 8.48,4.32 L7.16,5.85 L9.45,5.85 L9.45,7.23 L5.26,7.23 L5.26,5.81 L7.41,3.34 C7.5833342,3.139999 7.7199995,2.93500105 7.82,2.725 C7.9200005,2.51499895 7.97,2.3133343 7.97,2.12 C7.97,1.9133323 7.92166715,1.7366674 7.825,1.59 C7.72833285,1.4433326 7.5766677,1.37 7.37,1.37 C7.1766657,1.37 7.0166673,1.44833255 6.89,1.605 C6.7633327,1.76166745 6.6866668,1.9899985 6.66,2.29 L5.16,2.15 C5.2400004,1.4299964 5.48499795,0.89166845 5.895,0.535 C6.30500205,0.17833155 6.8133303,0 7.42,0 C7.7466683,0 8.0399987,0.0499995 8.3,0.15 C8.5600013,0.2500005 8.78166575,0.3899991 8.965,0.57 C9.14833425,0.7500009 9.2899995,0.9699987 9.39,1.23 C9.4900005,1.4900013 9.54,1.7799984 9.54,2.1 Z M14.84,5.16 C14.84,5.5200018 14.7816673,5.8366653 14.665,6.11 C14.5483328,6.3833347 14.390001,6.61499905 14.19,6.805 C13.989999,6.99500095 13.7550014,7.13833285 13.485,7.235 C13.2149987,7.33166715 12.9233349,7.38 12.61,7.38 C12.0299971,7.38 11.5333354,7.23166815 11.12,6.935 C10.7066646,6.63833185 10.433334,6.1866697 10.3,5.58 L11.71,5.22 C11.7633336,5.4533345 11.856666,5.6433326 11.99,5.79 C12.123334,5.9366674 12.3066655,6.01 12.54,6.01 C12.6666673,6.01 12.7766662,5.9833336 12.87,5.93 C12.9633338,5.8766664 13.0416664,5.8066671 13.105,5.72 C13.1683337,5.6333329 13.2149999,5.53500055 13.245,5.425 C13.2750002,5.31499945 13.29,5.2033339 13.29,5.09 C13.29,4.7833318 13.2016675,4.5566674 13.025,4.41 C12.8483325,4.2633326 12.6133348,4.19 12.32,4.19 L11.96,4.19 L11.96,3.01 L12.36,3.01 C12.626668,3.01 12.831666,2.93166745 12.975,2.775 C13.1183341,2.61833255 13.19,2.4000014 13.19,2.12 C13.19,1.9399991 13.1383339,1.7700008 13.035,1.61 C12.9316662,1.4499992 12.7666678,1.37 12.54,1.37 C12.3466657,1.37 12.1966672,1.4333327 12.09,1.56 C11.9833328,1.6866673 11.9033336,1.8466657 11.85,2.04 L10.48,1.7 C10.5600004,1.3933318 10.6749993,1.1333344 10.825,0.92 C10.9750008,0.7066656 11.1449991,0.53166735 11.335,0.395 C11.525001,0.25833265 11.7333322,0.15833365 11.96,0.095 C12.1866678,0.03166635 12.4166655,0 12.65,0 C12.9100013,0 13.1616655,0.0399996 13.405,0.12 C13.6483346,0.2000004 13.8666657,0.3199992 14.06,0.48 C14.2533343,0.6400008 14.4083328,0.8399988 14.525,1.08 C14.6416673,1.3200012 14.7,1.5999984 14.7,1.92 C14.7,2.3333354 14.6116676,2.68166525 14.435,2.965 C14.2583325,3.24833475 14.0233348,3.4366662 13.73,3.53 L13.73,3.56 C14.0700017,3.6533338 14.339999,3.8466652 14.54,4.14 C14.740001,4.4333348 14.84,4.7733314 14.84,5.16 Z" id="123"></path>
        </g>
        <g id="tree/adhoc-mui-selected/string-measure" transform="translate(3.000000, 486.000000)" fill="#D7E8B9" fill-rule="nonzero">
            <path d="M3.77,7.56 L3.48,6.27 L1.89,6.27 L1.6,7.56 L0,7.56 L1.72,0.48 L3.73,0.48 L5.44,7.56 L3.77,7.56 Z M2.71,2.02 L2.67,2.02 L2.07,5.03 L3.28,5.03 L2.71,2.02 Z M6.05,0 L7.61,0 L7.61,2.86 L7.64,2.86 C7.7000003,2.6666657 7.82499905,2.503334 8.015,2.37 C8.20500095,2.236666 8.4266654,2.17 8.68,2.17 C8.9600014,2.17 9.20833225,2.23833265 9.425,2.375 C9.64166775,2.51166735 9.8233326,2.6999988 9.97,2.94 C10.1166674,3.1800012 10.2266663,3.46499835 10.3,3.795 C10.3733337,4.12500165 10.41,4.4833314 10.41,4.87 C10.41,5.2633353 10.371667,5.6333316 10.295,5.98 C10.218333,6.3266684 10.1066674,6.62833205 9.96,6.885 C9.8133326,7.14166795 9.63166775,7.34499925 9.415,7.495 C9.19833225,7.64500075 8.9533347,7.72 8.68,7.72 C8.3599984,7.72 8.1166675,7.64166745 7.95,7.485 C7.7833325,7.32833255 7.6600004,7.1433344 7.58,6.93 L7.56,6.93 L7.56,7.56 L6.05,7.56 L6.05,0 Z M7.53,4.94 C7.53,5.1333343 7.5433332,5.3166658 7.57,5.49 C7.5966668,5.6633342 7.63833305,5.81499935 7.695,5.945 C7.75166695,6.07500065 7.82166625,6.1766663 7.905,6.25 C7.98833375,6.3233337 8.0866661,6.36 8.2,6.36 C8.3200006,6.36 8.42166625,6.3233337 8.505,6.25 C8.58833375,6.1766663 8.65833305,6.07500065 8.715,5.945 C8.77166695,5.81499935 8.81166655,5.6633342 8.835,5.49 C8.85833345,5.3166658 8.87,5.1333343 8.87,4.94 C8.87,4.739999 8.85833345,4.55500085 8.835,4.385 C8.81166655,4.21499915 8.77166695,4.06500065 8.715,3.935 C8.65833305,3.80499935 8.58833375,3.7033337 8.505,3.63 C8.42166625,3.5566663 8.3200006,3.52 8.2,3.52 C8.0866661,3.52 7.98833375,3.5566663 7.905,3.63 C7.82166625,3.7033337 7.75166695,3.80499935 7.695,3.935 C7.63833305,4.06500065 7.5966668,4.21499915 7.57,4.385 C7.5433332,4.55500085 7.53,4.739999 7.53,4.94 Z M14.36,7.16 C14.2199993,7.3333342 14.0400011,7.4699995 13.82,7.57 C13.5999989,7.67 13.3466681,7.72 13.06,7.72 C12.726665,7.72 12.4333346,7.65166735 12.18,7.515 C11.9266654,7.37833265 11.7133342,7.1866679 11.54,6.94 C11.3666658,6.6933321 11.2350004,6.4000017 11.145,6.06 C11.0549995,5.7199983 11.01,5.3466687 11.01,4.94 C11.01,4.5333313 11.0566662,4.16166835 11.15,3.825 C11.2433338,3.48833165 11.3766658,3.1966679 11.55,2.95 C11.7233342,2.7033321 11.938332,2.51166735 12.195,2.375 C12.4516679,2.23833265 12.746665,2.17 13.08,2.17 C13.3733348,2.17 13.6266656,2.2233328 13.84,2.33 C14.0533344,2.4366672 14.2199994,2.556666 14.34,2.69 L13.71,3.91 C13.6499997,3.8166662 13.5766671,3.7433336 13.49,3.69 C13.4033329,3.6366664 13.3066672,3.61 13.2,3.61 C13.0066657,3.61 12.8450006,3.7266655 12.715,3.96 C12.5849993,4.1933345 12.52,4.5199979 12.52,4.94 C12.52,5.3600021 12.5833327,5.68499885 12.71,5.915 C12.8366673,6.14500115 13.01,6.26 13.23,6.26 C13.3433339,6.26 13.4416662,6.23166695 13.525,6.175 C13.6083337,6.11833305 13.6766664,6.0433338 13.73,5.95 L14.36,7.16 Z" id="Abc"></path>
        </g>
        <g id="tree/adhoc-mui-selected/string-field" transform="translate(3.000000, 454.000000)" fill="#C1DCF5" fill-rule="nonzero">
            <path d="M3.77,7.56 L3.48,6.27 L1.89,6.27 L1.6,7.56 L0,7.56 L1.72,0.48 L3.73,0.48 L5.44,7.56 L3.77,7.56 Z M2.71,2.02 L2.67,2.02 L2.07,5.03 L3.28,5.03 L2.71,2.02 Z M6.05,0 L7.61,0 L7.61,2.86 L7.64,2.86 C7.7000003,2.6666657 7.82499905,2.503334 8.015,2.37 C8.20500095,2.236666 8.4266654,2.17 8.68,2.17 C8.9600014,2.17 9.20833225,2.23833265 9.425,2.375 C9.64166775,2.51166735 9.8233326,2.6999988 9.97,2.94 C10.1166674,3.1800012 10.2266663,3.46499835 10.3,3.795 C10.3733337,4.12500165 10.41,4.4833314 10.41,4.87 C10.41,5.2633353 10.371667,5.6333316 10.295,5.98 C10.218333,6.3266684 10.1066674,6.62833205 9.96,6.885 C9.8133326,7.14166795 9.63166775,7.34499925 9.415,7.495 C9.19833225,7.64500075 8.9533347,7.72 8.68,7.72 C8.3599984,7.72 8.1166675,7.64166745 7.95,7.485 C7.7833325,7.32833255 7.6600004,7.1433344 7.58,6.93 L7.56,6.93 L7.56,7.56 L6.05,7.56 L6.05,0 Z M7.53,4.94 C7.53,5.1333343 7.5433332,5.3166658 7.57,5.49 C7.5966668,5.6633342 7.63833305,5.81499935 7.695,5.945 C7.75166695,6.07500065 7.82166625,6.1766663 7.905,6.25 C7.98833375,6.3233337 8.0866661,6.36 8.2,6.36 C8.3200006,6.36 8.42166625,6.3233337 8.505,6.25 C8.58833375,6.1766663 8.65833305,6.07500065 8.715,5.945 C8.77166695,5.81499935 8.81166655,5.6633342 8.835,5.49 C8.85833345,5.3166658 8.87,5.1333343 8.87,4.94 C8.87,4.739999 8.85833345,4.55500085 8.835,4.385 C8.81166655,4.21499915 8.77166695,4.06500065 8.715,3.935 C8.65833305,3.80499935 8.58833375,3.7033337 8.505,3.63 C8.42166625,3.5566663 8.3200006,3.52 8.2,3.52 C8.0866661,3.52 7.98833375,3.5566663 7.905,3.63 C7.82166625,3.7033337 7.75166695,3.80499935 7.695,3.935 C7.63833305,4.06500065 7.5966668,4.21499915 7.57,4.385 C7.5433332,4.55500085 7.53,4.739999 7.53,4.94 Z M14.36,7.16 C14.2199993,7.3333342 14.0400011,7.4699995 13.82,7.57 C13.5999989,7.67 13.3466681,7.72 13.06,7.72 C12.726665,7.72 12.4333346,7.65166735 12.18,7.515 C11.9266654,7.37833265 11.7133342,7.1866679 11.54,6.94 C11.3666658,6.6933321 11.2350004,6.4000017 11.145,6.06 C11.0549995,5.7199983 11.01,5.3466687 11.01,4.94 C11.01,4.5333313 11.0566662,4.16166835 11.15,3.825 C11.2433338,3.48833165 11.3766658,3.1966679 11.55,2.95 C11.7233342,2.7033321 11.938332,2.51166735 12.195,2.375 C12.4516679,2.23833265 12.746665,2.17 13.08,2.17 C13.3733348,2.17 13.6266656,2.2233328 13.84,2.33 C14.0533344,2.4366672 14.2199994,2.556666 14.34,2.69 L13.71,3.91 C13.6499997,3.8166662 13.5766671,3.7433336 13.49,3.69 C13.4033329,3.6366664 13.3066672,3.61 13.2,3.61 C13.0066657,3.61 12.8450006,3.7266655 12.715,3.96 C12.5849993,4.1933345 12.52,4.5199979 12.52,4.94 C12.52,5.3600021 12.5833327,5.68499885 12.71,5.915 C12.8366673,6.14500115 13.01,6.26 13.23,6.26 C13.3433339,6.26 13.4416662,6.23166695 13.525,6.175 C13.6083337,6.11833305 13.6766664,6.0433338 13.73,5.95 L14.36,7.16 Z" id="Abc"></path>
        </g>
        <g id="Group" transform="translate(3.000000, 419.000000)">
            <g id="bottom-object">
                <path d="M13,1 L13,3 L1.999,3 L2,11 L2.22044605e-16,11 L-4.4408921e-16,1 L13,1 Z" id="Combined-Shape" fill="#F9F9F9"></path>
                <path d="M13,3 L12,3 L12,2 L0.999,2 L1,10 L2,10 L2,11 L3.33066907e-16,11 L-3.33066907e-16,3.061617e-17 L13,0 L13,3 Z" id="Combined-Shape" fill="#CDCDCD"></path>
            </g>
            <g id="top-object" transform="translate(2.000000, 3.000000)">
                <polygon id="body-left" fill="#F9F9F9" transform="translate(6.500000, 5.500000) rotate(90.000000) translate(-6.500000, -5.500000) " points="1 -1 12 -1 12 12 1 12"></polygon>
                <path d="M13,11 L3.33066907e-16,11 L-3.33066907e-16,3.061617e-17 L1,-3.061617e-17 L1,10 L12,10 L12,3.061617e-17 L13,-3.061617e-17 L13,11 Z" id="Combined-Shape" fill="#CDCDCD"></path>
                <rect id="table-column-header" fill="#CDCDCD" x="0" y="0" width="13" height="2"></rect>
            </g>
        </g>
        <g id="tree/adhoc-mui/boolean-measure" transform="translate(3.000000, 387.000000)" fill="#7A9F35">
            <path d="M12,8 C13.6568542,8 15,9.34314575 15,11 C15,12.6568542 13.6568542,14 12,14 L3,14 C1.34314575,14 2.02906125e-16,12.6568542 0,11 C-2.02906125e-16,9.34314575 1.34314575,8 3,8 L12,8 Z M12,9 C10.8954305,9 10,9.8954305 10,11 C10,12.1045695 10.8954305,13 12,13 C13.1045695,13 14,12.1045695 14,11 C14,9.8954305 13.1045695,9 12,9 Z M12,0 C13.6568542,-3.04359188e-16 15,1.34314575 15,3 C15,4.65685425 13.6568542,6 12,6 L3,6 C1.34314575,6 2.02906125e-16,4.65685425 0,3 C-2.02906125e-16,1.34314575 1.34314575,3.04359188e-16 3,0 L12,0 Z M3,1 C1.8954305,1 1,1.8954305 1,3 C1,4.1045695 1.8954305,5 3,5 C4.1045695,5 5,4.1045695 5,3 C5,1.8954305 4.1045695,1 3,1 Z" id="Combined-Shape"></path>
        </g>
        <g id="tree/adhoc-mui/boolean-field" transform="translate(3.000000, 355.000000)" fill="#00A9D7">
            <path d="M12,8 C13.6568542,8 15,9.34314575 15,11 C15,12.6568542 13.6568542,14 12,14 L3,14 C1.34314575,14 2.02906125e-16,12.6568542 0,11 C-2.02906125e-16,9.34314575 1.34314575,8 3,8 L12,8 Z M12,9 C10.8954305,9 10,9.8954305 10,11 C10,12.1045695 10.8954305,13 12,13 C13.1045695,13 14,12.1045695 14,11 C14,9.8954305 13.1045695,9 12,9 Z M12,0 C13.6568542,-3.04359188e-16 15,1.34314575 15,3 C15,4.65685425 13.6568542,6 12,6 L3,6 C1.34314575,6 2.02906125e-16,4.65685425 0,3 C-2.02906125e-16,1.34314575 1.34314575,3.04359188e-16 3,0 L12,0 Z M3,1 C1.8954305,1 1,1.8954305 1,3 C1,4.1045695 1.8954305,5 3,5 C4.1045695,5 5,4.1045695 5,3 C5,1.8954305 4.1045695,1 3,1 Z" id="Combined-Shape"></path>
        </g>
        <g id="Group" transform="translate(3.000000, 323.000000)" fill="#7A9F35">
            <path d="M13.125,7.5 C13.125,4.39339828 10.6066017,1.875 7.5,1.875 C4.39339828,1.875 1.875,4.39339828 1.875,7.5 C1.875,10.6066017 4.39339828,13.125 7.5,13.125 C10.6066017,13.125 13.125,10.6066017 13.125,7.5 Z M0,7.5 C0,3.35786438 3.35786438,0 7.5,0 C11.6421356,0 15,3.35786438 15,7.5 C15,11.6421356 11.6421356,15 7.5,15 C3.35786438,15 0,11.6421356 0,7.5 Z" id="Oval-8"></path>
            <polygon id="Path-3" transform="translate(7.959818, 6.774436) rotate(3.000000) translate(-7.959818, -6.774436) " points="7.3156853 9.38469196 11.6007445 7.58561089 11.1095416 6.41099895 7.83302696 7.7830686 5.47674703 4.16417919 4.31889156 4.95468518"></polygon>
        </g>
        <g id="clock" transform="translate(3.000000, 291.000000)" fill="#00A9D7">
            <path d="M13.125,7.5 C13.125,4.39339828 10.6066017,1.875 7.5,1.875 C4.39339828,1.875 1.875,4.39339828 1.875,7.5 C1.875,10.6066017 4.39339828,13.125 7.5,13.125 C10.6066017,13.125 13.125,10.6066017 13.125,7.5 Z M0,7.5 C0,3.35786438 3.35786438,0 7.5,0 C11.6421356,0 15,3.35786438 15,7.5 C15,11.6421356 11.6421356,15 7.5,15 C3.35786438,15 0,11.6421356 0,7.5 Z" id="Oval-8"></path>
            <polygon id="Path-3" transform="translate(7.959818, 6.774436) rotate(3.000000) translate(-7.959818, -6.774436) " points="7.3156853 9.38469196 11.6007445 7.58561089 11.1095416 6.41099895 7.83302696 7.7830686 5.47674703 4.16417919 4.31889156 4.95468518"></polygon>
        </g>
        <g id="Rectangle" transform="translate(3.000000, 259.000000)">
            <rect fill="#7A9F35" x="0" y="4" width="15" height="10"></rect>
            <path d="M4.3046875,10.2617188 C4.3046875,10.4882824 4.34114547,10.6757805 4.4140625,10.8242188 C4.54947984,11.0976576 4.79557113,11.234375 5.15234375,11.234375 C5.37109484,11.234375 5.56184814,11.159506 5.72460938,11.0097656 C5.88737061,10.8600253 5.96875,10.6445327 5.96875,10.3632812 C5.96875,9.99088355 5.81770984,9.74218813 5.515625,9.6171875 C5.34374914,9.54687465 5.07291852,9.51171875 4.703125,9.51171875 L4.703125,8.71484375 C5.06510598,8.70963539 5.31770762,8.67447949 5.4609375,8.609375 C5.70833457,8.49999945 5.83203125,8.2786475 5.83203125,7.9453125 C5.83203125,7.72916559 5.76888084,7.55338609 5.64257812,7.41796875 C5.51627541,7.28255141 5.33854281,7.21484375 5.109375,7.21484375 C4.84635285,7.21484375 4.65299541,7.29817625 4.52929688,7.46484375 C4.40559834,7.63151125 4.34635414,7.85416527 4.3515625,8.1328125 L3.3125,8.1328125 C3.32291672,7.85156109 3.37109332,7.58463668 3.45703125,7.33203125 C3.54817754,7.11067598 3.69140527,6.90625094 3.88671875,6.71875 C4.03255281,6.58593684 4.20572816,6.48437535 4.40625,6.4140625 C4.60677184,6.34374965 4.85286313,6.30859375 5.14453125,6.30859375 C5.68620062,6.30859375 6.12304521,6.44856631 6.45507812,6.72851562 C6.78711104,7.00846494 6.953125,7.38411223 6.953125,7.85546875 C6.953125,8.18880375 6.85416766,8.47005094 6.65625,8.69921875 C6.53124937,8.84244863 6.40104234,8.94010391 6.265625,8.9921875 C6.36718801,8.9921875 6.51301988,9.07942621 6.703125,9.25390625 C6.98698059,9.5169284 7.12890625,9.8762998 7.12890625,10.3320312 C7.12890625,10.8112003 6.96289229,11.2324201 6.63085938,11.5957031 C6.29882646,11.9589862 5.80729492,12.140625 5.15625,12.140625 C4.35416266,12.140625 3.79687656,11.8789089 3.484375,11.3554688 C3.32031168,11.0768215 3.22916676,10.7122418 3.2109375,10.2617188 L4.3046875,10.2617188 Z M8.8359375,9.22265625 C8.8359375,9.87370117 8.88932238,10.3717431 8.99609375,10.7167969 C9.10286512,11.0618507 9.32161293,11.234375 9.65234375,11.234375 C9.98307457,11.234375 10.1998693,11.0618507 10.3027344,10.7167969 C10.4055995,10.3717431 10.4570312,9.87370117 10.4570312,9.22265625 C10.4570312,8.54036117 10.4055995,8.03515789 10.3027344,7.70703125 C10.1998693,7.37890461 9.98307457,7.21484375 9.65234375,7.21484375 C9.32161293,7.21484375 9.10286512,7.37890461 8.99609375,7.70703125 C8.88932238,8.03515789 8.8359375,8.54036117 8.8359375,9.22265625 Z M9.65234375,6.296875 C10.3737015,6.296875 10.8795558,6.55077871 11.1699219,7.05859375 C11.4602879,7.56640879 11.6054688,8.28775574 11.6054688,9.22265625 C11.6054688,10.1575568 11.4602879,10.8776016 11.1699219,11.3828125 C10.8795558,11.8880234 10.3737015,12.140625 9.65234375,12.140625 C8.93098598,12.140625 8.42513166,11.8880234 8.13476562,11.3828125 C7.84439959,10.8776016 7.69921875,10.1575568 7.69921875,9.22265625 C7.69921875,8.28775574 7.84439959,7.56640879 8.13476562,7.05859375 C8.42513166,6.55077871 8.93098598,6.296875 9.65234375,6.296875 Z" id="30" fill="#FFFFFF" fill-rule="nonzero"></path>
            <path d="M15,0 L15,3 L0,3 L0,0 L15,0 Z M3.25,0.8 C2.83578644,0.8 2.5,1.13578644 2.5,1.55 C2.5,1.96421356 2.83578644,2.3 3.25,2.3 C3.66421356,2.3 4,1.96421356 4,1.55 C4,1.13578644 3.66421356,0.8 3.25,0.8 Z M12.25,0.8 C11.8357864,0.8 11.5,1.13578644 11.5,1.55 C11.5,1.96421356 11.8357864,2.3 12.25,2.3 C12.6642136,2.3 13,1.96421356 13,1.55 C13,1.13578644 12.6642136,0.8 12.25,0.8 Z" id="Combined-Shape" fill="#7A9F35"></path>
        </g>
        <g id="Rectangle" transform="translate(3.000000, 227.000000)">
            <rect fill="#00A9D7" x="0" y="4" width="15" height="10"></rect>
            <path d="M4.3046875,10.2617188 C4.3046875,10.4882824 4.34114547,10.6757805 4.4140625,10.8242188 C4.54947984,11.0976576 4.79557113,11.234375 5.15234375,11.234375 C5.37109484,11.234375 5.56184814,11.159506 5.72460938,11.0097656 C5.88737061,10.8600253 5.96875,10.6445327 5.96875,10.3632812 C5.96875,9.99088355 5.81770984,9.74218813 5.515625,9.6171875 C5.34374914,9.54687465 5.07291852,9.51171875 4.703125,9.51171875 L4.703125,8.71484375 C5.06510598,8.70963539 5.31770762,8.67447949 5.4609375,8.609375 C5.70833457,8.49999945 5.83203125,8.2786475 5.83203125,7.9453125 C5.83203125,7.72916559 5.76888084,7.55338609 5.64257812,7.41796875 C5.51627541,7.28255141 5.33854281,7.21484375 5.109375,7.21484375 C4.84635285,7.21484375 4.65299541,7.29817625 4.52929688,7.46484375 C4.40559834,7.63151125 4.34635414,7.85416527 4.3515625,8.1328125 L3.3125,8.1328125 C3.32291672,7.85156109 3.37109332,7.58463668 3.45703125,7.33203125 C3.54817754,7.11067598 3.69140527,6.90625094 3.88671875,6.71875 C4.03255281,6.58593684 4.20572816,6.48437535 4.40625,6.4140625 C4.60677184,6.34374965 4.85286313,6.30859375 5.14453125,6.30859375 C5.68620062,6.30859375 6.12304521,6.44856631 6.45507812,6.72851562 C6.78711104,7.00846494 6.953125,7.38411223 6.953125,7.85546875 C6.953125,8.18880375 6.85416766,8.47005094 6.65625,8.69921875 C6.53124937,8.84244863 6.40104234,8.94010391 6.265625,8.9921875 C6.36718801,8.9921875 6.51301988,9.07942621 6.703125,9.25390625 C6.98698059,9.5169284 7.12890625,9.8762998 7.12890625,10.3320312 C7.12890625,10.8112003 6.96289229,11.2324201 6.63085938,11.5957031 C6.29882646,11.9589862 5.80729492,12.140625 5.15625,12.140625 C4.35416266,12.140625 3.79687656,11.8789089 3.484375,11.3554688 C3.32031168,11.0768215 3.22916676,10.7122418 3.2109375,10.2617188 L4.3046875,10.2617188 Z M8.8359375,9.22265625 C8.8359375,9.87370117 8.88932238,10.3717431 8.99609375,10.7167969 C9.10286512,11.0618507 9.32161293,11.234375 9.65234375,11.234375 C9.98307457,11.234375 10.1998693,11.0618507 10.3027344,10.7167969 C10.4055995,10.3717431 10.4570312,9.87370117 10.4570312,9.22265625 C10.4570312,8.54036117 10.4055995,8.03515789 10.3027344,7.70703125 C10.1998693,7.37890461 9.98307457,7.21484375 9.65234375,7.21484375 C9.32161293,7.21484375 9.10286512,7.37890461 8.99609375,7.70703125 C8.88932238,8.03515789 8.8359375,8.54036117 8.8359375,9.22265625 Z M9.65234375,6.296875 C10.3737015,6.296875 10.8795558,6.55077871 11.1699219,7.05859375 C11.4602879,7.56640879 11.6054688,8.28775574 11.6054688,9.22265625 C11.6054688,10.1575568 11.4602879,10.8776016 11.1699219,11.3828125 C10.8795558,11.8880234 10.3737015,12.140625 9.65234375,12.140625 C8.93098598,12.140625 8.42513166,11.8880234 8.13476562,11.3828125 C7.84439959,10.8776016 7.69921875,10.1575568 7.69921875,9.22265625 C7.69921875,8.28775574 7.84439959,7.56640879 8.13476562,7.05859375 C8.42513166,6.55077871 8.93098598,6.296875 9.65234375,6.296875 Z" id="30" fill="#FFFFFF" fill-rule="nonzero"></path>
            <path d="M15,0 L15,3 L0,3 L0,0 L15,0 Z M3.25,0.8 C2.83578644,0.8 2.5,1.13578644 2.5,1.55 C2.5,1.96421356 2.83578644,2.3 3.25,2.3 C3.66421356,2.3 4,1.96421356 4,1.55 C4,1.13578644 3.66421356,0.8 3.25,0.8 Z M12.25,0.8 C11.8357864,0.8 11.5,1.13578644 11.5,1.55 C11.5,1.96421356 11.8357864,2.3 12.25,2.3 C12.6642136,2.3 13,1.96421356 13,1.55 C13,1.13578644 12.6642136,0.8 12.25,0.8 Z" id="Combined-Shape" fill="#00A9D7"></path>
        </g>
        <g id="tree/adhoc-mui/calculated-measure" transform="translate(3.000000, 196.000000)" fill="#7A9F35" fill-rule="nonzero">
            <path d="M2.63183594,3.88964844 L2.72753906,3.43847656 C2.91438896,3.4202473 3.05452427,3.39746107 3.14794922,3.37011719 C3.24137417,3.3427733 3.32226528,3.3028974 3.390625,3.25048828 C3.45898472,3.19807917 3.52278616,3.1126308 3.58203125,2.99414062 C3.64127634,2.87565045 3.70507778,2.68880336 3.7734375,2.43359375 C3.88737036,2.00064888 4.03092361,1.64176575 4.20410156,1.35693359 C4.37727951,1.07210144 4.60286319,0.823731528 4.88085938,0.611816406 C5.15885556,0.399901284 5.48355934,0.244954917 5.85498047,0.146972656 C6.2264016,0.0489903955 6.63541443,0 7.08203125,0 C7.25976651,0 7.45231016,0.00683586914 7.65966797,0.0205078125 C7.86702578,0.0341797559 8.10286326,0.0683591016 8.3671875,0.123046875 L8.05957031,1.49023438 L7.17773438,1.49023438 C7.15950512,1.20768088 7.11393266,1.00716205 7.04101562,0.888671875 C6.96809859,0.770181699 6.85416744,0.7109375 6.69921875,0.7109375 C6.59440052,0.7109375 6.50097697,0.731445107 6.41894531,0.772460938 C6.33691365,0.813476768 6.25716185,0.886392705 6.1796875,0.991210938 C6.10221315,1.09602917 6.02815791,1.2475576 5.95751953,1.44580078 C5.88688116,1.64404396 5.81282591,1.92317528 5.73535156,2.28320312 L5.56445312,3.03515625 L6.86328125,3.03515625 L6.67871094,3.88964844 L5.37304688,3.88964844 L4.13574219,9.60449219 C3.97623618,10.3382198 3.75179181,10.9443335 3.46240234,11.4228516 C3.17301288,11.9013696 2.79817938,12.2625313 2.33789062,12.5063477 C1.87760187,12.750164 1.31478197,12.8720703 0.649414062,12.8720703 C0.435220283,12.8720703 0.218751094,12.8424482 0,12.7832031 L0.184570312,12.0380859 C0.312175117,12.0745445 0.462564238,12.0927734 0.635742188,12.0927734 C0.840821338,12.0927734 1.00830013,12.0642906 1.13818359,12.0073242 C1.26806706,11.9503578 1.38541614,11.852377 1.49023438,11.7133789 C1.59505261,11.5743808 1.6930334,11.3704441 1.78417969,11.1015625 C1.87532598,10.8326809 1.97558539,10.4544295 2.08496094,9.96679688 L3.45214844,3.88964844 L2.63183594,3.88964844 Z M10.2265625,5.42773438 C10.6367208,5.05403459 10.9033197,4.76237084 11.0263672,4.55273438 C11.1494147,4.34309791 11.2109375,4.13346459 11.2109375,3.92382812 C11.2109375,3.80989526 11.1813154,3.71305378 11.1220703,3.63330078 C11.0628252,3.55354778 10.9580086,3.50455738 10.8076172,3.48632812 L10.9101562,3.03515625 L13.1181641,3.03515625 L13.2890625,3.48632812 C13.0885407,3.7005219 12.8173845,3.97623529 12.4755859,4.31347656 C12.1337874,4.65071783 11.7931332,4.97883955 11.4536133,5.29785156 C11.1140934,5.61686357 10.8053399,5.90169146 10.5273438,6.15234375 L11.4775391,8.26464844 C11.5732427,8.46517027 11.6598303,8.636067 11.7373047,8.77734375 C11.814779,8.9186205 11.8854163,9.02457647 11.9492188,9.09521484 C12.0130212,9.16585322 12.0779619,9.22167948 12.144043,9.26269531 C12.210124,9.30371114 12.3001296,9.33789049 12.4140625,9.36523438 L12.3115234,9.81640625 L10.0693359,9.81640625 L9.10546875,7.24609375 C8.60416416,7.68815325 8.28059969,8.02197153 8.13476562,8.24755859 C7.98893156,8.47314566 7.91601562,8.69303278 7.91601562,8.90722656 C7.91601562,9.03027405 7.94449841,9.13281209 8.00146484,9.21484375 C8.05843127,9.29687541 8.16438725,9.34700512 8.31933594,9.36523438 L8.21679688,9.81640625 L6.00878906,9.81640625 L5.83105469,9.36523438 C6.12272281,9.05533699 6.58870123,8.59391583 7.22900391,7.98095703 C7.86930659,7.36799824 8.3945292,6.88151222 8.8046875,6.52148438 L8.09375,4.90820312 C7.94791594,4.58007648 7.83170616,4.33284588 7.74511719,4.16650391 C7.65852821,4.00016193 7.57877641,3.87597697 7.50585938,3.79394531 C7.43294234,3.71191365 7.36116572,3.64925152 7.29052734,3.60595703 C7.21988897,3.56266254 7.113933,3.52278664 6.97265625,3.48632812 L7.07519531,3.03515625 L9.34472656,3.03515625 L10.2265625,5.42773438 Z" id="fx"></path>
        </g>
        <g id="tree/adhoc-mui/calculated-field" transform="translate(3.000000, 164.000000)" fill="#00A9D7" fill-rule="nonzero">
            <path d="M2.63183594,3.88964844 L2.72753906,3.43847656 C2.91438896,3.4202473 3.05452427,3.39746107 3.14794922,3.37011719 C3.24137417,3.3427733 3.32226528,3.3028974 3.390625,3.25048828 C3.45898472,3.19807917 3.52278616,3.1126308 3.58203125,2.99414062 C3.64127634,2.87565045 3.70507778,2.68880336 3.7734375,2.43359375 C3.88737036,2.00064888 4.03092361,1.64176575 4.20410156,1.35693359 C4.37727951,1.07210144 4.60286319,0.823731528 4.88085938,0.611816406 C5.15885556,0.399901284 5.48355934,0.244954917 5.85498047,0.146972656 C6.2264016,0.0489903955 6.63541443,0 7.08203125,0 C7.25976651,0 7.45231016,0.00683586914 7.65966797,0.0205078125 C7.86702578,0.0341797559 8.10286326,0.0683591016 8.3671875,0.123046875 L8.05957031,1.49023438 L7.17773438,1.49023438 C7.15950512,1.20768088 7.11393266,1.00716205 7.04101562,0.888671875 C6.96809859,0.770181699 6.85416744,0.7109375 6.69921875,0.7109375 C6.59440052,0.7109375 6.50097697,0.731445107 6.41894531,0.772460938 C6.33691365,0.813476768 6.25716185,0.886392705 6.1796875,0.991210938 C6.10221315,1.09602917 6.02815791,1.2475576 5.95751953,1.44580078 C5.88688116,1.64404396 5.81282591,1.92317528 5.73535156,2.28320312 L5.56445312,3.03515625 L6.86328125,3.03515625 L6.67871094,3.88964844 L5.37304688,3.88964844 L4.13574219,9.60449219 C3.97623618,10.3382198 3.75179181,10.9443335 3.46240234,11.4228516 C3.17301288,11.9013696 2.79817938,12.2625313 2.33789062,12.5063477 C1.87760187,12.750164 1.31478197,12.8720703 0.649414062,12.8720703 C0.435220283,12.8720703 0.218751094,12.8424482 0,12.7832031 L0.184570312,12.0380859 C0.312175117,12.0745445 0.462564238,12.0927734 0.635742188,12.0927734 C0.840821338,12.0927734 1.00830013,12.0642906 1.13818359,12.0073242 C1.26806706,11.9503578 1.38541614,11.852377 1.49023438,11.7133789 C1.59505261,11.5743808 1.6930334,11.3704441 1.78417969,11.1015625 C1.87532598,10.8326809 1.97558539,10.4544295 2.08496094,9.96679688 L3.45214844,3.88964844 L2.63183594,3.88964844 Z M10.2265625,5.42773438 C10.6367208,5.05403459 10.9033197,4.76237084 11.0263672,4.55273438 C11.1494147,4.34309791 11.2109375,4.13346459 11.2109375,3.92382812 C11.2109375,3.80989526 11.1813154,3.71305378 11.1220703,3.63330078 C11.0628252,3.55354778 10.9580086,3.50455738 10.8076172,3.48632812 L10.9101562,3.03515625 L13.1181641,3.03515625 L13.2890625,3.48632812 C13.0885407,3.7005219 12.8173845,3.97623529 12.4755859,4.31347656 C12.1337874,4.65071783 11.7931332,4.97883955 11.4536133,5.29785156 C11.1140934,5.61686357 10.8053399,5.90169146 10.5273438,6.15234375 L11.4775391,8.26464844 C11.5732427,8.46517027 11.6598303,8.636067 11.7373047,8.77734375 C11.814779,8.9186205 11.8854163,9.02457647 11.9492188,9.09521484 C12.0130212,9.16585322 12.0779619,9.22167948 12.144043,9.26269531 C12.210124,9.30371114 12.3001296,9.33789049 12.4140625,9.36523438 L12.3115234,9.81640625 L10.0693359,9.81640625 L9.10546875,7.24609375 C8.60416416,7.68815325 8.28059969,8.02197153 8.13476562,8.24755859 C7.98893156,8.47314566 7.91601562,8.69303278 7.91601562,8.90722656 C7.91601562,9.03027405 7.94449841,9.13281209 8.00146484,9.21484375 C8.05843127,9.29687541 8.16438725,9.34700512 8.31933594,9.36523438 L8.21679688,9.81640625 L6.00878906,9.81640625 L5.83105469,9.36523438 C6.12272281,9.05533699 6.58870123,8.59391583 7.22900391,7.98095703 C7.86930659,7.36799824 8.3945292,6.88151222 8.8046875,6.52148438 L8.09375,4.90820312 C7.94791594,4.58007648 7.83170616,4.33284588 7.74511719,4.16650391 C7.65852821,4.00016193 7.57877641,3.87597697 7.50585938,3.79394531 C7.43294234,3.71191365 7.36116572,3.64925152 7.29052734,3.60595703 C7.21988897,3.56266254 7.113933,3.52278664 6.97265625,3.48632812 L7.07519531,3.03515625 L9.34472656,3.03515625 L10.2265625,5.42773438 Z" id="fx"></path>
        </g>
        <g id="tree/adhoc-mui/number-measure" transform="translate(2.000000, 134.000000)" fill="#7A9F35" fill-rule="nonzero">
            <path d="M1.77,7.23 L1.77,2.01 L0.71,2.81 L8.8817842e-16,1.57 L1.94,0.15 L3.34,0.15 L3.34,7.23 L1.77,7.23 Z M9.54,2.1 C9.54,2.3333345 9.5100003,2.549999 9.45,2.75 C9.3899997,2.950001 9.3100005,3.1399991 9.21,3.32 C9.1099995,3.5 8.9966673,3.6733325 8.87,3.84 C8.7433327,4.0066675 8.613334,4.1666659 8.48,4.32 L7.16,5.85 L9.45,5.85 L9.45,7.23 L5.26,7.23 L5.26,5.81 L7.41,3.34 C7.5833342,3.139999 7.7199995,2.93500105 7.82,2.725 C7.9200005,2.51499895 7.97,2.3133343 7.97,2.12 C7.97,1.9133323 7.92166715,1.7366674 7.825,1.59 C7.72833285,1.4433326 7.5766677,1.37 7.37,1.37 C7.1766657,1.37 7.0166673,1.44833255 6.89,1.605 C6.7633327,1.76166745 6.6866668,1.9899985 6.66,2.29 L5.16,2.15 C5.2400004,1.4299964 5.48499795,0.89166845 5.895,0.535 C6.30500205,0.17833155 6.8133303,0 7.42,0 C7.7466683,0 8.0399987,0.0499995 8.3,0.15 C8.5600013,0.2500005 8.78166575,0.3899991 8.965,0.57 C9.14833425,0.7500009 9.2899995,0.9699987 9.39,1.23 C9.4900005,1.4900013 9.54,1.7799984 9.54,2.1 Z M14.84,5.16 C14.84,5.5200018 14.7816673,5.8366653 14.665,6.11 C14.5483328,6.3833347 14.390001,6.61499905 14.19,6.805 C13.989999,6.99500095 13.7550014,7.13833285 13.485,7.235 C13.2149987,7.33166715 12.9233349,7.38 12.61,7.38 C12.0299971,7.38 11.5333354,7.23166815 11.12,6.935 C10.7066646,6.63833185 10.433334,6.1866697 10.3,5.58 L11.71,5.22 C11.7633336,5.4533345 11.856666,5.6433326 11.99,5.79 C12.123334,5.9366674 12.3066655,6.01 12.54,6.01 C12.6666673,6.01 12.7766662,5.9833336 12.87,5.93 C12.9633338,5.8766664 13.0416664,5.8066671 13.105,5.72 C13.1683337,5.6333329 13.2149999,5.53500055 13.245,5.425 C13.2750002,5.31499945 13.29,5.2033339 13.29,5.09 C13.29,4.7833318 13.2016675,4.5566674 13.025,4.41 C12.8483325,4.2633326 12.6133348,4.19 12.32,4.19 L11.96,4.19 L11.96,3.01 L12.36,3.01 C12.626668,3.01 12.831666,2.93166745 12.975,2.775 C13.1183341,2.61833255 13.19,2.4000014 13.19,2.12 C13.19,1.9399991 13.1383339,1.7700008 13.035,1.61 C12.9316662,1.4499992 12.7666678,1.37 12.54,1.37 C12.3466657,1.37 12.1966672,1.4333327 12.09,1.56 C11.9833328,1.6866673 11.9033336,1.8466657 11.85,2.04 L10.48,1.7 C10.5600004,1.3933318 10.6749993,1.1333344 10.825,0.92 C10.9750008,0.7066656 11.1449991,0.53166735 11.335,0.395 C11.525001,0.25833265 11.7333322,0.15833365 11.96,0.095 C12.1866678,0.03166635 12.4166655,0 12.65,0 C12.9100013,0 13.1616655,0.0399996 13.405,0.12 C13.6483346,0.2000004 13.8666657,0.3199992 14.06,0.48 C14.2533343,0.6400008 14.4083328,0.8399988 14.525,1.08 C14.6416673,1.3200012 14.7,1.5999984 14.7,1.92 C14.7,2.3333354 14.6116676,2.68166525 14.435,2.965 C14.2583325,3.24833475 14.0233348,3.4366662 13.73,3.53 L13.73,3.56 C14.0700017,3.6533338 14.339999,3.8466652 14.54,4.14 C14.740001,4.4333348 14.84,4.7733314 14.84,5.16 Z" id="123"></path>
        </g>
        <g id="tree/adhoc-mui/number-field" transform="translate(2.000000, 102.000000)" fill="#00A9D7" fill-rule="nonzero">
            <path d="M1.77,7.23 L1.77,2.01 L0.71,2.81 L8.8817842e-16,1.57 L1.94,0.15 L3.34,0.15 L3.34,7.23 L1.77,7.23 Z M9.54,2.1 C9.54,2.3333345 9.5100003,2.549999 9.45,2.75 C9.3899997,2.950001 9.3100005,3.1399991 9.21,3.32 C9.1099995,3.5 8.9966673,3.6733325 8.87,3.84 C8.7433327,4.0066675 8.613334,4.1666659 8.48,4.32 L7.16,5.85 L9.45,5.85 L9.45,7.23 L5.26,7.23 L5.26,5.81 L7.41,3.34 C7.5833342,3.139999 7.7199995,2.93500105 7.82,2.725 C7.9200005,2.51499895 7.97,2.3133343 7.97,2.12 C7.97,1.9133323 7.92166715,1.7366674 7.825,1.59 C7.72833285,1.4433326 7.5766677,1.37 7.37,1.37 C7.1766657,1.37 7.0166673,1.44833255 6.89,1.605 C6.7633327,1.76166745 6.6866668,1.9899985 6.66,2.29 L5.16,2.15 C5.2400004,1.4299964 5.48499795,0.89166845 5.895,0.535 C6.30500205,0.17833155 6.8133303,0 7.42,0 C7.7466683,0 8.0399987,0.0499995 8.3,0.15 C8.5600013,0.2500005 8.78166575,0.3899991 8.965,0.57 C9.14833425,0.7500009 9.2899995,0.9699987 9.39,1.23 C9.4900005,1.4900013 9.54,1.7799984 9.54,2.1 Z M14.84,5.16 C14.84,5.5200018 14.7816673,5.8366653 14.665,6.11 C14.5483328,6.3833347 14.390001,6.61499905 14.19,6.805 C13.989999,6.99500095 13.7550014,7.13833285 13.485,7.235 C13.2149987,7.33166715 12.9233349,7.38 12.61,7.38 C12.0299971,7.38 11.5333354,7.23166815 11.12,6.935 C10.7066646,6.63833185 10.433334,6.1866697 10.3,5.58 L11.71,5.22 C11.7633336,5.4533345 11.856666,5.6433326 11.99,5.79 C12.123334,5.9366674 12.3066655,6.01 12.54,6.01 C12.6666673,6.01 12.7766662,5.9833336 12.87,5.93 C12.9633338,5.8766664 13.0416664,5.8066671 13.105,5.72 C13.1683337,5.6333329 13.2149999,5.53500055 13.245,5.425 C13.2750002,5.31499945 13.29,5.2033339 13.29,5.09 C13.29,4.7833318 13.2016675,4.5566674 13.025,4.41 C12.8483325,4.2633326 12.6133348,4.19 12.32,4.19 L11.96,4.19 L11.96,3.01 L12.36,3.01 C12.626668,3.01 12.831666,2.93166745 12.975,2.775 C13.1183341,2.61833255 13.19,2.4000014 13.19,2.12 C13.19,1.9399991 13.1383339,1.7700008 13.035,1.61 C12.9316662,1.4499992 12.7666678,1.37 12.54,1.37 C12.3466657,1.37 12.1966672,1.4333327 12.09,1.56 C11.9833328,1.6866673 11.9033336,1.8466657 11.85,2.04 L10.48,1.7 C10.5600004,1.3933318 10.6749993,1.1333344 10.825,0.92 C10.9750008,0.7066656 11.1449991,0.53166735 11.335,0.395 C11.525001,0.25833265 11.7333322,0.15833365 11.96,0.095 C12.1866678,0.03166635 12.4166655,0 12.65,0 C12.9100013,0 13.1616655,0.0399996 13.405,0.12 C13.6483346,0.2000004 13.8666657,0.3199992 14.06,0.48 C14.2533343,0.6400008 14.4083328,0.8399988 14.525,1.08 C14.6416673,1.3200012 14.7,1.5999984 14.7,1.92 C14.7,2.3333354 14.6116676,2.68166525 14.435,2.965 C14.2583325,3.24833475 14.0233348,3.4366662 13.73,3.53 L13.73,3.56 C14.0700017,3.6533338 14.339999,3.8466652 14.54,4.14 C14.740001,4.4333348 14.84,4.7733314 14.84,5.16 Z" id="123"></path>
        </g>
        <g id="tree/adhoc-mui/string-measure" transform="translate(3.000000, 70.000000)" fill="#7A9F35" fill-rule="nonzero">
            <path d="M3.77,7.56 L3.48,6.27 L1.89,6.27 L1.6,7.56 L0,7.56 L1.72,0.48 L3.73,0.48 L5.44,7.56 L3.77,7.56 Z M2.71,2.02 L2.67,2.02 L2.07,5.03 L3.28,5.03 L2.71,2.02 Z M6.05,0 L7.61,0 L7.61,2.86 L7.64,2.86 C7.7000003,2.6666657 7.82499905,2.503334 8.015,2.37 C8.20500095,2.236666 8.4266654,2.17 8.68,2.17 C8.9600014,2.17 9.20833225,2.23833265 9.425,2.375 C9.64166775,2.51166735 9.8233326,2.6999988 9.97,2.94 C10.1166674,3.1800012 10.2266663,3.46499835 10.3,3.795 C10.3733337,4.12500165 10.41,4.4833314 10.41,4.87 C10.41,5.2633353 10.371667,5.6333316 10.295,5.98 C10.218333,6.3266684 10.1066674,6.62833205 9.96,6.885 C9.8133326,7.14166795 9.63166775,7.34499925 9.415,7.495 C9.19833225,7.64500075 8.9533347,7.72 8.68,7.72 C8.3599984,7.72 8.1166675,7.64166745 7.95,7.485 C7.7833325,7.32833255 7.6600004,7.1433344 7.58,6.93 L7.56,6.93 L7.56,7.56 L6.05,7.56 L6.05,0 Z M7.53,4.94 C7.53,5.1333343 7.5433332,5.3166658 7.57,5.49 C7.5966668,5.6633342 7.63833305,5.81499935 7.695,5.945 C7.75166695,6.07500065 7.82166625,6.1766663 7.905,6.25 C7.98833375,6.3233337 8.0866661,6.36 8.2,6.36 C8.3200006,6.36 8.42166625,6.3233337 8.505,6.25 C8.58833375,6.1766663 8.65833305,6.07500065 8.715,5.945 C8.77166695,5.81499935 8.81166655,5.6633342 8.835,5.49 C8.85833345,5.3166658 8.87,5.1333343 8.87,4.94 C8.87,4.739999 8.85833345,4.55500085 8.835,4.385 C8.81166655,4.21499915 8.77166695,4.06500065 8.715,3.935 C8.65833305,3.80499935 8.58833375,3.7033337 8.505,3.63 C8.42166625,3.5566663 8.3200006,3.52 8.2,3.52 C8.0866661,3.52 7.98833375,3.5566663 7.905,3.63 C7.82166625,3.7033337 7.75166695,3.80499935 7.695,3.935 C7.63833305,4.06500065 7.5966668,4.21499915 7.57,4.385 C7.5433332,4.55500085 7.53,4.739999 7.53,4.94 Z M14.36,7.16 C14.2199993,7.3333342 14.0400011,7.4699995 13.82,7.57 C13.5999989,7.67 13.3466681,7.72 13.06,7.72 C12.726665,7.72 12.4333346,7.65166735 12.18,7.515 C11.9266654,7.37833265 11.7133342,7.1866679 11.54,6.94 C11.3666658,6.6933321 11.2350004,6.4000017 11.145,6.06 C11.0549995,5.7199983 11.01,5.3466687 11.01,4.94 C11.01,4.5333313 11.0566662,4.16166835 11.15,3.825 C11.2433338,3.48833165 11.3766658,3.1966679 11.55,2.95 C11.7233342,2.7033321 11.938332,2.51166735 12.195,2.375 C12.4516679,2.23833265 12.746665,2.17 13.08,2.17 C13.3733348,2.17 13.6266656,2.2233328 13.84,2.33 C14.0533344,2.4366672 14.2199994,2.556666 14.34,2.69 L13.71,3.91 C13.6499997,3.8166662 13.5766671,3.7433336 13.49,3.69 C13.4033329,3.6366664 13.3066672,3.61 13.2,3.61 C13.0066657,3.61 12.8450006,3.7266655 12.715,3.96 C12.5849993,4.1933345 12.52,4.5199979 12.52,4.94 C12.52,5.3600021 12.5833327,5.68499885 12.71,5.915 C12.8366673,6.14500115 13.01,6.26 13.23,6.26 C13.3433339,6.26 13.4416662,6.23166695 13.525,6.175 C13.6083337,6.11833305 13.6766664,6.0433338 13.73,5.95 L14.36,7.16 Z" id="Abc"></path>
        </g>
        <g id="tree/adhoc-mui/string-field" transform="translate(3.000000, 38.000000)" fill="#00A9D7" fill-rule="nonzero">
            <path d="M3.77,7.56 L3.48,6.27 L1.89,6.27 L1.6,7.56 L0,7.56 L1.72,0.48 L3.73,0.48 L5.44,7.56 L3.77,7.56 Z M2.71,2.02 L2.67,2.02 L2.07,5.03 L3.28,5.03 L2.71,2.02 Z M6.05,0 L7.61,0 L7.61,2.86 L7.64,2.86 C7.7000003,2.6666657 7.82499905,2.503334 8.015,2.37 C8.20500095,2.236666 8.4266654,2.17 8.68,2.17 C8.9600014,2.17 9.20833225,2.23833265 9.425,2.375 C9.64166775,2.51166735 9.8233326,2.6999988 9.97,2.94 C10.1166674,3.1800012 10.2266663,3.46499835 10.3,3.795 C10.3733337,4.12500165 10.41,4.4833314 10.41,4.87 C10.41,5.2633353 10.371667,5.6333316 10.295,5.98 C10.218333,6.3266684 10.1066674,6.62833205 9.96,6.885 C9.8133326,7.14166795 9.63166775,7.34499925 9.415,7.495 C9.19833225,7.64500075 8.9533347,7.72 8.68,7.72 C8.3599984,7.72 8.1166675,7.64166745 7.95,7.485 C7.7833325,7.32833255 7.6600004,7.1433344 7.58,6.93 L7.56,6.93 L7.56,7.56 L6.05,7.56 L6.05,0 Z M7.53,4.94 C7.53,5.1333343 7.5433332,5.3166658 7.57,5.49 C7.5966668,5.6633342 7.63833305,5.81499935 7.695,5.945 C7.75166695,6.07500065 7.82166625,6.1766663 7.905,6.25 C7.98833375,6.3233337 8.0866661,6.36 8.2,6.36 C8.3200006,6.36 8.42166625,6.3233337 8.505,6.25 C8.58833375,6.1766663 8.65833305,6.07500065 8.715,5.945 C8.77166695,5.81499935 8.81166655,5.6633342 8.835,5.49 C8.85833345,5.3166658 8.87,5.1333343 8.87,4.94 C8.87,4.739999 8.85833345,4.55500085 8.835,4.385 C8.81166655,4.21499915 8.77166695,4.06500065 8.715,3.935 C8.65833305,3.80499935 8.58833375,3.7033337 8.505,3.63 C8.42166625,3.5566663 8.3200006,3.52 8.2,3.52 C8.0866661,3.52 7.98833375,3.5566663 7.905,3.63 C7.82166625,3.7033337 7.75166695,3.80499935 7.695,3.935 C7.63833305,4.06500065 7.5966668,4.21499915 7.57,4.385 C7.5433332,4.55500085 7.53,4.739999 7.53,4.94 Z M14.36,7.16 C14.2199993,7.3333342 14.0400011,7.4699995 13.82,7.57 C13.5999989,7.67 13.3466681,7.72 13.06,7.72 C12.726665,7.72 12.4333346,7.65166735 12.18,7.515 C11.9266654,7.37833265 11.7133342,7.1866679 11.54,6.94 C11.3666658,6.6933321 11.2350004,6.4000017 11.145,6.06 C11.0549995,5.7199983 11.01,5.3466687 11.01,4.94 C11.01,4.5333313 11.0566662,4.16166835 11.15,3.825 C11.2433338,3.48833165 11.3766658,3.1966679 11.55,2.95 C11.7233342,2.7033321 11.938332,2.51166735 12.195,2.375 C12.4516679,2.23833265 12.746665,2.17 13.08,2.17 C13.3733348,2.17 13.6266656,2.2233328 13.84,2.33 C14.0533344,2.4366672 14.2199994,2.556666 14.34,2.69 L13.71,3.91 C13.6499997,3.8166662 13.5766671,3.7433336 13.49,3.69 C13.4033329,3.6366664 13.3066672,3.61 13.2,3.61 C13.0066657,3.61 12.8450006,3.7266655 12.715,3.96 C12.5849993,4.1933345 12.52,4.5199979 12.52,4.94 C12.52,5.3600021 12.5833327,5.68499885 12.71,5.915 C12.8366673,6.14500115 13.01,6.26 13.23,6.26 C13.3433339,6.26 13.4416662,6.23166695 13.525,6.175 C13.6083337,6.11833305 13.6766664,6.0433338 13.73,5.95 L14.36,7.16 Z" id="Abc"></path>
        </g>
        <g id="tree/adhoc-mui/set" transform="translate(3.000000, 3.000000)">
            <g id="bottom-object">
                <g id="outer-border" fill="#878787">
                    <rect id="left-outer" transform="translate(0.500000, 5.500000) rotate(90.000000) translate(-0.500000, -5.500000) " x="-5" y="5" width="11" height="1"></rect>
                    <rect id="bottom-outer" x="0" y="10" width="2" height="1"></rect>
                    <rect id="right-outer" transform="translate(12.500000, 1.500000) rotate(90.000000) translate(-12.500000, -1.500000) " x="11" y="1" width="3" height="1"></rect>
                    <rect id="top-outer" x="0" y="0" width="13" height="1"></rect>
                </g>
                <g id="inner-body" transform="translate(1.000000, 2.000000)" fill="#E8E8E8">
                    <rect id="body-top" x="0" y="0" width="11" height="1"></rect>
                    <rect id="body-left" transform="translate(0.500000, 4.000000) rotate(90.000000) translate(-0.500000, -4.000000) " x="-3.5" y="3.5" width="8" height="1"></rect>
                </g>
                <rect id="table-column-header" fill="#A6A6A6" x="1" y="1" width="11" height="1"></rect>
            </g>
            <g id="top-object" transform="translate(2.000000, 3.000000)">
                <g id="outer-border" fill="#878787">
                    <rect id="left-outer" transform="translate(0.500000, 5.500000) rotate(90.000000) translate(-0.500000, -5.500000) " x="-5" y="5" width="11" height="1"></rect>
                    <rect id="bottom-outer" x="0" y="10" width="13" height="1"></rect>
                    <rect id="right-outer" transform="translate(12.500000, 5.500000) rotate(90.000000) translate(-12.500000, -5.500000) " x="7" y="5" width="11" height="1"></rect>
                    <rect id="top-outer" x="0" y="0" width="13" height="1"></rect>
                </g>
                <g id="inner-body" transform="translate(1.000000, 2.000000)" fill="#E8E8E8">
                    <polygon id="body-left" transform="translate(5.500000, 4.000000) rotate(90.000000) translate(-5.500000, -4.000000) " points="1.5 -1.5 9.5 -1.5 9.5 9.5 1.5 9.5"></polygon>
                </g>
                <rect id="table-column-header" fill="#A6A6A6" x="1" y="1" width="11" height="1"></rect>
            </g>
        </g>
    </g>
</svg>