<?xml version="1.0" encoding="UTF-8"?>
<svg width="20px" height="545px" viewBox="0 0 20 545" version="1.1" xmlns="http://www.w3.org/2000/svg" xmlns:xlink="http://www.w3.org/1999/xlink">
    <title>file_type_icons_sprite</title>
    <defs>
        <circle id="path-1" cx="9" cy="9" r="9"></circle>
        <circle id="path-3" cx="9" cy="9" r="9"></circle>
        <circle id="path-5" cx="9" cy="9" r="9"></circle>
    </defs>
    <g id="file_type_icons_sprite" stroke="none" stroke-width="1" fill="none" fill-rule="evenodd">
        <g id="Group" transform="translate(1.000000, 504.000000)">
            <g id="shield" transform="translate(5.998151, 9.000000)">
                <path d="M3.00184941,6.50249749 C1.79065826,5.90156092 0.98211153,5.38502705 0.576209228,4.95289589 C0.170306926,4.52076472 -0.0211463478,3.86979942 0.0018494071,3 L0.0018494071,3 L0.0018494071,-2.7533531e-14 L3.00184941,-2.7533531e-14 Z" id="Combined-Shape" fill="#EEF4F9"></path>
                <path d="M6.00369881,6.50249749 C4.79250766,5.90156092 3.98396094,5.38502705 3.57805864,4.95289589 C3.17215633,4.52076472 2.98070306,3.86979942 3.00369881,3 L3.00369881,3 L3.00369881,-2.7533531e-14 L6.00369881,-2.7533531e-14 Z" id="Combined-Shape" fill="#C1DCF5" transform="translate(4.502774, 3.251249) scale(-1, 1) translate(-4.502774, -3.251249) "></path>
            </g>
            <path d="M10,2 L10,7 L15,7 L15,16.5 C15,16.7761424 14.7761424,17 14.5,17 L3.5,17 C3.22385763,17 3,16.7761424 3,16.5 L3,2.5 C3,2.22385763 3.22385763,2 3.5,2 L10,2 Z" id="page" fill="#0081CB"></path>
            <g id="scene" transform="translate(4.500000, 2.000000)">
                <polygon id="Path-13" fill="#EEF4F9" fill-rule="nonzero" points="-1.2490009e-16 13.5 3.375 7.5 5.625 11.5 6.75 9.5 9 13.5"></polygon>
                <circle id="Oval" fill="#EEF4F9" fill-rule="nonzero" cx="6.5" cy="7.5" r="1"></circle>
                <polygon id="fold" fill="#C1DCF5" points="5.5 0 10.5 5 5.5 5"></polygon>
            </g>
        </g>
        <g id="Group" transform="translate(1.000000, 468.000000)">
            <g id="shield" transform="translate(5.998151, 9.000000)">
                <path d="M3.00184941,6.50249749 C1.79065826,5.90156092 0.98211153,5.38502705 0.576209228,4.95289589 C0.170306926,4.52076472 -0.0211463478,3.86979942 0.0018494071,3 L0.0018494071,3 L0.0018494071,-2.7533531e-14 L3.00184941,-2.7533531e-14 Z" id="Combined-Shape" fill="#EEF4F9"></path>
                <path d="M6.00369881,6.50249749 C4.79250766,5.90156092 3.98396094,5.38502705 3.57805864,4.95289589 C3.17215633,4.52076472 2.98070306,3.86979942 3.00369881,3 L3.00369881,3 L3.00369881,-2.7533531e-14 L6.00369881,-2.7533531e-14 Z" id="Combined-Shape" fill="#C1DCF5" transform="translate(4.502774, 3.251249) scale(-1, 1) translate(-4.502774, -3.251249) "></path>
            </g>
            <path d="M10,2 L10,7 L15,7 L15,16.5 C15,16.7761424 14.7761424,17 14.5,17 L3.5,17 C3.22385763,17 3,16.7761424 3,16.5 L3,2.5 C3,2.22385763 3.22385763,2 3.5,2 L10,2 Z" id="page" fill="#0081CB"></path>
            <polygon id="fold" fill="#C1DCF5" points="10 2 15 7 10 7"></polygon>
            <g id="thin-icon" transform="translate(4.000000, 9.000000)" fill="#EEF4F9">
                <path d="M1.30170194,1.26438168 C1.49576866,1.26438168 1.65309083,1.42170384 1.65309083,1.61577057 L1.65215013,4.05138168 L4.11440744,4.05228052 C4.30695134,4.05228052 4.46303902,4.20836819 4.46303902,4.40091209 C4.46303902,4.593456 4.30695134,4.74954367 4.11440744,4.74954367 L1.31191712,4.75055184 C1.30852389,4.75064871 1.30511861,4.75069747 1.30170194,4.75069747 C1.25318526,4.75069747 1.20696511,4.74086483 1.16492553,4.72308359 C1.03694945,4.66922132 0.94915013,4.54532002 0.94915013,4.40091209 L0.95015013,4.39038168 L0.950313051,1.61577057 C0.950313051,1.42170384 1.10763522,1.26438168 1.30170194,1.26438168 Z" id="Combined-Shape" transform="translate(2.706095, 3.007540) rotate(45.000000) translate(-2.706095, -3.007540) "></path>
                <path d="M5.89173274,1.26438168 C6.08579947,1.26438168 6.24312163,1.42170384 6.24312163,1.61577057 L6.24218094,4.05138168 L8.70443825,4.05228052 C8.89698215,4.05228052 9.05306982,4.20836819 9.05306982,4.40091209 C9.05306982,4.593456 8.89698215,4.74954367 8.70443825,4.74954367 L5.90194792,4.75055184 C5.89855469,4.75064871 5.89514941,4.75069747 5.89173274,4.75069747 C5.84321606,4.75069747 5.79699592,4.74086483 5.75495633,4.72308359 C5.62698025,4.66922132 5.53918094,4.54532002 5.53918094,4.40091209 L5.54018094,4.39038168 L5.54034386,1.61577057 C5.54034386,1.42170384 5.69766602,1.26438168 5.89173274,1.26438168 Z" id="Combined-Shape" transform="translate(7.296125, 3.007540) scale(-1, 1) rotate(45.000000) translate(-7.296125, -3.007540) "></path>
                <path d="M2.42160972,2.69678032 L7.57882842,2.71191629 C7.74765124,2.71241177 7.88438534,2.84914798 7.88487821,3.0179708 C7.88536737,3.18552162 7.74993714,3.32174494 7.58238632,3.3222341 C7.58179429,3.32223583 7.58120226,3.32223582 7.58061023,3.32223408 L2.42339153,3.30709812 C2.25456872,3.30660264 2.11783462,3.16986643 2.11734174,3.00104361 C2.11685258,2.83349279 2.25228281,2.69726947 2.41983363,2.69678031 C2.42042566,2.69677858 2.42101769,2.69677859 2.42160972,2.69678032 Z" id="Rectangle" transform="translate(5.001110, 3.009507) rotate(114.000000) translate(-5.001110, -3.009507) "></path>
            </g>
        </g>
        <g id="Group" transform="translate(1.000000, 432.000000)">
            <g id="shield" transform="translate(5.998151, 9.000000)">
                <path d="M3.00184941,6.50249749 C1.79065826,5.90156092 0.98211153,5.38502705 0.576209228,4.95289589 C0.170306926,4.52076472 -0.0211463478,3.86979942 0.0018494071,3 L0.0018494071,3 L0.0018494071,-2.7533531e-14 L3.00184941,-2.7533531e-14 Z" id="Combined-Shape" fill="#EEF4F9"></path>
                <path d="M6.00369881,6.50249749 C4.79250766,5.90156092 3.98396094,5.38502705 3.57805864,4.95289589 C3.17215633,4.52076472 2.98070306,3.86979942 3.00369881,3 L3.00369881,3 L3.00369881,-2.7533531e-14 L6.00369881,-2.7533531e-14 Z" id="Combined-Shape" fill="#C1DCF5" transform="translate(4.502774, 3.251249) scale(-1, 1) translate(-4.502774, -3.251249) "></path>
            </g>
            <path d="M10,2 L10,7 L15,7 L15,16.5 C15,16.7761424 14.7761424,17 14.5,17 L3.5,17 C3.22385763,17 3,16.7761424 3,16.5 L3,2.5 C3,2.22385763 3.22385763,2 3.5,2 L10,2 Z" id="page" fill="#0081CB"></path>
            <path d="M10,9 C10.2761424,9 10.5,9.22385763 10.5,9.5 L10.5,11 L11.5,11 C11.7761424,11 12,11.2238576 12,11.5 L12,14.5 C12,14.7761424 11.7761424,15 11.5,15 L6.5,15 C6.22385763,15 6,14.7761424 6,14.5 L6,11.5 C6,11.2238576 6.22385763,11 6.5,11 L7.5,11 L7.5,9.5 C7.5,9.22385763 7.72385763,9 8,9 L10,9 Z M9,12 C8.72385763,12 8.5,12.2238576 8.5,12.5 C8.5,12.70573 8.62425133,12.8824396 8.80180563,12.9591803 C8.7016129,13.1154917 8.60080645,13.3967742 8.5,13.8 L8.5,13.8 L9.5,13.8 C9.39919355,13.3967742 9.2983871,13.1154917 9.19758065,12.9561524 C9.37574867,12.8824396 9.5,12.70573 9.5,12.5 C9.5,12.2238576 9.27614237,12 9,12 Z M9.65,9.7 L8.35,9.7 C8.25795254,9.7 8.18042863,9.76218267 8.15714419,9.84683208 L8.15,9.9 L8.15,11 L9.85,11 L9.85,9.9 C9.85,9.78954305 9.76045695,9.7 9.65,9.7 Z" id="lock" fill="#EEF4F9"></path>
            <polygon id="fold" fill="#C1DCF5" points="10 2 15 7 10 7"></polygon>
        </g>
        <g id="Group" transform="translate(1.000000, 396.000000)">
            <path d="M10,2 L10,7 L15,7 L15,16.5 C15,16.7761424 14.7761424,17 14.5,17 L3.5,17 C3.22385763,17 3,16.7761424 3,16.5 L3,2.5 C3,2.22385763 3.22385763,2 3.5,2 L10,2 Z" id="page" fill="#0081CB"></path>
            <polygon id="fold" fill="#C1DCF5" points="10 2 15 7 10 7"></polygon>
            <path d="M13.442,15.666 L13.79,15.132 C12.878,14.796 12.11,14.388 11.492,13.896 C12.044,13.29 12.464,12.54 12.752,11.64 L13.658,11.64 L13.658,11.016 L11.39,11.016 C11.21,10.626 11.012,10.29 10.796,10.008 L10.166,10.236 C10.382,10.482 10.568,10.74 10.718,11.016 L8.342,11.016 L8.342,11.64 L9.254,11.64 C9.506,12.51 9.956,13.272 10.604,13.932 C9.98,14.46 9.188,14.844 8.234,15.09 L8.57,15.642 C9.548,15.366 10.376,14.928 11.048,14.334 C11.684,14.862 12.482,15.306 13.442,15.666 Z M11.048,13.506 C10.496,12.966 10.1,12.348 9.854,11.64 L12.104,11.64 C11.87,12.366 11.516,12.99 11.048,13.506 Z" id="文" fill="#EEF4F9" fill-rule="nonzero"></path>
            <path d="M6.079,9.536 C6.385,9.536 6.709,9.473 7.015,9.356 C7.321,9.239 7.492,9.122 7.843,8.807 L7.843,9.446 L8.572,9.446 C8.518,9.086 8.5,8.861 8.5,8.456 L8.5,5.927 C8.5,4.955 7.888,4.451 6.7,4.451 C6.025,4.451 5.485,4.622 5.116,4.964 C4.891,5.162 4.774,5.351 4.612,5.765 L5.314,5.918 C5.404,5.648 5.476,5.522 5.593,5.396 C5.845,5.135 6.214,5.009 6.709,5.009 C7.456,5.009 7.843,5.324 7.843,5.936 L7.843,6.458 C6.736,6.485 6.304,6.539 5.773,6.692 C4.936,6.926 4.486,7.448 4.486,8.168 C4.486,9.023 5.089,9.536 6.079,9.536 Z M6.124,8.987 C5.539,8.987 5.17,8.672 5.17,8.177 C5.17,7.745 5.395,7.439 5.854,7.25 C6.259,7.079 6.772,7.016 7.843,6.989 L7.843,7.574 C7.843,7.934 7.771,8.123 7.564,8.348 C7.213,8.735 6.646,8.987 6.124,8.987 Z" id="a" fill="#EEF4F9" fill-rule="nonzero"></path>
        </g>
        <g id="Group" transform="translate(1.000000, 360.000000)">
            <path d="M10,2 L10,7 L15,7 L15,16.5 C15,16.7761424 14.7761424,17 14.5,17 L3.5,17 C3.22385763,17 3,16.7761424 3,16.5 L3,2.5 C3,2.22385763 3.22385763,2 3.5,2 L10,2 Z" id="page" fill="#0081CB"></path>
            <polygon id="fold" fill="#C1DCF5" points="10 2 15 7 10 7"></polygon>
            <path d="M12.75,14 C12.8880712,14 13,14.1119288 13,14.25 L13,14.75 C13,14.8880712 12.8880712,15 12.75,15 L5.25,15 C5.11192881,15 5,14.8880712 5,14.75 L5,14.25 C5,14.1119288 5.11192881,14 5.25,14 L12.75,14 Z M12.75,12 C12.8880712,12 13,12.1119288 13,12.25 L13,12.75 C13,12.8880712 12.8880712,13 12.75,13 L5.25,13 C5.11192881,13 5,12.8880712 5,12.75 L5,12.25 C5,12.1119288 5.11192881,12 5.25,12 L12.75,12 Z M12.75,10 C12.8880712,10 13,10.1119288 13,10.25 L13,10.75 C13,10.8880712 12.8880712,11 12.75,11 L5.25,11 C5.11192881,11 5,10.8880712 5,10.75 L5,10.25 C5,10.1119288 5.11192881,10 5.25,10 L12.75,10 Z" id="long-lines" fill="#EEF4F9"></path>
        </g>
        <g id="Group" transform="translate(1.000000, 324.000000)">
            <rect id="dark" fill="#249490" x="1" y="4" width="15" height="12" rx="0.5"></rect>
            <rect id="light" fill="#FFFFFF" x="2" y="7" width="13" height="8" rx="0.5"></rect>
            <rect id="Rectangle" fill="#EFD884" x="11" y="8" width="3" height="6" rx="0.25"></rect>
            <rect id="Rectangle" fill="#EBBD94" x="7" y="8" width="3" height="6" rx="0.25"></rect>
            <rect id="Rectangle" fill="#A3CDCB" x="3" y="8" width="3" height="6" rx="0.25"></rect>
        </g>
        <g id="Group" transform="translate(1.000000, 288.000000)">
            <rect id="dark" fill="#249490" x="1" y="4" width="15" height="12" rx="0.5"></rect>
            <rect id="light" fill="#FFFFFF" x="2" y="7" width="13" height="8" rx="0.5"></rect>
            <path d="M13.75,8 C13.8880712,8 14,8.11192881 14,8.25 L14,13.75 C14,13.8880712 13.8880712,14 13.75,14 L11.25,14 C11.1119288,14 11,13.8880712 11,13.75 L11,8.25 C11,8.11192881 11.1119288,8 11.25,8 L13.75,8 Z M9.75,8 C9.88807119,8 10,8.11192881 10,8.25 L10,13.75 C10,13.8880712 9.88807119,14 9.75,14 L7.25,14 C7.11192881,14 7,13.8880712 7,13.75 L7,8.25 C7,8.11192881 7.11192881,8 7.25,8 L9.75,8 Z M5.75,8 C5.88807119,8 6,8.11192881 6,8.25 L6,13.75 C6,13.8880712 5.88807119,14 5.75,14 L3.25,14 C3.11192881,14 3,13.8880712 3,13.75 L3,8.25 C3,8.11192881 3.11192881,8 3.25,8 L5.75,8 Z" id="Combined-Shape" fill="#9FCDCB"></path>
        </g>
        <g id="Group" transform="translate(1.000000, 252.000000)">
            <g transform="translate(1.000000, 2.000000)">
                <polygon id="Combined-Shape" fill="#00A9D7" points="0 2.93103448 7.45025127 0 14.8275862 2.93103448 7.37733494 5.86206897"></polygon>
                <polygon id="Path-2" fill="#0081CB" points="1.56388312e-13 3.96551724 0 12.2372589 6.89655172 15 6.89655172 6.77784238"></polygon>
                <polygon id="Path-2" fill="#055DAB" points="14.8275862 3.96551724 14.8275862 12.2372589 7.93103448 15 7.93103448 6.77784238"></polygon>
            </g>
        </g>
        <g id="Group" transform="translate(1.000000, 216.000000)">
            <g transform="translate(0.000000, -1.000000)">
                <circle id="circle-2" fill="#FCDAF3" cx="9" cy="10" r="9"></circle>
                <path d="M0,10.3141097 C0,5.17006895 4.02943725,1 9,1 C13.9705627,1 18,5.17006895 18,10.3141097 C18,12.9372934 16.9521647,15.3072006 15.266032,17 L12.8820643,14.0393951 C13.7583585,13.0618256 14.2941176,11.7527179 14.2941176,10.3141097 C14.2941176,8.70381761 13.6228529,7.25577969 12.5541148,6.25334289 C11.6145829,5.37209666 10.367874,4.83522163 9,4.83522163 C6.07613956,4.83522163 3.70588235,7.28820337 3.70588235,10.3141097 C3.70588235,11.7527179 4.2416415,13.0618256 5.1179357,14.0393951 L2.73396798,17 C1.04783528,15.3072006 0,12.9372934 0,10.3141097 Z" id="fill-1" fill="#BA0871" fill-rule="nonzero"></path>
                <path d="M9,1 C11.3068382,1 13.4103608,1.8463214 15,3.23702203 L12.6317445,6 C11.6855415,5.1274663 10.4070669,4.59218822 9,4.59218822 C7.59293311,4.59218822 6.31445853,5.1274663 5.36825553,6 L3,3.23702203 C4.58963925,1.8463214 6.69316179,1 9,1 Z" id="fill-3" fill="#D673AD" fill-rule="nonzero"></path>
                <path d="M7.2,11.9393283 L10.8,11.9393283 C10.8,13.0136807 9.99411255,13.8846154 9,13.8846154 C8.00588745,13.8846154 7.2,13.0136807 7.2,11.9393283 Z M9,0.730769231 L10.8,11.9393283 L7.2,11.9393283 L9,0.730769231 Z" id="Combined-Shape" fill="#BA0871" transform="translate(9.000000, 7.307692) rotate(3.000000) translate(-9.000000, -7.307692) "></path>
            </g>
        </g>
        <g id="group" transform="translate(1.000000, 108.000000)">
            <mask id="mask-2" fill="white">
                <use xlink:href="#path-1"></use>
            </mask>
            <use id="Oval-3" fill="#318DDE" fill-rule="nonzero" xlink:href="#path-1"></use>
            <g id="Group" mask="url(#mask-2)">
                <g transform="translate(-2.000000, 1.000000)">
                    <polyline id="Path-2" stroke="#D7ECF8" stroke-width="2" fill="none" points="0 0 0 20 22 20"></polyline>
                    <polygon id="Rectangle" stroke="none" fill="#A5D4F0" fill-rule="evenodd" points="2.12903226 7.48120301 8.04301075 1.42857143 12.2672811 10.075188 19.8709677 1.42857143 19.8709677 17.8571429 2.12903226 17.8571429"></polygon>
                    <polygon id="Rectangle" stroke="none" fill="#006E9C" fill-rule="evenodd" points="2.12903226 11.7857143 8.04301075 8.31632653 12.2672811 13.5204082 19.8709677 5.71428571 19.8709677 17.8571429 2.12903226 17.8571429"></polygon>
                </g>
            </g>
        </g>
        <g id="Group" transform="translate(1.000000, 180.000000)">
            <mask id="mask-4" fill="white">
                <use xlink:href="#path-3"></use>
            </mask>
            <use id="Oval-4" fill="#7A9F35" fill-rule="nonzero" xlink:href="#path-3"></use>
            <g mask="url(#mask-4)" fill="#FAFFF1">
                <g transform="translate(4.500000, 3.580000)">
                    <path d="M5,0 C5.55228475,-1.01453063e-16 6,0.44771525 6,1 L6,2.5 L3.5,2.5 C2.98716416,2.5 2.56449284,2.88604019 2.50672773,3.38337887 L2.5,3.5 L2.5,8 L1,8 C0.44771525,8 6.76353751e-17,7.55228475 0,7 L0,1 C-6.76353751e-17,0.44771525 0.44771525,1.01453063e-16 1,0 L5,0 Z" id="Combined-Shape"></path>
                    <rect id="Rectangle" x="3.7" y="3.7" width="5.4" height="7.4" rx="1"></rect>
                </g>
            </g>
        </g>
        <g id="Group-2" transform="translate(1.000000, 144.000000)">
            <mask id="mask-6" fill="white">
                <use xlink:href="#path-5"></use>
            </mask>
            <use id="Oval-4" fill="#7A9F35" fill-rule="nonzero" xlink:href="#path-5"></use>
            <path d="M6,4 L13,4 C14.1045695,4 15,4.8954305 15,6 L15,16 C15,17.1045695 14.1045695,18 13,18 L6,18 C4.8954305,18 4,17.1045695 4,16 L4,6 C4,4.8954305 4.8954305,4 6,4 Z" id="Rectangle-8" fill="#FFFFFF" mask="url(#mask-6)"></path>
            <polygon id="Rectangle" fill="#9AC64C" fill-rule="nonzero" mask="url(#mask-6)" points="6 6 9 6 9 14 6 14"></polygon>
            <polygon id="Rectangle" fill="#9AC64C" fill-rule="nonzero" mask="url(#mask-6)" points="10 8 13 8 13 14 10 14"></polygon>
            <circle id="Oval-6" stroke="#7A9F35" stroke-width="4" fill-rule="nonzero" mask="url(#mask-6)" cx="9" cy="9" r="9"></circle>
        </g>
        <g id="Group" transform="translate(1.000000, 72.000000)">
            <circle id="Oval-7" fill="#249490" fill-rule="nonzero" cx="9" cy="9" r="9"></circle>
            <path d="M14.5,5 C14.7761424,5 15,5.22385763 15,5.5 L15,11.5 C15,11.7761424 14.7761424,12 14.5,12 L11.5,12 L11.5,16.5 C11.5,16.7761424 11.2761424,17 11,17 L10.5,17 C10.2238576,17 10,16.7761424 10,16.5 L10,12 L6.5,12 C6.22385763,12 6,11.7761424 6,11.5 L6,9.3 L1.5,9.3 C1.22385763,9.3 1,9.07614237 1,8.8 L1,8.3 C1,8.02385763 1.22385763,7.8 1.5,7.8 L6,7.8 L6,5.5 C6,5.22385763 6.22385763,5 6.5,5 L14.5,5 Z" id="Combined-Shape" fill="#176F77"></path>
            <rect id="Rectangle" fill="#DDE4E4" fill-rule="nonzero" x="7" y="7" width="7" height="4"></rect>
        </g>
        <g id="Group" transform="translate(1.000000, 36.000000)">
            <circle id="bg" fill="#FF9B3F" cx="9" cy="9" r="9"></circle>
            <path d="M5,3.66666667 L13,3.66666667 C13.5522847,3.66666667 14,4.11438192 14,4.66666667 L14,5.66666667 C14,6.21895142 13.5522847,6.66666667 13,6.66666667 L5,6.66666667 C4.44771525,6.66666667 4,6.21895142 4,5.66666667 L4,4.66666667 C4,4.11438192 4.44771525,3.66666667 5,3.66666667 Z" id="Rectangle" fill="#B85410" fill-rule="nonzero"></path>
            <path d="M5,11 L13,11 C13.5522847,11 14,11.4477153 14,12 L14,13 C14,13.5522847 13.5522847,14 13,14 L5,14 C4.44771525,14 4,13.5522847 4,13 L4,12 C4,11.4477153 4.44771525,11 5,11 Z" id="Rectangle" fill="#B85410" fill-rule="nonzero"></path>
            <path d="M5,7.33333333 L13,7.33333333 C13.5522847,7.33333333 14,7.78104858 14,8.33333333 L14,9.33333333 C14,9.88561808 13.5522847,10.3333333 13,10.3333333 L5,10.3333333 C4.44771525,10.3333333 4,9.88561808 4,9.33333333 L4,8.33333333 C4,7.78104858 4.44771525,7.33333333 5,7.33333333 Z" id="Rectangle" fill="#B85410" fill-rule="nonzero"></path>
            <circle id="Oval-5" fill="#DED9EE" fill-rule="nonzero" cx="5.5" cy="5.16666667" r="1"></circle>
            <circle id="Oval-5" fill="#DED9EE" fill-rule="nonzero" cx="5.5" cy="8.83333333" r="1"></circle>
            <circle id="Oval-5" fill="#DED9EE" fill-rule="nonzero" cx="5.5" cy="12.5" r="1"></circle>
        </g>
        <g id="Group" transform="translate(1.000000, 0.000000)">
            <g id="icon-folder" transform="translate(1.000000, 2.000000)">
                <polygon id="Path" fill="#0081CB" points="0 14 16 14 16 6 0 6"></polygon>
                <polygon id="Path" fill="#FFFFFF" points="0 6 16 6 16 5 0 5"></polygon>
                <polygon id="Path" fill="#055DAB" points="0 5 16 5 16 2.5 6.38375593 2.5 4.09804165 0 0 0"></polygon>
            </g>
        </g>
    </g>
</svg>