<svg width="256" height="28" xmlns="http://www.w3.org/2000/svg"><g fill-rule="nonzero" fill="none"><path d="M103.8 22.4c-1.6 0-3-.4-4.1-1.1-1.1-.7-2-1.6-2.6-2.8l1.8-1.5c.7 1 1.4 1.8 2.1 2.3.8.5 1.7.8 2.8.8 1.2 0 2.2-.4 3-1.3.8-.9 1.2-2.2 1.2-3.9V.4h2.5v14.5c0 1.3-.2 2.4-.5 3.3-.3 1-.8 1.7-1.4 2.4-1.2 1.2-2.8 1.8-4.8 1.8zM119.9 22.4c-.7 0-1.5-.1-2.2-.3-.7-.2-1.4-.5-1.9-.9-.6-.4-1-.9-1.3-1.5-.3-.6-.5-1.3-.5-2.1v-.1c0-.8.2-1.6.5-2.2.3-.6.8-1.1 1.4-1.6.6-.4 1.3-.7 2.2-1 .8-.2 1.7-.3 2.8-.3 1 0 1.9.1 2.7.2.7.1 1.5.3 2.2.5v-.5c0-1.4-.4-2.4-1.2-3.1-.8-.7-2-1.1-3.5-1.1-.9 0-1.8.1-2.6.3-.8.2-1.5.5-2.3.8l-.7-1.9c.9-.4 1.8-.7 2.7-1 .9-.2 1.9-.4 3.1-.4 2.3 0 4 .6 5.1 1.7 1.1 1.1 1.7 2.6 1.7 4.5v9.8h-2.3v-2.6c-.6.7-1.3 1.3-2.2 1.8-1.1.7-2.3 1-3.7 1zm.5-1.9c.7 0 1.4-.1 2.1-.3.6-.2 1.2-.5 1.7-.8.5-.4.9-.8 1.1-1.3.3-.5.4-1.1.4-1.7V15c-.6-.2-1.3-.3-2-.4-.8-.1-1.6-.2-2.6-.2-1.5 0-2.6.3-3.4.8-.8.6-1.2 1.3-1.2 2.2v.1c0 .5.1.9.3 1.3.2.4.5.7.9 1 .4.3.8.5 1.3.6.4 0 .9.1 1.4.1zM138 22.4c-1.2 0-2.3-.2-3.5-.6-1.2-.4-2.2-1-3.1-1.7l1.2-1.6c.9.6 1.8 1.1 2.7 1.5.9.3 1.9.5 2.8.5 1 0 1.8-.2 2.4-.7.6-.4.9-1 .9-1.8 0-.4-.1-.7-.3-1-.2-.3-.5-.5-.9-.7-.4-.2-.8-.4-1.3-.6-.5-.2-1-.3-1.5-.4-.6-.2-1.2-.4-1.9-.6-.6-.2-1.2-.5-1.7-.8-.5-.3-.9-.7-1.2-1.2-.3-.5-.5-1.1-.5-1.8v-.1c0-.7.1-1.3.4-1.8.3-.5.6-1 1.1-1.4.5-.4 1.1-.7 1.7-.9.7-.2 1.4-.3 2.2-.3 1 0 2 .2 3 .5s1.9.7 2.8 1.2l-1.1 1.7c-.7-.5-1.5-.8-2.3-1.1-.8-.3-1.6-.4-2.4-.4-1 0-1.7.2-2.3.6-.6.4-.8 1-.8 1.6v.1c0 .4.1.7.3.9.2.3.5.5.9.7.4.2.8.4 1.3.5.5.2 1 .3 1.6.5l1.8.6c.6.2 1.2.5 1.7.8.5.3.9.7 1.2 1.2.3.5.4 1.1.4 1.8v.1c0 .7-.1 1.4-.4 2-.3.6-.7 1-1.2 1.4-.5.4-1.1.7-1.8.9-.7.3-1.4.4-2.2.4zM147 6.4h2.4v3.4c.3-.5.7-.9 1.1-1.3.4-.4.8-.8 1.3-1.1.5-.3 1-.6 1.6-.7.6-.2 1.3-.3 2-.3.9 0 1.9.2 2.8.5.9.4 1.7.9 2.4 1.6.7.7 1.3 1.5 1.7 2.5.4 1 .6 2.1.6 3.4v.1c0 1.2-.2 2.4-.6 3.3-.4 1-1 1.8-1.7 2.5s-1.5 1.2-2.4 1.6c-.9.4-1.8.5-2.8.5-.7 0-1.4-.1-2-.3-.6-.2-1.2-.4-1.7-.7-.5-.3-.9-.6-1.3-1s-.8-.8-1.1-1.2v8.3H147V6.4zm8 13.9c.8 0 1.5-.1 2.2-.4.7-.3 1.3-.7 1.8-1.2s.9-1.1 1.2-1.8c.3-.7.4-1.6.4-2.5v-.1c0-.9-.1-1.7-.4-2.5-.3-.7-.7-1.3-1.2-1.9-.5-.5-1.1-.9-1.8-1.2-.7-.3-1.4-.4-2.1-.4-.7 0-1.4.1-2.1.4-.7.3-1.3.7-1.8 1.2s-1 1.1-1.3 1.9c-.3.7-.5 1.5-.5 2.4v.1c0 .9.2 1.7.5 2.4s.7 1.3 1.3 1.9c.5.5 1.2.9 1.8 1.2.6.3 1.3.5 2 .5zM168.4 15.3c.1.8.3 1.5.6 2.2.3.6.7 1.2 1.3 1.6.5.4 1.1.8 1.7 1 .6.2 1.3.3 2 .3 1.1 0 2.1-.2 2.8-.6.8-.4 1.5-.9 2.2-1.6l1.5 1.3c-.8.9-1.7 1.6-2.7 2.1-1 .5-2.3.8-3.8.8-1.1 0-2.1-.2-3.1-.6-1-.4-1.8-.9-2.5-1.6-.7-.7-1.3-1.5-1.7-2.5-.4-1-.6-2.1-.6-3.3 0-1.1.2-2.1.6-3.1.4-1 .9-1.8 1.6-2.5.7-.7 1.5-1.3 2.4-1.7.9-.4 1.9-.6 3.1-.6 1.2 0 2.2.2 3.1.6.9.4 1.7 1 2.3 1.7.6.7 1.1 1.6 1.4 2.6.3 1 .5 2 .5 3.2v.8h-12.7v-.1zm10.2-1.9c-.1-.7-.2-1.3-.5-2-.2-.6-.6-1.2-1-1.6-.4-.5-.9-.8-1.5-1.1-.6-.3-1.3-.4-2.1-.4-.7 0-1.3.1-1.9.4-.6.3-1.1.6-1.6 1.1-.4.5-.8 1-1.1 1.6-.3.6-.5 1.3-.6 2h10.3zM185 6.7h2.1v4.1c.3-.6.6-1.2 1-1.8.4-.5.8-1 1.3-1.4.5-.4 1-.7 1.6-.9.6-.2 1.2-.3 1.9-.3v2.5h-.2c-.8 0-1.5.2-2.2.5-.7.3-1.3.8-1.8 1.4-.5.6-.9 1.4-1.2 2.3-.3.9-.4 1.9-.4 3.1v6.3H185V6.7zM202.2 22.4c-1.2 0-2.3-.2-3.5-.6-1.2-.4-2.2-1-3.1-1.7l1.2-1.6c.9.6 1.8 1.1 2.7 1.5.9.3 1.9.5 2.8.5 1 0 1.8-.2 2.4-.7.6-.4.9-1 .9-1.8 0-.4-.1-.7-.3-1-.2-.3-.5-.5-.9-.7-.4-.2-.8-.4-1.3-.6-.5-.2-1-.3-1.5-.4-.6-.2-1.2-.4-1.9-.6-.6-.2-1.2-.5-1.7-.8-.5-.3-.9-.7-1.2-1.2-.3-.5-.5-1.1-.5-1.8v-.1c0-.7.1-1.3.4-1.8.3-.5.6-1 1.1-1.4.5-.4 1.1-.7 1.7-.9.7-.2 1.4-.3 2.2-.3 1 0 2 .2 3 .5s1.9.7 2.8 1.2l-1.1 1.7c-.7-.5-1.5-.8-2.3-1.1-.8-.3-1.6-.4-2.4-.4-1 0-1.7.2-2.3.6-.6.4-.8 1-.8 1.6v.1c0 .4.1.7.3.9.2.3.5.5.9.7.4.2.8.4 1.3.5.5.2 1 .3 1.6.5l1.8.6c.6.2 1.2.5 1.7.8.5.3.9.7 1.2 1.2.3.5.5 1.1.5 1.8v.1c0 .7-.2 1.4-.5 2-.3.6-.7 1-1.2 1.4-.5.4-1.1.7-1.8.9-.7.3-1.4.4-2.2.4zM218.7 22.4c-1.2 0-2.3-.2-3.3-.6-1-.4-1.9-1-2.6-1.7-.7-.7-1.3-1.6-1.7-2.5-.4-1-.6-2-.6-3.1v-.1c0-1.1.2-2.1.6-3.1.4-1 1-1.8 1.7-2.5s1.6-1.3 2.7-1.7c1-.4 2.1-.6 3.4-.6 1.2 0 2.3.2 3.3.6 1 .4 1.9 1 2.7 1.7.7.7 1.3 1.6 1.7 2.5.4 1 .6 2 .6 3.1v.1c0 1.1-.2 2.1-.6 3.1-.4 1-1 1.8-1.8 2.5-.7.7-1.6 1.3-2.7 1.7-1 .4-2.2.6-3.4.6zm.1-2c.9 0 1.7-.2 2.4-.5s1.3-.7 1.9-1.3c.5-.5.9-1.2 1.2-1.9.3-.7.4-1.5.4-2.3v-.1c0-.8-.1-1.6-.4-2.3-.3-.7-.7-1.4-1.3-1.9-.5-.5-1.2-1-1.9-1.3-.7-.3-1.5-.5-2.4-.5-.9 0-1.7.2-2.4.5s-1.3.7-1.8 1.3c-.5.5-.9 1.2-1.2 1.9-.3.7-.4 1.5-.4 2.3v.1c0 .8.1 1.6.4 2.3.3.7.7 1.3 1.2 1.9.5.5 1.2 1 1.9 1.3.8.3 1.6.5 2.4.5zM231.2 8.4H229v-2h2.2v-.8c0-1.8.5-3.1 1.4-4 .8-.8 2-1.2 3.4-1.2.6 0 1 0 1.4.1l1.2.3v2l-1.2-.3c-.4-.1-.7-.1-1.1-.1-1.9 0-2.8 1.1-2.8 3.3v.7h5.1v2h-5.1v14h-2.4v-14h.1zM247.2 22.4c-.6 0-1.2-.1-1.8-.3-.6-.2-1-.4-1.4-.8-.4-.4-.7-.9-.9-1.5-.2-.6-.3-1.3-.3-2.2V8.3h-2.2v-2h2.2v-4h2.4v4h5.1v2h-5.1v8.9c0 1 .2 1.7.7 2.2.5.4 1.1.6 2 .6.4 0 .8 0 1.2-.1.4-.1.7-.2 1.2-.4v2.1c-.4.2-.9.4-1.3.5-.7.2-1.2.3-1.8.3zM10.6 3.2v19.1H7.7V3.2H0V.4h18.3v2.8zM20.8.4h2.9v21.9h-2.9zM36.2 13h-4.3v6.9h4.8c3.3 0 4.9-1.2 4.9-3.4 0-2.6-2.3-3.5-5.4-3.5m.3-9.6H32v6.9h4c3.2 0 4.9-1.4 4.9-3.6 0-2.1-1.6-3.3-4.4-3.3m8.1 13c0 3.7-2.5 6.2-8.1 6.2H29V.6h7.3c5.3 0 7.6 2.4 7.6 5.8 0 2.3-1.3 3.9-3.8 4.8 2.9.8 4.5 2.7 4.5 5.2M64.1 4.7c-1.9-1.2-3.7-1.8-6-1.8-4.8 0-8 3.2-8 8.4s3.2 8.5 8.1 8.5c2.4 0 4.7-.9 6.2-2l.5 2.9c-1.8 1.1-4.3 1.7-6.8 1.7-6.4 0-11-4.3-11-10.9 0-6.7 4.6-11.1 11-11.1 2.5 0 5.2.7 7 1.7l-1 2.6z" fill="#083970"/><g fill="#083970"><path d="M83 1.9c-.3-.2-.7-.4-1-.5-2.9 5.3-8.1 11.5-15 15.1.4.9.9 1.6 1.5 2.3 6-3.9 11.4-10.4 14.5-16.9"/><path d="M81.7 1.3c-1.4-.6-3-.9-4.8-.9-6.4 0-11 4.8-11 11 0 1.1.1 2.1.3 3 6.7-2.5 12.6-8.2 15.5-13.1M83.3 2.1c-3.4 8-7.5 13.6-12.8 18.5 1.8 1.2 4 1.8 6.5 1.8 6.4 0 11-4.8 11-11.1 0-4.1-1.8-7.4-4.7-9.2"/></g><path d="M89.2 2.1c0-.9.8-1.7 1.7-1.7.9 0 1.7.8 1.7 1.7 0 .9-.8 1.7-1.7 1.7-1 0-1.7-.8-1.7-1.7m-.4 0c0 1.1.9 2.1 2.1 2.1 1.2 0 2.1-.9 2.1-2.1C93 .9 92.1 0 90.9 0c-1.2 0-2.1.9-2.1 2.1" fill="#083970"/><path d="M90.6 2.188V3h-.239V1.04h.509c.086 0 .159.003.219.01.06.006.115.016.164.03.137.037.242.1.314.19.072.089.108.2.108.334a.56.56 0 0 1-.038.212.486.486 0 0 1-.107.163.56.56 0 0 1-.165.113.87.87 0 0 1-.213.064v.006l.64.838h-.3l-.603-.812H90.6zm0-.933v.718h.236c.073 0 .136-.002.187-.007a.691.691 0 0 0 .14-.027.382.382 0 0 0 .191-.121.337.337 0 0 0 .068-.218.316.316 0 0 0-.065-.203.349.349 0 0 0-.174-.11.66.66 0 0 0-.126-.024 1.932 1.932 0 0 0-.186-.008h-.27z" fill="#062E79"/><g><path d="M252.2 2.1c0-.9.8-1.7 1.7-1.7.9 0 1.7.8 1.7 1.7 0 .9-.8 1.7-1.7 1.7-1 0-1.7-.8-1.7-1.7m-.4 0c0 1.1.9 2.1 2.1 2.1 1.2 0 2.1-.9 2.1-2.1 0-1.2-.9-2.1-2.1-2.1-1.2 0-2.1.9-2.1 2.1" fill="#083970"/><path d="M253.6 2.188V3h-.239V1.04h.509c.086 0 .159.003.219.01.06.006.115.016.164.03.137.037.242.1.314.19.072.089.108.2.108.334a.56.56 0 0 1-.038.212.486.486 0 0 1-.107.163.56.56 0 0 1-.165.113.87.87 0 0 1-.213.064v.006l.64.838h-.3l-.603-.812h-.289zm0-.933v.718h.236c.073 0 .136-.002.187-.007a.691.691 0 0 0 .14-.027.382.382 0 0 0 .191-.121.337.337 0 0 0 .068-.218.316.316 0 0 0-.065-.203.349.349 0 0 0-.174-.11.66.66 0 0 0-.126-.024 1.932 1.932 0 0 0-.186-.008h-.27z" fill="#062E79"/></g></g></svg>