<?xml version="1.0" encoding="UTF-8"?>
<svg width="170px" height="619px" viewBox="0 0 170 619" version="1.1" xmlns="http://www.w3.org/2000/svg" xmlns:xlink="http://www.w3.org/1999/xlink">
    <title>disclosure_indicators_icons_sprite</title>
    <g id="disclosure_indicators_icons_sprite" stroke="none" stroke-width="1" fill="none" fill-rule="evenodd">
        <g id="Combined-Shape" transform="translate(60.000000, 449.000000)" fill="#FFFFFF">
            <path d="M8,2 L8,6 L12,6 L12,8 L8,8 L8,12 L6,12 L6,8 L2,8 L2,6 L6,6 L6,2 L8,2 Z"></path>
        </g>
        <g id="starOutline" transform="translate(60.000000, 507.000000)" fill="#FFFFFF">
            <path d="M7,1 L8.85410197,4.95015528 L13,5.58359214 L10,8.65835921 L10.7082039,13 L7,10.9501553 L3.29179607,13 L4,8.65835921 L1,5.58359214 L5.14589803,4.95015528 L7,1 Z M7,2.65 L5.60942353,5.61261646 L2.5,6.0876941 L4.75,8.39376941 L4.21884705,11.65 L7,10.1126165 L9.78115295,11.65 L9.25,8.39376941 L11.5,6.0876941 L8.39057647,5.61261646 L7,2.65 Z"></path>
        </g>
        <g id="star" transform="translate(60.000000, 478.000000)" fill="#FFFFFF">
            <polygon points="7 10.9501553 3.29179607 13 4 8.65835921 1 5.58359214 5.14589803 4.95015528 7 1 8.85410197 4.95015528 13 5.58359214 10 8.65835921 10.7082039 13"></polygon>
        </g>
        <g id="Combined-Shape" transform="translate(30.000000, 449.000000)" fill="#0081CB">
            <path d="M8,2 L8,6 L12,6 L12,8 L8,8 L8,12 L6,12 L6,8 L2,8 L2,6 L6,6 L6,2 L8,2 Z"></path>
        </g>
        <g id="Combined-Shape" transform="translate(0.000000, 449.000000)" fill="#686868">
            <path d="M8,2 L8,6 L12,6 L12,8 L8,8 L8,12 L6,12 L6,8 L2,8 L2,6 L6,6 L6,2 L8,2 Z"></path>
        </g>
        <g id="starOutline" transform="translate(0.000000, 507.000000)" fill="#686868">
            <path d="M7,1 L8.85410197,4.95015528 L13,5.58359214 L10,8.65835921 L10.7082039,13 L7,10.9501553 L3.29179607,13 L4,8.65835921 L1,5.58359214 L5.14589803,4.95015528 L7,1 Z M7,2.65 L5.60942353,5.61261646 L2.5,6.0876941 L4.75,8.39376941 L4.21884705,11.65 L7,10.1126165 L9.78115295,11.65 L9.25,8.39376941 L11.5,6.0876941 L8.39057647,5.61261646 L7,2.65 Z"></path>
        </g>
        <g id="star" transform="translate(0.000000, 478.000000)" fill="#686868">
            <polygon points="7 10.9501553 3.29179607 13 4 8.65835921 1 5.58359214 5.14589803 4.95015528 7 1 8.85410197 4.95015528 13 5.58359214 10 8.65835921 10.7082039 13"></polygon>
        </g>
        <g id="Group" transform="translate(60.000000, 420.000000)">
            <g transform="translate(2.000000, 2.000000)">
                <circle id="Oval" stroke="#FFFFFF" stroke-width="1.25" cx="5.5" cy="5.5" r="5.5"></circle>
                <path d="M5.30922466,1.93943611 L5.30922466,5.43943611 L7.80922466,5.43943611 L7.80922466,6.43943611 L4.30922466,6.43943611 L4.30922466,1.93943611 L5.30922466,1.93943611 Z" id="Combined-Shape" fill="#FFFFFF" transform="translate(6.059225, 4.189436) rotate(-26.000000) translate(-6.059225, -4.189436) "></path>
            </g>
        </g>
        <g id="Group" transform="translate(30.000000, 420.000000)">
            <g transform="translate(2.000000, 2.000000)">
                <circle id="Oval" stroke="#0081CB" stroke-width="1.25" cx="5.5" cy="5.5" r="5.5"></circle>
                <path d="M5.30922466,1.93943611 L5.30922466,5.43943611 L7.80922466,5.43943611 L7.80922466,6.43943611 L4.30922466,6.43943611 L4.30922466,1.93943611 L5.30922466,1.93943611 Z" id="Combined-Shape" fill="#0081CB" transform="translate(6.059225, 4.189436) rotate(-26.000000) translate(-6.059225, -4.189436) "></path>
            </g>
        </g>
        <g id="Group" transform="translate(0.000000, 420.000000)">
            <g transform="translate(2.000000, 2.000000)">
                <circle id="Oval" stroke="#686868" stroke-width="1.25" cx="5.5" cy="5.5" r="5.5"></circle>
                <path d="M5.30922466,1.93943611 L5.30922466,5.43943611 L7.80922466,5.43943611 L7.80922466,6.43943611 L4.30922466,6.43943611 L4.30922466,1.93943611 L5.30922466,1.93943611 Z" id="Combined-Shape" fill="#686868" transform="translate(6.059225, 4.189436) rotate(-26.000000) translate(-6.059225, -4.189436) "></path>
            </g>
        </g>
        <g id="Combined-Shape" transform="translate(60.000000, 390.000000)" fill="#FFFFFF">
            <path d="M4.03553391,10.0355339 L4.03553391,5.03553391 L5.03553391,5.03553391 L5.03553391,9.03553391 L9.03553391,9.03553391 L9.03553391,10.0355339 L4.03553391,10.0355339 Z" transform="translate(6.535534, 7.535534) rotate(225.000000) translate(-6.535534, -7.535534) "></path>
        </g>
        <g id="Combined-Shape" transform="translate(30.000000, 390.000000)" fill="#0081CB">
            <path d="M4.03553391,10.0355339 L4.03553391,5.03553391 L5.03553391,5.03553391 L5.03453391,9.03553391 L9.03553391,9.03553391 L9.03553391,10.0355339 L4.03553391,10.0355339 Z" transform="translate(6.535534, 7.535534) rotate(225.000000) translate(-6.535534, -7.535534) "></path>
        </g>
        <g id="Combined-Shape" transform="translate(0.000000, 390.000000)" fill="#686868">
            <path d="M4.03553391,10.0355339 L4.03553391,5.03553391 L5.03553391,5.03553391 L5.03453391,9.03553391 L9.03553391,9.03553391 L9.03553391,10.0355339 L4.03553391,10.0355339 Z" transform="translate(6.535534, 7.535534) rotate(225.000000) translate(-6.535534, -7.535534) "></path>
        </g>
        <g id="Combined-Shape" transform="translate(60.000000, 360.000000)" fill="#FFFFFF">
            <path d="M6.03553391,10.0355339 L6.03553391,5.03553391 L7.03553391,5.03553391 L7.03453391,9.03553391 L11.0355339,9.03553391 L11.0355339,10.0355339 L6.03553391,10.0355339 Z" transform="translate(8.535534, 7.535534) rotate(45.000000) translate(-8.535534, -7.535534) "></path>
        </g>
        <g id="Combined-Shape" transform="translate(30.000000, 360.000000)" fill="#0081CB">
            <path d="M6.03553391,10.0355339 L6.03553391,5.03553391 L7.03553391,5.03553391 L7.03453391,9.03553391 L11.0355339,9.03553391 L11.0355339,10.0355339 L6.03553391,10.0355339 Z" transform="translate(8.535534, 7.535534) rotate(45.000000) translate(-8.535534, -7.535534) "></path>
        </g>
        <g id="Combined-Shape" transform="translate(0.000000, 360.000000)" fill="#686868">
            <path d="M6.03553391,10.0355339 L6.03553391,5.03553391 L7.03553391,5.03553391 L7.03453391,9.03553391 L11.0355339,9.03553391 L11.0355339,10.0355339 L6.03553391,10.0355339 Z" transform="translate(8.535534, 7.535534) rotate(45.000000) translate(-8.535534, -7.535534) "></path>
        </g>
        <g id="Combined-Shape" transform="translate(60.000000, 330.000000)" fill="#FFFFFF">
            <path d="M4.03553391,9.03553391 L4.03553391,4.03553391 L5.03553391,4.03553391 L5.03453391,8.03553391 L9.03553391,8.03553391 L9.03553391,9.03553391 L4.03553391,9.03553391 Z" transform="translate(6.535534, 6.535534) rotate(-45.000000) translate(-6.535534, -6.535534) "></path>
        </g>
        <g id="Combined-Shape" transform="translate(30.000000, 330.000000)" fill="#0081CB">
            <path d="M4.03553391,9.03553391 L4.03553391,4.03553391 L5.03553391,4.03553391 L5.03453391,8.03553391 L9.03553391,8.03553391 L9.03553391,9.03553391 L4.03553391,9.03553391 Z" transform="translate(6.535534, 6.535534) rotate(-45.000000) translate(-6.535534, -6.535534) "></path>
        </g>
        <g id="Combined-Shape" transform="translate(0.000000, 330.000000)" fill="#686868">
            <path d="M4.03553391,4.03553391 L5.03553391,4.03553391 L5.03553391,8.03553391 L9.03553391,8.03553391 L9.03553391,9.03553391 L4.03553391,9.03553391 L4.03553391,4.03553391 Z" transform="translate(6.535534, 6.535534) rotate(-45.000000) translate(-6.535534, -6.535534) "></path>
        </g>
        <g id="Combined-Shape" transform="translate(60.000000, 300.000000)" fill="#FFFFFF">
            <path d="M2.24264069,10.2426407 L2.24264069,4.24264069 L3.24264069,4.24264069 L3.24164069,9.24264069 L8.24264069,9.24264069 L8.24264069,10.2426407 L2.24264069,10.2426407 Z" transform="translate(5.242641, 7.242641) rotate(225.000000) translate(-5.242641, -7.242641) "></path>
        </g>
        <g id="Combined-Shape" transform="translate(30.000000, 300.000000)" fill="#0081CB">
            <path d="M2.24264069,4.24264069 L3.24264069,4.24264069 L3.24164069,9.24264069 L8.24264069,9.24264069 L8.24264069,10.2426407 L2.24264069,10.2426407 L2.24264069,4.24264069 Z" transform="translate(5.242641, 7.242641) rotate(225.000000) translate(-5.242641, -7.242641) "></path>
        </g>
        <g id="Combined-Shape" transform="translate(0.000000, 300.000000)" fill="#686868">
            <path d="M2.24264069,4.24264069 L3.24264069,4.24264069 L3.24164069,9.24264069 L8.24264069,9.24264069 L8.24264069,10.2426407 L2.24264069,10.2426407 L2.24264069,4.24264069 Z" transform="translate(5.242641, 7.242641) rotate(225.000000) translate(-5.242641, -7.242641) "></path>
        </g>
        <g id="Group" transform="translate(60.000000, 270.000000)">
            <g transform="translate(8.242641, 7.242641) rotate(45.000000) translate(-8.242641, -7.242641) translate(5.242641, 4.242641)"></g>
            <path d="M5.24264069,4.24264069 L6.24264069,4.24264069 L6.24164069,9.24264069 L11.2426407,9.24264069 L11.2426407,10.2426407 L5.24264069,10.2426407 L5.24264069,4.24264069 Z" id="Combined-Shape" fill="#FFFFFF" transform="translate(8.242641, 7.242641) rotate(45.000000) translate(-8.242641, -7.242641) "></path>
        </g>
        <g id="Combined-Shape" transform="translate(30.000000, 270.000000)" fill="#0081CB">
            <path d="M5.24264069,10.2426407 L5.24264069,4.24264069 L6.24264069,4.24264069 L6.24164069,9.24264069 L11.2426407,9.24264069 L11.2426407,10.2426407 L5.24264069,10.2426407 Z" transform="translate(8.242641, 7.242641) rotate(45.000000) translate(-8.242641, -7.242641) "></path>
        </g>
        <g id="Combined-Shape" transform="translate(0.000000, 270.000000)" fill="#686868">
            <path d="M5.24264069,10.2426407 L5.24264069,4.24264069 L6.24264069,4.24264069 L6.24164069,9.24264069 L11.2426407,9.24264069 L11.2426407,10.2426407 L5.24264069,10.2426407 Z" transform="translate(8.242641, 7.242641) rotate(45.000000) translate(-8.242641, -7.242641) "></path>
        </g>
        <g id="Combined-Shape" transform="translate(60.000000, 240.000000)" fill="#FFFFFF">
            <path d="M4.24264069,9.24264069 L4.24264069,3.24264069 L5.24264069,3.24264069 L5.24164069,8.24264069 L10.2426407,8.24264069 L10.2426407,9.24264069 L4.24264069,9.24264069 Z" transform="translate(7.242641, 6.242641) rotate(-45.000000) translate(-7.242641, -6.242641) "></path>
        </g>
        <g id="Combined-Shape" transform="translate(30.000000, 240.000000)" fill="#0081CB">
            <path d="M5.24264069,9.24264069 L5.24264069,3.24264069 L6.24264069,3.24264069 L6.24264069,8.24264069 L11.2426407,8.24264069 L11.2426407,9.24264069 L5.24264069,9.24264069 Z" transform="translate(8.242641, 6.242641) rotate(-45.000000) translate(-8.242641, -6.242641) "></path>
        </g>
        <g id="Combined-Shape" transform="translate(0.000000, 240.000000)" fill="#686868">
            <path d="M4.24264069,3.24264069 L5.24264069,3.24264069 L5.24264069,8.24264069 L10.2426407,8.24264069 L10.2426407,9.24264069 L4.24264069,9.24264069 L4.24264069,3.24264069 Z" transform="translate(7.242641, 6.242641) rotate(-45.000000) translate(-7.242641, -6.242641) "></path>
        </g>
        <g id="Combined-Shape" transform="translate(60.000000, 210.000000)" fill="#FFFFFF">
            <path d="M1.65685425,11.6568542 L1.65685425,3.65685425 L2.65685425,3.65685425 L2.65685425,10.6568542 L9.65685425,10.6568542 L9.65685425,11.6568542 L1.65685425,11.6568542 Z" transform="translate(5.656854, 7.656854) rotate(225.000000) translate(-5.656854, -7.656854) "></path>
        </g>
        <g id="Combined-Shape" transform="translate(30.000000, 210.000000)" fill="#0081CB">
            <path d="M2.65685425,3.65685425 L2.65685425,10.6558542 L9.65685425,10.6568542 L9.65685425,11.6568542 L2.65685425,11.6558542 L2.65685425,11.6568542 L1.65685425,11.6568542 L1.65685425,3.65685425 L2.65685425,3.65685425 Z" transform="translate(5.656854, 7.656854) rotate(225.000000) translate(-5.656854, -7.656854) "></path>
        </g>
        <g id="Combined-Shape" transform="translate(0.000000, 210.000000)" fill="#686868">
            <path d="M1.65685425,11.6568542 L1.65685425,3.65685425 L2.65685425,3.65685425 L2.65585425,10.6568542 L9.65685425,10.6568542 L9.65685425,11.6568542 L1.65685425,11.6568542 Z" transform="translate(5.656854, 7.656854) rotate(225.000000) translate(-5.656854, -7.656854) "></path>
        </g>
        <g id="Path" transform="translate(60.000000, 180.000000)" fill="#FFFFFF">
            <polygon points="10.363961 2.70710678 5.41492067 7.65614714 10.363961 12.6066017 9.65685425 13.3137085 4 7.65685425 9.65685425 2"></polygon>
        </g>
        <g id="Combined-Shape" transform="translate(30.000000, 180.000000)" fill="#0081CB">
            <path d="M6.65685425,3.65685425 L6.65685425,10.6558542 L13.6568542,10.6568542 L13.6568542,11.6568542 L6.65685425,11.6558542 L6.65685425,11.6568542 L5.65685425,11.6568542 L5.65685425,3.65685425 L6.65685425,3.65685425 Z" transform="translate(9.656854, 7.656854) rotate(45.000000) translate(-9.656854, -7.656854) "></path>
        </g>
        <g id="Combined-Shape" transform="translate(0.000000, 180.000000)" fill="#686868">
            <path d="M5.65685425,11.6568542 L5.65685425,3.65685425 L6.65685425,3.65685425 L6.65685425,10.6568542 L13.6568542,10.6568542 L13.6568542,11.6568542 L5.65685425,11.6568542 Z" transform="translate(9.656854, 7.656854) rotate(45.000000) translate(-9.656854, -7.656854) "></path>
        </g>
        <g id="Combined-Shape" transform="translate(60.000000, 150.000000)" fill="#FFFFFF">
            <path d="M4.65685425,1.65685425 L4.65585425,8.65585425 L11.6568542,8.65685425 L11.6568542,9.65685425 L4.65585425,9.65585425 L4.65685425,9.65685425 L3.65685425,9.65685425 L3.65685425,1.65685425 L4.65685425,1.65685425 Z" transform="translate(7.656854, 5.656854) rotate(-45.000000) translate(-7.656854, -5.656854) "></path>
        </g>
        <g id="Combined-Shape" transform="translate(30.000000, 150.000000)" fill="#0081CB">
            <path d="M3.65685425,1.65685425 L4.65685425,1.65685425 L4.65585425,8.65685425 L11.6568542,8.65685425 L11.6568542,9.65685425 L3.65685425,9.65685425 L3.65685425,1.65685425 Z" transform="translate(7.656854, 5.656854) rotate(-45.000000) translate(-7.656854, -5.656854) "></path>
        </g>
        <g id="Combined-Shape" transform="translate(0.000000, 150.000000)" fill="#686868">
            <path d="M3.65685425,9.65685425 L3.65685425,1.65685425 L4.65685425,1.65685425 L4.65585425,8.65685425 L11.6568542,8.65685425 L11.6568542,9.65685425 L3.65685425,9.65685425 Z" transform="translate(7.656854, 5.656854) rotate(-45.000000) translate(-7.656854, -5.656854) "></path>
        </g>
        <g id="Oval" transform="translate(60.000000, 120.000000)" fill="#FFFFFF">
            <circle cx="6" cy="8" r="3"></circle>
        </g>
        <g id="Oval" transform="translate(30.000000, 120.000000)" fill="#0081CB">
            <circle cx="6" cy="8" r="3"></circle>
        </g>
        <g id="Oval" transform="translate(0.000000, 120.000000)" fill="#686868">
            <circle cx="6" cy="8" r="3"></circle>
        </g>
        <g id="Triangle" transform="translate(60.000000, 90.000000)" fill="#FFFFFF">
            <polygon transform="translate(6.500000, 5.000000) scale(1, -1) translate(-6.500000, -5.000000) " points="6.5 3 10 7 3 7"></polygon>
        </g>
        <g id="Triangle" transform="translate(30.000000, 90.000000)" fill="#0081CB">
            <polygon transform="translate(6.500000, 5.000000) scale(1, -1) translate(-6.500000, -5.000000) " points="6.5 3 10 7 3 7"></polygon>
        </g>
        <g id="Triangle" transform="translate(0.000000, 90.000000)" fill="#686868">
            <polygon transform="translate(6.500000, 5.000000) scale(1, -1) translate(-6.500000, -5.000000) " points="6.5 3 10 7 3 7"></polygon>
        </g>
        <g id="Combined-Shape" transform="translate(60.000000, 60.000000)" fill="#FFFFFF">
            <path d="M7.94974747,2 L9.36396103,3.41421356 L7.596,5.182 L9.36396103,6.94974747 L7.94974747,8.36396103 L6.182,6.596 L4.41421356,8.36396103 L3,6.94974747 L4.768,5.182 L3,3.41421356 L4.41421356,2 L6.182,3.768 L7.94974747,2 Z"></path>
        </g>
        <g id="Combined-Shape" transform="translate(30.000000, 60.000000)" fill="#0081CB">
            <path d="M7.94974747,2 L9.36396103,3.41421356 L7.596,5.182 L9.36396103,6.94974747 L7.94974747,8.36396103 L6.182,6.596 L4.41421356,8.36396103 L3,6.94974747 L4.768,5.182 L3,3.41421356 L4.41421356,2 L6.182,3.768 L7.94974747,2 Z"></path>
        </g>
        <g id="Combined-Shape" transform="translate(0.000000, 60.000000)" fill="#686868">
            <path d="M7.94974747,2 L9.36396103,3.41421356 L7.596,5.182 L9.36396103,6.94974747 L7.94974747,8.36396103 L6.182,6.596 L4.41421356,8.36396103 L3,6.94974747 L4.768,5.182 L3,3.41421356 L4.41421356,2 L6.182,3.768 L7.94974747,2 Z"></path>
        </g>
        <g id="Combined-Shape" transform="translate(60.000000, 30.000000)" fill="#FFFFFF">
            <path d="M7,12 C7.55228475,12 8,12.4477153 8,13 C8,13.5522847 7.55228475,14 7,14 C6.44771525,14 6,13.5522847 6,13 C6,12.4477153 6.44771525,12 7,12 Z M4,12 C4.55228475,12 5,12.4477153 5,13 C5,13.5522847 4.55228475,14 4,14 C3.44771525,14 3,13.5522847 3,13 C3,12.4477153 3.44771525,12 4,12 Z M7,9 C7.55228475,9 8,9.44771525 8,10 C8,10.5522847 7.55228475,11 7,11 C6.44771525,11 6,10.5522847 6,10 C6,9.44771525 6.44771525,9 7,9 Z M4,9 C4.55228475,9 5,9.44771525 5,10 C5,10.5522847 4.55228475,11 4,11 C3.44771525,11 3,10.5522847 3,10 C3,9.44771525 3.44771525,9 4,9 Z M7,6 C7.55228475,6 8,6.44771525 8,7 C8,7.55228475 7.55228475,8 7,8 C6.44771525,8 6,7.55228475 6,7 C6,6.44771525 6.44771525,6 7,6 Z M4,6 C4.55228475,6 5,6.44771525 5,7 C5,7.55228475 4.55228475,8 4,8 C3.44771525,8 3,7.55228475 3,7 C3,6.44771525 3.44771525,6 4,6 Z M7,3 C7.55228475,3 8,3.44771525 8,4 C8,4.55228475 7.55228475,5 7,5 C6.44771525,5 6,4.55228475 6,4 C6,3.44771525 6.44771525,3 7,3 Z M4,3 C4.55228475,3 5,3.44771525 5,4 C5,4.55228475 4.55228475,5 4,5 C3.44771525,5 3,4.55228475 3,4 C3,3.44771525 3.44771525,3 4,3 Z"></path>
        </g>
        <g id="Combined-Shape" transform="translate(30.000000, 30.000000)" fill="#0081CB">
            <path d="M7,12 C7.55228475,12 8,12.4477153 8,13 C8,13.5522847 7.55228475,14 7,14 C6.44771525,14 6,13.5522847 6,13 C6,12.4477153 6.44771525,12 7,12 Z M4,12 C4.55228475,12 5,12.4477153 5,13 C5,13.5522847 4.55228475,14 4,14 C3.44771525,14 3,13.5522847 3,13 C3,12.4477153 3.44771525,12 4,12 Z M7,9 C7.55228475,9 8,9.44771525 8,10 C8,10.5522847 7.55228475,11 7,11 C6.44771525,11 6,10.5522847 6,10 C6,9.44771525 6.44771525,9 7,9 Z M4,9 C4.55228475,9 5,9.44771525 5,10 C5,10.5522847 4.55228475,11 4,11 C3.44771525,11 3,10.5522847 3,10 C3,9.44771525 3.44771525,9 4,9 Z M7,6 C7.55228475,6 8,6.44771525 8,7 C8,7.55228475 7.55228475,8 7,8 C6.44771525,8 6,7.55228475 6,7 C6,6.44771525 6.44771525,6 7,6 Z M4,6 C4.55228475,6 5,6.44771525 5,7 C5,7.55228475 4.55228475,8 4,8 C3.44771525,8 3,7.55228475 3,7 C3,6.44771525 3.44771525,6 4,6 Z M7,3 C7.55228475,3 8,3.44771525 8,4 C8,4.55228475 7.55228475,5 7,5 C6.44771525,5 6,4.55228475 6,4 C6,3.44771525 6.44771525,3 7,3 Z M4,3 C4.55228475,3 5,3.44771525 5,4 C5,4.55228475 4.55228475,5 4,5 C3.44771525,5 3,4.55228475 3,4 C3,3.44771525 3.44771525,3 4,3 Z"></path>
        </g>
        <g id="Combined-Shape" transform="translate(0.000000, 30.000000)" fill="#686868">
            <path d="M7,12 C7.55228475,12 8,12.4477153 8,13 C8,13.5522847 7.55228475,14 7,14 C6.44771525,14 6,13.5522847 6,13 C6,12.4477153 6.44771525,12 7,12 Z M4,12 C4.55228475,12 5,12.4477153 5,13 C5,13.5522847 4.55228475,14 4,14 C3.44771525,14 3,13.5522847 3,13 C3,12.4477153 3.44771525,12 4,12 Z M7,9 C7.55228475,9 8,9.44771525 8,10 C8,10.5522847 7.55228475,11 7,11 C6.44771525,11 6,10.5522847 6,10 C6,9.44771525 6.44771525,9 7,9 Z M4,9 C4.55228475,9 5,9.44771525 5,10 C5,10.5522847 4.55228475,11 4,11 C3.44771525,11 3,10.5522847 3,10 C3,9.44771525 3.44771525,9 4,9 Z M7,6 C7.55228475,6 8,6.44771525 8,7 C8,7.55228475 7.55228475,8 7,8 C6.44771525,8 6,7.55228475 6,7 C6,6.44771525 6.44771525,6 7,6 Z M4,6 C4.55228475,6 5,6.44771525 5,7 C5,7.55228475 4.55228475,8 4,8 C3.44771525,8 3,7.55228475 3,7 C3,6.44771525 3.44771525,6 4,6 Z M7,3 C7.55228475,3 8,3.44771525 8,4 C8,4.55228475 7.55228475,5 7,5 C6.44771525,5 6,4.55228475 6,4 C6,3.44771525 6.44771525,3 7,3 Z M4,3 C4.55228475,3 5,3.44771525 5,4 C5,4.55228475 4.55228475,5 4,5 C3.44771525,5 3,4.55228475 3,4 C3,3.44771525 3.44771525,3 4,3 Z"></path>
        </g>
        <g id="Combined-Shape" transform="translate(60.000000, 0.000000)" fill="#FFFFFF">
            <path d="M4.5,11 C5.32842712,11 6,11.6715729 6,12.5 C6,13.3284271 5.32842712,14 4.5,14 C3.67157288,14 3,13.3284271 3,12.5 C3,11.6715729 3.67157288,11 4.5,11 Z M4.5,6 C5.32842712,6 6,6.67157288 6,7.5 C6,8.32842712 5.32842712,9 4.5,9 C3.67157288,9 3,8.32842712 3,7.5 C3,6.67157288 3.67157288,6 4.5,6 Z M4.5,1 C5.32842712,1 6,1.67157288 6,2.5 C6,3.32842712 5.32842712,4 4.5,4 C3.67157288,4 3,3.32842712 3,2.5 C3,1.67157288 3.67157288,1 4.5,1 Z"></path>
        </g>
        <g id="Combined-Shape" transform="translate(30.000000, 0.000000)" fill="#0081CB">
            <path d="M4.5,11 C5.32842712,11 6,11.6715729 6,12.5 C6,13.3284271 5.32842712,14 4.5,14 C3.67157288,14 3,13.3284271 3,12.5 C3,11.6715729 3.67157288,11 4.5,11 Z M4.5,6 C5.32842712,6 6,6.67157288 6,7.5 C6,8.32842712 5.32842712,9 4.5,9 C3.67157288,9 3,8.32842712 3,7.5 C3,6.67157288 3.67157288,6 4.5,6 Z M4.5,1 C5.32842712,1 6,1.67157288 6,2.5 C6,3.32842712 5.32842712,4 4.5,4 C3.67157288,4 3,3.32842712 3,2.5 C3,1.67157288 3.67157288,1 4.5,1 Z"></path>
        </g>
        <g id="Combined-Shape" fill="#686868">
            <path d="M4.5,11 C5.32842712,11 6,11.6715729 6,12.5 C6,13.3284271 5.32842712,14 4.5,14 C3.67157288,14 3,13.3284271 3,12.5 C3,11.6715729 3.67157288,11 4.5,11 Z M4.5,6 C5.32842712,6 6,6.67157288 6,7.5 C6,8.32842712 5.32842712,9 4.5,9 C3.67157288,9 3,8.32842712 3,7.5 C3,6.67157288 3.67157288,6 4.5,6 Z M4.5,1 C5.32842712,1 6,1.67157288 6,2.5 C6,3.32842712 5.32842712,4 4.5,4 C3.67157288,4 3,3.32842712 3,2.5 C3,1.67157288 3.67157288,1 4.5,1 Z"></path>
        </g>
        <g id="Combined-Shape" transform="translate(90.000000, 449.000000)" fill="#444444">
            <path d="M8,2 L8,6 L12,6 L12,8 L8,8 L8,12 L6,12 L6,8 L2,8 L2,6 L6,6 L6,2 L8,2 Z"></path>
        </g>
        <g id="Group" transform="translate(90.000000, 420.000000)" fill="#444444">
            <g transform="translate(1.375000, 1.375000)">
                <path d="M6.125,0 C2.74225591,0 0,2.74225591 0,6.125 C0,9.50774409 2.74225591,12.25 6.125,12.25 C9.50774409,12.25 12.25,9.50774409 12.25,6.125 C12.25,2.74225591 9.50774409,0 6.125,0 Z M6.125,1.25 C8.81738816,1.25 11,3.43261184 11,6.125 C11,8.81738816 8.81738816,11 6.125,11 C3.43261184,11 1.25,8.81738816 1.25,6.125 C1.25,3.43261184 3.43261184,1.25 6.125,1.25 Z" id="Oval" fill-rule="nonzero"></path>
                <path d="M5.93422466,2.56443611 L5.93422466,6.06443611 L8.43422466,6.06443611 L8.43422466,7.06443611 L4.93422466,7.06443611 L4.93422466,2.56443611 L5.93422466,2.56443611 Z" id="Combined-Shape" transform="translate(6.684225, 4.814436) rotate(-26.000000) translate(-6.684225, -4.814436) "></path>
            </g>
        </g>
        <g id="Combined-Shape" transform="translate(90.000000, 390.000000)" fill="#444444">
            <path d="M4.03553391,10.0355339 L4.03553391,5.03553391 L5.03553391,5.03553391 L5.03453391,9.03553391 L9.03553391,9.03553391 L9.03553391,10.0355339 L4.03553391,10.0355339 Z" transform="translate(6.535534, 7.535534) rotate(225.000000) translate(-6.535534, -7.535534) "></path>
        </g>
        <g id="Combined-Shape" transform="translate(90.000000, 360.000000)" fill="#444444">
            <path d="M6.03553391,10.0355339 L6.03553391,5.03553391 L7.03553391,5.03553391 L7.03453391,9.03553391 L11.0355339,9.03553391 L11.0355339,10.0355339 L6.03553391,10.0355339 Z" transform="translate(8.535534, 7.535534) rotate(45.000000) translate(-8.535534, -7.535534) "></path>
        </g>
        <g id="Combined-Shape" transform="translate(90.000000, 330.000000)" fill="#444444">
            <path d="M4.03553391,4.03553391 L5.03553391,4.03553391 L5.03553391,8.03553391 L9.03553391,8.03553391 L9.03553391,9.03553391 L4.03553391,9.03553391 L4.03553391,4.03553391 Z" transform="translate(6.535534, 6.535534) rotate(-45.000000) translate(-6.535534, -6.535534) "></path>
        </g>
        <g id="Combined-Shape" transform="translate(90.000000, 300.000000)" fill="#444444">
            <path d="M2.24264069,4.24264069 L3.24264069,4.24264069 L3.24164069,9.24264069 L8.24264069,9.24264069 L8.24264069,10.2426407 L2.24264069,10.2426407 L2.24264069,4.24264069 Z" transform="translate(5.242641, 7.242641) rotate(225.000000) translate(-5.242641, -7.242641) "></path>
        </g>
        <g id="Combined-Shape" transform="translate(90.000000, 270.000000)" fill="#444444">
            <path d="M5.24264069,10.2426407 L5.24264069,4.24264069 L6.24264069,4.24264069 L6.24164069,9.24264069 L11.2426407,9.24264069 L11.2426407,10.2426407 L5.24264069,10.2426407 Z" transform="translate(8.242641, 7.242641) rotate(45.000000) translate(-8.242641, -7.242641) "></path>
        </g>
        <g id="Combined-Shape" transform="translate(90.000000, 240.000000)" fill="#444444">
            <path d="M4.24264069,3.24264069 L5.24264069,3.24264069 L5.24264069,8.24264069 L10.2426407,8.24264069 L10.2426407,9.24264069 L4.24264069,9.24264069 L4.24264069,3.24264069 Z" transform="translate(7.242641, 6.242641) rotate(-45.000000) translate(-7.242641, -6.242641) "></path>
        </g>
        <g id="Combined-Shape" transform="translate(90.000000, 210.000000)" fill="#444444">
            <path d="M1.65685425,11.6568542 L1.65685425,3.65685425 L2.65685425,3.65685425 L2.65585425,10.6568542 L9.65685425,10.6568542 L9.65685425,11.6568542 L1.65685425,11.6568542 Z" transform="translate(5.656854, 7.656854) rotate(225.000000) translate(-5.656854, -7.656854) "></path>
        </g>
        <g id="Combined-Shape" transform="translate(90.000000, 180.000000)" fill="#444444">
            <path d="M5.65685425,11.6568542 L5.65685425,3.65685425 L6.65685425,3.65685425 L6.65685425,10.6568542 L13.6568542,10.6568542 L13.6568542,11.6568542 L5.65685425,11.6568542 Z" transform="translate(9.656854, 7.656854) rotate(45.000000) translate(-9.656854, -7.656854) "></path>
        </g>
        <g id="Combined-Shape" transform="translate(90.000000, 150.000000)" fill="#444444">
            <path d="M3.65685425,9.65685425 L3.65685425,1.65685425 L4.65685425,1.65685425 L4.65585425,8.65685425 L11.6568542,8.65685425 L11.6568542,9.65685425 L3.65685425,9.65685425 Z" transform="translate(7.656854, 5.656854) rotate(-45.000000) translate(-7.656854, -5.656854) "></path>
        </g>
        <g id="Oval" transform="translate(90.000000, 120.000000)" fill="#444444">
            <circle cx="6" cy="8" r="3"></circle>
        </g>
        <g id="Triangle" transform="translate(90.000000, 90.000000)" fill="#444444">
            <polygon transform="translate(6.500000, 5.000000) scale(1, -1) translate(-6.500000, -5.000000) " points="6.5 3 10 7 3 7"></polygon>
        </g>
        <g id="Combined-Shape" transform="translate(90.000000, 60.000000)" fill="#444444">
            <path d="M7.94974747,2 L9.36396103,3.41421356 L7.596,5.182 L9.36396103,6.94974747 L7.94974747,8.36396103 L6.182,6.596 L4.41421356,8.36396103 L3,6.94974747 L4.768,5.182 L3,3.41421356 L4.41421356,2 L6.182,3.768 L7.94974747,2 Z"></path>
        </g>
        <g id="Combined-Shape" transform="translate(90.000000, 30.000000)" fill="#444444">
            <path d="M7,12 C7.55228475,12 8,12.4477153 8,13 C8,13.5522847 7.55228475,14 7,14 C6.44771525,14 6,13.5522847 6,13 C6,12.4477153 6.44771525,12 7,12 Z M4,12 C4.55228475,12 5,12.4477153 5,13 C5,13.5522847 4.55228475,14 4,14 C3.44771525,14 3,13.5522847 3,13 C3,12.4477153 3.44771525,12 4,12 Z M7,9 C7.55228475,9 8,9.44771525 8,10 C8,10.5522847 7.55228475,11 7,11 C6.44771525,11 6,10.5522847 6,10 C6,9.44771525 6.44771525,9 7,9 Z M4,9 C4.55228475,9 5,9.44771525 5,10 C5,10.5522847 4.55228475,11 4,11 C3.44771525,11 3,10.5522847 3,10 C3,9.44771525 3.44771525,9 4,9 Z M7,6 C7.55228475,6 8,6.44771525 8,7 C8,7.55228475 7.55228475,8 7,8 C6.44771525,8 6,7.55228475 6,7 C6,6.44771525 6.44771525,6 7,6 Z M4,6 C4.55228475,6 5,6.44771525 5,7 C5,7.55228475 4.55228475,8 4,8 C3.44771525,8 3,7.55228475 3,7 C3,6.44771525 3.44771525,6 4,6 Z M7,3 C7.55228475,3 8,3.44771525 8,4 C8,4.55228475 7.55228475,5 7,5 C6.44771525,5 6,4.55228475 6,4 C6,3.44771525 6.44771525,3 7,3 Z M4,3 C4.55228475,3 5,3.44771525 5,4 C5,4.55228475 4.55228475,5 4,5 C3.44771525,5 3,4.55228475 3,4 C3,3.44771525 3.44771525,3 4,3 Z"></path>
        </g>
        <g id="Combined-Shape" transform="translate(90.000000, 0.000000)" fill="#444444">
            <path d="M4.5,11 C5.32842712,11 6,11.6715729 6,12.5 C6,13.3284271 5.32842712,14 4.5,14 C3.67157288,14 3,13.3284271 3,12.5 C3,11.6715729 3.67157288,11 4.5,11 Z M4.5,6 C5.32842712,6 6,6.67157288 6,7.5 C6,8.32842712 5.32842712,9 4.5,9 C3.67157288,9 3,8.32842712 3,7.5 C3,6.67157288 3.67157288,6 4.5,6 Z M4.5,1 C5.32842712,1 6,1.67157288 6,2.5 C6,3.32842712 5.32842712,4 4.5,4 C3.67157288,4 3,3.32842712 3,2.5 C3,1.67157288 3.67157288,1 4.5,1 Z"></path>
        </g>
        <g id="starOutline" transform="translate(30.000000, 507.000000)" fill="#0081CB">
            <path d="M7,1 L8.85410197,4.95015528 L13,5.58359214 L10,8.65835921 L10.7082039,13 L7,10.9501553 L3.29179607,13 L4,8.65835921 L1,5.58359214 L5.14589803,4.95015528 L7,1 Z M7,2.65 L5.60942353,5.61261646 L2.5,6.0876941 L4.75,8.39376941 L4.21884705,11.65 L7,10.1126165 L9.78115295,11.65 L9.25,8.39376941 L11.5,6.0876941 L8.39057647,5.61261646 L7,2.65 Z"></path>
        </g>
        <g id="star" transform="translate(30.000000, 478.000000)" fill="#0081CB">
            <polygon points="7 10.9501553 3.29179607 13 4 8.65835921 1 5.58359214 5.14589803 4.95015528 7 1 8.85410197 4.95015528 13 5.58359214 10 8.65835921 10.7082039 13"></polygon>
        </g>
        <g id="Combined-Shape" transform="translate(30.000000, 597.000000)" fill="#0F4552">
            <path d="M7.94974747,2 L9.36396103,3.41421356 L7.596,5.182 L9.36396103,6.94974747 L7.94974747,8.36396103 L6.182,6.596 L4.41421356,8.36396103 L3,6.94974747 L4.768,5.182 L3,3.41421356 L4.41421356,2 L6.182,3.768 L7.94974747,2 Z"></path>
        </g>
        <g id="Combined-Shape" transform="translate(30.000000, 568.000000)" fill="#314A04">
            <path d="M7.94974747,2 L9.36396103,3.41421356 L7.596,5.182 L9.36396103,6.94974747 L7.94974747,8.36396103 L6.182,6.596 L4.41421356,8.36396103 L3,6.94974747 L4.768,5.182 L3,3.41421356 L4.41421356,2 L6.182,3.768 L7.94974747,2 Z"></path>
        </g>
        <g id="Combined-Shape" transform="translate(30.000000, 536.000000)" fill="#314A04">
            <path d="M7,12 C7.55228475,12 8,12.4477153 8,13 C8,13.5522847 7.55228475,14 7,14 C6.44771525,14 6,13.5522847 6,13 C6,12.4477153 6.44771525,12 7,12 Z M4,12 C4.55228475,12 5,12.4477153 5,13 C5,13.5522847 4.55228475,14 4,14 C3.44771525,14 3,13.5522847 3,13 C3,12.4477153 3.44771525,12 4,12 Z M7,9 C7.55228475,9 8,9.44771525 8,10 C8,10.5522847 7.55228475,11 7,11 C6.44771525,11 6,10.5522847 6,10 C6,9.44771525 6.44771525,9 7,9 Z M4,9 C4.55228475,9 5,9.44771525 5,10 C5,10.5522847 4.55228475,11 4,11 C3.44771525,11 3,10.5522847 3,10 C3,9.44771525 3.44771525,9 4,9 Z M7,6 C7.55228475,6 8,6.44771525 8,7 C8,7.55228475 7.55228475,8 7,8 C6.44771525,8 6,7.55228475 6,7 C6,6.44771525 6.44771525,6 7,6 Z M4,6 C4.55228475,6 5,6.44771525 5,7 C5,7.55228475 4.55228475,8 4,8 C3.44771525,8 3,7.55228475 3,7 C3,6.44771525 3.44771525,6 4,6 Z M7,3 C7.55228475,3 8,3.44771525 8,4 C8,4.55228475 7.55228475,5 7,5 C6.44771525,5 6,4.55228475 6,4 C6,3.44771525 6.44771525,3 7,3 Z M4,3 C4.55228475,3 5,3.44771525 5,4 C5,4.55228475 4.55228475,5 4,5 C3.44771525,5 3,4.55228475 3,4 C3,3.44771525 3.44771525,3 4,3 Z"></path>
        </g>
    </g>
</svg>