<?xml version="1.0" encoding="UTF-8"?>
<svg width="256px" height="28px" viewBox="0 0 256 28" version="1.1" xmlns="http://www.w3.org/2000/svg" xmlns:xlink="http://www.w3.org/1999/xlink">
    <!-- Generator: Sketch 53.2 (72643) - https://sketchapp.com -->
    <title>pods_summer</title>
    <desc>Created with Sketch.</desc>
    <g id="pods_summer" stroke="none" stroke-width="1" fill="none" fill-rule="evenodd">
        <g id="logo_welcome_pods_summer" fill="#00A9D7">
            <g id="logo_welcome">
                <path d="M103.8,22.4 C102.2,22.4 100.8,22 99.7,21.3 C98.6,20.6 97.7,19.7 97.1,18.5 L98.9,17 C99.6,18 100.3,18.8 101,19.3 C101.8,19.8 102.7,20.1 103.8,20.1 C105,20.1 106,19.7 106.8,18.8 C107.6,17.9 108,16.6 108,14.9 L108,0.4 L110.5,0.4 L110.5,14.9 C110.5,16.2 110.3,17.3 110,18.2 C109.7,19.2 109.2,19.9 108.6,20.6 C107.4,21.8 105.8,22.4 103.8,22.4 Z" id="Path" fill-rule="nonzero"></path>
                <path d="M119.9,22.4 C119.2,22.4 118.4,22.3 117.7,22.1 C117,21.9 116.3,21.6 115.8,21.2 C115.2,20.8 114.8,20.3 114.5,19.7 C114.2,19.1 114,18.4 114,17.6 L114,17.5 C114,16.7 114.2,15.9 114.5,15.3 C114.8,14.7 115.3,14.2 115.9,13.7 C116.5,13.3 117.2,13 118.1,12.7 C118.9,12.5 119.8,12.4 120.9,12.4 C121.9,12.4 122.8,12.5 123.6,12.6 C124.3,12.7 125.1,12.9 125.8,13.1 L125.8,12.6 C125.8,11.2 125.4,10.2 124.6,9.5 C123.8,8.8 122.6,8.4 121.1,8.4 C120.2,8.4 119.3,8.5 118.5,8.7 C117.7,8.9 117,9.2 116.2,9.5 L115.5,7.6 C116.4,7.2 117.3,6.9 118.2,6.6 C119.1,6.4 120.1,6.2 121.3,6.2 C123.6,6.2 125.3,6.8 126.4,7.9 C127.5,9 128.1,10.5 128.1,12.4 L128.1,22.2 L125.8,22.2 L125.8,19.6 C125.2,20.3 124.5,20.9 123.6,21.4 C122.5,22.1 121.3,22.4 119.9,22.4 Z M120.4,20.5 C121.1,20.5 121.8,20.4 122.5,20.2 C123.1,20 123.7,19.7 124.2,19.4 C124.7,19 125.1,18.6 125.3,18.1 C125.6,17.6 125.7,17 125.7,16.4 L125.7,15 C125.1,14.8 124.4,14.7 123.7,14.6 C122.9,14.5 122.1,14.4 121.1,14.4 C119.6,14.4 118.5,14.7 117.7,15.2 C116.9,15.8 116.5,16.5 116.5,17.4 L116.5,17.5 C116.5,18 116.6,18.4 116.8,18.8 C117,19.2 117.3,19.5 117.7,19.8 C118.1,20.1 118.5,20.3 119,20.4 C119.4,20.4 119.9,20.5 120.4,20.5 Z" id="Shape" fill-rule="nonzero"></path>
                <path d="M138,22.4 C136.8,22.4 135.7,22.2 134.5,21.8 C133.3,21.4 132.3,20.8 131.4,20.1 L132.6,18.5 C133.5,19.1 134.4,19.6 135.3,20 C136.2,20.3 137.2,20.5 138.1,20.5 C139.1,20.5 139.9,20.3 140.5,19.8 C141.1,19.4 141.4,18.8 141.4,18 L141.4,18 C141.4,17.6 141.3,17.3 141.1,17 C140.9,16.7 140.6,16.5 140.2,16.3 C139.8,16.1 139.4,15.9 138.9,15.7 C138.4,15.5 137.9,15.4 137.4,15.3 C136.8,15.1 136.2,14.9 135.5,14.7 C134.9,14.5 134.3,14.2 133.8,13.9 C133.3,13.6 132.9,13.2 132.6,12.7 C132.3,12.2 132.1,11.6 132.1,10.9 L132.1,10.8 C132.1,10.1 132.2,9.5 132.5,9 C132.8,8.5 133.1,8 133.6,7.6 C134.1,7.2 134.7,6.9 135.3,6.7 C136,6.5 136.7,6.4 137.5,6.4 C138.5,6.4 139.5,6.6 140.5,6.9 C141.5,7.2 142.4,7.6 143.3,8.1 L142.2,9.8 C141.5,9.3 140.7,9 139.9,8.7 C139.1,8.4 138.3,8.3 137.5,8.3 C136.5,8.3 135.8,8.5 135.2,8.9 C134.6,9.3 134.4,9.9 134.4,10.5 L134.4,10.6 C134.4,11 134.5,11.3 134.7,11.5 C134.9,11.8 135.2,12 135.6,12.2 C136,12.4 136.4,12.6 136.9,12.7 C137.4,12.9 137.9,13 138.5,13.2 C139.1,13.4 139.7,13.6 140.3,13.8 C140.9,14 141.5,14.3 142,14.6 C142.5,14.9 142.9,15.3 143.2,15.8 C143.5,16.3 143.6,16.9 143.6,17.6 L143.6,17.7 C143.6,18.4 143.5,19.1 143.2,19.7 C142.9,20.3 142.5,20.7 142,21.1 C141.5,21.5 140.9,21.8 140.2,22 C139.5,22.3 138.8,22.4 138,22.4 Z" id="Path" fill-rule="nonzero"></path>
                <path d="M147,6.4 L149.4,6.4 L149.4,9.8 C149.7,9.3 150.1,8.9 150.5,8.5 C150.9,8.1 151.3,7.7 151.8,7.4 C152.3,7.1 152.8,6.8 153.4,6.7 C154,6.5 154.7,6.4 155.4,6.4 C156.3,6.4 157.3,6.6 158.2,6.9 C159.1,7.3 159.9,7.8 160.6,8.5 C161.3,9.2 161.9,10 162.3,11 C162.7,12 162.9,13.1 162.9,14.4 L162.9,14.5 C162.9,15.7 162.7,16.9 162.3,17.8 C161.9,18.8 161.3,19.6 160.6,20.3 C159.9,21 159.1,21.5 158.2,21.9 C157.3,22.3 156.4,22.4 155.4,22.4 C154.7,22.4 154,22.3 153.4,22.1 C152.8,21.9 152.2,21.7 151.7,21.4 C151.2,21.1 150.8,20.8 150.4,20.4 C150,20 149.6,19.6 149.3,19.2 L149.3,27.5 L147,27.5 L147,6.4 Z M155,20.3 C155.8,20.3 156.5,20.2 157.2,19.9 C157.9,19.6 158.5,19.2 159,18.7 C159.5,18.2 159.9,17.6 160.2,16.9 C160.5,16.2 160.6,15.3 160.6,14.4 L160.6,14.3 C160.6,13.4 160.5,12.6 160.2,11.8 C159.9,11.1 159.5,10.5 159,9.9 C158.5,9.4 157.9,9 157.2,8.7 C156.5,8.4 155.8,8.3 155.1,8.3 C154.4,8.3 153.7,8.4 153,8.7 C152.3,9 151.7,9.4 151.2,9.9 C150.7,10.4 150.2,11 149.9,11.8 C149.6,12.5 149.4,13.3 149.4,14.2 L149.4,14.3 C149.4,15.2 149.6,16 149.9,16.7 C150.2,17.4 150.6,18 151.2,18.6 C151.7,19.1 152.4,19.5 153,19.8 C153.6,20.1 154.3,20.3 155,20.3 Z" id="Shape" fill-rule="nonzero"></path>
                <path d="M168.4,15.3 C168.5,16.1 168.7,16.8 169,17.5 C169.3,18.1 169.7,18.7 170.3,19.1 C170.8,19.5 171.4,19.9 172,20.1 C172.6,20.3 173.3,20.4 174,20.4 C175.1,20.4 176.1,20.2 176.8,19.8 C177.6,19.4 178.3,18.9 179,18.2 L180.5,19.5 C179.7,20.4 178.8,21.1 177.8,21.6 C176.8,22.1 175.5,22.4 174,22.4 C172.9,22.4 171.9,22.2 170.9,21.8 C169.9,21.4 169.1,20.9 168.4,20.2 C167.7,19.5 167.1,18.7 166.7,17.7 C166.3,16.7 166.1,15.6 166.1,14.4 C166.1,13.3 166.3,12.3 166.7,11.3 C167.1,10.3 167.6,9.5 168.3,8.8 C169,8.1 169.8,7.5 170.7,7.1 C171.6,6.7 172.6,6.5 173.8,6.5 C175,6.5 176,6.7 176.9,7.1 C177.8,7.5 178.6,8.1 179.2,8.8 C179.8,9.5 180.3,10.4 180.6,11.4 C180.9,12.4 181.1,13.4 181.1,14.6 C181.1,14.7 181.1,14.8 181.1,14.9 C181.1,15 181.1,15.2 181.1,15.4 L168.4,15.4 L168.4,15.3 Z M178.6,13.4 C178.5,12.7 178.4,12.1 178.1,11.4 C177.9,10.8 177.5,10.2 177.1,9.8 C176.7,9.3 176.2,9 175.6,8.7 C175,8.4 174.3,8.3 173.5,8.3 C172.8,8.3 172.2,8.4 171.6,8.7 C171,9 170.5,9.3 170,9.8 C169.6,10.3 169.2,10.8 168.9,11.4 C168.6,12 168.4,12.7 168.3,13.4 L178.6,13.4 Z" id="Shape" fill-rule="nonzero"></path>
                <path d="M185,6.7 L187.1,6.7 L187.1,10.8 C187.4,10.2 187.7,9.6 188.1,9 C188.5,8.5 188.9,8 189.4,7.6 C189.9,7.2 190.4,6.9 191,6.7 C191.6,6.5 192.2,6.4 192.9,6.4 L192.9,8.9 L192.7,8.9 C191.9,8.9 191.2,9.1 190.5,9.4 C189.8,9.7 189.2,10.2 188.7,10.8 C188.2,11.4 187.8,12.2 187.5,13.1 C187.2,14 187.1,15 187.1,16.2 L187.1,22.5 L185,22.5 L185,6.7 Z" id="Path" fill-rule="nonzero"></path>
                <path d="M202.2,22.4 C201,22.4 199.9,22.2 198.7,21.8 C197.5,21.4 196.5,20.8 195.6,20.1 L196.8,18.5 C197.7,19.1 198.6,19.6 199.5,20 C200.4,20.3 201.4,20.5 202.3,20.5 C203.3,20.5 204.1,20.3 204.7,19.8 C205.3,19.4 205.6,18.8 205.6,18 L205.6,18 C205.6,17.6 205.5,17.3 205.3,17 C205.1,16.7 204.8,16.5 204.4,16.3 C204,16.1 203.6,15.9 203.1,15.7 C202.6,15.5 202.1,15.4 201.6,15.3 C201,15.1 200.4,14.9 199.7,14.7 C199.1,14.5 198.5,14.2 198,13.9 C197.5,13.6 197.1,13.2 196.8,12.7 C196.5,12.2 196.3,11.6 196.3,10.9 L196.3,10.8 C196.3,10.1 196.4,9.5 196.7,9 C197,8.5 197.3,8 197.8,7.6 C198.3,7.2 198.9,6.9 199.5,6.7 C200.2,6.5 200.9,6.4 201.7,6.4 C202.7,6.4 203.7,6.6 204.7,6.9 C205.7,7.2 206.6,7.6 207.5,8.1 L206.4,9.8 C205.7,9.3 204.9,9 204.1,8.7 C203.3,8.4 202.5,8.3 201.7,8.3 C200.7,8.3 200,8.5 199.4,8.9 C198.8,9.3 198.6,9.9 198.6,10.5 L198.6,10.6 C198.6,11 198.7,11.3 198.9,11.5 C199.1,11.8 199.4,12 199.8,12.2 C200.2,12.4 200.6,12.6 201.1,12.7 C201.6,12.9 202.1,13 202.7,13.2 C203.3,13.4 203.9,13.6 204.5,13.8 C205.1,14 205.7,14.3 206.2,14.6 C206.7,14.9 207.1,15.3 207.4,15.8 C207.7,16.3 207.9,16.9 207.9,17.6 L207.9,17.7 C207.9,18.4 207.7,19.1 207.4,19.7 C207.1,20.3 206.7,20.7 206.2,21.1 C205.7,21.5 205.1,21.8 204.4,22 C203.7,22.3 203,22.4 202.2,22.4 Z" id="Path" fill-rule="nonzero"></path>
                <path d="M218.7,22.4 C217.5,22.4 216.4,22.2 215.4,21.8 C214.4,21.4 213.5,20.8 212.8,20.1 C212.1,19.4 211.5,18.5 211.1,17.6 C210.7,16.6 210.5,15.6 210.5,14.5 L210.5,14.4 C210.5,13.3 210.7,12.3 211.1,11.3 C211.5,10.3 212.1,9.5 212.8,8.8 C213.5,8.1 214.4,7.5 215.5,7.1 C216.5,6.7 217.6,6.5 218.9,6.5 C220.1,6.5 221.2,6.7 222.2,7.1 C223.2,7.5 224.1,8.1 224.9,8.8 C225.6,9.5 226.2,10.4 226.6,11.3 C227,12.3 227.2,13.3 227.2,14.4 L227.2,14.5 C227.2,15.6 227,16.6 226.6,17.6 C226.2,18.6 225.6,19.4 224.8,20.1 C224.1,20.8 223.2,21.4 222.1,21.8 C221.1,22.2 219.9,22.4 218.7,22.4 Z M218.8,20.4 C219.7,20.4 220.5,20.2 221.2,19.9 C221.9,19.6 222.5,19.2 223.1,18.6 C223.6,18.1 224,17.4 224.3,16.7 C224.6,16 224.7,15.2 224.7,14.4 L224.7,14.3 C224.7,13.5 224.6,12.7 224.3,12 C224,11.3 223.6,10.6 223,10.1 C222.5,9.6 221.8,9.1 221.1,8.8 C220.4,8.5 219.6,8.3 218.7,8.3 C217.8,8.3 217,8.5 216.3,8.8 C215.6,9.1 215,9.5 214.5,10.1 C214,10.6 213.6,11.3 213.3,12 C213,12.7 212.9,13.5 212.9,14.3 L212.9,14.4 C212.9,15.2 213,16 213.3,16.7 C213.6,17.4 214,18 214.5,18.6 C215,19.1 215.7,19.6 216.4,19.9 C217.2,20.2 218,20.4 218.8,20.4 Z" id="Shape" fill-rule="nonzero"></path>
                <path d="M231.2,8.4 L229,8.4 L229,6.4 L231.2,6.4 L231.2,5.6 C231.2,3.8 231.7,2.5 232.6,1.6 C233.4,0.8 234.6,0.4 236,0.4 C236.6,0.4 237,0.4 237.4,0.5 C237.8,0.6 238.2,0.7 238.6,0.8 L238.6,2.8 C238.2,2.7 237.8,2.6 237.4,2.5 C237,2.4 236.7,2.4 236.3,2.4 C234.4,2.4 233.5,3.5 233.5,5.7 L233.5,6.4 L238.6,6.4 L238.6,8.4 L233.5,8.4 L233.5,22.4 L231.1,22.4 L231.1,8.4 L231.2,8.4 Z" id="Path" fill-rule="nonzero"></path>
                <path d="M247.2,22.4 C246.6,22.4 246,22.3 245.4,22.1 C244.8,21.9 244.4,21.7 244,21.3 C243.6,20.9 243.3,20.4 243.1,19.8 C242.9,19.2 242.8,18.5 242.8,17.6 L242.8,8.3 L240.6,8.3 L240.6,6.3 L242.8,6.3 L242.8,2.3 L245.2,2.3 L245.2,6.3 L250.3,6.3 L250.3,8.3 L245.2,8.3 L245.2,17.2 C245.2,18.2 245.4,18.9 245.9,19.4 C246.4,19.8 247,20 247.9,20 C248.3,20 248.7,20 249.1,19.9 C249.5,19.8 249.8,19.7 250.3,19.5 L250.3,21.6 C249.9,21.8 249.4,22 249,22.1 C248.3,22.3 247.8,22.4 247.2,22.4 Z" id="Path" fill-rule="nonzero"></path>
                <polygon id="Path" fill-rule="nonzero" points="10.6 3.2 10.6 22.3 7.7 22.3 7.7 3.2 0 3.2 0 0.4 18.3 0.4 18.3 3.2"></polygon>
                <rect id="Rectangle" fill-rule="nonzero" x="20.8" y="0.4" width="2.9" height="21.9"></rect>
                <path d="M36.2,13 L31.9,13 L31.9,19.9 L36.7,19.9 C40,19.9 41.6,18.7 41.6,16.5 C41.6,13.9 39.3,13 36.2,13 M36.5,3.4 L32,3.4 L32,10.3 L36,10.3 C39.2,10.3 40.9,8.9 40.9,6.7 C40.9,4.6 39.3,3.4 36.5,3.4 M44.6,16.4 C44.6,20.1 42.1,22.6 36.5,22.6 L29,22.6 L29,0.6 L36.3,0.6 C41.6,0.6 43.9,3 43.9,6.4 C43.9,8.7 42.6,10.3 40.1,11.2 C43,12 44.6,13.9 44.6,16.4" id="Shape" fill-rule="nonzero"></path>
                <path d="M64.1,4.7 C62.2,3.5 60.4,2.9 58.1,2.9 C53.3,2.9 50.1,6.1 50.1,11.3 C50.1,16.5 53.3,19.8 58.2,19.8 C60.6,19.8 62.9,18.9 64.4,17.8 L64.9,20.7 C63.1,21.8 60.6,22.4 58.1,22.4 C51.7,22.4 47.1,18.1 47.1,11.5 C47.1,4.8 51.7,0.4 58.1,0.4 C60.6,0.4 63.3,1.1 65.1,2.1 L64.1,4.7 Z" id="Path" fill-rule="nonzero"></path>
                <g id="Group" transform="translate(65.000000, 0.000000)" fill-rule="nonzero">
                    <path d="M18,1.9 C17.7,1.7 17.3,1.5 17,1.4 C14.1,6.7 8.9,12.9 2,16.5 C2.4,17.4 2.9,18.1 3.5,18.8 C9.5,14.9 14.9,8.4 18,1.9" id="Path"></path>
                    <path d="M16.7,1.3 C15.3,0.7 13.7,0.4 11.9,0.4 C5.5,0.4 0.9,5.2 0.9,11.4 C0.9,12.5 1,13.5 1.2,14.4 C7.9,11.9 13.8,6.2 16.7,1.3" id="Path"></path>
                    <path d="M18.3,2.1 C14.9,10.1 10.8,15.7 5.5,20.6 C7.3,21.8 9.5,22.4 12,22.4 C18.4,22.4 23,17.6 23,11.3 C23,7.2 21.2,3.9 18.3,2.1" id="Path"></path>
                </g>
                <g id="Group" transform="translate(88.000000, 0.000000)" fill-rule="nonzero">
                    <path d="M1.2,2.1 C1.2,1.2 2,0.4 2.9,0.4 C3.8,0.4 4.6,1.2 4.6,2.1 C4.6,3 3.8,3.8 2.9,3.8 C1.9,3.8 1.2,3 1.2,2.1 M0.8,2.1 C0.8,3.2 1.7,4.2 2.9,4.2 C4.1,4.2 5,3.3 5,2.1 C5,0.9 4.1,0 2.9,0 C1.7,0 0.8,0.9 0.8,2.1" id="Shape"></path>
                    <path d="M2.60009766,2.18847656 L2.60009766,3 L2.36132812,3 L2.36132812,1.04003906 L2.86962891,1.04003906 C2.95556684,1.04003906 3.02856415,1.04321286 3.08862305,1.04956055 C3.14868194,1.05590823 3.20361303,1.0659179 3.25341797,1.07958984 C3.3901374,1.1166994 3.49462854,1.17993119 3.56689453,1.26928711 C3.63916052,1.35864302 3.67529297,1.47021417 3.67529297,1.60400391 C3.67529297,1.68310586 3.66259778,1.75390594 3.63720703,1.81640625 C3.61181628,1.87890656 3.5761721,1.93310524 3.53027344,1.97900391 C3.48437477,2.02490257 3.42944368,2.06249985 3.36547852,2.09179688 C3.30151335,2.1210939 3.23046914,2.14257806 3.15234375,2.15625 L3.15234375,2.16210938 L3.79248047,3 L3.4921875,3 L2.88867188,2.18847656 L2.60009766,2.18847656 Z M2.60009766,1.25537109 L2.60009766,1.97314453 L2.8359375,1.97314453 C2.90918005,1.97314453 2.97167943,1.97070315 3.0234375,1.96582031 C3.07519557,1.96093748 3.12158183,1.9521485 3.16259766,1.93945312 C3.24560588,1.91406237 3.30957009,1.87353543 3.35449219,1.81787109 C3.39941429,1.76220675 3.421875,1.68945357 3.421875,1.59960938 C3.42089843,1.51562458 3.39941427,1.4479983 3.35742188,1.39672852 C3.31542948,1.34545873 3.25732459,1.30859386 3.18310547,1.28613281 C3.14794904,1.27539057 3.10595728,1.26757815 3.05712891,1.26269531 C3.00830054,1.25781248 2.94628944,1.25537109 2.87109375,1.25537109 L2.60009766,1.25537109 Z" id="R"></path>
                </g>
                <g id="Registaterd-TM-2" transform="translate(251.000000, 0.000000)" fill-rule="nonzero">
                    <path d="M1.2,2.1 C1.2,1.2 2,0.4 2.9,0.4 C3.8,0.4 4.6,1.2 4.6,2.1 C4.6,3 3.8,3.8 2.9,3.8 C1.9,3.8 1.2,3 1.2,2.1 M0.8,2.1 C0.8,3.2 1.7,4.2 2.9,4.2 C4.1,4.2 5,3.3 5,2.1 C5,0.9 4.1,0 2.9,0 C1.7,0 0.8,0.9 0.8,2.1" id="Shape"></path>
                    <path d="M2.60009766,2.18847656 L2.60009766,3 L2.36132812,3 L2.36132812,1.04003906 L2.86962891,1.04003906 C2.95556684,1.04003906 3.02856415,1.04321286 3.08862305,1.04956055 C3.14868194,1.05590823 3.20361303,1.0659179 3.25341797,1.07958984 C3.3901374,1.1166994 3.49462854,1.17993119 3.56689453,1.26928711 C3.63916052,1.35864302 3.67529297,1.47021417 3.67529297,1.60400391 C3.67529297,1.68310586 3.66259778,1.75390594 3.63720703,1.81640625 C3.61181628,1.87890656 3.5761721,1.93310524 3.53027344,1.97900391 C3.48437477,2.02490257 3.42944368,2.06249985 3.36547852,2.09179688 C3.30151335,2.1210939 3.23046914,2.14257806 3.15234375,2.15625 L3.15234375,2.16210938 L3.79248047,3 L3.4921875,3 L2.88867188,2.18847656 L2.60009766,2.18847656 Z M2.60009766,1.25537109 L2.60009766,1.97314453 L2.8359375,1.97314453 C2.90918005,1.97314453 2.97167943,1.97070315 3.0234375,1.96582031 C3.07519557,1.96093748 3.12158183,1.9521485 3.16259766,1.93945312 C3.24560588,1.91406237 3.30957009,1.87353543 3.35449219,1.81787109 C3.39941429,1.76220675 3.421875,1.68945357 3.421875,1.59960938 C3.42089843,1.51562458 3.39941427,1.4479983 3.35742188,1.39672852 C3.31542948,1.34545873 3.25732459,1.30859386 3.18310547,1.28613281 C3.14794904,1.27539057 3.10595728,1.26757815 3.05712891,1.26269531 C3.00830054,1.25781248 2.94628944,1.25537109 2.87109375,1.25537109 L2.60009766,1.25537109 Z" id="R"></path>
                </g>
            </g>
        </g>
    </g>
</svg>